<?xml version="1.0" encoding="UTF-8" standalone="no"?>
<svg
   xmlns:dc="http://purl.org/dc/elements/1.1/"
   xmlns:cc="http://creativecommons.org/ns#"
   xmlns:rdf="http://www.w3.org/1999/02/22-rdf-syntax-ns#"
   xmlns:svg="http://www.w3.org/2000/svg"
   xmlns="http://www.w3.org/2000/svg"
   id="svg8"
   version="1.1"
   viewBox="0 0 45.09911 45.098793"
   height="45.098793mm"
   width="45.09911mm">
  <defs
     id="defs2">
    <clipPath
       id="clipPath2444"
       clipPathUnits="userSpaceOnUse">
      <path
         id="path2442"
         d="m 87.298,2047.988 c -12.367,0 -22.391,-10.024 -22.391,-22.389 v 0 -83.06 c 0,-12.367 10.024,-22.39 22.391,-22.39 v 0 h 83.058 c 12.367,0 22.391,10.023 22.391,22.39 v 0 83.06 c 0,12.365 -10.024,22.389 -22.391,22.389 v 0 z" />
    </clipPath>
  </defs>
  <metadata
     id="metadata5">
    <rdf:RDF>
      <cc:Work
         rdf:about="">
        <dc:format>image/svg+xml</dc:format>
        <dc:type
           rdf:resource="http://purl.org/dc/dcmitype/StillImage" />
        <dc:title></dc:title>
      </cc:Work>
    </rdf:RDF>
  </metadata>
  <g
     transform="translate(-74.968302,-90.754175)"
     id="layer1">
    <g
       id="g5657"
       transform="matrix(0.35277777,0,0,-0.35277777,52.07052,813.23885)">
      <g
         id="g2434"
         transform="translate(192.7471,1942.5391)">
        <path
           d="m 0,0 c 0,-12.367 -10.023,-22.39 -22.391,-22.39 h -83.058 c -12.367,0 -22.391,10.023 -22.391,22.39 v 83.059 c 0,12.366 10.024,22.39 22.391,22.39 h 83.058 C -10.023,105.449 0,95.425 0,83.059 Z"
           style="fill:#56b4ac;fill-opacity:1;fill-rule:nonzero;stroke:none"
           id="path2436" />
      </g>
      <g
         id="g2438">
        <g
           id="g2440"
           clip-path="url(#clipPath2444)">
          <g
             id="g2446"
             transform="translate(126.2305,1952.7026)">
            <path
               d="m 0,0 c 5.791,0.603 4.339,0.641 11.387,-0.559 21.48,-1.889 21.292,-22.636 23.64,-35.344 -23.156,-0.172 -33.443,-0.038 -56.6,-0.21 0,15.655 3.858,34.36 21.573,36.113"
               style="fill:#5a4339;fill-opacity:1;fill-rule:evenodd;stroke:none"
               id="path2448" />
          </g>
          <g
             id="g2450"
             transform="translate(117.4795,1949.8862)">
            <path
               d="m 0,0 c -0.146,-4.369 8.566,-18.098 15.363,-15.097 7.703,3.4 12.838,9.018 12.838,15.905 C 19.182,3.442 9.616,5.632 0,0"
               style="fill:#fad7ab;fill-opacity:1;fill-rule:evenodd;stroke:none"
               id="path2452" />
          </g>
          <g
             id="g2454"
             transform="translate(137.7021,1981.2109)">
            <path
               d="m 0,0 -13.896,1.325 c -0.068,-0.586 1.951,-28.956 2.276,-32.372 0.354,-3.309 2.502,-4.154 4.795,-4.199 2.351,-0.045 4.844,0.793 5.074,4.639 z"
               style="fill:#fad7ab;fill-opacity:1;fill-rule:evenodd;stroke:none"
               id="path2456" />
          </g>
          <g
             id="g2458"
             transform="translate(159.7324,1976.5811)">
            <path
               d="M 0,0 C 0.257,2.79 -0.256,8.941 0,11.73 1.057,12.465 6.124,13.264 7.452,9.769 9.087,4.935 5.386,1.354 3.991,0.296 2.484,-0.26 0.545,-0.169 0,0"
               style="fill:#fad7ab;fill-opacity:1;fill-rule:evenodd;stroke:none"
               id="path2460" />
          </g>
          <g
             id="g2462"
             transform="translate(96.8267,2009.0303)">
            <path
               d="m 0,0 63.287,-0.075 0.589,-22.154 C 64.497,-45.396 43.138,-54.366 32.483,-55.128 21.126,-55.945 -4.264,-38.299 -2.11,-18.965 Z"
               style="fill:#fad7ab;fill-opacity:1;fill-rule:evenodd;stroke:none"
               id="path2464" />
          </g>
          <g
             id="g2466"
             transform="translate(131.2539,1969.0317)">
            <path
               d="m 0,0 c -0.892,0 -1.272,-0.473 -1.272,-0.473 0,0 -0.381,0.473 -1.271,0.473 -0.894,0 -3.794,-2.124 -4.764,-2.961 0.42,-0.201 1.491,-0.747 1.909,-1.274 0.418,-0.526 1.745,-2.508 4.126,-2.508 2.379,0 3.709,1.982 4.126,2.508 0.417,0.527 1.49,1.073 1.909,1.274 C 3.791,-2.124 0.89,0 0,0"
               style="fill:#eb7f3a;fill-opacity:1;fill-rule:evenodd;stroke:none"
               id="path2468" />
          </g>
          <g
             id="g2470"
             transform="translate(149.0791,2028.4976)">
            <path
               d="m 0,0 c 9.039,-19.94 -17.062,-27.189 -30.685,-31.853 -17.538,-6.003 -20.632,-17.633 -11.06,-32.635 4.464,-6.997 5.172,-3.522 -3.318,-1.939 -8.499,1.584 -15.829,23.043 -16.516,31.475 C -64.439,0.185 -34.367,17.245 -4.568,2.4 -3.135,1.687 -0.624,1.375 0,0"
               style="fill:#000000;fill-opacity:1;fill-rule:evenodd;stroke:none"
               id="path2472" />
          </g>
          <g
             id="g2474"
             transform="translate(121.3691,2036.583)">
            <path
               d="M 0,0 C 48.145,2.17 55.465,-30.537 47.134,-44.587 39.262,-57.865 34.473,-60.82 27.632,-61.48 c 0.052,-0.162 20.938,28.94 -12.197,28.94 h -1.236 z"
               style="fill:#000000;fill-opacity:1;fill-rule:evenodd;stroke:none"
               id="path2476" />
          </g>
          <g
             id="g2478"
             transform="translate(97.981,1977.021)">
            <path
               d="m 0,0 c -0.285,3.046 -1.689,9.764 -1.971,12.81 -1.173,0.802 -6.794,1.674 -8.266,-2.142 C -12.054,5.389 -7.945,1.476 -6.399,0.323 -4.728,-0.287 -0.604,-0.187 0,0"
               style="fill:#fad7ab;fill-opacity:1;fill-rule:evenodd;stroke:none"
               id="path2480" />
          </g>
          <g
             id="g2482"
             transform="translate(105.4126,1929.4355)">
            <path
               d="m 0,0 c -0.247,-1.712 -1.728,-11.899 -1.099,-12.976 h 7.597 c -0.738,1.26 0.639,7.947 0.639,9.862 C 2.726,-3.114 2.256,-2.039 0,0"
               style="fill:#fad7ab;fill-opacity:1;fill-rule:evenodd;stroke:none"
               id="path2484" />
          </g>
          <g
             id="g2486"
             transform="translate(159.7051,1929.6318)">
            <path
               d="m 0,0 c 0.246,-1.71 1.727,-11.897 1.097,-12.975 h -7.595 c 0.736,1.26 -0.64,7.947 -0.64,9.862 4.41,0 4.88,1.075 7.138,3.113"
               style="fill:#fad7ab;fill-opacity:1;fill-rule:evenodd;stroke:none"
               id="path2488" />
          </g>
        </g>
      </g>
    </g>
  </g>
</svg>
