<?xml version="1.0" encoding="UTF-8" standalone="no"?>
<svg
   xmlns:dc="http://purl.org/dc/elements/1.1/"
   xmlns:cc="http://creativecommons.org/ns#"
   xmlns:rdf="http://www.w3.org/1999/02/22-rdf-syntax-ns#"
   xmlns:svg="http://www.w3.org/2000/svg"
   xmlns="http://www.w3.org/2000/svg"
   xmlns:xlink="http://www.w3.org/1999/xlink"
   id="svg8"
   version="1.1"
   viewBox="0 0 55.456665 55.456665"
   height="55.456665mm"
   width="55.456665mm">
  <defs
     id="defs2">
    <clipPath
       id="clipPath2444"
       clipPathUnits="userSpaceOnUse">
      <path
         id="path2442"
         d="m 87.298,2047.988 c -12.367,0 -22.391,-10.024 -22.391,-22.389 v 0 -83.06 c 0,-12.367 10.024,-22.39 22.391,-22.39 v 0 h 83.058 c 12.367,0 22.391,10.023 22.391,22.39 v 0 83.06 c 0,12.365 -10.024,22.389 -22.391,22.389 v 0 z" />
    </clipPath>
    <clipPath
       id="SVGID_14_">
      <use
         xlink:href="#SVGID_13_"
         style="overflow:visible"
         id="use1204"
         x="0"
         y="0"
         width="100%"
         height="100%" />
    </clipPath>
    <path
       id="SVGID_13_"
       d="m 694.5,450.6 -28.3,-1.2 c -0.1,0.5 2.2,16.4 2.9,19.5 1.2,4.2 6.1,37.5 11.8,37.8 6.1,0.3 9.8,-33.2 10.9,-39.5 z" />
    <clipPath
       id="SVGID_8_">
      <use
         xlink:href="#SVGID_7_"
         style="overflow:visible"
         id="use1110"
         x="0"
         y="0"
         width="100%"
         height="100%" />
    </clipPath>
    <clipPath
       id="SVGID_10_">
      <use
         xlink:href="#SVGID_9_"
         style="overflow:visible"
         id="use1120"
         x="0"
         y="0"
         width="100%"
         height="100%" />
    </clipPath>
    <path
       id="SVGID_7_"
       d="m 537.3,480.6 c 0,19.8 -16.1,35.9 -35.9,35.9 H 368 c -19.9,0 -35.9,-16.1 -35.9,-35.9 V 347.3 c 0,-19.9 16.1,-35.9 35.9,-35.9 h 133.3 c 19.9,0 35.9,16.1 35.9,35.9 v 133.3 z" />
    <path
       id="SVGID_9_"
       d="M 448.4,448.5 429.6,447 c -0.1,0.6 1,32.1 1.4,35.9 1.6,10.6 15.8,13.4 17.2,-1.7 z" />
    <clipPath
       id="SVGID_22_">
      <use
         xlink:href="#SVGID_21_"
         style="overflow:visible"
         id="use1352"
         x="0"
         y="0"
         width="100%"
         height="100%" />
    </clipPath>
    <path
       id="SVGID_21_"
       d="m 1031.6,480.6 c 0,19.9 -16.1,35.9 -35.9,35.9 H 862.4 c -19.9,0 -35.9,-16.1 -35.9,-35.9 V 347.3 c 0,-19.9 16.1,-35.9 35.9,-35.9 h 133.3 c 19.9,0 35.9,16.1 35.9,35.9 z" />
    <clipPath
       id="SVGID_16_">
      <use
         height="100%"
         width="100%"
         y="0"
         x="0"
         id="use9459"
         style="overflow:visible"
         xlink:href="#SVGID_15_" />
    </clipPath>
    <path
       d="m 290.2,497 c 0,20.3 -16.4,36.7 -36.7,36.7 H 117.3 C 97,533.7 80.6,517.3 80.6,497 V 360.8 c 0,-20.3 16.4,-36.7 36.7,-36.7 h 136.2 c 20.3,0 36.7,16.4 36.7,36.7 z"
       id="SVGID_15_" />
    <clipPath
       id="SVGID_26_">
      <use
         xlink:href="#SVGID_25_"
         style="overflow:visible"
         id="use9668"
         x="0"
         y="0"
         width="100%"
         height="100%" />
    </clipPath>
    <path
       id="SVGID_25_"
       d="m 535,497 c 0,20.3 -16.4,36.7 -36.7,36.7 H 362.2 c -20.3,0 -36.7,-16.4 -36.7,-36.7 V 360.8 c 0,-20.3 16.4,-36.7 36.7,-36.7 h 136.2 c 20.3,0 36.7,16.4 36.7,36.7 V 497 Z" />
    <clipPath
       id="SVGID_2_">
      <use
         xlink:href="#SVGID_1_"
         style="overflow:visible"
         id="use9226"
         x="0"
         y="0"
         width="100%"
         height="100%" />
    </clipPath>
    <clipPath
       id="SVGID_4_">
      <use
         xlink:href="#SVGID_3_"
         style="overflow:visible"
         id="use9232"
         x="0"
         y="0"
         width="100%"
         height="100%" />
    </clipPath>
    <clipPath
       id="clipPath14027">
      <use
         xlink:href="#SVGID_3_"
         style="overflow:visible"
         id="use14025"
         x="0"
         y="0"
         width="100%"
         height="100%" />
    </clipPath>
    <clipPath
       id="clipPath14031">
      <use
         xlink:href="#SVGID_3_"
         style="overflow:visible"
         id="use14029"
         x="0"
         y="0"
         width="100%"
         height="100%" />
    </clipPath>
    <clipPath
       id="clipPath14035">
      <use
         xlink:href="#SVGID_3_"
         style="overflow:visible"
         id="use14033"
         x="0"
         y="0"
         width="100%"
         height="100%" />
    </clipPath>
    <clipPath
       id="clipPath14039">
      <use
         xlink:href="#SVGID_3_"
         style="overflow:visible"
         id="use14037"
         x="0"
         y="0"
         width="100%"
         height="100%" />
    </clipPath>
    <clipPath
       id="clipPath14043">
      <use
         xlink:href="#SVGID_3_"
         style="overflow:visible"
         id="use14041"
         x="0"
         y="0"
         width="100%"
         height="100%" />
    </clipPath>
    <clipPath
       id="clipPath14047">
      <use
         xlink:href="#SVGID_3_"
         style="overflow:visible"
         id="use14045"
         x="0"
         y="0"
         width="100%"
         height="100%" />
    </clipPath>
    <path
       id="SVGID_1_"
       d="m 784.9,497 c 0,20.3 -16.4,36.7 -36.7,36.7 H 612.1 c -20.3,0 -36.7,-16.4 -36.7,-36.7 V 360.8 c 0,-20.3 16.4,-36.7 36.7,-36.7 h 136.2 c 20.3,0 36.7,16.4 36.7,36.7 V 497 Z" />
    <path
       id="SVGID_3_"
       d="m 662.6,470.7 c 10.9,-1 23.8,-1.6 37.1,0.4 40.5,3.2 43.1,43.5 47.5,65.1 -45.4,0.3 -89,0.6 -131.1,0.9 0,-26.5 13.1,-63.4 46.5,-66.4 z" />
    <clipPath
       id="SVGID_36_">
      <use
         height="100%"
         width="100%"
         y="0"
         x="0"
         id="use9875"
         style="overflow:visible"
         xlink:href="#SVGID_35_" />
    </clipPath>
    <path
       d="m 1036.4,497 c 0,20.3 -16.4,36.7 -36.7,36.7 H 863.6 c -20.3,0 -36.7,-16.4 -36.7,-36.7 V 360.8 c 0,-20.3 16.4,-36.7 36.7,-36.7 h 136.2 c 20.3,0 36.7,16.4 36.7,36.7 V 497 Z"
       id="SVGID_35_" />
    <clipPath
       id="SVGID_56_">
      <use
         xlink:href="#SVGID_55_"
         style="overflow:visible"
         id="use10272"
         x="0"
         y="0"
         width="100%"
         height="100%" />
    </clipPath>
    <path
       id="SVGID_55_"
       d="m 1282.1,497 c 0,20.3 -16.4,36.7 -36.7,36.7 h -136.2 c -20.3,0 -36.7,-16.4 -36.7,-36.7 V 360.8 c 0,-20.3 16.4,-36.7 36.7,-36.7 h 136.2 c 20.3,0 36.7,16.4 36.7,36.7 z" />
    <clipPath
       id="SVGID_46_">
      <use
         xlink:href="#SVGID_45_"
         style="overflow:visible"
         id="use10074"
         x="0"
         y="0"
         width="100%"
         height="100%" />
    </clipPath>
    <clipPath
       id="SVGID_48_">
      <use
         xlink:href="#SVGID_47_"
         style="overflow:visible"
         id="use10084"
         x="0"
         y="0"
         width="100%"
         height="100%" />
    </clipPath>
    <clipPath
       id="clipPath14969">
      <use
         xlink:href="#SVGID_47_"
         style="overflow:visible"
         id="use14967"
         x="0"
         y="0"
         width="100%"
         height="100%" />
    </clipPath>
    <clipPath
       id="clipPath14973">
      <use
         xlink:href="#SVGID_47_"
         style="overflow:visible"
         id="use14971"
         x="0"
         y="0"
         width="100%"
         height="100%" />
    </clipPath>
    <clipPath
       id="clipPath14977">
      <use
         xlink:href="#SVGID_47_"
         style="overflow:visible"
         id="use14975"
         x="0"
         y="0"
         width="100%"
         height="100%" />
    </clipPath>
    <clipPath
       id="clipPath14981">
      <use
         xlink:href="#SVGID_47_"
         style="overflow:visible"
         id="use14979"
         x="0"
         y="0"
         width="100%"
         height="100%" />
    </clipPath>
    <clipPath
       id="clipPath14985">
      <use
         xlink:href="#SVGID_47_"
         style="overflow:visible"
         id="use14983"
         x="0"
         y="0"
         width="100%"
         height="100%" />
    </clipPath>
    <clipPath
       id="clipPath14989">
      <use
         xlink:href="#SVGID_47_"
         style="overflow:visible"
         id="use14987"
         x="0"
         y="0"
         width="100%"
         height="100%" />
    </clipPath>
    <clipPath
       id="clipPath14993">
      <use
         xlink:href="#SVGID_47_"
         style="overflow:visible"
         id="use14991"
         x="0"
         y="0"
         width="100%"
         height="100%" />
    </clipPath>
    <clipPath
       id="clipPath14997">
      <use
         xlink:href="#SVGID_47_"
         style="overflow:visible"
         id="use14995"
         x="0"
         y="0"
         width="100%"
         height="100%" />
    </clipPath>
    <clipPath
       id="clipPath15001">
      <use
         xlink:href="#SVGID_47_"
         style="overflow:visible"
         id="use14999"
         x="0"
         y="0"
         width="100%"
         height="100%" />
    </clipPath>
    <clipPath
       id="clipPath15005">
      <use
         xlink:href="#SVGID_47_"
         style="overflow:visible"
         id="use15003"
         x="0"
         y="0"
         width="100%"
         height="100%" />
    </clipPath>
    <clipPath
       id="clipPath15009">
      <use
         xlink:href="#SVGID_47_"
         style="overflow:visible"
         id="use15007"
         x="0"
         y="0"
         width="100%"
         height="100%" />
    </clipPath>
    <clipPath
       id="clipPath15013">
      <use
         xlink:href="#SVGID_47_"
         style="overflow:visible"
         id="use15011"
         x="0"
         y="0"
         width="100%"
         height="100%" />
    </clipPath>
    <clipPath
       id="clipPath15017">
      <use
         xlink:href="#SVGID_47_"
         style="overflow:visible"
         id="use15015"
         x="0"
         y="0"
         width="100%"
         height="100%" />
    </clipPath>
    <clipPath
       id="clipPath15021">
      <use
         xlink:href="#SVGID_47_"
         style="overflow:visible"
         id="use15019"
         x="0"
         y="0"
         width="100%"
         height="100%" />
    </clipPath>
    <clipPath
       id="clipPath15025">
      <use
         xlink:href="#SVGID_47_"
         style="overflow:visible"
         id="use15023"
         x="0"
         y="0"
         width="100%"
         height="100%" />
    </clipPath>
    <clipPath
       id="clipPath15029">
      <use
         xlink:href="#SVGID_47_"
         style="overflow:visible"
         id="use15027"
         x="0"
         y="0"
         width="100%"
         height="100%" />
    </clipPath>
    <clipPath
       id="clipPath15033">
      <use
         xlink:href="#SVGID_47_"
         style="overflow:visible"
         id="use15031"
         x="0"
         y="0"
         width="100%"
         height="100%" />
    </clipPath>
    <clipPath
       id="clipPath15037">
      <use
         xlink:href="#SVGID_47_"
         style="overflow:visible"
         id="use15035"
         x="0"
         y="0"
         width="100%"
         height="100%" />
    </clipPath>
    <clipPath
       id="clipPath15041">
      <use
         xlink:href="#SVGID_47_"
         style="overflow:visible"
         id="use15039"
         x="0"
         y="0"
         width="100%"
         height="100%" />
    </clipPath>
    <clipPath
       id="clipPath15045">
      <use
         xlink:href="#SVGID_47_"
         style="overflow:visible"
         id="use15043"
         x="0"
         y="0"
         width="100%"
         height="100%" />
    </clipPath>
    <clipPath
       id="clipPath15049">
      <use
         xlink:href="#SVGID_47_"
         style="overflow:visible"
         id="use15047"
         x="0"
         y="0"
         width="100%"
         height="100%" />
    </clipPath>
    <path
       id="SVGID_45_"
       d="m 1525.5,497 c 0,20.3 -16.4,36.7 -36.7,36.7 h -136.2 c -20.3,0 -36.7,-16.4 -36.7,-36.7 V 360.8 c 0,-20.3 16.4,-36.7 36.7,-36.7 h 136.2 c 20.3,0 36.7,16.4 36.7,36.7 z" />
    <path
       id="SVGID_47_"
       d="m 1409.8,478.1 c 9.8,-0.9 21.2,-1.4 33.1,0.4 36.2,2.8 38.5,37.8 42.5,56.5 -39.1,0.3 -78.1,0.5 -117.2,0.8 0,-23.1 11.7,-55.1 41.6,-57.7 z" />
    <clipPath
       id="SVGID_18_">
      <use
         xlink:href="#SVGID_17_"
         style="overflow:visible"
         id="use9486"
         x="0"
         y="0"
         width="100%"
         height="100%" />
    </clipPath>
    <path
       id="SVGID_17_"
       d="m 290.2,734.8 c 0,20.3 -16.4,36.7 -36.7,36.7 H 117.3 C 97,771.5 80.6,755.1 80.6,734.8 V 598.6 c 0,-20.3 16.4,-36.7 36.7,-36.7 h 136.2 c 20.3,0 36.7,16.4 36.7,36.7 z" />
    <clipPath
       id="SVGID_28_">
      <use
         xlink:href="#SVGID_27_"
         style="overflow:visible"
         id="use9716"
         x="0"
         y="0"
         width="100%"
         height="100%" />
    </clipPath>
    <path
       id="SVGID_27_"
       d="m 535,734.8 c 0,20.3 -16.4,36.7 -36.7,36.7 H 362.2 c -20.3,0 -36.7,-16.4 -36.7,-36.7 V 598.6 c 0,-20.3 16.4,-36.7 36.7,-36.7 h 136.2 c 20.3,0 36.7,16.4 36.7,36.7 v 136.2 z" />
    <clipPath
       id="SVGID_6_">
      <use
         xlink:href="#SVGID_5_"
         style="overflow:visible"
         id="use9271"
         x="0"
         y="0"
         width="100%"
         height="100%" />
    </clipPath>
    <path
       id="SVGID_5_"
       d="m 784.9,734.8 c 0,20.3 -16.4,36.7 -36.7,36.7 H 612.1 c -20.3,0 -36.7,-16.4 -36.7,-36.7 V 598.6 c 0,-20.3 16.4,-36.7 36.7,-36.7 h 136.2 c 20.3,0 36.7,16.4 36.7,36.7 v 136.2 z" />
    <clipPath
       id="SVGID_38_">
      <use
         height="100%"
         width="100%"
         y="0"
         x="0"
         id="use9903"
         style="overflow:visible"
         xlink:href="#SVGID_37_" />
    </clipPath>
    <path
       d="m 1036.4,734.8 c 0,20.3 -16.4,36.7 -36.7,36.7 H 863.6 c -20.3,0 -36.7,-16.4 -36.7,-36.7 V 598.6 c 0,-20.3 16.4,-36.7 36.7,-36.7 h 136.2 c 20.3,0 36.7,16.4 36.7,36.7 v 136.2 z"
       id="SVGID_37_" />
    <clipPath
       id="SVGID_58_">
      <use
         xlink:href="#SVGID_57_"
         style="overflow:visible"
         id="use10309"
         x="0"
         y="0"
         width="100%"
         height="100%" />
    </clipPath>
    <path
       id="SVGID_57_"
       d="m 1282.1,734.8 c 0,20.3 -16.4,36.7 -36.7,36.7 h -136.2 c -20.3,0 -36.7,-16.4 -36.7,-36.7 V 598.6 c 0,-20.3 16.4,-36.7 36.7,-36.7 h 136.2 c 20.3,0 36.7,16.4 36.7,36.7 z" />
    <clipPath
       id="SVGID_44_">
      <use
         xlink:href="#SVGID_43_"
         style="overflow:visible"
         id="use10042"
         x="0"
         y="0"
         width="100%"
         height="100%" />
    </clipPath>
    <path
       id="SVGID_43_"
       d="m 1525.5,734.8 c 0,20.3 -16.4,36.7 -36.7,36.7 h -136.2 c -20.3,0 -36.7,-16.4 -36.7,-36.7 V 598.6 c 0,-20.3 16.4,-36.7 36.7,-36.7 h 136.2 c 20.3,0 36.7,16.4 36.7,36.7 z" />
  </defs>
  <metadata
     id="metadata5">
    <rdf:RDF>
      <cc:Work
         rdf:about="">
        <dc:format>image/svg+xml</dc:format>
        <dc:type
           rdf:resource="http://purl.org/dc/dcmitype/StillImage" />
        <dc:title></dc:title>
      </cc:Work>
    </rdf:RDF>
  </metadata>
  <g
     transform="translate(-212.64802,-112.04992)"
     id="layer1">
    <g
       id="g10067"
       transform="matrix(0.26458333,0,0,0.26458333,-135.51718,-36.619452)">
      <path
         class="st101"
         d="m 1525.5,734.8 c 0,20.3 -16.4,36.7 -36.7,36.7 h -136.2 c -20.3,0 -36.7,-16.4 -36.7,-36.7 V 598.6 c 0,-20.3 16.4,-36.7 36.7,-36.7 h 136.2 c 20.3,0 36.7,16.4 36.7,36.7 z"
         id="path10037"
         style="fill:#edd4d6" />
      <g
         id="g10065">
        <defs
           id="defs10040">
          <path
             id="path16055"
             d="m 1525.5,734.8 c 0,20.3 -16.4,36.7 -36.7,36.7 h -136.2 c -20.3,0 -36.7,-16.4 -36.7,-36.7 V 598.6 c 0,-20.3 16.4,-36.7 36.7,-36.7 h 136.2 c 20.3,0 36.7,16.4 36.7,36.7 z" />
        </defs>
        <clipPath
           id="clipPath16014">
          <use
             xlink:href="#SVGID_43_"
             style="overflow:visible"
             id="use16012"
             x="0"
             y="0"
             width="100%"
             height="100%" />
        </clipPath>
        <g
           class="st102"
           clip-path="url(#SVGID_44_)"
           id="g10063">
          <g
             id="g10047">
            <path
               class="st103"
               d="m 1436.6,719.3 68.5,54.8 -12.5,3.8 c 0,0 -144.5,2.8 -145.2,1 -0.8,-2.3 -10.1,-8.1 -10.1,-8.1 l 62.6,-52.1 z"
               id="path10045"
               style="fill:#2b415d" />
          </g>
          <g
             id="g10059">
            <path
               class="st7"
               d="m 1376.5,652.9 c -0.8,0.4 -7.3,-3.6 -6,9.3 1.2,12.9 5.2,27 9.9,22 3,10.3 16.8,34.1 16.8,34.1 l 20.6,8.1 14.5,-8.9 14.5,-23.4 5.2,-11.7 c 0,0 5.6,6.9 6.5,-4.8 0.8,-11.7 6.9,-28.2 -0.8,-25.4 0.4,-11.3 -0.8,-25 -0.8,-27 0,-2 -9.3,-23.3 -9.3,-23.3 -2.8,-1.7 -53.2,5.2 -53.2,5.2 l -4.8,6 c 0,0 -11.7,4.8 -11.7,6 0,1.2 -3.2,18.5 -3.2,18.5 z"
               id="path10049"
               style="fill:#f0d6ac" />
            <path
               class="st104"
               d="m 1436.7,665.8 c 7.9,0 14.4,-5.9 15,-13.5 0.6,-0.1 1.5,-0.5 1.5,-1.3 0,-0.8 -0.9,-1.2 -1.5,-1.4 -0.7,-7.5 -7.2,-13.4 -15,-13.4 -7.3,0 -13.4,5.1 -14.8,11.8 -3.6,-1.3 -7.6,-0.5 -9.1,-0.1 -1.4,-6.7 -7.5,-11.8 -14.8,-11.8 -7.9,0 -14.3,5.9 -15,13.4 -0.6,0.2 -1.5,0.6 -1.5,1.4 0,0.8 0.9,1.2 1.5,1.3 0.6,7.6 7.1,13.5 15,13.5 8.3,0 15.1,-6.6 15.1,-14.8 0,-0.3 0,-0.6 0,-0.8 3.6,-1.1 7.2,-0.4 8.6,0 0,0.3 0,0.6 0,0.9 0,8.1 6.7,14.8 15,14.8 z m 0,-27.1 c 6.9,0 12.6,5.5 12.6,12.3 0,6.8 -5.6,12.3 -12.6,12.3 -6.9,0 -12.6,-5.5 -12.6,-12.3 0.1,-6.8 5.7,-12.3 12.6,-12.3 z m -38.6,24.6 c -6.9,0 -12.6,-5.5 -12.6,-12.3 0,-6.8 5.6,-12.3 12.6,-12.3 6.9,0 12.6,5.5 12.6,12.3 -0.1,6.8 -5.7,12.3 -12.6,12.3 z"
               id="path10051"
               style="fill:#003a6a" />
            <path
               class="st48"
               d="m 1388.8,620.3 c 3.9,-5.8 26.4,-4.4 35.1,-4.8 13.4,-0.6 21.1,-8.9 21.6,-12 0.5,-3.1 -1.8,-22.5 -14.1,-24 -12.3,-1.5 -32.3,2.3 -33.4,0 -1,-2.3 -2.3,6.4 4.7,6.4 7,0 -6.5,2.5 -12.8,4.3 -7.3,2.1 -17,16.7 -15.6,15.8 4.4,-2.7 12,-4.1 17.7,1 0,0 -6.9,-2.8 -8.8,-2.7 -4.3,0.1 -7.9,4.4 -9.4,12.7 -1.2,6.4 -1.5,24.3 1.4,30.2 2,4 1.1,15.9 3,9.1 0,0 -0.5,-16.6 1.3,-21.3 2.7,-6.8 6.9,-11.3 9.3,-14.7 z"
               id="path10053"
               style="fill:#211915" />
            <path
               class="st48"
               d="m 1459.1,608.5 c -5.8,-8.3 -11.6,-6.7 -11.6,-6.7 0,0 -0.3,3.4 -2.8,6.2 -2.4,2.8 -7.4,6.4 -7.4,6.4 0.7,0.1 15.3,0.8 18.1,18.7 1.3,8.2 -1.1,24.7 -1,24.1 0.1,-0.6 3.4,-7.3 4.4,-10.8 1,-3.5 6.1,-29.6 0.3,-37.9 z"
               id="path10055"
               style="fill:#211915" />
            <path
               class="st48"
               d="m 1454.3,670.8 -0.8,2.1 v 0 0.1 c 0,0.1 -3.7,10.1 -4.9,13.2 -0.5,1.4 -2.3,3.2 -4.8,5.1 -1.1,0.8 -2.5,1 -3.8,0.7 -2.1,-0.6 -4.8,-1.5 -6.4,-2.9 -1,-0.9 -2,-2.1 -3.2,-3.4 -1.9,-2.2 -3.9,-4.4 -5.5,-4.9 -2.9,-0.9 -5.6,0 -7.1,1 -0.7,0.5 -1.2,1 -1.5,1.6 -0.3,-0.6 -0.8,-1.1 -1.5,-1.6 -1.5,-1 -4.2,-1.9 -7.1,-1 -1.6,0.5 -3.6,2.8 -5.5,4.9 -1.1,1.3 -2.2,2.5 -3.2,3.4 -1.5,1.4 -4.3,2.3 -6.3,2.9 -1.3,0.4 -2.8,0.1 -3.9,-0.7 -2.5,-1.8 -4.3,-3.6 -4.8,-5 -0.7,-1.9 -1.7,-5.9 -2.3,-8.5 -0.3,-1.5 -0.6,-2.6 -0.6,-2.6 l -0.3,-1.6 -0.4,-1.8 -0.1,3.5 c 0,0.1 0,0.2 0,0.4 0,1.2 -0.1,4.8 -0.1,8.7 0,0.3 0,0.6 0,0.9 0.1,4.4 0.3,8.8 1,10.5 0.3,0.7 0.6,2 1,3.7 1.6,7 4.7,20.1 14.2,26.5 11,7.5 17.6,10.6 18.2,10.9 0.2,0.2 0.7,0.5 1.5,0.5 0.3,0 0.7,-0.1 1.2,-0.3 0.1,0 7.1,-3.2 18.7,-11.1 9.4,-6.4 12.5,-19.5 14.2,-26.5 0.4,-1.7 0.7,-3 1,-3.7 0.2,-0.5 0.4,-1.3 0.6,-2.4 v 0 c 1.2,-6.1 2.2,-19.4 2.3,-20 v -0.5 0 l 0.2,-2.5 z m -31.1,42.5 v 0 l -0.2,0.1 c -0.2,0 -1.5,0.4 -2.2,-0.3 -0.4,-0.4 -0.5,-1.1 -0.2,-1.9 0.4,-1.2 1.7,-2.2 2.9,-3.1 1.3,-0.9 2.5,-1.8 2.3,-2.8 -0.1,-0.6 -3.6,-1.4 -9.5,-1.4 -6,0 -9.4,0.8 -9.5,1.4 -0.2,1 1,1.8 2.3,2.8 1.3,0.9 2.5,1.8 2.9,3.1 0.3,0.9 0.2,1.5 -0.2,1.9 -0.3,0.3 -0.9,0.4 -1.3,0.4 -0.4,0 -0.8,-0.1 -0.9,-0.1 l -0.2,-0.1 c -0.1,-0.1 -8.4,-7 -11.9,-8.7 -6.2,-3 -7.6,-6.7 -7.6,-7.8 0,-0.3 0.1,-0.5 0.3,-0.6 l 0.2,-0.1 0.3,0.2 c 0.4,0.2 3.5,0.3 5.8,-1 2.5,-1.5 5.4,-2.1 11.2,-2.5 6.3,-0.4 7.5,-3.3 7.6,-3.6 v -0.1 l 0.1,-0.1 c 0.1,-0.1 0.7,-0.5 1.2,-0.3 0.3,0.1 0.4,0.2 0.6,0.5 0.3,0.6 0.9,1.4 2.1,2.2 1.2,0.7 2.9,1.3 5.6,1.5 5.8,0.4 8.8,1.1 11.2,2.5 2.3,1.4 5.4,1.2 5.8,1 l 0.2,-0.2 0.5,0.3 -0.1,0.3 c -0.2,0.7 -4.1,7.5 -7.7,7.9 -3.6,0.4 -11.5,8.5 -11.6,8.6 z"
               id="path10057"
               style="fill:#211915" />
          </g>
          <polygon
             class="st105"
             points="1433.6,734.7 1416.3,745 1398.9,735.2 1398.4,757.7 1417.2,749.7 1436.5,756.3 "
             id="polygon10061"
             style="fill:#87a8d6" />
        </g>
      </g>
    </g>
  </g>
</svg>
