<?xml version="1.0" encoding="UTF-8" standalone="no"?>
<svg
   xmlns:dc="http://purl.org/dc/elements/1.1/"
   xmlns:cc="http://creativecommons.org/ns#"
   xmlns:rdf="http://www.w3.org/1999/02/22-rdf-syntax-ns#"
   xmlns:svg="http://www.w3.org/2000/svg"
   xmlns="http://www.w3.org/2000/svg"
   xmlns:xlink="http://www.w3.org/1999/xlink"
   id="svg8"
   version="1.1"
   viewBox="0 0 55.456665 55.456665"
   height="55.456665mm"
   width="55.456665mm">
  <defs
     id="defs2">
    <clipPath
       id="clipPath2444"
       clipPathUnits="userSpaceOnUse">
      <path
         id="path2442"
         d="m 87.298,2047.988 c -12.367,0 -22.391,-10.024 -22.391,-22.389 v 0 -83.06 c 0,-12.367 10.024,-22.39 22.391,-22.39 v 0 h 83.058 c 12.367,0 22.391,10.023 22.391,22.39 v 0 83.06 c 0,12.365 -10.024,22.389 -22.391,22.389 v 0 z" />
    </clipPath>
    <clipPath
       id="SVGID_14_">
      <use
         xlink:href="#SVGID_13_"
         style="overflow:visible"
         id="use1204"
         x="0"
         y="0"
         width="100%"
         height="100%" />
    </clipPath>
    <path
       id="SVGID_13_"
       d="m 694.5,450.6 -28.3,-1.2 c -0.1,0.5 2.2,16.4 2.9,19.5 1.2,4.2 6.1,37.5 11.8,37.8 6.1,0.3 9.8,-33.2 10.9,-39.5 z" />
    <clipPath
       id="SVGID_8_">
      <use
         xlink:href="#SVGID_7_"
         style="overflow:visible"
         id="use1110"
         x="0"
         y="0"
         width="100%"
         height="100%" />
    </clipPath>
    <clipPath
       id="SVGID_10_">
      <use
         xlink:href="#SVGID_9_"
         style="overflow:visible"
         id="use1120"
         x="0"
         y="0"
         width="100%"
         height="100%" />
    </clipPath>
    <path
       id="SVGID_7_"
       d="m 537.3,480.6 c 0,19.8 -16.1,35.9 -35.9,35.9 H 368 c -19.9,0 -35.9,-16.1 -35.9,-35.9 V 347.3 c 0,-19.9 16.1,-35.9 35.9,-35.9 h 133.3 c 19.9,0 35.9,16.1 35.9,35.9 v 133.3 z" />
    <path
       id="SVGID_9_"
       d="M 448.4,448.5 429.6,447 c -0.1,0.6 1,32.1 1.4,35.9 1.6,10.6 15.8,13.4 17.2,-1.7 z" />
    <clipPath
       id="SVGID_22_">
      <use
         xlink:href="#SVGID_21_"
         style="overflow:visible"
         id="use1352"
         x="0"
         y="0"
         width="100%"
         height="100%" />
    </clipPath>
    <path
       id="SVGID_21_"
       d="m 1031.6,480.6 c 0,19.9 -16.1,35.9 -35.9,35.9 H 862.4 c -19.9,0 -35.9,-16.1 -35.9,-35.9 V 347.3 c 0,-19.9 16.1,-35.9 35.9,-35.9 h 133.3 c 19.9,0 35.9,16.1 35.9,35.9 z" />
    <clipPath
       id="SVGID_16_">
      <use
         height="100%"
         width="100%"
         y="0"
         x="0"
         id="use9459"
         style="overflow:visible"
         xlink:href="#SVGID_15_" />
    </clipPath>
    <path
       d="m 290.2,497 c 0,20.3 -16.4,36.7 -36.7,36.7 H 117.3 C 97,533.7 80.6,517.3 80.6,497 V 360.8 c 0,-20.3 16.4,-36.7 36.7,-36.7 h 136.2 c 20.3,0 36.7,16.4 36.7,36.7 z"
       id="SVGID_15_" />
    <clipPath
       id="SVGID_26_">
      <use
         xlink:href="#SVGID_25_"
         style="overflow:visible"
         id="use9668"
         x="0"
         y="0"
         width="100%"
         height="100%" />
    </clipPath>
    <path
       id="SVGID_25_"
       d="m 535,497 c 0,20.3 -16.4,36.7 -36.7,36.7 H 362.2 c -20.3,0 -36.7,-16.4 -36.7,-36.7 V 360.8 c 0,-20.3 16.4,-36.7 36.7,-36.7 h 136.2 c 20.3,0 36.7,16.4 36.7,36.7 V 497 Z" />
    <clipPath
       id="SVGID_2_">
      <use
         xlink:href="#SVGID_1_"
         style="overflow:visible"
         id="use9226"
         x="0"
         y="0"
         width="100%"
         height="100%" />
    </clipPath>
    <clipPath
       id="SVGID_4_">
      <use
         xlink:href="#SVGID_3_"
         style="overflow:visible"
         id="use9232"
         x="0"
         y="0"
         width="100%"
         height="100%" />
    </clipPath>
    <clipPath
       id="clipPath14027">
      <use
         xlink:href="#SVGID_3_"
         style="overflow:visible"
         id="use14025"
         x="0"
         y="0"
         width="100%"
         height="100%" />
    </clipPath>
    <clipPath
       id="clipPath14031">
      <use
         xlink:href="#SVGID_3_"
         style="overflow:visible"
         id="use14029"
         x="0"
         y="0"
         width="100%"
         height="100%" />
    </clipPath>
    <clipPath
       id="clipPath14035">
      <use
         xlink:href="#SVGID_3_"
         style="overflow:visible"
         id="use14033"
         x="0"
         y="0"
         width="100%"
         height="100%" />
    </clipPath>
    <clipPath
       id="clipPath14039">
      <use
         xlink:href="#SVGID_3_"
         style="overflow:visible"
         id="use14037"
         x="0"
         y="0"
         width="100%"
         height="100%" />
    </clipPath>
    <clipPath
       id="clipPath14043">
      <use
         xlink:href="#SVGID_3_"
         style="overflow:visible"
         id="use14041"
         x="0"
         y="0"
         width="100%"
         height="100%" />
    </clipPath>
    <clipPath
       id="clipPath14047">
      <use
         xlink:href="#SVGID_3_"
         style="overflow:visible"
         id="use14045"
         x="0"
         y="0"
         width="100%"
         height="100%" />
    </clipPath>
    <path
       id="SVGID_1_"
       d="m 784.9,497 c 0,20.3 -16.4,36.7 -36.7,36.7 H 612.1 c -20.3,0 -36.7,-16.4 -36.7,-36.7 V 360.8 c 0,-20.3 16.4,-36.7 36.7,-36.7 h 136.2 c 20.3,0 36.7,16.4 36.7,36.7 V 497 Z" />
    <path
       id="SVGID_3_"
       d="m 662.6,470.7 c 10.9,-1 23.8,-1.6 37.1,0.4 40.5,3.2 43.1,43.5 47.5,65.1 -45.4,0.3 -89,0.6 -131.1,0.9 0,-26.5 13.1,-63.4 46.5,-66.4 z" />
    <clipPath
       id="SVGID_36_">
      <use
         height="100%"
         width="100%"
         y="0"
         x="0"
         id="use9875"
         style="overflow:visible"
         xlink:href="#SVGID_35_" />
    </clipPath>
    <path
       d="m 1036.4,497 c 0,20.3 -16.4,36.7 -36.7,36.7 H 863.6 c -20.3,0 -36.7,-16.4 -36.7,-36.7 V 360.8 c 0,-20.3 16.4,-36.7 36.7,-36.7 h 136.2 c 20.3,0 36.7,16.4 36.7,36.7 V 497 Z"
       id="SVGID_35_" />
    <clipPath
       id="SVGID_56_">
      <use
         xlink:href="#SVGID_55_"
         style="overflow:visible"
         id="use10272"
         x="0"
         y="0"
         width="100%"
         height="100%" />
    </clipPath>
    <path
       id="SVGID_55_"
       d="m 1282.1,497 c 0,20.3 -16.4,36.7 -36.7,36.7 h -136.2 c -20.3,0 -36.7,-16.4 -36.7,-36.7 V 360.8 c 0,-20.3 16.4,-36.7 36.7,-36.7 h 136.2 c 20.3,0 36.7,16.4 36.7,36.7 z" />
    <clipPath
       id="SVGID_46_">
      <use
         xlink:href="#SVGID_45_"
         style="overflow:visible"
         id="use10074"
         x="0"
         y="0"
         width="100%"
         height="100%" />
    </clipPath>
    <clipPath
       id="SVGID_48_">
      <use
         xlink:href="#SVGID_47_"
         style="overflow:visible"
         id="use10084"
         x="0"
         y="0"
         width="100%"
         height="100%" />
    </clipPath>
    <clipPath
       id="clipPath14969">
      <use
         xlink:href="#SVGID_47_"
         style="overflow:visible"
         id="use14967"
         x="0"
         y="0"
         width="100%"
         height="100%" />
    </clipPath>
    <clipPath
       id="clipPath14973">
      <use
         xlink:href="#SVGID_47_"
         style="overflow:visible"
         id="use14971"
         x="0"
         y="0"
         width="100%"
         height="100%" />
    </clipPath>
    <clipPath
       id="clipPath14977">
      <use
         xlink:href="#SVGID_47_"
         style="overflow:visible"
         id="use14975"
         x="0"
         y="0"
         width="100%"
         height="100%" />
    </clipPath>
    <clipPath
       id="clipPath14981">
      <use
         xlink:href="#SVGID_47_"
         style="overflow:visible"
         id="use14979"
         x="0"
         y="0"
         width="100%"
         height="100%" />
    </clipPath>
    <clipPath
       id="clipPath14985">
      <use
         xlink:href="#SVGID_47_"
         style="overflow:visible"
         id="use14983"
         x="0"
         y="0"
         width="100%"
         height="100%" />
    </clipPath>
    <clipPath
       id="clipPath14989">
      <use
         xlink:href="#SVGID_47_"
         style="overflow:visible"
         id="use14987"
         x="0"
         y="0"
         width="100%"
         height="100%" />
    </clipPath>
    <clipPath
       id="clipPath14993">
      <use
         xlink:href="#SVGID_47_"
         style="overflow:visible"
         id="use14991"
         x="0"
         y="0"
         width="100%"
         height="100%" />
    </clipPath>
    <clipPath
       id="clipPath14997">
      <use
         xlink:href="#SVGID_47_"
         style="overflow:visible"
         id="use14995"
         x="0"
         y="0"
         width="100%"
         height="100%" />
    </clipPath>
    <clipPath
       id="clipPath15001">
      <use
         xlink:href="#SVGID_47_"
         style="overflow:visible"
         id="use14999"
         x="0"
         y="0"
         width="100%"
         height="100%" />
    </clipPath>
    <clipPath
       id="clipPath15005">
      <use
         xlink:href="#SVGID_47_"
         style="overflow:visible"
         id="use15003"
         x="0"
         y="0"
         width="100%"
         height="100%" />
    </clipPath>
    <clipPath
       id="clipPath15009">
      <use
         xlink:href="#SVGID_47_"
         style="overflow:visible"
         id="use15007"
         x="0"
         y="0"
         width="100%"
         height="100%" />
    </clipPath>
    <clipPath
       id="clipPath15013">
      <use
         xlink:href="#SVGID_47_"
         style="overflow:visible"
         id="use15011"
         x="0"
         y="0"
         width="100%"
         height="100%" />
    </clipPath>
    <clipPath
       id="clipPath15017">
      <use
         xlink:href="#SVGID_47_"
         style="overflow:visible"
         id="use15015"
         x="0"
         y="0"
         width="100%"
         height="100%" />
    </clipPath>
    <clipPath
       id="clipPath15021">
      <use
         xlink:href="#SVGID_47_"
         style="overflow:visible"
         id="use15019"
         x="0"
         y="0"
         width="100%"
         height="100%" />
    </clipPath>
    <clipPath
       id="clipPath15025">
      <use
         xlink:href="#SVGID_47_"
         style="overflow:visible"
         id="use15023"
         x="0"
         y="0"
         width="100%"
         height="100%" />
    </clipPath>
    <clipPath
       id="clipPath15029">
      <use
         xlink:href="#SVGID_47_"
         style="overflow:visible"
         id="use15027"
         x="0"
         y="0"
         width="100%"
         height="100%" />
    </clipPath>
    <clipPath
       id="clipPath15033">
      <use
         xlink:href="#SVGID_47_"
         style="overflow:visible"
         id="use15031"
         x="0"
         y="0"
         width="100%"
         height="100%" />
    </clipPath>
    <clipPath
       id="clipPath15037">
      <use
         xlink:href="#SVGID_47_"
         style="overflow:visible"
         id="use15035"
         x="0"
         y="0"
         width="100%"
         height="100%" />
    </clipPath>
    <clipPath
       id="clipPath15041">
      <use
         xlink:href="#SVGID_47_"
         style="overflow:visible"
         id="use15039"
         x="0"
         y="0"
         width="100%"
         height="100%" />
    </clipPath>
    <clipPath
       id="clipPath15045">
      <use
         xlink:href="#SVGID_47_"
         style="overflow:visible"
         id="use15043"
         x="0"
         y="0"
         width="100%"
         height="100%" />
    </clipPath>
    <clipPath
       id="clipPath15049">
      <use
         xlink:href="#SVGID_47_"
         style="overflow:visible"
         id="use15047"
         x="0"
         y="0"
         width="100%"
         height="100%" />
    </clipPath>
    <path
       id="SVGID_45_"
       d="m 1525.5,497 c 0,20.3 -16.4,36.7 -36.7,36.7 h -136.2 c -20.3,0 -36.7,-16.4 -36.7,-36.7 V 360.8 c 0,-20.3 16.4,-36.7 36.7,-36.7 h 136.2 c 20.3,0 36.7,16.4 36.7,36.7 z" />
    <path
       id="SVGID_47_"
       d="m 1409.8,478.1 c 9.8,-0.9 21.2,-1.4 33.1,0.4 36.2,2.8 38.5,37.8 42.5,56.5 -39.1,0.3 -78.1,0.5 -117.2,0.8 0,-23.1 11.7,-55.1 41.6,-57.7 z" />
    <clipPath
       id="SVGID_18_">
      <use
         xlink:href="#SVGID_17_"
         style="overflow:visible"
         id="use9486"
         x="0"
         y="0"
         width="100%"
         height="100%" />
    </clipPath>
    <path
       id="SVGID_17_"
       d="m 290.2,734.8 c 0,20.3 -16.4,36.7 -36.7,36.7 H 117.3 C 97,771.5 80.6,755.1 80.6,734.8 V 598.6 c 0,-20.3 16.4,-36.7 36.7,-36.7 h 136.2 c 20.3,0 36.7,16.4 36.7,36.7 z" />
    <clipPath
       id="SVGID_28_">
      <use
         xlink:href="#SVGID_27_"
         style="overflow:visible"
         id="use9716"
         x="0"
         y="0"
         width="100%"
         height="100%" />
    </clipPath>
    <path
       id="SVGID_27_"
       d="m 535,734.8 c 0,20.3 -16.4,36.7 -36.7,36.7 H 362.2 c -20.3,0 -36.7,-16.4 -36.7,-36.7 V 598.6 c 0,-20.3 16.4,-36.7 36.7,-36.7 h 136.2 c 20.3,0 36.7,16.4 36.7,36.7 v 136.2 z" />
    <clipPath
       id="SVGID_6_">
      <use
         xlink:href="#SVGID_5_"
         style="overflow:visible"
         id="use9271"
         x="0"
         y="0"
         width="100%"
         height="100%" />
    </clipPath>
    <path
       id="SVGID_5_"
       d="m 784.9,734.8 c 0,20.3 -16.4,36.7 -36.7,36.7 H 612.1 c -20.3,0 -36.7,-16.4 -36.7,-36.7 V 598.6 c 0,-20.3 16.4,-36.7 36.7,-36.7 h 136.2 c 20.3,0 36.7,16.4 36.7,36.7 v 136.2 z" />
    <clipPath
       id="SVGID_38_">
      <use
         height="100%"
         width="100%"
         y="0"
         x="0"
         id="use9903"
         style="overflow:visible"
         xlink:href="#SVGID_37_" />
    </clipPath>
    <path
       d="m 1036.4,734.8 c 0,20.3 -16.4,36.7 -36.7,36.7 H 863.6 c -20.3,0 -36.7,-16.4 -36.7,-36.7 V 598.6 c 0,-20.3 16.4,-36.7 36.7,-36.7 h 136.2 c 20.3,0 36.7,16.4 36.7,36.7 v 136.2 z"
       id="SVGID_37_" />
    <clipPath
       id="SVGID_58_">
      <use
         xlink:href="#SVGID_57_"
         style="overflow:visible"
         id="use10309"
         x="0"
         y="0"
         width="100%"
         height="100%" />
    </clipPath>
    <path
       id="SVGID_57_"
       d="m 1282.1,734.8 c 0,20.3 -16.4,36.7 -36.7,36.7 h -136.2 c -20.3,0 -36.7,-16.4 -36.7,-36.7 V 598.6 c 0,-20.3 16.4,-36.7 36.7,-36.7 h 136.2 c 20.3,0 36.7,16.4 36.7,36.7 z" />
    <clipPath
       id="SVGID_44_">
      <use
         xlink:href="#SVGID_43_"
         style="overflow:visible"
         id="use10042"
         x="0"
         y="0"
         width="100%"
         height="100%" />
    </clipPath>
    <path
       id="SVGID_43_"
       d="m 1525.5,734.8 c 0,20.3 -16.4,36.7 -36.7,36.7 h -136.2 c -20.3,0 -36.7,-16.4 -36.7,-36.7 V 598.6 c 0,-20.3 16.4,-36.7 36.7,-36.7 h 136.2 c 20.3,0 36.7,16.4 36.7,36.7 z" />
    <clipPath
       id="SVGID_20_">
      <use
         xlink:href="#SVGID_19_"
         style="overflow:visible"
         id="use9530"
         x="0"
         y="0"
         width="100%"
         height="100%" />
    </clipPath>
    <clipPath
       id="SVGID_22_-3">
      <use
         xlink:href="#SVGID_21_-6"
         style="overflow:visible"
         id="use9608"
         x="0"
         y="0"
         width="100%"
         height="100%" />
    </clipPath>
    <path
       id="SVGID_19_"
       d="m 290.2,979.7 c 0,20.3 -16.4,36.7 -36.7,36.7 H 117.3 C 97,1016.4 80.6,1000 80.6,979.7 V 843.5 c 0,-20.3 16.4,-36.7 36.7,-36.7 h 136.2 c 20.3,0 36.7,16.4 36.7,36.7 z" />
    <path
       id="SVGID_21_-6"
       d="m 194.4,1018.9 c -1.9,2 -63.5,1.8 -63.4,-0.2 0.8,-21.4 16.3,-47 29.7,-51.9 4.2,-1.6 9.8,-2.6 11.4,-2.5 3.3,0.2 5.4,0.5 6.8,0.6 3.6,0.5 -1.8,9.3 11.9,8.6 8.3,-0.4 4.5,-8.7 8.5,-9 7.5,-0.6 15.5,-0.5 23.5,5 -0.1,0 -9,28.5 -28.4,49.4 z" />
  </defs>
  <metadata
     id="metadata5">
    <rdf:RDF>
      <cc:Work
         rdf:about="">
        <dc:format>image/svg+xml</dc:format>
        <dc:type
           rdf:resource="http://purl.org/dc/dcmitype/StillImage" />
        <dc:title></dc:title>
      </cc:Work>
    </rdf:RDF>
  </metadata>
  <g
     transform="translate(-218.93755,-245.61159)"
     id="layer1">
    <g
       id="g9627"
       transform="matrix(0.26458333,0,0,0.26458333,197.61213,32.145755)">
      <path
         class="st49"
         d="m 290.2,979.7 c 0,20.3 -16.4,36.7 -36.7,36.7 H 117.3 C 97,1016.4 80.6,1000 80.6,979.7 V 843.5 c 0,-20.3 16.4,-36.7 36.7,-36.7 h 136.2 c 20.3,0 36.7,16.4 36.7,36.7 z"
         id="path9525"
         style="fill:#2f6564" />
      <g
         id="g9625">
        <defs
           id="defs9528">
          <path
             id="path16230"
             d="m 290.2,979.7 c 0,20.3 -16.4,36.7 -36.7,36.7 H 117.3 C 97,1016.4 80.6,1000 80.6,979.7 V 843.5 c 0,-20.3 16.4,-36.7 36.7,-36.7 h 136.2 c 20.3,0 36.7,16.4 36.7,36.7 z" />
        </defs>
        <clipPath
           id="clipPath16108">
          <use
             xlink:href="#SVGID_19_"
             style="overflow:visible"
             id="use16106"
             x="0"
             y="0"
             width="100%"
             height="100%" />
        </clipPath>
        <g
           class="st50"
           clip-path="url(#SVGID_20_)"
           id="g9623">
          <path
             class="st51"
             d="m 173.4,966 c 8.4,-0.8 18.2,-1.3 28.3,0.4 31,2.6 32.9,34.8 36.3,52 -33.4,0.2 -66.8,0.5 -100.2,0.7 0,-21.2 10,-50.7 35.6,-53.1 z"
             id="path9533"
             style="clip-rule:evenodd;fill:#bf3227;fill-rule:evenodd" />
          <path
             class="st36"
             d="m 198.3,942.5 -21.6,-1.2 c -0.1,0.5 1.1,26.3 1.7,29.5 1.8,8.7 18.2,11 19.8,-1.4 z"
             id="path9535"
             style="clip-rule:evenodd;fill:#f0d6ac;fill-rule:evenodd" />
          <path
             class="st36"
             d="m 230.6,928.5 c 0.5,-5.9 -0.5,-18.8 0,-24.6 2.2,-1.5 12.9,-3.2 15.6,4.1 3.4,10.1 -4.3,17.7 -7.3,19.9 -3.1,1.1 -7.1,0.9 -8.3,0.6 z"
             id="path9537"
             style="clip-rule:evenodd;fill:#f0d6ac;fill-rule:evenodd" />
          <path
             class="st36"
             d="m 137.2,898.1 c 0.2,11.7 1.7,22.8 4.8,32.1 7.7,18.5 14.1,26.3 26.8,32.5 5.5,1.9 33,0.8 37.1,-1.4 14.9,-7.4 23.8,-23.4 26.7,-35.2 1.3,-9.5 2.3,-18.8 2.6,-28 z"
             id="path9539"
             style="clip-rule:evenodd;fill:#f0d6ac;fill-rule:evenodd" />
          <path
             class="st36"
             d="m 142.2,929.7 c -0.5,-5.8 0.5,-18.5 0,-24.2 -2.2,-1.5 -12.9,-3.2 -15.6,4.1 -3.4,10 4.3,17.4 7.3,19.6 3.1,1 7.2,0.9 8.3,0.5 z"
             id="path9541"
             style="clip-rule:evenodd;fill:#f0d6ac;fill-rule:evenodd" />
          <path
             class="st36"
             d="m 140.2,999.1 c -0.5,2.7 -3.8,18.5 -2.4,20.2 h 16.8 c -1.6,-2 1.4,-12.4 1.4,-15.4 -9.8,0 -10.9,-1.6 -15.8,-4.8 z"
             id="path9543"
             style="clip-rule:evenodd;fill:#f0d6ac;fill-rule:evenodd" />
          <path
             class="st36"
             d="m 234.4,999.2 c 0.5,2.7 5,18.7 3.6,20.4 l -17.7,-0.5 c 1.6,-2 -1.4,-12.4 -1.4,-15.4 9.7,0 10.5,-1.4 15.5,-4.5 z"
             id="path9545"
             style="clip-rule:evenodd;fill:#f0d6ac;fill-rule:evenodd" />
          <path
             class="st24"
             d="m 234.3,934.5 c -0.3,-0.3 -0.8,-0.3 -1.2,-0.1 -4.7,2.7 -15,6.8 -25.7,-1.8 v 0 c -2.5,-2.5 -6,-4.1 -9.9,-4.1 -5,0 -9.4,2.6 -11.8,6.6 -2.5,-3.9 -6.8,-6.6 -11.8,-6.6 -3.9,0 -7.3,1.6 -9.9,4.1 v 0 c -10.7,8.6 -21,4.5 -25.7,1.8 -0.4,-0.2 -0.8,-0.2 -1.2,0.1 -0.3,0.3 -0.4,0.7 -0.2,1.1 10.8,24.5 38.2,20.9 38.2,20.9 4.5,-0.4 8.4,-2.8 10.7,-6.4 2.3,3.6 6.2,6 10.7,6.4 0,0 27.4,3.6 38.2,-20.9 0,-0.3 -0.1,-0.8 -0.4,-1.1 z"
             id="path9547"
             style="clip-rule:evenodd;fill:#010002;fill-rule:evenodd" />
          <g
             id="g9601">
            <path
               class="st52"
               d="m 94.3,905.1 v 1 2.5 c 0,4.2 3.5,7.8 7.7,7.8 h 170.8 c 4.2,0 7.7,-3.5 7.7,-7.8 v -2.5 -1 -3.1 H 94.3 Z"
               id="path9549"
               style="clip-rule:evenodd;fill:#e3ad2d;fill-rule:evenodd" />
            <rect
               x="94.300003"
               y="888.59998"
               class="st53"
               width="186.3"
               height="6.0999999"
               id="rect9551"
               style="clip-rule:evenodd;fill:#d5862e;fill-rule:evenodd" />
            <rect
               x="94.300003"
               y="894.70001"
               class="st51"
               width="186.3"
               height="7.1999998"
               id="rect9553"
               style="clip-rule:evenodd;fill:#bf3227;fill-rule:evenodd" />
            <polygon
               class="st24"
               points="100.4,912 94.6,902 106.2,902 "
               id="polygon9555"
               style="clip-rule:evenodd;fill:#010002;fill-rule:evenodd" />
            <polygon
               class="st24"
               points="111.9,912 106.2,902 117.7,902 "
               id="polygon9557"
               style="clip-rule:evenodd;fill:#010002;fill-rule:evenodd" />
            <polygon
               class="st24"
               points="123.2,912 117.4,902 129,902 "
               id="polygon9559"
               style="clip-rule:evenodd;fill:#010002;fill-rule:evenodd" />
            <polygon
               class="st24"
               points="134.8,912 129,902 140.6,902 "
               id="polygon9561"
               style="clip-rule:evenodd;fill:#010002;fill-rule:evenodd" />
            <polygon
               class="st24"
               points="146.6,912 140.8,902 152.4,902 "
               id="polygon9563"
               style="clip-rule:evenodd;fill:#010002;fill-rule:evenodd" />
            <polygon
               class="st24"
               points="158.2,912 152.4,902 163.9,902 "
               id="polygon9565"
               style="clip-rule:evenodd;fill:#010002;fill-rule:evenodd" />
            <polygon
               class="st24"
               points="170,912 164.2,902 175.8,902 "
               id="polygon9567"
               style="clip-rule:evenodd;fill:#010002;fill-rule:evenodd" />
            <polygon
               class="st24"
               points="181.5,912 175.7,902 187.3,902 "
               id="polygon9569"
               style="clip-rule:evenodd;fill:#010002;fill-rule:evenodd" />
            <polygon
               class="st24"
               points="193.3,912 187.5,902 199.1,902 "
               id="polygon9571"
               style="clip-rule:evenodd;fill:#010002;fill-rule:evenodd" />
            <polygon
               class="st24"
               points="204.9,912 199.1,902 210.6,902 "
               id="polygon9573"
               style="clip-rule:evenodd;fill:#010002;fill-rule:evenodd" />
            <polygon
               class="st24"
               points="216.2,912 210.4,902 221.9,902 "
               id="polygon9575"
               style="clip-rule:evenodd;fill:#010002;fill-rule:evenodd" />
            <polygon
               class="st24"
               points="227.7,912 221.9,902 233.5,902 "
               id="polygon9577"
               style="clip-rule:evenodd;fill:#010002;fill-rule:evenodd" />
            <polygon
               class="st24"
               points="239.5,912 233.8,902 245.3,902 "
               id="polygon9579"
               style="clip-rule:evenodd;fill:#010002;fill-rule:evenodd" />
            <polygon
               class="st24"
               points="251.1,912 245.3,902 256.9,902 "
               id="polygon9581"
               style="clip-rule:evenodd;fill:#010002;fill-rule:evenodd" />
            <polygon
               class="st24"
               points="262.9,912 257.1,902 268.7,902 "
               id="polygon9583"
               style="clip-rule:evenodd;fill:#010002;fill-rule:evenodd" />
            <polygon
               class="st24"
               points="274.5,912 268.7,902 280.2,902 "
               id="polygon9585"
               style="clip-rule:evenodd;fill:#010002;fill-rule:evenodd" />
            <path
               class="st51"
               d="m 172.5,835 c -1.9,2.8 -4,6.7 -6.4,11.7 h 42.6 c -2,-4.5 -4.1,-8.4 -6.4,-11.7 z"
               id="path9587"
               style="clip-rule:evenodd;fill:#bf3227;fill-rule:evenodd" />
            <path
               class="st24"
               d="m 196.8,827.3 c -2.1,-3.2 -5.4,-5.5 -9.1,-5.5 -2.9,0 -5.6,1.5 -7.6,3.2 v 0 c 0,0 -1.2,1.1 -3.3,3.9 h 21.3 c -0.5,-0.6 -0.9,-1.1 -1.3,-1.6 z"
               id="path9589"
               style="clip-rule:evenodd;fill:#010002;fill-rule:evenodd" />
            <path
               class="st24"
               d="m 159.4,862.4 h 56.1 c -1.2,-3.3 -2.5,-6.7 -3.9,-9.5 h -48.2 c -1.3,2.8 -2.6,6.1 -4,9.5 z"
               id="path9591"
               style="clip-rule:evenodd;fill:#010002;fill-rule:evenodd" />
            <path
               class="st52"
               d="m 150.6,888.6 h 73.6 c 0,0 -1.1,-4.5 -3.2,-11.2 h -66.8 c -1.2,3.9 -2.4,7.3 -3.6,11.2 z"
               id="path9593"
               style="clip-rule:evenodd;fill:#e3ad2d;fill-rule:evenodd" />
            <path
               class="st51"
               d="m 154,877.4 h 66.8 c -1.4,-4.5 -3.1,-9.5 -5.2,-15.1 h -56.1 c -1.8,4.5 -3.6,9.5 -5.5,15.1 z"
               id="path9595"
               style="clip-rule:evenodd;fill:#bf3227;fill-rule:evenodd" />
            <path
               class="st53"
               d="m 163.3,852.9 h 48.2 c -0.9,-2.2 -1.8,-4.5 -2.8,-6.1 h -42.6 c -0.9,1.6 -1.8,3.8 -2.8,6.1 z"
               id="path9597"
               style="clip-rule:evenodd;fill:#d5862e;fill-rule:evenodd" />
            <path
               class="st52"
               d="m 198.1,828.9 h -21.3 c -1.2,1.1 -2.6,3.3 -4.3,6.1 h 29.8 c -1.4,-2.2 -2.8,-4.4 -4.2,-6.1 z"
               id="path9599"
               style="clip-rule:evenodd;fill:#e3ad2d;fill-rule:evenodd" />
          </g>
          <g
             id="g9621">
            <path
               class="st54"
               d="m 194.4,1018.9 c -1.9,2 -63.5,1.8 -63.4,-0.2 0.8,-21.4 16.3,-47 29.7,-51.9 4.2,-1.6 9.8,-2.6 11.4,-2.5 3.3,0.2 5.4,0.5 6.8,0.6 3.6,0.5 -1.8,9.3 11.9,8.6 8.3,-0.4 4.5,-8.7 8.5,-9 7.5,-0.6 15.5,-0.5 23.5,5 -0.1,0 -9,28.5 -28.4,49.4 z"
               id="path9603"
               style="clip-rule:evenodd;fill:#5d7220;fill-rule:evenodd" />
            <g
               id="g9619">
              <defs
                 id="defs9606">
                <path
                   id="path16271"
                   d="m 194.4,1018.9 c -1.9,2 -63.5,1.8 -63.4,-0.2 0.8,-21.4 16.3,-47 29.7,-51.9 4.2,-1.6 9.8,-2.6 11.4,-2.5 3.3,0.2 5.4,0.5 6.8,0.6 3.6,0.5 -1.8,9.3 11.9,8.6 8.3,-0.4 4.5,-8.7 8.5,-9 7.5,-0.6 15.5,-0.5 23.5,5 -0.1,0 -9,28.5 -28.4,49.4 z" />
              </defs>
              <clipPath
                 id="clipPath16150">
                <use
                   xlink:href="#SVGID_21_-6"
                   style="overflow:visible"
                   id="use16148"
                   x="0"
                   y="0"
                   width="100%"
                   height="100%" />
              </clipPath>
              <g
                 class="st55"
                 clip-path="url(#SVGID_22_-3)"
                 id="g9617">
                <polygon
                   class="st27"
                   points="167.3,987 164.9,989.9 167.3,992.7 164.9,995.6 167.3,998.4 164.9,1001.2 167.3,1004.1 164.9,1007 167.3,1009.9 167.3,1010 164.9,1012.9 167.3,1015.7 164.9,1018.6 167.3,1021.5 167.3,1021.6 164.9,1024.5 167.3,1027.4 164.9,1030.2 167.3,1033.1 167.3,1033.2 172.4,1033.2 172.4,1033.1 174.9,1030.2 172.4,1027.4 174.9,1024.5 172.4,1021.6 172.4,1021.5 174.9,1018.6 172.4,1015.7 174.9,1012.9 172.4,1010 172.4,1009.9 174.9,1007 172.4,1004.1 174.9,1001.3 172.5,998.4 174.9,995.6 172.4,992.8 174.9,989.9 172.4,987 172.4,986.9 174.9,984 172.4,981.1 174.9,978.3 172.4,975.4 172.4,975.3 174.9,972.4 172.4,969.5 174.9,966.6 172.4,963.8 167.3,963.8 164.9,966.6 167.3,969.5 164.9,972.4 167.3,975.3 167.3,975.4 164.9,978.3 167.3,981.1 164.9,984 167.3,986.9 "
                   id="polygon9611"
                   style="clip-rule:evenodd;fill:#ffffff;fill-rule:evenodd" />
                <polygon
                   class="st56"
                   points="186.3,987 183.9,989.9 186.3,992.7 183.9,995.6 186.3,998.4 183.9,1001.2 186.3,1004.1 183.9,1007 186.3,1009.9 186.3,1010 183.9,1012.9 186.3,1015.7 183.9,1018.6 186.3,1021.5 186.3,1021.6 183.9,1024.5 186.3,1027.4 183.9,1030.2 186.3,1033.1 186.3,1033.2 191.4,1033.2 191.4,1033.1 193.9,1030.2 191.4,1027.4 193.9,1024.5 191.4,1021.6 191.4,1021.5 193.9,1018.6 191.4,1015.7 193.9,1012.9 191.4,1010 191.4,1009.9 193.9,1007 191.4,1004.1 193.9,1001.3 191.5,998.4 193.9,995.6 191.4,992.8 193.9,989.9 191.4,987 191.4,986.9 193.9,984 191.4,981.1 193.9,978.3 191.4,975.4 191.4,975.3 193.9,972.4 191.4,969.5 193.9,966.6 191.4,963.8 186.3,963.8 183.9,966.6 186.3,969.5 183.9,972.4 186.3,975.3 186.3,975.4 183.9,978.3 186.3,981.1 183.9,984 186.3,986.9 "
                   id="polygon9613"
                   style="clip-rule:evenodd;fill:#e5b43c;fill-rule:evenodd" />
                <polygon
                   class="st27"
                   points="204.8,987 202.3,989.9 204.8,992.7 202.3,995.6 204.7,998.4 202.3,1001.2 204.8,1004.1 202.3,1007 204.8,1009.9 204.8,1010 202.3,1012.9 204.8,1015.7 202.3,1018.6 204.8,1021.5 204.8,1021.6 202.3,1024.5 204.8,1027.4 202.3,1030.2 204.8,1033.1 204.8,1033.2 209.9,1033.2 209.9,1033.1 212.3,1030.2 209.9,1027.4 212.3,1024.5 209.9,1021.6 209.9,1021.5 212.3,1018.6 209.9,1015.7 212.3,1012.9 209.9,1010 209.9,1009.9 212.3,1007 209.9,1004.1 212.3,1001.3 209.9,998.4 212.3,995.6 209.9,992.8 212.3,989.9 209.9,987 209.9,986.9 212.3,984 209.9,981.1 212.3,978.3 209.9,975.4 209.9,975.3 212.3,972.4 209.9,969.5 212.3,966.6 209.9,963.8 204.8,963.8 202.3,966.6 204.8,969.5 202.3,972.4 204.8,975.3 204.8,975.4 202.3,978.3 204.8,981.1 202.3,984 204.8,986.9 "
                   id="polygon9615"
                   style="clip-rule:evenodd;fill:#ffffff;fill-rule:evenodd" />
              </g>
            </g>
          </g>
        </g>
      </g>
    </g>
  </g>
</svg>
