<?xml version="1.0" encoding="UTF-8" standalone="no"?>
<svg
   xmlns:dc="http://purl.org/dc/elements/1.1/"
   xmlns:cc="http://creativecommons.org/ns#"
   xmlns:rdf="http://www.w3.org/1999/02/22-rdf-syntax-ns#"
   xmlns:svg="http://www.w3.org/2000/svg"
   xmlns="http://www.w3.org/2000/svg"
   xmlns:xlink="http://www.w3.org/1999/xlink"
   id="svg8"
   version="1.1"
   viewBox="0 0 55.456665 55.456665"
   height="55.456665mm"
   width="55.456665mm">
  <defs
     id="defs2">
    <clipPath
       id="clipPath2444"
       clipPathUnits="userSpaceOnUse">
      <path
         id="path2442"
         d="m 87.298,2047.988 c -12.367,0 -22.391,-10.024 -22.391,-22.389 v 0 -83.06 c 0,-12.367 10.024,-22.39 22.391,-22.39 v 0 h 83.058 c 12.367,0 22.391,10.023 22.391,22.39 v 0 83.06 c 0,12.365 -10.024,22.389 -22.391,22.389 v 0 z" />
    </clipPath>
    <clipPath
       id="SVGID_14_">
      <use
         xlink:href="#SVGID_13_"
         style="overflow:visible"
         id="use1204"
         x="0"
         y="0"
         width="100%"
         height="100%" />
    </clipPath>
    <path
       id="SVGID_13_"
       d="m 694.5,450.6 -28.3,-1.2 c -0.1,0.5 2.2,16.4 2.9,19.5 1.2,4.2 6.1,37.5 11.8,37.8 6.1,0.3 9.8,-33.2 10.9,-39.5 z" />
    <clipPath
       id="SVGID_8_">
      <use
         xlink:href="#SVGID_7_"
         style="overflow:visible"
         id="use1110"
         x="0"
         y="0"
         width="100%"
         height="100%" />
    </clipPath>
    <clipPath
       id="SVGID_10_">
      <use
         xlink:href="#SVGID_9_"
         style="overflow:visible"
         id="use1120"
         x="0"
         y="0"
         width="100%"
         height="100%" />
    </clipPath>
    <path
       id="SVGID_7_"
       d="m 537.3,480.6 c 0,19.8 -16.1,35.9 -35.9,35.9 H 368 c -19.9,0 -35.9,-16.1 -35.9,-35.9 V 347.3 c 0,-19.9 16.1,-35.9 35.9,-35.9 h 133.3 c 19.9,0 35.9,16.1 35.9,35.9 v 133.3 z" />
    <path
       id="SVGID_9_"
       d="M 448.4,448.5 429.6,447 c -0.1,0.6 1,32.1 1.4,35.9 1.6,10.6 15.8,13.4 17.2,-1.7 z" />
    <clipPath
       id="SVGID_22_">
      <use
         xlink:href="#SVGID_21_"
         style="overflow:visible"
         id="use1352"
         x="0"
         y="0"
         width="100%"
         height="100%" />
    </clipPath>
    <path
       id="SVGID_21_"
       d="m 1031.6,480.6 c 0,19.9 -16.1,35.9 -35.9,35.9 H 862.4 c -19.9,0 -35.9,-16.1 -35.9,-35.9 V 347.3 c 0,-19.9 16.1,-35.9 35.9,-35.9 h 133.3 c 19.9,0 35.9,16.1 35.9,35.9 z" />
    <clipPath
       id="SVGID_16_">
      <use
         height="100%"
         width="100%"
         y="0"
         x="0"
         id="use9459"
         style="overflow:visible"
         xlink:href="#SVGID_15_" />
    </clipPath>
    <path
       d="m 290.2,497 c 0,20.3 -16.4,36.7 -36.7,36.7 H 117.3 C 97,533.7 80.6,517.3 80.6,497 V 360.8 c 0,-20.3 16.4,-36.7 36.7,-36.7 h 136.2 c 20.3,0 36.7,16.4 36.7,36.7 z"
       id="SVGID_15_" />
    <clipPath
       id="SVGID_26_">
      <use
         xlink:href="#SVGID_25_"
         style="overflow:visible"
         id="use9668"
         x="0"
         y="0"
         width="100%"
         height="100%" />
    </clipPath>
    <path
       id="SVGID_25_"
       d="m 535,497 c 0,20.3 -16.4,36.7 -36.7,36.7 H 362.2 c -20.3,0 -36.7,-16.4 -36.7,-36.7 V 360.8 c 0,-20.3 16.4,-36.7 36.7,-36.7 h 136.2 c 20.3,0 36.7,16.4 36.7,36.7 V 497 Z" />
    <clipPath
       id="SVGID_2_">
      <use
         xlink:href="#SVGID_1_"
         style="overflow:visible"
         id="use9226"
         x="0"
         y="0"
         width="100%"
         height="100%" />
    </clipPath>
    <clipPath
       id="SVGID_4_">
      <use
         xlink:href="#SVGID_3_"
         style="overflow:visible"
         id="use9232"
         x="0"
         y="0"
         width="100%"
         height="100%" />
    </clipPath>
    <clipPath
       id="clipPath14027">
      <use
         xlink:href="#SVGID_3_"
         style="overflow:visible"
         id="use14025"
         x="0"
         y="0"
         width="100%"
         height="100%" />
    </clipPath>
    <clipPath
       id="clipPath14031">
      <use
         xlink:href="#SVGID_3_"
         style="overflow:visible"
         id="use14029"
         x="0"
         y="0"
         width="100%"
         height="100%" />
    </clipPath>
    <clipPath
       id="clipPath14035">
      <use
         xlink:href="#SVGID_3_"
         style="overflow:visible"
         id="use14033"
         x="0"
         y="0"
         width="100%"
         height="100%" />
    </clipPath>
    <clipPath
       id="clipPath14039">
      <use
         xlink:href="#SVGID_3_"
         style="overflow:visible"
         id="use14037"
         x="0"
         y="0"
         width="100%"
         height="100%" />
    </clipPath>
    <clipPath
       id="clipPath14043">
      <use
         xlink:href="#SVGID_3_"
         style="overflow:visible"
         id="use14041"
         x="0"
         y="0"
         width="100%"
         height="100%" />
    </clipPath>
    <clipPath
       id="clipPath14047">
      <use
         xlink:href="#SVGID_3_"
         style="overflow:visible"
         id="use14045"
         x="0"
         y="0"
         width="100%"
         height="100%" />
    </clipPath>
    <path
       id="SVGID_1_"
       d="m 784.9,497 c 0,20.3 -16.4,36.7 -36.7,36.7 H 612.1 c -20.3,0 -36.7,-16.4 -36.7,-36.7 V 360.8 c 0,-20.3 16.4,-36.7 36.7,-36.7 h 136.2 c 20.3,0 36.7,16.4 36.7,36.7 V 497 Z" />
    <path
       id="SVGID_3_"
       d="m 662.6,470.7 c 10.9,-1 23.8,-1.6 37.1,0.4 40.5,3.2 43.1,43.5 47.5,65.1 -45.4,0.3 -89,0.6 -131.1,0.9 0,-26.5 13.1,-63.4 46.5,-66.4 z" />
    <clipPath
       id="SVGID_36_">
      <use
         height="100%"
         width="100%"
         y="0"
         x="0"
         id="use9875"
         style="overflow:visible"
         xlink:href="#SVGID_35_" />
    </clipPath>
    <path
       d="m 1036.4,497 c 0,20.3 -16.4,36.7 -36.7,36.7 H 863.6 c -20.3,0 -36.7,-16.4 -36.7,-36.7 V 360.8 c 0,-20.3 16.4,-36.7 36.7,-36.7 h 136.2 c 20.3,0 36.7,16.4 36.7,36.7 V 497 Z"
       id="SVGID_35_" />
    <clipPath
       id="SVGID_56_">
      <use
         xlink:href="#SVGID_55_"
         style="overflow:visible"
         id="use10272"
         x="0"
         y="0"
         width="100%"
         height="100%" />
    </clipPath>
    <path
       id="SVGID_55_"
       d="m 1282.1,497 c 0,20.3 -16.4,36.7 -36.7,36.7 h -136.2 c -20.3,0 -36.7,-16.4 -36.7,-36.7 V 360.8 c 0,-20.3 16.4,-36.7 36.7,-36.7 h 136.2 c 20.3,0 36.7,16.4 36.7,36.7 z" />
    <clipPath
       id="SVGID_46_">
      <use
         xlink:href="#SVGID_45_"
         style="overflow:visible"
         id="use10074"
         x="0"
         y="0"
         width="100%"
         height="100%" />
    </clipPath>
    <clipPath
       id="SVGID_48_">
      <use
         xlink:href="#SVGID_47_"
         style="overflow:visible"
         id="use10084"
         x="0"
         y="0"
         width="100%"
         height="100%" />
    </clipPath>
    <clipPath
       id="clipPath14969">
      <use
         xlink:href="#SVGID_47_"
         style="overflow:visible"
         id="use14967"
         x="0"
         y="0"
         width="100%"
         height="100%" />
    </clipPath>
    <clipPath
       id="clipPath14973">
      <use
         xlink:href="#SVGID_47_"
         style="overflow:visible"
         id="use14971"
         x="0"
         y="0"
         width="100%"
         height="100%" />
    </clipPath>
    <clipPath
       id="clipPath14977">
      <use
         xlink:href="#SVGID_47_"
         style="overflow:visible"
         id="use14975"
         x="0"
         y="0"
         width="100%"
         height="100%" />
    </clipPath>
    <clipPath
       id="clipPath14981">
      <use
         xlink:href="#SVGID_47_"
         style="overflow:visible"
         id="use14979"
         x="0"
         y="0"
         width="100%"
         height="100%" />
    </clipPath>
    <clipPath
       id="clipPath14985">
      <use
         xlink:href="#SVGID_47_"
         style="overflow:visible"
         id="use14983"
         x="0"
         y="0"
         width="100%"
         height="100%" />
    </clipPath>
    <clipPath
       id="clipPath14989">
      <use
         xlink:href="#SVGID_47_"
         style="overflow:visible"
         id="use14987"
         x="0"
         y="0"
         width="100%"
         height="100%" />
    </clipPath>
    <clipPath
       id="clipPath14993">
      <use
         xlink:href="#SVGID_47_"
         style="overflow:visible"
         id="use14991"
         x="0"
         y="0"
         width="100%"
         height="100%" />
    </clipPath>
    <clipPath
       id="clipPath14997">
      <use
         xlink:href="#SVGID_47_"
         style="overflow:visible"
         id="use14995"
         x="0"
         y="0"
         width="100%"
         height="100%" />
    </clipPath>
    <clipPath
       id="clipPath15001">
      <use
         xlink:href="#SVGID_47_"
         style="overflow:visible"
         id="use14999"
         x="0"
         y="0"
         width="100%"
         height="100%" />
    </clipPath>
    <clipPath
       id="clipPath15005">
      <use
         xlink:href="#SVGID_47_"
         style="overflow:visible"
         id="use15003"
         x="0"
         y="0"
         width="100%"
         height="100%" />
    </clipPath>
    <clipPath
       id="clipPath15009">
      <use
         xlink:href="#SVGID_47_"
         style="overflow:visible"
         id="use15007"
         x="0"
         y="0"
         width="100%"
         height="100%" />
    </clipPath>
    <clipPath
       id="clipPath15013">
      <use
         xlink:href="#SVGID_47_"
         style="overflow:visible"
         id="use15011"
         x="0"
         y="0"
         width="100%"
         height="100%" />
    </clipPath>
    <clipPath
       id="clipPath15017">
      <use
         xlink:href="#SVGID_47_"
         style="overflow:visible"
         id="use15015"
         x="0"
         y="0"
         width="100%"
         height="100%" />
    </clipPath>
    <clipPath
       id="clipPath15021">
      <use
         xlink:href="#SVGID_47_"
         style="overflow:visible"
         id="use15019"
         x="0"
         y="0"
         width="100%"
         height="100%" />
    </clipPath>
    <clipPath
       id="clipPath15025">
      <use
         xlink:href="#SVGID_47_"
         style="overflow:visible"
         id="use15023"
         x="0"
         y="0"
         width="100%"
         height="100%" />
    </clipPath>
    <clipPath
       id="clipPath15029">
      <use
         xlink:href="#SVGID_47_"
         style="overflow:visible"
         id="use15027"
         x="0"
         y="0"
         width="100%"
         height="100%" />
    </clipPath>
    <clipPath
       id="clipPath15033">
      <use
         xlink:href="#SVGID_47_"
         style="overflow:visible"
         id="use15031"
         x="0"
         y="0"
         width="100%"
         height="100%" />
    </clipPath>
    <clipPath
       id="clipPath15037">
      <use
         xlink:href="#SVGID_47_"
         style="overflow:visible"
         id="use15035"
         x="0"
         y="0"
         width="100%"
         height="100%" />
    </clipPath>
    <clipPath
       id="clipPath15041">
      <use
         xlink:href="#SVGID_47_"
         style="overflow:visible"
         id="use15039"
         x="0"
         y="0"
         width="100%"
         height="100%" />
    </clipPath>
    <clipPath
       id="clipPath15045">
      <use
         xlink:href="#SVGID_47_"
         style="overflow:visible"
         id="use15043"
         x="0"
         y="0"
         width="100%"
         height="100%" />
    </clipPath>
    <clipPath
       id="clipPath15049">
      <use
         xlink:href="#SVGID_47_"
         style="overflow:visible"
         id="use15047"
         x="0"
         y="0"
         width="100%"
         height="100%" />
    </clipPath>
    <path
       id="SVGID_45_"
       d="m 1525.5,497 c 0,20.3 -16.4,36.7 -36.7,36.7 h -136.2 c -20.3,0 -36.7,-16.4 -36.7,-36.7 V 360.8 c 0,-20.3 16.4,-36.7 36.7,-36.7 h 136.2 c 20.3,0 36.7,16.4 36.7,36.7 z" />
    <path
       id="SVGID_47_"
       d="m 1409.8,478.1 c 9.8,-0.9 21.2,-1.4 33.1,0.4 36.2,2.8 38.5,37.8 42.5,56.5 -39.1,0.3 -78.1,0.5 -117.2,0.8 0,-23.1 11.7,-55.1 41.6,-57.7 z" />
    <clipPath
       id="SVGID_18_">
      <use
         xlink:href="#SVGID_17_"
         style="overflow:visible"
         id="use9486"
         x="0"
         y="0"
         width="100%"
         height="100%" />
    </clipPath>
    <path
       id="SVGID_17_"
       d="m 290.2,734.8 c 0,20.3 -16.4,36.7 -36.7,36.7 H 117.3 C 97,771.5 80.6,755.1 80.6,734.8 V 598.6 c 0,-20.3 16.4,-36.7 36.7,-36.7 h 136.2 c 20.3,0 36.7,16.4 36.7,36.7 z" />
    <clipPath
       id="SVGID_28_">
      <use
         xlink:href="#SVGID_27_"
         style="overflow:visible"
         id="use9716"
         x="0"
         y="0"
         width="100%"
         height="100%" />
    </clipPath>
    <path
       id="SVGID_27_"
       d="m 535,734.8 c 0,20.3 -16.4,36.7 -36.7,36.7 H 362.2 c -20.3,0 -36.7,-16.4 -36.7,-36.7 V 598.6 c 0,-20.3 16.4,-36.7 36.7,-36.7 h 136.2 c 20.3,0 36.7,16.4 36.7,36.7 v 136.2 z" />
    <clipPath
       id="SVGID_6_">
      <use
         xlink:href="#SVGID_5_"
         style="overflow:visible"
         id="use9271"
         x="0"
         y="0"
         width="100%"
         height="100%" />
    </clipPath>
    <path
       id="SVGID_5_"
       d="m 784.9,734.8 c 0,20.3 -16.4,36.7 -36.7,36.7 H 612.1 c -20.3,0 -36.7,-16.4 -36.7,-36.7 V 598.6 c 0,-20.3 16.4,-36.7 36.7,-36.7 h 136.2 c 20.3,0 36.7,16.4 36.7,36.7 v 136.2 z" />
    <clipPath
       id="SVGID_38_">
      <use
         height="100%"
         width="100%"
         y="0"
         x="0"
         id="use9903"
         style="overflow:visible"
         xlink:href="#SVGID_37_" />
    </clipPath>
    <path
       d="m 1036.4,734.8 c 0,20.3 -16.4,36.7 -36.7,36.7 H 863.6 c -20.3,0 -36.7,-16.4 -36.7,-36.7 V 598.6 c 0,-20.3 16.4,-36.7 36.7,-36.7 h 136.2 c 20.3,0 36.7,16.4 36.7,36.7 v 136.2 z"
       id="SVGID_37_" />
    <clipPath
       id="SVGID_58_">
      <use
         xlink:href="#SVGID_57_"
         style="overflow:visible"
         id="use10309"
         x="0"
         y="0"
         width="100%"
         height="100%" />
    </clipPath>
    <path
       id="SVGID_57_"
       d="m 1282.1,734.8 c 0,20.3 -16.4,36.7 -36.7,36.7 h -136.2 c -20.3,0 -36.7,-16.4 -36.7,-36.7 V 598.6 c 0,-20.3 16.4,-36.7 36.7,-36.7 h 136.2 c 20.3,0 36.7,16.4 36.7,36.7 z" />
    <clipPath
       id="SVGID_44_">
      <use
         xlink:href="#SVGID_43_"
         style="overflow:visible"
         id="use10042"
         x="0"
         y="0"
         width="100%"
         height="100%" />
    </clipPath>
    <path
       id="SVGID_43_"
       d="m 1525.5,734.8 c 0,20.3 -16.4,36.7 -36.7,36.7 h -136.2 c -20.3,0 -36.7,-16.4 -36.7,-36.7 V 598.6 c 0,-20.3 16.4,-36.7 36.7,-36.7 h 136.2 c 20.3,0 36.7,16.4 36.7,36.7 z" />
    <clipPath
       id="SVGID_20_">
      <use
         xlink:href="#SVGID_19_"
         style="overflow:visible"
         id="use9530"
         x="0"
         y="0"
         width="100%"
         height="100%" />
    </clipPath>
    <clipPath
       id="SVGID_22_-3">
      <use
         xlink:href="#SVGID_21_-6"
         style="overflow:visible"
         id="use9608"
         x="0"
         y="0"
         width="100%"
         height="100%" />
    </clipPath>
    <path
       id="SVGID_19_"
       d="m 290.2,979.7 c 0,20.3 -16.4,36.7 -36.7,36.7 H 117.3 C 97,1016.4 80.6,1000 80.6,979.7 V 843.5 c 0,-20.3 16.4,-36.7 36.7,-36.7 h 136.2 c 20.3,0 36.7,16.4 36.7,36.7 z" />
    <path
       id="SVGID_21_-6"
       d="m 194.4,1018.9 c -1.9,2 -63.5,1.8 -63.4,-0.2 0.8,-21.4 16.3,-47 29.7,-51.9 4.2,-1.6 9.8,-2.6 11.4,-2.5 3.3,0.2 5.4,0.5 6.8,0.6 3.6,0.5 -1.8,9.3 11.9,8.6 8.3,-0.4 4.5,-8.7 8.5,-9 7.5,-0.6 15.5,-0.5 23.5,5 -0.1,0 -9,28.5 -28.4,49.4 z" />
    <clipPath
       id="SVGID_30_">
      <use
         xlink:href="#SVGID_29_"
         style="overflow:visible"
         id="use9751"
         x="0"
         y="0"
         width="100%"
         height="100%" />
    </clipPath>
    <path
       id="SVGID_29_"
       d="m 535,979.7 c 0,20.3 -16.4,36.7 -36.7,36.7 H 362.2 c -20.3,0 -36.7,-16.4 -36.7,-36.7 V 843.5 c 0,-20.3 16.4,-36.7 36.7,-36.7 h 136.2 c 20.3,0 36.7,16.4 36.7,36.7 v 136.2 z" />
  </defs>
  <metadata
     id="metadata5">
    <rdf:RDF>
      <cc:Work
         rdf:about="">
        <dc:format>image/svg+xml</dc:format>
        <dc:type
           rdf:resource="http://purl.org/dc/dcmitype/StillImage" />
        <dc:title></dc:title>
      </cc:Work>
    </rdf:RDF>
  </metadata>
  <g
     transform="translate(-200.28064,-280.89945)"
     id="layer1">
    <g
       id="g9788"
       transform="matrix(0.26458333,0,0,0.26458333,114.15877,67.433615)">
      <path
         class="st67"
         d="m 535,979.7 c 0,20.3 -16.4,36.7 -36.7,36.7 H 362.2 c -20.3,0 -36.7,-16.4 -36.7,-36.7 V 843.5 c 0,-20.3 16.4,-36.7 36.7,-36.7 h 136.2 c 20.3,0 36.7,16.4 36.7,36.7 v 136.2 z"
         id="path9746"
         style="fill:#ecdcdd" />
      <g
         id="g9786">
        <defs
           id="defs9749">
          <path
             id="path16372"
             d="m 535,979.7 c 0,20.3 -16.4,36.7 -36.7,36.7 H 362.2 c -20.3,0 -36.7,-16.4 -36.7,-36.7 V 843.5 c 0,-20.3 16.4,-36.7 36.7,-36.7 h 136.2 c 20.3,0 36.7,16.4 36.7,36.7 v 136.2 z" />
        </defs>
        <clipPath
           id="clipPath16319">
          <use
             xlink:href="#SVGID_29_"
             style="overflow:visible"
             id="use16317"
             x="0"
             y="0"
             width="100%"
             height="100%" />
        </clipPath>
        <g
           class="st68"
           clip-path="url(#SVGID_30_)"
           id="g9784">
          <path
             class="st69"
             d="m 414,975.4 c 9.6,-0.8 20.8,-1.2 32.4,0.3 17.6,1.2 30.3,2.7 36,9.3 4.8,5.5 8.3,31.2 10.2,39.2 -38.2,0.2 -84.5,0.2 -122.7,0.4 0,-11.6 4.3,-22.8 5.8,-33.7 1.3,-9.2 26.4,-14.6 38.3,-15.5 z"
             id="path9754"
             style="clip-rule:evenodd;fill:#a3373a;fill-rule:evenodd" />
          <path
             class="st70"
             d="m 442.8,1024.5 c 3.5,-11.3 7.1,-43.2 1.1,-47.9 -1.8,-1.4 -2.6,-9.3 -2.5,-9.5 13.9,0 24.8,14.8 29.5,26.6 1,2.6 5.3,9.7 1.7,9.7 -3.6,0 -13.4,-0.9 -15.5,-0.3 -1.6,0.5 1.1,3.2 0.1,4 -3,2.4 -6.5,11.8 -11.2,17.4 z"
             id="path9756"
             style="clip-rule:evenodd;fill:#773233;fill-rule:evenodd" />
          <path
             class="st17"
             d="m 437.7,981.1 -22.8,-1.5 2.3,44.7 25.4,0.1 c 2.5,0 6.8,-27.2 8.4,-43 z"
             id="path9758"
             style="clip-rule:evenodd;fill:#e4e4e3;fill-rule:evenodd" />
          <path
             class="st13"
             d="m 443.2,949.9 -25.9,-1.2 c -0.1,0.5 1.4,25.6 2,28.6 1.1,4.2 10,39.2 13.1,39.2 2.8,0 9.7,-34.4 10.7,-40.5 z"
             id="path9760"
             style="clip-rule:evenodd;fill:#c9a970;fill-rule:evenodd" />
          <path
             class="st27"
             d="m 442.7,969.3 c -0.7,11.5 -7,35.8 -10.8,47.3 0.2,0.1 0.3,1.2 1.7,-1.4 2.8,-5.2 9.3,-24.2 11.2,-23.4 7.2,3 22,7.1 22,7 -6.5,-14.3 -11.1,-27.9 -24.1,-29.5 z"
             id="path9762"
             style="clip-rule:evenodd;fill:#ffffff;fill-rule:evenodd" />
          <path
             class="st70"
             d="m 397.4,1024.1 -5,-0.1 c 1.1,-6.6 2.2,-14.1 4.1,-12.6 z"
             id="path9764"
             style="clip-rule:evenodd;fill:#773233;fill-rule:evenodd" />
          <path
             class="st70"
             d="m 467,1024.6 5,-0.1 c -1.1,-6.4 -2.2,-13.7 -4.1,-12.2 z"
             id="path9766"
             style="clip-rule:evenodd;fill:#773233;fill-rule:evenodd" />
          <path
             class="st70"
             d="m 420.8,1024.5 c -3.5,-11.4 -7,-43 -1,-47.7 1.8,-1.4 -0.5,-1.4 -0.6,-1.7 -6.8,0 -2.9,-10.6 -8.1,-7.5 -5.4,3.2 -19.8,20.3 -22.2,26.3 -1,2.6 -3.4,10.1 0.2,10.1 3.6,0 15.3,-1.3 17.5,-0.7 1.6,0.5 -1.1,3.2 -0.1,4 2.9,2.3 6.4,11.6 11,17.2 z"
             id="path9768"
             style="clip-rule:evenodd;fill:#773233;fill-rule:evenodd" />
          <path
             class="st27"
             d="m 419.4,968 c 0.7,11.5 9,36.7 12.7,48.2 -0.2,0.1 -0.3,1.2 -1.7,-1.4 -2.8,-5.2 -9.7,-23.7 -11.6,-22.9 -7.2,3 -22,7.1 -22,7 6.6,-14.2 8.4,-30.1 22.6,-30.9 z"
             id="path9770"
             style="clip-rule:evenodd;fill:#ffffff;fill-rule:evenodd" />
          <path
             class="st14"
             d="m 388.6,880.7 1.7,25.6 c 0,11.3 3.5,29.4 7.6,40 5.4,14.1 3.9,17 18.6,25.1 8,4.4 26.2,-1.8 33.8,-6.6 12.4,-7.8 14.7,-14.3 16.6,-28.6 0.5,-4.1 0.9,-9.9 0.9,-14.1 l 1.5,-38.8 -4.3,-10 -68.4,2.8 z"
             id="path9772"
             style="clip-rule:evenodd;fill:#efd8aa;fill-rule:evenodd" />
          <path
             class="st14"
             d="m 468.8,907.5 4.1,-8.4 c -0.2,-3.6 13.6,-2.2 -2.6,24.7 -0.1,0.1 -2,1 -2.2,1 z"
             id="path9774"
             style="clip-rule:evenodd;fill:#efd8aa;fill-rule:evenodd" />
          <path
             class="st71"
             d="m 398.3,878.4 c -6.9,-1.9 5.7,10.1 -0.9,15 -8,5.9 -6.3,18.8 -5.2,27.1 1.1,8.3 -5.6,9.4 -5.3,-4.4 0.3,-12.3 -6.1,-13.3 -7.6,-29.5 -0.3,-3 -0.7,-6 -1.2,-12.1 -0.3,-3.3 -0.1,-7 3,-6 7.8,2.6 -3.6,-11.3 -0.3,-17.6 2.5,-4.9 4.2,4.2 4.6,-8.3 0.1,-2 -4.3,-13.3 2,-8.5 1.4,1.1 17,8.2 7.5,3 -2.5,-1.3 -7.7,-12.3 0.9,-4.2 -0.4,-3 -4.9,-6.6 5.1,-6.6 3.7,0 1.1,9.1 11.9,6.5 7,-1.7 4.3,-15.6 8.5,-9.9 2.9,3.9 8,8.9 11.2,13.3 4.1,-1.8 -7.1,-17.5 0.7,-14.5 3.3,1.3 -1.3,3.1 6.1,0.5 4.7,-1.7 0.6,1.9 2.4,-2.3 3.7,-0.5 12.3,16.6 14,10.2 2.4,-9.4 7.8,-9.6 5.4,-2 -1.7,5.7 2.2,11.3 6.2,-0.4 0,-0.1 5.5,3 3.4,6.8 -3.7,6.9 6.8,6.9 6.4,11.4 4.4,0 11.4,0.8 4.9,5.9 -2.5,1.9 -8.6,3 3.8,5.4 2,0.4 -0.7,4.6 -5.4,4.8 -2.8,0.1 1.2,17.8 -3.1,24.2 -3.3,4.9 7.5,14 -1.2,11.5 -7.3,-2.1 2.4,8.1 -3.8,14.7 -5.6,6 0.4,13.9 -5.5,15.6 -0.5,-0.8 -0.4,-7.3 -0.4,-8.7 0,-5.3 0.8,-13.4 -2.6,-17.6 -3,-3.8 -2.6,-25.6 -6.5,-25.6 -4.4,0 -12.1,0 -18.7,1.4 -6.8,1.4 -12.6,4.2 -16.1,1.8 -1.9,-1.2 -24.1,-0.9 -24.2,-0.9 z"
             id="path9776"
             style="clip-rule:evenodd;fill:#503c1c;fill-rule:evenodd" />
          <path
             class="st71"
             d="m 412.7,968.7 c 0.8,5.3 10.8,10 18.4,10 16.5,0.1 20.7,-15.1 17.4,-12.9 -1.3,0.8 -7.6,3.7 -12.2,5 -1.3,0.4 -6.2,1.3 -9.8,0.9 -7,-0.8 -13.2,-3.7 -13.8,-3 z"
             id="path9778"
             style="clip-rule:evenodd;fill:#503c1c;fill-rule:evenodd" />
          <path
             class="st71"
             d="m 439.1,907.7 c 2.7,-0.5 25.6,-6.9 22.9,2.6 -0.1,0.4 -23.5,1 -23.5,-1.2 0,-0.7 -0.2,-1.3 0.6,-1.4 z"
             id="path9780"
             style="clip-rule:evenodd;fill:#503c1c;fill-rule:evenodd" />
          <path
             class="st71"
             d="m 422.4,911 c -1.5,-4.4 -11.7,-4 -16.6,-3.3 -9,1.4 -13.6,4.7 1,4 1.9,0 15.6,-0.6 15.6,-0.7 z"
             id="path9782"
             style="clip-rule:evenodd;fill:#503c1c;fill-rule:evenodd" />
        </g>
      </g>
    </g>
  </g>
</svg>
