<?xml version="1.0" encoding="UTF-8" standalone="no"?>
<svg
   xmlns:dc="http://purl.org/dc/elements/1.1/"
   xmlns:cc="http://creativecommons.org/ns#"
   xmlns:rdf="http://www.w3.org/1999/02/22-rdf-syntax-ns#"
   xmlns:svg="http://www.w3.org/2000/svg"
   xmlns="http://www.w3.org/2000/svg"
   xmlns:xlink="http://www.w3.org/1999/xlink"
   id="svg8"
   version="1.1"
   viewBox="0 0 55.456665 55.456665"
   height="55.456665mm"
   width="55.456665mm">
  <defs
     id="defs2">
    <clipPath
       id="clipPath2444"
       clipPathUnits="userSpaceOnUse">
      <path
         id="path2442"
         d="m 87.298,2047.988 c -12.367,0 -22.391,-10.024 -22.391,-22.389 v 0 -83.06 c 0,-12.367 10.024,-22.39 22.391,-22.39 v 0 h 83.058 c 12.367,0 22.391,10.023 22.391,22.39 v 0 83.06 c 0,12.365 -10.024,22.389 -22.391,22.389 v 0 z" />
    </clipPath>
    <clipPath
       id="SVGID_14_">
      <use
         xlink:href="#SVGID_13_"
         style="overflow:visible"
         id="use1204"
         x="0"
         y="0"
         width="100%"
         height="100%" />
    </clipPath>
    <path
       id="SVGID_13_"
       d="m 694.5,450.6 -28.3,-1.2 c -0.1,0.5 2.2,16.4 2.9,19.5 1.2,4.2 6.1,37.5 11.8,37.8 6.1,0.3 9.8,-33.2 10.9,-39.5 z" />
    <clipPath
       id="SVGID_8_">
      <use
         xlink:href="#SVGID_7_"
         style="overflow:visible"
         id="use1110"
         x="0"
         y="0"
         width="100%"
         height="100%" />
    </clipPath>
    <clipPath
       id="SVGID_10_">
      <use
         xlink:href="#SVGID_9_"
         style="overflow:visible"
         id="use1120"
         x="0"
         y="0"
         width="100%"
         height="100%" />
    </clipPath>
    <path
       id="SVGID_7_"
       d="m 537.3,480.6 c 0,19.8 -16.1,35.9 -35.9,35.9 H 368 c -19.9,0 -35.9,-16.1 -35.9,-35.9 V 347.3 c 0,-19.9 16.1,-35.9 35.9,-35.9 h 133.3 c 19.9,0 35.9,16.1 35.9,35.9 v 133.3 z" />
    <path
       id="SVGID_9_"
       d="M 448.4,448.5 429.6,447 c -0.1,0.6 1,32.1 1.4,35.9 1.6,10.6 15.8,13.4 17.2,-1.7 z" />
    <clipPath
       id="SVGID_22_">
      <use
         xlink:href="#SVGID_21_"
         style="overflow:visible"
         id="use1352"
         x="0"
         y="0"
         width="100%"
         height="100%" />
    </clipPath>
    <path
       id="SVGID_21_"
       d="m 1031.6,480.6 c 0,19.9 -16.1,35.9 -35.9,35.9 H 862.4 c -19.9,0 -35.9,-16.1 -35.9,-35.9 V 347.3 c 0,-19.9 16.1,-35.9 35.9,-35.9 h 133.3 c 19.9,0 35.9,16.1 35.9,35.9 z" />
    <clipPath
       id="SVGID_16_">
      <use
         height="100%"
         width="100%"
         y="0"
         x="0"
         id="use9459"
         style="overflow:visible"
         xlink:href="#SVGID_15_" />
    </clipPath>
    <path
       d="m 290.2,497 c 0,20.3 -16.4,36.7 -36.7,36.7 H 117.3 C 97,533.7 80.6,517.3 80.6,497 V 360.8 c 0,-20.3 16.4,-36.7 36.7,-36.7 h 136.2 c 20.3,0 36.7,16.4 36.7,36.7 z"
       id="SVGID_15_" />
    <clipPath
       id="SVGID_26_">
      <use
         xlink:href="#SVGID_25_"
         style="overflow:visible"
         id="use9668"
         x="0"
         y="0"
         width="100%"
         height="100%" />
    </clipPath>
    <path
       id="SVGID_25_"
       d="m 535,497 c 0,20.3 -16.4,36.7 -36.7,36.7 H 362.2 c -20.3,0 -36.7,-16.4 -36.7,-36.7 V 360.8 c 0,-20.3 16.4,-36.7 36.7,-36.7 h 136.2 c 20.3,0 36.7,16.4 36.7,36.7 V 497 Z" />
    <clipPath
       id="SVGID_2_">
      <use
         xlink:href="#SVGID_1_"
         style="overflow:visible"
         id="use9226"
         x="0"
         y="0"
         width="100%"
         height="100%" />
    </clipPath>
    <clipPath
       id="SVGID_4_">
      <use
         xlink:href="#SVGID_3_"
         style="overflow:visible"
         id="use9232"
         x="0"
         y="0"
         width="100%"
         height="100%" />
    </clipPath>
    <clipPath
       id="clipPath14027">
      <use
         xlink:href="#SVGID_3_"
         style="overflow:visible"
         id="use14025"
         x="0"
         y="0"
         width="100%"
         height="100%" />
    </clipPath>
    <clipPath
       id="clipPath14031">
      <use
         xlink:href="#SVGID_3_"
         style="overflow:visible"
         id="use14029"
         x="0"
         y="0"
         width="100%"
         height="100%" />
    </clipPath>
    <clipPath
       id="clipPath14035">
      <use
         xlink:href="#SVGID_3_"
         style="overflow:visible"
         id="use14033"
         x="0"
         y="0"
         width="100%"
         height="100%" />
    </clipPath>
    <clipPath
       id="clipPath14039">
      <use
         xlink:href="#SVGID_3_"
         style="overflow:visible"
         id="use14037"
         x="0"
         y="0"
         width="100%"
         height="100%" />
    </clipPath>
    <clipPath
       id="clipPath14043">
      <use
         xlink:href="#SVGID_3_"
         style="overflow:visible"
         id="use14041"
         x="0"
         y="0"
         width="100%"
         height="100%" />
    </clipPath>
    <clipPath
       id="clipPath14047">
      <use
         xlink:href="#SVGID_3_"
         style="overflow:visible"
         id="use14045"
         x="0"
         y="0"
         width="100%"
         height="100%" />
    </clipPath>
    <path
       id="SVGID_1_"
       d="m 784.9,497 c 0,20.3 -16.4,36.7 -36.7,36.7 H 612.1 c -20.3,0 -36.7,-16.4 -36.7,-36.7 V 360.8 c 0,-20.3 16.4,-36.7 36.7,-36.7 h 136.2 c 20.3,0 36.7,16.4 36.7,36.7 V 497 Z" />
    <path
       id="SVGID_3_"
       d="m 662.6,470.7 c 10.9,-1 23.8,-1.6 37.1,0.4 40.5,3.2 43.1,43.5 47.5,65.1 -45.4,0.3 -89,0.6 -131.1,0.9 0,-26.5 13.1,-63.4 46.5,-66.4 z" />
    <clipPath
       id="SVGID_36_">
      <use
         height="100%"
         width="100%"
         y="0"
         x="0"
         id="use9875"
         style="overflow:visible"
         xlink:href="#SVGID_35_" />
    </clipPath>
    <path
       d="m 1036.4,497 c 0,20.3 -16.4,36.7 -36.7,36.7 H 863.6 c -20.3,0 -36.7,-16.4 -36.7,-36.7 V 360.8 c 0,-20.3 16.4,-36.7 36.7,-36.7 h 136.2 c 20.3,0 36.7,16.4 36.7,36.7 V 497 Z"
       id="SVGID_35_" />
    <clipPath
       id="SVGID_56_">
      <use
         xlink:href="#SVGID_55_"
         style="overflow:visible"
         id="use10272"
         x="0"
         y="0"
         width="100%"
         height="100%" />
    </clipPath>
    <path
       id="SVGID_55_"
       d="m 1282.1,497 c 0,20.3 -16.4,36.7 -36.7,36.7 h -136.2 c -20.3,0 -36.7,-16.4 -36.7,-36.7 V 360.8 c 0,-20.3 16.4,-36.7 36.7,-36.7 h 136.2 c 20.3,0 36.7,16.4 36.7,36.7 z" />
    <clipPath
       id="SVGID_46_">
      <use
         xlink:href="#SVGID_45_"
         style="overflow:visible"
         id="use10074"
         x="0"
         y="0"
         width="100%"
         height="100%" />
    </clipPath>
    <clipPath
       id="SVGID_48_">
      <use
         xlink:href="#SVGID_47_"
         style="overflow:visible"
         id="use10084"
         x="0"
         y="0"
         width="100%"
         height="100%" />
    </clipPath>
    <clipPath
       id="clipPath14969">
      <use
         xlink:href="#SVGID_47_"
         style="overflow:visible"
         id="use14967"
         x="0"
         y="0"
         width="100%"
         height="100%" />
    </clipPath>
    <clipPath
       id="clipPath14973">
      <use
         xlink:href="#SVGID_47_"
         style="overflow:visible"
         id="use14971"
         x="0"
         y="0"
         width="100%"
         height="100%" />
    </clipPath>
    <clipPath
       id="clipPath14977">
      <use
         xlink:href="#SVGID_47_"
         style="overflow:visible"
         id="use14975"
         x="0"
         y="0"
         width="100%"
         height="100%" />
    </clipPath>
    <clipPath
       id="clipPath14981">
      <use
         xlink:href="#SVGID_47_"
         style="overflow:visible"
         id="use14979"
         x="0"
         y="0"
         width="100%"
         height="100%" />
    </clipPath>
    <clipPath
       id="clipPath14985">
      <use
         xlink:href="#SVGID_47_"
         style="overflow:visible"
         id="use14983"
         x="0"
         y="0"
         width="100%"
         height="100%" />
    </clipPath>
    <clipPath
       id="clipPath14989">
      <use
         xlink:href="#SVGID_47_"
         style="overflow:visible"
         id="use14987"
         x="0"
         y="0"
         width="100%"
         height="100%" />
    </clipPath>
    <clipPath
       id="clipPath14993">
      <use
         xlink:href="#SVGID_47_"
         style="overflow:visible"
         id="use14991"
         x="0"
         y="0"
         width="100%"
         height="100%" />
    </clipPath>
    <clipPath
       id="clipPath14997">
      <use
         xlink:href="#SVGID_47_"
         style="overflow:visible"
         id="use14995"
         x="0"
         y="0"
         width="100%"
         height="100%" />
    </clipPath>
    <clipPath
       id="clipPath15001">
      <use
         xlink:href="#SVGID_47_"
         style="overflow:visible"
         id="use14999"
         x="0"
         y="0"
         width="100%"
         height="100%" />
    </clipPath>
    <clipPath
       id="clipPath15005">
      <use
         xlink:href="#SVGID_47_"
         style="overflow:visible"
         id="use15003"
         x="0"
         y="0"
         width="100%"
         height="100%" />
    </clipPath>
    <clipPath
       id="clipPath15009">
      <use
         xlink:href="#SVGID_47_"
         style="overflow:visible"
         id="use15007"
         x="0"
         y="0"
         width="100%"
         height="100%" />
    </clipPath>
    <clipPath
       id="clipPath15013">
      <use
         xlink:href="#SVGID_47_"
         style="overflow:visible"
         id="use15011"
         x="0"
         y="0"
         width="100%"
         height="100%" />
    </clipPath>
    <clipPath
       id="clipPath15017">
      <use
         xlink:href="#SVGID_47_"
         style="overflow:visible"
         id="use15015"
         x="0"
         y="0"
         width="100%"
         height="100%" />
    </clipPath>
    <clipPath
       id="clipPath15021">
      <use
         xlink:href="#SVGID_47_"
         style="overflow:visible"
         id="use15019"
         x="0"
         y="0"
         width="100%"
         height="100%" />
    </clipPath>
    <clipPath
       id="clipPath15025">
      <use
         xlink:href="#SVGID_47_"
         style="overflow:visible"
         id="use15023"
         x="0"
         y="0"
         width="100%"
         height="100%" />
    </clipPath>
    <clipPath
       id="clipPath15029">
      <use
         xlink:href="#SVGID_47_"
         style="overflow:visible"
         id="use15027"
         x="0"
         y="0"
         width="100%"
         height="100%" />
    </clipPath>
    <clipPath
       id="clipPath15033">
      <use
         xlink:href="#SVGID_47_"
         style="overflow:visible"
         id="use15031"
         x="0"
         y="0"
         width="100%"
         height="100%" />
    </clipPath>
    <clipPath
       id="clipPath15037">
      <use
         xlink:href="#SVGID_47_"
         style="overflow:visible"
         id="use15035"
         x="0"
         y="0"
         width="100%"
         height="100%" />
    </clipPath>
    <clipPath
       id="clipPath15041">
      <use
         xlink:href="#SVGID_47_"
         style="overflow:visible"
         id="use15039"
         x="0"
         y="0"
         width="100%"
         height="100%" />
    </clipPath>
    <clipPath
       id="clipPath15045">
      <use
         xlink:href="#SVGID_47_"
         style="overflow:visible"
         id="use15043"
         x="0"
         y="0"
         width="100%"
         height="100%" />
    </clipPath>
    <clipPath
       id="clipPath15049">
      <use
         xlink:href="#SVGID_47_"
         style="overflow:visible"
         id="use15047"
         x="0"
         y="0"
         width="100%"
         height="100%" />
    </clipPath>
    <path
       id="SVGID_45_"
       d="m 1525.5,497 c 0,20.3 -16.4,36.7 -36.7,36.7 h -136.2 c -20.3,0 -36.7,-16.4 -36.7,-36.7 V 360.8 c 0,-20.3 16.4,-36.7 36.7,-36.7 h 136.2 c 20.3,0 36.7,16.4 36.7,36.7 z" />
    <path
       id="SVGID_47_"
       d="m 1409.8,478.1 c 9.8,-0.9 21.2,-1.4 33.1,0.4 36.2,2.8 38.5,37.8 42.5,56.5 -39.1,0.3 -78.1,0.5 -117.2,0.8 0,-23.1 11.7,-55.1 41.6,-57.7 z" />
    <clipPath
       id="SVGID_18_">
      <use
         xlink:href="#SVGID_17_"
         style="overflow:visible"
         id="use9486"
         x="0"
         y="0"
         width="100%"
         height="100%" />
    </clipPath>
    <path
       id="SVGID_17_"
       d="m 290.2,734.8 c 0,20.3 -16.4,36.7 -36.7,36.7 H 117.3 C 97,771.5 80.6,755.1 80.6,734.8 V 598.6 c 0,-20.3 16.4,-36.7 36.7,-36.7 h 136.2 c 20.3,0 36.7,16.4 36.7,36.7 z" />
    <clipPath
       id="SVGID_28_">
      <use
         xlink:href="#SVGID_27_"
         style="overflow:visible"
         id="use9716"
         x="0"
         y="0"
         width="100%"
         height="100%" />
    </clipPath>
    <path
       id="SVGID_27_"
       d="m 535,734.8 c 0,20.3 -16.4,36.7 -36.7,36.7 H 362.2 c -20.3,0 -36.7,-16.4 -36.7,-36.7 V 598.6 c 0,-20.3 16.4,-36.7 36.7,-36.7 h 136.2 c 20.3,0 36.7,16.4 36.7,36.7 v 136.2 z" />
    <clipPath
       id="SVGID_6_">
      <use
         xlink:href="#SVGID_5_"
         style="overflow:visible"
         id="use9271"
         x="0"
         y="0"
         width="100%"
         height="100%" />
    </clipPath>
    <path
       id="SVGID_5_"
       d="m 784.9,734.8 c 0,20.3 -16.4,36.7 -36.7,36.7 H 612.1 c -20.3,0 -36.7,-16.4 -36.7,-36.7 V 598.6 c 0,-20.3 16.4,-36.7 36.7,-36.7 h 136.2 c 20.3,0 36.7,16.4 36.7,36.7 v 136.2 z" />
    <clipPath
       id="SVGID_38_">
      <use
         height="100%"
         width="100%"
         y="0"
         x="0"
         id="use9903"
         style="overflow:visible"
         xlink:href="#SVGID_37_" />
    </clipPath>
    <path
       d="m 1036.4,734.8 c 0,20.3 -16.4,36.7 -36.7,36.7 H 863.6 c -20.3,0 -36.7,-16.4 -36.7,-36.7 V 598.6 c 0,-20.3 16.4,-36.7 36.7,-36.7 h 136.2 c 20.3,0 36.7,16.4 36.7,36.7 v 136.2 z"
       id="SVGID_37_" />
    <clipPath
       id="SVGID_58_">
      <use
         xlink:href="#SVGID_57_"
         style="overflow:visible"
         id="use10309"
         x="0"
         y="0"
         width="100%"
         height="100%" />
    </clipPath>
    <path
       id="SVGID_57_"
       d="m 1282.1,734.8 c 0,20.3 -16.4,36.7 -36.7,36.7 h -136.2 c -20.3,0 -36.7,-16.4 -36.7,-36.7 V 598.6 c 0,-20.3 16.4,-36.7 36.7,-36.7 h 136.2 c 20.3,0 36.7,16.4 36.7,36.7 z" />
    <clipPath
       id="SVGID_44_">
      <use
         xlink:href="#SVGID_43_"
         style="overflow:visible"
         id="use10042"
         x="0"
         y="0"
         width="100%"
         height="100%" />
    </clipPath>
    <path
       id="SVGID_43_"
       d="m 1525.5,734.8 c 0,20.3 -16.4,36.7 -36.7,36.7 h -136.2 c -20.3,0 -36.7,-16.4 -36.7,-36.7 V 598.6 c 0,-20.3 16.4,-36.7 36.7,-36.7 h 136.2 c 20.3,0 36.7,16.4 36.7,36.7 z" />
    <clipPath
       id="SVGID_20_">
      <use
         xlink:href="#SVGID_19_"
         style="overflow:visible"
         id="use9530"
         x="0"
         y="0"
         width="100%"
         height="100%" />
    </clipPath>
    <clipPath
       id="SVGID_22_-3">
      <use
         xlink:href="#SVGID_21_-6"
         style="overflow:visible"
         id="use9608"
         x="0"
         y="0"
         width="100%"
         height="100%" />
    </clipPath>
    <path
       id="SVGID_19_"
       d="m 290.2,979.7 c 0,20.3 -16.4,36.7 -36.7,36.7 H 117.3 C 97,1016.4 80.6,1000 80.6,979.7 V 843.5 c 0,-20.3 16.4,-36.7 36.7,-36.7 h 136.2 c 20.3,0 36.7,16.4 36.7,36.7 z" />
    <path
       id="SVGID_21_-6"
       d="m 194.4,1018.9 c -1.9,2 -63.5,1.8 -63.4,-0.2 0.8,-21.4 16.3,-47 29.7,-51.9 4.2,-1.6 9.8,-2.6 11.4,-2.5 3.3,0.2 5.4,0.5 6.8,0.6 3.6,0.5 -1.8,9.3 11.9,8.6 8.3,-0.4 4.5,-8.7 8.5,-9 7.5,-0.6 15.5,-0.5 23.5,5 -0.1,0 -9,28.5 -28.4,49.4 z" />
    <clipPath
       id="SVGID_30_">
      <use
         xlink:href="#SVGID_29_"
         style="overflow:visible"
         id="use9751"
         x="0"
         y="0"
         width="100%"
         height="100%" />
    </clipPath>
    <path
       id="SVGID_29_"
       d="m 535,979.7 c 0,20.3 -16.4,36.7 -36.7,36.7 H 362.2 c -20.3,0 -36.7,-16.4 -36.7,-36.7 V 843.5 c 0,-20.3 16.4,-36.7 36.7,-36.7 h 136.2 c 20.3,0 36.7,16.4 36.7,36.7 v 136.2 z" />
    <clipPath
       id="SVGID_8_-7">
      <use
         xlink:href="#SVGID_7_-3"
         style="overflow:visible"
         id="use9309"
         x="0"
         y="0"
         width="100%"
         height="100%" />
    </clipPath>
    <clipPath
       id="SVGID_10_-5">
      <use
         xlink:href="#SVGID_9_-5"
         style="overflow:visible"
         id="use9317"
         x="0"
         y="0"
         width="100%"
         height="100%" />
    </clipPath>
    <clipPath
       id="clipPath16428">
      <use
         xlink:href="#SVGID_9_-5"
         style="overflow:visible"
         id="use16426"
         x="0"
         y="0"
         width="100%"
         height="100%" />
    </clipPath>
    <clipPath
       id="clipPath16432">
      <use
         xlink:href="#SVGID_9_-5"
         style="overflow:visible"
         id="use16430"
         x="0"
         y="0"
         width="100%"
         height="100%" />
    </clipPath>
    <clipPath
       id="clipPath16436">
      <use
         xlink:href="#SVGID_9_-5"
         style="overflow:visible"
         id="use16434"
         x="0"
         y="0"
         width="100%"
         height="100%" />
    </clipPath>
    <clipPath
       id="SVGID_12_">
      <use
         xlink:href="#SVGID_11_"
         style="overflow:visible"
         id="use9335"
         x="0"
         y="0"
         width="100%"
         height="100%" />
    </clipPath>
    <path
       id="SVGID_7_-3"
       d="m 784.9,979.7 c 0,20.3 -16.4,36.7 -36.7,36.7 H 612.1 c -20.3,0 -36.7,-16.4 -36.7,-36.7 V 843.5 c 0,-20.3 16.4,-36.7 36.7,-36.7 h 136.2 c 20.3,0 36.7,16.4 36.7,36.7 v 136.2 z" />
    <path
       id="SVGID_9_-5"
       d="m 665.9,963.5 c 9.7,-0.9 21.1,-1.4 32.9,0.4 36,2.8 38.2,37.5 42.2,56.1 -38.8,0.3 -77.6,0.5 -116.4,0.8 0,-23 11.6,-54.7 41.3,-57.3 z" />
    <path
       id="SVGID_11_"
       d="m 696.5,953.1 -29.2,-0.8 c -0.1,0.4 1.5,17.2 2.2,19.3 1.2,2.8 6.4,22.8 12.4,22.9 6.2,0.1 13.3,-19.7 14.4,-23.8 z" />
  </defs>
  <metadata
     id="metadata5">
    <rdf:RDF>
      <cc:Work
         rdf:about="">
        <dc:format>image/svg+xml</dc:format>
        <dc:type
           rdf:resource="http://purl.org/dc/dcmitype/StillImage" />
        <dc:title></dc:title>
      </cc:Work>
    </rdf:RDF>
  </metadata>
  <g
     transform="translate(-305.59993,-268.56231)"
     id="layer1">
    <g
       id="g9398"
       transform="matrix(0.26458333,0,0,0.26458333,153.35868,55.096475)">
      <path
         class="st18"
         d="m 784.9,979.7 c 0,20.3 -16.4,36.7 -36.7,36.7 H 612.1 c -20.3,0 -36.7,-16.4 -36.7,-36.7 V 843.5 c 0,-20.3 16.4,-36.7 36.7,-36.7 h 136.2 c 20.3,0 36.7,16.4 36.7,36.7 v 136.2 z"
         id="path9304"
         style="fill:#ab352c" />
      <g
         id="g9396">
        <defs
           id="defs9307">
          <path
             id="path16580"
             d="m 784.9,979.7 c 0,20.3 -16.4,36.7 -36.7,36.7 H 612.1 c -20.3,0 -36.7,-16.4 -36.7,-36.7 V 843.5 c 0,-20.3 16.4,-36.7 36.7,-36.7 h 136.2 c 20.3,0 36.7,16.4 36.7,36.7 v 136.2 z" />
        </defs>
        <clipPath
           id="clipPath16445">
          <use
             xlink:href="#SVGID_7_-3"
             style="overflow:visible"
             id="use16443"
             x="0"
             y="0"
             width="100%"
             height="100%" />
        </clipPath>
        <g
           class="st19"
           clip-path="url(#SVGID_8_-7)"
           id="g9394">
          <path
             class="st20"
             d="m 665.9,963.5 c 9.7,-0.9 21.1,-1.4 32.9,0.4 36,2.8 38.2,37.5 42.2,56.1 -38.8,0.3 -77.6,0.5 -116.4,0.8 0,-23 11.6,-54.7 41.3,-57.3 z"
             id="path9312"
             style="clip-rule:evenodd;fill:#eae14b;fill-rule:evenodd" />
          <g
             id="g9328">
            <defs
               id="defs9315">
              <path
                 id="path16586"
                 d="m 665.9,963.5 c 9.7,-0.9 21.1,-1.4 32.9,0.4 36,2.8 38.2,37.5 42.2,56.1 -38.8,0.3 -77.6,0.5 -116.4,0.8 0,-23 11.6,-54.7 41.3,-57.3 z" />
            </defs>
            <clipPath
               id="clipPath16452">
              <use
                 xlink:href="#SVGID_9_-5"
                 style="overflow:visible"
                 id="use16450"
                 x="0"
                 y="0"
                 width="100%"
                 height="100%" />
            </clipPath>
            <path
               class="st21"
               d="m 626.6,1006.2 15.5,5.2 c 2,-11.7 8.9,-24 8.9,-44.9 l -14.5,6.2 -10.5,22.9 z"
               clip-path="url(#SVGID_10_-5)"
               id="path9320"
               style="clip-rule:evenodd;fill:#e0c184;fill-rule:evenodd" />
            <path
               class="st21"
               d="m 736.6,1002.3 -15.5,5.2 c -2,-11.7 -8.9,-24 -8.9,-44.9 l 14.5,6.2 10.4,22.8 z"
               clip-path="url(#SVGID_10_-5)"
               id="path9322"
               style="clip-rule:evenodd;fill:#e0c184;fill-rule:evenodd" />
            <path
               class="st21"
               d="m 627.2,1000.1 c -0.6,2.7 -3.9,19 -2.5,20.7 h 17.2 c -1.7,-2 1.5,-12.7 1.5,-15.7 -10,0 -11.1,-1.7 -16.2,-5 z"
               clip-path="url(#SVGID_10_-5)"
               id="path9324"
               style="clip-rule:evenodd;fill:#e0c184;fill-rule:evenodd" />
            <path
               class="st21"
               d="m 736.5,999.2 c 0.8,2.7 5.8,19.3 4.5,21.1 l -17.1,0.2 c 1.5,-2.2 -2.8,-11.8 -3,-14.9 9.9,-0.9 10.8,-2.7 15.6,-6.4 z"
               clip-path="url(#SVGID_10_-5)"
               id="path9326"
               style="clip-rule:evenodd;fill:#e0c184;fill-rule:evenodd" />
          </g>
          <path
             class="st13"
             d="m 696.5,953.1 -29.2,-0.8 c -0.1,0.4 1.5,17.2 2.2,19.3 1.2,2.8 6.4,22.8 12.4,22.9 6.2,0.1 13.3,-19.7 14.4,-23.8 z"
             id="path9330"
             style="clip-rule:evenodd;fill:#c9a970;fill-rule:evenodd" />
          <g
             id="g9340">
            <defs
               id="defs9333">
              <path
                 id="path16597"
                 d="m 696.5,953.1 -29.2,-0.8 c -0.1,0.4 1.5,17.2 2.2,19.3 1.2,2.8 6.4,22.8 12.4,22.9 6.2,0.1 13.3,-19.7 14.4,-23.8 z" />
            </defs>
            <clipPath
               id="clipPath16464">
              <use
                 xlink:href="#SVGID_11_"
                 style="overflow:visible"
                 id="use16462"
                 x="0"
                 y="0"
                 width="100%"
                 height="100%" />
            </clipPath>
            <path
               class="st22"
               d="m 671.4,996.5 -5.5,-28 c 0.3,-0.1 13.6,3.2 17.5,3.2 12.7,0 7.5,-0.3 17.2,-3.9 l -6.4,20.7 -10.9,10.5 z"
               clip-path="url(#SVGID_12_)"
               id="path9338"
               style="clip-rule:evenodd;fill:#8c3637;fill-rule:evenodd" />
          </g>
          <path
             class="st23"
             d="M 696.5,953.1 V 953 l -29.2,-0.8 v 0.1 0.2 c 0,0.8 0.4,5.1 0.9,9.4 0.5,4.4 1,8.7 1.4,9.8 v 0 0 c 0.6,1.4 2.2,7.1 4.4,12.5 1.1,2.7 2.3,5.3 3.7,7.2 1.4,1.9 2.8,3.2 4.4,3.3 h 0.1 c 1.6,0 3.2,-1.3 4.8,-3.2 4.7,-5.8 8.8,-17.6 9.7,-20.7 v 0 l 0.2,-17.7 h -0.1 -0.3 -0.1 l -0.2,17.6 h 0.1 -0.1 c -0.6,2.1 -2.6,8 -5.3,13.4 -1.3,2.7 -2.8,5.3 -4.4,7.2 -1.5,1.9 -3.1,3.1 -4.6,3.1 h -0.1 c -1.4,0 -2.9,-1.3 -4.2,-3.2 -2,-2.9 -3.8,-7.3 -5.2,-11.2 -1.4,-3.9 -2.4,-7.4 -2.9,-8.4 h -0.1 0.1 c -0.3,-1 -0.9,-5.4 -1.4,-9.7 -0.5,-4.3 -0.9,-8.7 -0.9,-9.4 v -0.1 0 0 0 0 0 0 h -0.1 v 0.1 l 29.2,0.8 0.2,-0.2 h -0.1 z"
             id="path9342"
             style="fill:#896b36" />
          <path
             class="st14"
             d="m 724.2,929.5 c 0.6,-6 -0.6,-19.2 0,-25.2 2.3,-1.6 13.2,-3.3 16,4.2 3.5,10.4 -4.4,18.1 -7.4,20.4 -3.2,1.1 -7.4,0.9 -8.6,0.6 z"
             id="path9344"
             style="clip-rule:evenodd;fill:#efd8aa;fill-rule:evenodd" />
          <path
             class="st14"
             d="m 723.5,854.5 c -10.6,-21.8 -79.4,-22 -90,4.7 -5.5,24.9 -6,51.8 0.7,71.4 6.3,14.4 18.8,22.4 30.2,28.2 26.6,13.4 56,-6 62.7,-32.2 3.5,-24.7 5.5,-48.4 -3.6,-72.1 z"
             id="path9346"
             style="clip-rule:evenodd;fill:#efd8aa;fill-rule:evenodd" />
          <path
             class="st14"
             d="m 633.6,930.7 c -0.6,-5.9 0.6,-18.9 0,-24.9 -2.3,-1.6 -13.2,-3.3 -16,4.2 -3.5,10.2 4.4,17.8 7.4,20.1 3.2,1.2 7.4,1 8.6,0.6 z"
             id="path9348"
             style="clip-rule:evenodd;fill:#efd8aa;fill-rule:evenodd" />
          <path
             class="st24"
             d="m 687.1,898.5 c 8.4,-10.8 30.3,-7.6 37.1,3 5.3,8.2 1.2,27.6 -14.9,26.3 -16,-1.4 -29,-20.6 -22.2,-29.3 z"
             id="path9350"
             style="clip-rule:evenodd;fill:#010002;fill-rule:evenodd" />
          <path
             class="st25"
             d="m 722.5,908.3 c 0,1.2 0.8,2.2 1.8,2.2 h 4.1 c 1,0 1.8,-1 1.8,-2.2 0,-1.2 -0.8,-2.2 -1.8,-2.2 h -4.1 c -1,0 -1.8,1 -1.8,2.2 z"
             id="path9352"
             style="clip-rule:evenodd;fill:#808385;fill-rule:evenodd" />
          <path
             class="st24"
             d="m 674.1,898.5 c -8.4,-10.8 -30.3,-7.6 -37.1,3 -5.3,8.2 -1.2,27.6 14.9,26.3 16,-1.4 29,-20.6 22.2,-29.3 z"
             id="path9354"
             style="clip-rule:evenodd;fill:#010002;fill-rule:evenodd" />
          <path
             class="st25"
             d="m 638.8,908.3 c 0,1.2 -0.8,2.2 -1.8,2.2 h -4.1 c -1,0 -1.8,-1 -1.8,-2.2 0,-1.2 0.8,-2.2 1.8,-2.2 h 4.1 c 0.9,0 1.8,1 1.8,2.2 z"
             id="path9356"
             style="clip-rule:evenodd;fill:#808385;fill-rule:evenodd" />
          <path
             class="st25"
             d="m 694.8,893.2 c -0.2,-0.1 -4.3,-1.1 -14.2,-1.1 -9.9,0 -14,1.1 -14.2,1.1 l 0.6,2.1 c 0,0 4.1,-1 13.6,-1.1 9.5,0 13.6,1.1 13.7,1.1 z"
             id="path9358"
             style="clip-rule:evenodd;fill:#808385;fill-rule:evenodd" />
          <path
             class="st25"
             d="m 686.7,898.9 c -1,-1.3 -2.9,-2.7 -6.1,-2.8 -3.2,0.1 -5.1,1.5 -6.1,2.8 -1.1,1.4 -1.4,2.7 -1.4,2.8 l 2.3,0.5 c 0,-0.2 0.9,-3.7 5.2,-3.8 4.3,0.1 5.2,3.7 5.2,3.8 l 2.3,-0.5 c 0,-0.1 -0.3,-1.4 -1.4,-2.8 z"
             id="path9360"
             style="clip-rule:evenodd;fill:#808385;fill-rule:evenodd" />
          <path
             class="st24"
             d="m 658.1,893.6 c 3,0 5.9,0.5 8.3,1.5 2.6,1 4.7,2.5 6.2,4.5 1,1.2 1.5,2.8 1.5,4.6 0,1.8 -0.5,3.9 -1.4,6.1 -1.7,3.8 -4.6,7.5 -8.2,10.4 -4,3.1 -8.4,5 -12.8,5.3 -0.5,0 -0.9,0.1 -1.4,0.1 -2.6,0 -5,-0.7 -7,-2 -1.8,-1.2 -3.3,-2.9 -4.5,-5 -1.4,-2.6 -2.2,-5.8 -2.2,-8.9 0,-3 0.7,-5.8 1.9,-7.7 1.7,-2.6 4.5,-4.9 8.1,-6.5 3.5,-1.6 7.6,-2.4 11.5,-2.4 z m 0,-1.8 v 0 c -8.4,0 -17.2,3.6 -21.1,9.7 -5.1,7.9 -1.5,26.3 13.3,26.3 0.5,0 1,0 1.6,-0.1 16.1,-1.3 29.1,-20.5 22.3,-29.3 -3.7,-4.6 -9.8,-6.6 -16.1,-6.6 z"
             id="path9362"
             style="clip-rule:evenodd;fill:#010002;fill-rule:evenodd" />
          <path
             class="st24"
             d="m 703.1,893.6 c 3.9,0 8,0.9 11.5,2.4 3.6,1.6 6.4,3.8 8.1,6.5 1.3,1.9 1.9,4.7 1.9,7.7 0,3.2 -0.8,6.3 -2.2,8.9 -1.2,2.1 -2.7,3.8 -4.5,5 -2,1.3 -4.4,2 -7,2 -0.5,0 -0.9,0 -1.4,-0.1 -4.4,-0.4 -8.8,-2.2 -12.8,-5.3 -3.6,-2.9 -6.6,-6.5 -8.2,-10.4 -0.9,-2.1 -1.4,-4.2 -1.4,-6.1 0,-1.8 0.5,-3.4 1.5,-4.6 1.5,-2 3.6,-3.5 6.2,-4.5 2.4,-1 5.3,-1.5 8.3,-1.5 z m 0,-1.8 v 0 c -6.3,0 -12.4,2.1 -16,6.7 -6.8,8.8 6.2,27.9 22.3,29.3 0.5,0 1,0.1 1.6,0.1 14.8,0 18.5,-18.4 13.3,-26.3 -4,-6.2 -12.8,-9.8 -21.2,-9.8 z"
             id="path9364"
             style="clip-rule:evenodd;fill:#010002;fill-rule:evenodd" />
          <path
             class="st26"
             d="m 712.2,967.5 c 1.3,7 0.1,22.1 4.8,27.7 3.5,4.2 0.4,8.1 17.8,7.4 3.6,-0.1 11.7,5.8 8.7,-6.4 -7.3,-29.9 -31.3,-29 -31.3,-28.7 z"
             id="path9366"
             style="clip-rule:evenodd;fill:#8c3637;fill-rule:evenodd" />
          <path
             class="st26"
             d="m 650.7,967.6 c -9.4,-4.1 -32.9,17.8 -34.2,34 -0.6,7.1 4.1,4 15.5,6.3 17.6,3.7 11,-9.6 16.3,-21.1 1.5,-3.1 2.6,-19.1 2.4,-19.2 z"
             id="path9368"
             style="clip-rule:evenodd;fill:#8c3637;fill-rule:evenodd" />
          <path
             class="st27"
             d="m 689.2,997.3 c -2.5,1.7 -1.3,8 1.7,8 3.6,0 30.7,2.3 30.7,-1.9 0,-3.8 -0.5,-4 -1.6,-5.2 -1.6,-1.6 -28,-2.9 -30.8,-0.9 z"
             id="path9370"
             style="clip-rule:evenodd;fill:#ffffff;fill-rule:evenodd" />
          <path
             class="st27"
             d="m 678.7,996.3 c 2.8,1.7 1.5,8 -2,8 -4.1,0 -35.1,2.3 -35.1,-1.9 0,-3.8 0.5,-4 1.9,-5.2 1.8,-1.6 32,-2.8 35.2,-0.9 z"
             id="path9372"
             style="clip-rule:evenodd;fill:#ffffff;fill-rule:evenodd" />
          <path
             class="st27"
             d="m 689.2,1009.6 c -2.5,1.7 -1.3,8 1.7,8 3.6,0 30.7,2.3 30.7,-1.9 0,-3.8 -0.5,-4 -1.6,-5.2 -1.6,-1.5 -28,-2.8 -30.8,-0.9 z"
             id="path9374"
             style="clip-rule:evenodd;fill:#ffffff;fill-rule:evenodd" />
          <path
             class="st27"
             d="m 678.7,1008.7 c 2.8,1.7 1.5,8 -2,8 -4.1,0 -35.1,2.3 -35.1,-1.9 0,-3.8 0.5,-4.1 1.9,-5.2 1.8,-1.6 32,-2.8 35.2,-0.9 z"
             id="path9376"
             style="clip-rule:evenodd;fill:#ffffff;fill-rule:evenodd" />
          <path
             class="st28"
             d="m 728.3,865.3 -96.8,0.5 c 0,-21.2 8,-39.5 29.6,-45.6 12.6,-3.6 49,0 56.2,14.3 7.2,14.3 7,16.5 11,30.8 z"
             id="path9378"
             style="clip-rule:evenodd;fill:#e6cd44;fill-rule:evenodd" />
          <path
             class="st29"
             d="m 728.8,864.9 c -6.3,0 -29.1,-5.4 -50.7,-5.9 -22.5,-0.6 -43.6,3.7 -45.1,5 -0.4,0.3 -2.1,2.1 -2.2,1.9 12.3,14.2 68.6,21.6 84.6,7.4 1.1,-1.1 12.9,-7 13.4,-8.4 z"
             id="path9380"
             style="clip-rule:evenodd;fill:#dfb644;fill-rule:evenodd" />
          <path
             class="st30"
             d="m 728.8,863.6 c -6.3,0 -29.1,-4.3 -50.7,-4.7 -22.5,-0.5 -43.6,2.9 -45.1,4 -0.4,0.3 -2.1,1.7 -2.2,1.5 12.3,11.3 68.6,17.2 84.6,5.9 1.1,-0.8 12.9,-5.5 13.4,-6.7 z"
             id="path9382"
             style="clip-rule:evenodd;fill:#b29447;fill-rule:evenodd" />
          <path
             class="st30"
             d="m 660.4,823.5 c -5.8,-0.8 -14.1,11.7 -16.1,17.4 -8.3,23.5 5,19.7 5,17.9 0,-11.7 1.8,-27.2 11.1,-35.3 z"
             id="path9384"
             style="clip-rule:evenodd;fill:#b29447;fill-rule:evenodd" />
          <path
             class="st30"
             d="m 675.4,822.2 c -4.5,3.7 -9.9,35.6 2.9,35.6 8.1,0 5.1,-13.7 5.2,-21.4 0.1,-2.3 -2.6,-16.6 -7.7,-14.2 z"
             id="path9386"
             style="clip-rule:evenodd;fill:#b29447;fill-rule:evenodd" />
          <path
             class="st30"
             d="m 689.7,823.9 c 15.8,16.8 14.4,32.7 16.8,35.4 1.6,1.7 9.1,5 9.4,-0.9 0.6,-12.4 -0.7,-10.2 -7,-20.7 -1.8,-3 -14.8,-16.1 -18.9,-14 z"
             id="path9388"
             style="clip-rule:evenodd;fill:#b29447;fill-rule:evenodd" />
          <path
             class="st31"
             d="m 677.2,928.7 c 0.5,0.3 3.9,6 -1.9,7.8 -2.3,0.7 -8.2,3.5 -10.1,5.2 -0.8,0.7 -4.5,2.3 -4.5,1.4 0,-4 11.8,-7 14.7,-13 0.3,-0.5 1.3,-1.7 1.8,-1.4 z"
             id="path9390"
             style="clip-rule:evenodd;fill:#705528;fill-rule:evenodd" />
          <path
             class="st31"
             d="m 683.1,929 c -1.6,1.5 -2.5,5.1 0.7,6.3 3.5,1.4 9.5,1.8 12.8,4.6 1.6,1.3 2.7,1.4 2.7,-0.8 0,-4.4 -10.8,-4.3 -13,-8.8 -0.6,-1.2 -3.1,-1.4 -3.2,-1.3 z"
             id="path9392"
             style="clip-rule:evenodd;fill:#705528;fill-rule:evenodd" />
        </g>
      </g>
    </g>
  </g>
</svg>
