<?xml version="1.0" encoding="UTF-8" standalone="no"?>
<svg
   xmlns:dc="http://purl.org/dc/elements/1.1/"
   xmlns:cc="http://creativecommons.org/ns#"
   xmlns:rdf="http://www.w3.org/1999/02/22-rdf-syntax-ns#"
   xmlns:svg="http://www.w3.org/2000/svg"
   xmlns="http://www.w3.org/2000/svg"
   xmlns:xlink="http://www.w3.org/1999/xlink"
   id="svg8"
   version="1.1"
   viewBox="0 0 54.2925 54.318958"
   height="54.318958mm"
   width="54.2925mm">
  <defs
     id="defs2">
    <clipPath
       id="clipPath2444"
       clipPathUnits="userSpaceOnUse">
      <path
         id="path2442"
         d="m 87.298,2047.988 c -12.367,0 -22.391,-10.024 -22.391,-22.389 v 0 -83.06 c 0,-12.367 10.024,-22.39 22.391,-22.39 v 0 h 83.058 c 12.367,0 22.391,10.023 22.391,22.39 v 0 83.06 c 0,12.365 -10.024,22.389 -22.391,22.389 v 0 z" />
    </clipPath>
    <clipPath
       id="SVGID_14_">
      <use
         xlink:href="#SVGID_13_"
         style="overflow:visible"
         id="use1204"
         x="0"
         y="0"
         width="100%"
         height="100%" />
    </clipPath>
    <path
       id="SVGID_13_"
       d="m 694.5,450.6 -28.3,-1.2 c -0.1,0.5 2.2,16.4 2.9,19.5 1.2,4.2 6.1,37.5 11.8,37.8 6.1,0.3 9.8,-33.2 10.9,-39.5 z" />
  </defs>
  <metadata
     id="metadata5">
    <rdf:RDF>
      <cc:Work
         rdf:about="">
        <dc:format>image/svg+xml</dc:format>
        <dc:type
           rdf:resource="http://purl.org/dc/dcmitype/StillImage" />
        <dc:title></dc:title>
      </cc:Work>
    </rdf:RDF>
  </metadata>
  <g
     transform="translate(-88.643481,-92.81849)"
     id="layer1">
    <g
       transform="matrix(0.26458333,0,0,0.26458333,-63.968184,10.453699)"
       id="g1243">
      <path
         class="st26"
         d="m 782,480.5 c 0,19.9 -16.1,35.9 -35.9,35.9 H 612.7 c -19.9,0 -35.9,-16.1 -35.9,-35.9 V 347.2 c 0,-19.9 16.1,-35.9 35.9,-35.9 H 746 c 19.9,0 35.9,16.1 35.9,35.9 v 133.3 z"
         id="path1195"
         style="fill:#f6ebdb" />
      <g
         id="g1241">
        <g
           id="g1211">
          <path
             class="st27"
             d="m 721.1,516.6 h 16.8 c -6.9,-25.5 -24.7,-47.5 -47.3,-49.5 -4.2,-0.8 -7,-0.7 -9.3,-0.3 -2.3,-0.4 -5.1,-0.5 -9.3,0.3 -22.6,2 -40.4,24 -47.3,49.5 h 16.1 11 57.1 z"
             id="path1197"
             style="clip-rule:evenodd;fill:#bc3938;fill-rule:evenodd" />
          <path
             class="st28"
             d="m 694.5,450.6 -28.3,-1.2 c -0.1,0.5 2.2,16.4 2.9,19.5 1.2,4.2 6.1,37.5 11.8,37.8 6.1,0.3 9.8,-33.2 10.9,-39.5 z"
             id="path1199"
             style="clip-rule:evenodd;fill:#7a551f;fill-rule:evenodd" />
          <g
             id="g1209">
            <defs
               id="defs1202">
              <path
                 id="path7363"
                 d="m 694.5,450.6 -28.3,-1.2 c -0.1,0.5 2.2,16.4 2.9,19.5 1.2,4.2 6.1,37.5 11.8,37.8 6.1,0.3 9.8,-33.2 10.9,-39.5 z" />
            </defs>
            <clipPath
               id="clipPath7304">
              <use
                 xlink:href="#SVGID_13_"
                 style="overflow:visible"
                 id="use7302"
                 x="0"
                 y="0"
                 width="100%"
                 height="100%" />
            </clipPath>
            <path
               class="st29"
               d="m 680.9,495 v 0 c 0.8,0 1.5,0.7 1.5,1.5 v 17.8 c 0,0.8 -0.7,1.5 -1.5,1.5 -0.8,0 -1.5,-0.7 -1.5,-1.5 v -17.8 c 0.1,-0.8 0.7,-1.5 1.5,-1.5 z"
               clip-path="url(#SVGID_14_)"
               id="path1207"
               style="clip-rule:evenodd;fill:#553b17;fill-rule:evenodd" />
          </g>
        </g>
        <g
           id="g1237">
          <path
             class="st7"
             d="m 708.6,478.6 c -2.4,4.2 -7.4,7.1 -13.3,7.1 -5.3,0 -10,-2.4 -12.6,-6.1 -2.6,3.7 -7.3,6.1 -12.6,6.1 -4.5,0 -8.5,-1.7 -11.3,-4.5 -2.7,2.5 -6.5,4 -10.7,4 -6,0 -11.1,-3 -13.4,-7.4 -2.3,1.3 -5.1,2 -8,2 -8.1,0 -14.8,-5.7 -14.8,-12.7 0,-1.6 0.3,-3.1 0.9,-4.4 -7.5,-0.6 -13.3,-6 -13.3,-12.6 0,-3.2 1.4,-6.1 3.7,-8.3 -7.5,-0.6 -13.3,-6 -13.3,-12.6 0,-4 2.2,-7.6 5.6,-10 -5.8,-1.7 -9.9,-6.4 -9.9,-12 0,-6.7 6.1,-12.2 13.8,-12.6 -4.7,-2.1 -7.9,-6.4 -7.9,-11.2 0,-7 6.6,-12.7 14.8,-12.7 1.9,0 3.7,0.3 5.4,0.9 -2.2,-2.2 -3.5,-5.1 -3.5,-8.2 0,-7 6.6,-12.7 14.8,-12.7 1.3,0 2.6,0.2 3.8,0.4 -0.6,-1.4 -0.9,-2.8 -0.9,-4.3 0,-7 6.6,-12.7 14.8,-12.7 3.3,0 6.4,1 8.9,2.6 0.5,-6.6 6.9,-11.8 14.7,-11.8 4.5,0 8.6,1.8 11.3,4.5 2,-4.9 7.5,-8.4 13.9,-8.4 6.9,0 12.7,4.1 14.3,9.6 2.5,-1.8 5.8,-2.8 9.3,-2.8 8.1,0 14.8,5.7 14.8,12.7 0,0.3 0,0.7 0,1 1.3,-0.3 2.7,-0.5 4.1,-0.5 8.1,0 14.8,5.7 14.8,12.7 0,3 -1.2,5.7 -3.2,7.8 0.4,0 0.9,0 1.3,0 8.1,0 14.8,5.7 14.8,12.7 0,3.6 -1.7,6.8 -4.5,9.1 6.6,1.3 11.4,6.3 11.4,12.4 0,4.3 -2.4,8 -6.2,10.3 5.2,2 8.9,6.4 8.9,11.6 0,5.7 -4.4,10.5 -10.4,12.1 3.7,2.3 6.2,6.1 6.2,10.3 0,6 -4.9,11.1 -11.5,12.4 2.1,2.2 3.4,5 3.4,8.1 0,7 -6.6,12.7 -14.8,12.7 -2.6,0 -5.1,-0.6 -7.3,-1.6 -0.5,6.6 -6.9,11.9 -14.7,11.9 -4.8,-0.3 -8.9,-2.1 -11.6,-4.9 z"
             id="path1213"
             style="clip-rule:evenodd;fill:#010002;fill-rule:evenodd" />
          <path
             class="st30"
             d="m 708.6,478.6 -0.2,-0.1 c -2.3,4.1 -7.3,7 -13,7 -5.3,0 -9.8,-2.4 -12.4,-6 l -0.2,-0.3 -0.2,0.3 c -2.5,3.6 -7.1,6 -12.4,6 -4.4,0 -8.4,-1.7 -11.1,-4.4 l -0.2,-0.2 -0.2,0.2 c -2.6,2.4 -6.4,3.9 -10.6,3.9 -5.9,0 -10.9,-3 -13.2,-7.3 l -0.1,-0.3 -0.3,0.1 c -2.3,1.3 -5,2 -7.9,2 -4,0 -7.6,-1.4 -10.2,-3.6 -2.6,-2.2 -4.2,-5.3 -4.2,-8.7 0,-1.5 0.3,-3 0.9,-4.3 l 0.2,-0.4 h -0.4 c -7.3,-0.6 -13,-5.9 -13,-12.3 0,-3.1 1.3,-6 3.6,-8.1 l 0.4,-0.4 -0.6,-0.1 c -7.4,-0.6 -13.1,-5.9 -13.1,-12.3 0,-3.9 2.1,-7.4 5.5,-9.7 l 0.5,-0.3 -0.6,-0.2 c -5.7,-1.7 -9.7,-6.3 -9.7,-11.7 0,-6.5 6,-12 13.6,-12.4 l 1.2,-0.1 -1.1,-0.5 c -4.6,-2.1 -7.8,-6.2 -7.8,-11 0,-3.4 1.6,-6.5 4.2,-8.7 2.6,-2.2 6.2,-3.6 10.2,-3.6 1.9,0 3.6,0.3 5.3,0.8 l 1.1,0.4 -0.8,-0.8 c -2.1,-2.2 -3.4,-4.9 -3.4,-8 0,-3.4 1.6,-6.5 4.2,-8.7 2.6,-2.2 6.2,-3.6 10.2,-3.6 1.3,0 2.6,0.1 3.8,0.4 l 0.5,0.1 -0.1,-0.7 c -0.6,-1.3 -0.9,-2.7 -0.9,-4.2 0,-3.4 1.6,-6.5 4.2,-8.7 2.6,-2.3 6.2,-3.6 10.2,-3.6 3.3,0 6.3,0.9 8.7,2.5 l 0.4,0.3 v -0.5 c 0.5,-6.4 6.7,-11.6 14.4,-11.6 4.5,0 8.5,1.7 11.1,4.4 l 0.3,0.3 0.2,-0.4 c 2,-4.8 7.3,-8.3 13.6,-8.3 6.8,0 12.5,4 14.1,9.4 l 0.1,0.4 0.3,-0.2 c 2.5,-1.7 5.7,-2.8 9.1,-2.8 4,0 7.6,1.4 10.3,3.6 2.6,2.2 4.2,5.3 4.2,8.7 0,0.3 0,0.6 0,1 v 0.4 l 0.4,-0.1 c 1.3,-0.3 2.6,-0.5 4,-0.5 4,0 7.6,1.4 10.3,3.6 2.6,2.2 4.2,5.3 4.2,8.7 0,2.9 -1.2,5.5 -3.1,7.7 l -0.5,0.5 h 0.7 c 0.4,0 0.8,-0.1 1.3,-0.1 4,0 7.6,1.4 10.3,3.6 2.6,2.2 4.2,5.3 4.2,8.7 0,3.5 -1.7,6.6 -4.4,8.9 l -0.5,0.4 0.6,0.1 c 6.5,1.3 11.2,6.2 11.2,12.1 0,4.1 -2.4,7.8 -6,10.1 l -0.5,0.3 0.5,0.2 c 5.1,1.9 8.7,6.3 8.7,11.4 0,5.6 -4.3,10.3 -10.2,11.8 l -0.6,0.2 0.6,0.3 c 3.7,2.3 6,5.9 6,10.1 0,5.9 -4.8,10.8 -11.2,12.1 l -0.5,0.1 0.4,0.4 c 2.1,2.2 3.3,4.9 3.3,7.9 0,3.4 -1.6,6.5 -4.2,8.7 -2.6,2.2 -6.2,3.6 -10.3,3.6 -2.6,0 -5,-0.6 -7.1,-1.6 l -0.4,-0.2 v 0.4 c -0.5,6.4 -6.7,11.6 -14.4,11.6 -4.5,0 -8.6,-1.8 -11.2,-4.6 l -0.3,-0.3 -0.2,0.3 0.2,0.5 -0.2,0.2 c 2.8,2.9 6.9,4.7 11.6,4.7 8,0 14.5,-5.3 15,-12.1 h -0.3 l -0.1,0.3 c 2.2,1.1 4.7,1.7 7.4,1.7 4.1,0 7.9,-1.4 10.6,-3.8 2.7,-2.3 4.4,-5.6 4.4,-9.2 0,-3.2 -1.3,-6.1 -3.5,-8.3 l -0.2,0.2 0.1,0.3 c 6.7,-1.3 11.7,-6.4 11.7,-12.6 0,-4.4 -2.5,-8.2 -6.3,-10.5 l -0.1,0.2 0.1,0.3 c 6.1,-1.6 10.7,-6.5 10.7,-12.4 0,-5.3 -3.7,-9.9 -9,-11.9 l -0.1,0.3 0.1,0.2 c 3.8,-2.3 6.3,-6.2 6.3,-10.6 0,-6.2 -5,-11.3 -11.7,-12.6 l -0.1,0.3 0.2,0.2 c 2.8,-2.3 4.6,-5.6 4.6,-9.3 0,-3.6 -1.7,-6.8 -4.4,-9.2 -2.7,-2.3 -6.5,-3.8 -10.6,-3.8 -0.4,0 -0.9,0 -1.3,0 v 0.3 l 0.2,0.2 c 2,-2.2 3.2,-5 3.2,-8 0,-3.6 -1.7,-6.8 -4.4,-9.2 -2.7,-2.3 -6.5,-3.8 -10.6,-3.8 -1.4,0 -2.8,0.2 -4.1,0.5 l 0.1,0.3 h 0.3 c 0,-0.3 0,-0.7 0,-1 0,-3.6 -1.7,-6.8 -4.4,-9.2 -2.7,-2.3 -6.5,-3.8 -10.6,-3.8 -3.6,0 -6.9,1.1 -9.4,2.9 l 0.2,0.2 0.3,-0.1 c -1.6,-5.7 -7.6,-9.8 -14.6,-9.8 -6.5,0 -12.1,3.6 -14.2,8.6 l 0.3,0.1 0.2,-0.2 c -2.8,-2.8 -6.9,-4.6 -11.5,-4.6 -7.9,0 -14.5,5.3 -15,12.1 h 0.3 l 0.2,-0.2 c -2.5,-1.6 -5.6,-2.6 -9,-2.6 -4.1,0 -7.9,1.4 -10.6,3.8 -2.7,2.3 -4.4,5.6 -4.4,9.2 0,1.6 0.3,3.1 0.9,4.4 l 0.3,-0.1 0.1,-0.3 c -1.2,-0.3 -2.6,-0.4 -3.9,-0.4 -4.1,0 -7.9,1.4 -10.6,3.8 -2.7,2.3 -4.4,5.6 -4.4,9.2 0,3.2 1.3,6.1 3.6,8.4 l 0.2,-0.2 0.1,-0.3 c -1.7,-0.6 -3.5,-0.9 -5.4,-0.9 -4.1,0 -7.9,1.4 -10.6,3.8 -2.7,2.3 -4.4,5.6 -4.4,9.2 0,5 3.3,9.3 8.1,11.5 l 0.1,-0.3 v -0.3 c -7.8,0.4 -14.1,6 -14.1,12.9 0,5.7 4.3,10.5 10.1,12.2 l 0.1,-0.3 -0.2,-0.2 c -3.5,2.4 -5.8,6 -5.8,10.2 0,6.8 6,12.3 13.6,12.9 v -0.3 l -0.2,-0.2 c -2.3,2.3 -3.7,5.3 -3.7,8.5 0,6.8 6,12.2 13.5,12.9 v -0.3 l -0.3,-0.1 c -0.6,1.4 -1,3 -1,4.6 0,3.6 1.7,6.8 4.4,9.2 2.7,2.3 6.5,3.8 10.6,3.8 3,0 5.8,-0.8 8.2,-2.1 l -0.1,-0.2 -0.3,0.1 c 2.4,4.5 7.6,7.6 13.7,7.6 4.3,0 8.2,-1.6 10.9,-4.1 l -0.2,-0.2 -0.2,0.2 c 2.8,2.8 6.9,4.6 11.5,4.6 5.4,0 10.2,-2.5 12.8,-6.2 l -0.2,-0.2 -0.2,0.2 c 2.6,3.7 7.4,6.2 12.8,6.2 5.9,0 11,-2.9 13.5,-7.2 l -0.7,-0.3 -0.2,0.2 z"
             id="path1215"
             style="fill:#010002" />
          <path
             class="st31"
             d="m 715.6,442 c 0.4,-4.7 -0.4,-15 0,-19.7 1.8,-1.2 10.3,-2.6 12.5,3.3 2.8,8.1 -3.5,14.2 -5.8,15.9 -2.5,0.9 -5.7,0.8 -6.7,0.5 z"
             id="path1217"
             style="clip-rule:evenodd;fill:#c38735;fill-rule:evenodd" />
          <path
             class="st31"
             d="m 712.4,395.2 c -8.3,-18.2 -62.1,-18.4 -70.4,3.9 -4.3,20.8 -2.8,29.8 2.5,46.1 6.2,15.2 20.3,22 30.4,27 4.4,1.6 14.2,0.7 17.5,-1.1 11.9,-6.1 22.4,-19.5 24.8,-29.3 2.7,-20.6 2.3,-26.8 -4.8,-46.6 z"
             id="path1219"
             style="clip-rule:evenodd;fill:#c38735;fill-rule:evenodd" />
          <path
             class="st31"
             d="m 644.8,442.9 c -0.4,-4.6 0.4,-14.8 0,-19.4 -1.8,-1.2 -10.3,-2.5 -12.5,3.3 -2.8,8 3.5,13.9 5.8,15.7 2.5,0.9 5.8,0.7 6.7,0.4 z"
             id="path1221"
             style="clip-rule:evenodd;fill:#c38735;fill-rule:evenodd" />
          <path
             class="st32"
             d="m 670,454 c 6.3,0 16.2,1.3 22.1,-0.4 2.6,-0.7 -2.4,4.9 -6.1,5.1 -11.2,0.9 -14.7,-1.4 -16,-4.7 z"
             id="path1223"
             style="clip-rule:evenodd;fill:#835a20;fill-rule:evenodd" />
          <path
             class="st33"
             d="m 718.1,417 c -11.1,-27 -68,-36.5 -78.8,0.7 -4.5,-6 -3.1,-20.4 0.6,-30.5 3.2,-11.9 20.3,-18.4 37.5,-18.1 16.9,0.3 34,7.2 38.7,15.4 3.8,5.9 2.6,18 2,32.5 z"
             id="path1225"
             style="clip-rule:evenodd;fill:#21a0d8;fill-rule:evenodd" />
          <path
             class="st34"
             d="m 711.4,415.2 c -0.6,0.3 4.9,-1.1 6.6,-0.2 1.6,0.8 2.5,4.6 1.6,6.1 -0.9,1.5 -4,4 -4,4 z"
             id="path1227"
             style="clip-rule:evenodd;fill:#643333;fill-rule:evenodd" />
          <path
             class="st34"
             d="m 645.4,415.2 c 0.6,0.3 -4.9,-1.1 -6.6,-0.2 -1.6,0.8 -2.5,4.6 -1.6,6.1 0.9,1.5 4,4 4,4 z"
             id="path1229"
             style="clip-rule:evenodd;fill:#643333;fill-rule:evenodd" />
          <path
             class="st34"
             d="m 711,414.6 c -6.5,-4 -17.7,-1.9 -23.4,0.8 -4.9,2.4 -8.2,2.4 -9.1,2.3 v 0 0 0 0 c -0.9,0 -4.2,0 -9.1,-2.3 -5.7,-2.8 -16.9,-4.8 -23.5,-0.8 -7.3,4.4 -6.4,15.2 -3.6,20.7 2.8,5.5 8.1,7 14.3,7.1 6.3,0.1 13.8,-2.6 16.3,-9.3 1.1,-2.8 2.7,-9.7 5.5,-10 2.9,0.3 4.5,7.1 5.5,10 2.5,6.7 10.1,9.4 16.3,9.3 6.3,-0.1 11.6,-1.6 14.3,-7.1 2.9,-5.4 3.7,-16.2 -3.5,-20.7 z"
             id="path1231"
             style="clip-rule:evenodd;fill:#643333;fill-rule:evenodd" />
          <path
             class="st35"
             d="m 708,438.5 v 0 c -6.2,3.8 -15.3,1.6 -19.6,-3.5 -4.4,-5.1 -4.9,-9.8 -3.5,-13.5 1.4,-3.7 17.4,-9.8 24.7,-4.3 7.4,5.7 4.6,17.5 -1.6,21.3 z"
             id="path1233"
             style="clip-rule:evenodd;fill:#d1af85;fill-rule:evenodd" />
          <path
             class="st35"
             d="m 668.4,435 v 0 c -4.4,5.1 -13.5,7.2 -19.6,3.5 -6.2,-3.8 -9,-15.6 -1.5,-21.2 7.2,-5.5 23.3,0.6 24.7,4.3 1.2,3.7 0.7,8.3 -3.6,13.4 z"
             id="path1235"
             style="clip-rule:evenodd;fill:#d1af85;fill-rule:evenodd" />
        </g>
        <path
           class="st27"
           d="M 651.7,515.8"
           id="path1239"
           style="clip-rule:evenodd;fill:#bc3938;fill-rule:evenodd" />
      </g>
    </g>
  </g>
</svg>
