<?xml version="1.0" encoding="UTF-8" standalone="no"?>
<svg
   xmlns:dc="http://purl.org/dc/elements/1.1/"
   xmlns:cc="http://creativecommons.org/ns#"
   xmlns:rdf="http://www.w3.org/1999/02/22-rdf-syntax-ns#"
   xmlns:svg="http://www.w3.org/2000/svg"
   xmlns="http://www.w3.org/2000/svg"
   xmlns:xlink="http://www.w3.org/1999/xlink"
   id="svg8"
   version="1.1"
   viewBox="0 0 55.456665 55.456665"
   height="55.456665mm"
   width="55.456665mm">
  <defs
     id="defs2">
    <clipPath
       id="clipPath2444"
       clipPathUnits="userSpaceOnUse">
      <path
         id="path2442"
         d="m 87.298,2047.988 c -12.367,0 -22.391,-10.024 -22.391,-22.389 v 0 -83.06 c 0,-12.367 10.024,-22.39 22.391,-22.39 v 0 h 83.058 c 12.367,0 22.391,10.023 22.391,22.39 v 0 83.06 c 0,12.365 -10.024,22.389 -22.391,22.389 v 0 z" />
    </clipPath>
    <clipPath
       id="SVGID_14_">
      <use
         xlink:href="#SVGID_13_"
         style="overflow:visible"
         id="use1204"
         x="0"
         y="0"
         width="100%"
         height="100%" />
    </clipPath>
    <path
       id="SVGID_13_"
       d="m 694.5,450.6 -28.3,-1.2 c -0.1,0.5 2.2,16.4 2.9,19.5 1.2,4.2 6.1,37.5 11.8,37.8 6.1,0.3 9.8,-33.2 10.9,-39.5 z" />
    <clipPath
       id="SVGID_8_">
      <use
         xlink:href="#SVGID_7_"
         style="overflow:visible"
         id="use1110"
         x="0"
         y="0"
         width="100%"
         height="100%" />
    </clipPath>
    <clipPath
       id="SVGID_10_">
      <use
         xlink:href="#SVGID_9_"
         style="overflow:visible"
         id="use1120"
         x="0"
         y="0"
         width="100%"
         height="100%" />
    </clipPath>
    <path
       id="SVGID_7_"
       d="m 537.3,480.6 c 0,19.8 -16.1,35.9 -35.9,35.9 H 368 c -19.9,0 -35.9,-16.1 -35.9,-35.9 V 347.3 c 0,-19.9 16.1,-35.9 35.9,-35.9 h 133.3 c 19.9,0 35.9,16.1 35.9,35.9 v 133.3 z" />
    <path
       id="SVGID_9_"
       d="M 448.4,448.5 429.6,447 c -0.1,0.6 1,32.1 1.4,35.9 1.6,10.6 15.8,13.4 17.2,-1.7 z" />
    <clipPath
       id="SVGID_22_">
      <use
         xlink:href="#SVGID_21_"
         style="overflow:visible"
         id="use1352"
         x="0"
         y="0"
         width="100%"
         height="100%" />
    </clipPath>
    <path
       id="SVGID_21_"
       d="m 1031.6,480.6 c 0,19.9 -16.1,35.9 -35.9,35.9 H 862.4 c -19.9,0 -35.9,-16.1 -35.9,-35.9 V 347.3 c 0,-19.9 16.1,-35.9 35.9,-35.9 h 133.3 c 19.9,0 35.9,16.1 35.9,35.9 z" />
    <clipPath
       id="SVGID_16_">
      <use
         height="100%"
         width="100%"
         y="0"
         x="0"
         id="use9459"
         style="overflow:visible"
         xlink:href="#SVGID_15_" />
    </clipPath>
    <path
       d="m 290.2,497 c 0,20.3 -16.4,36.7 -36.7,36.7 H 117.3 C 97,533.7 80.6,517.3 80.6,497 V 360.8 c 0,-20.3 16.4,-36.7 36.7,-36.7 h 136.2 c 20.3,0 36.7,16.4 36.7,36.7 z"
       id="SVGID_15_" />
    <clipPath
       id="SVGID_26_">
      <use
         xlink:href="#SVGID_25_"
         style="overflow:visible"
         id="use9668"
         x="0"
         y="0"
         width="100%"
         height="100%" />
    </clipPath>
    <path
       id="SVGID_25_"
       d="m 535,497 c 0,20.3 -16.4,36.7 -36.7,36.7 H 362.2 c -20.3,0 -36.7,-16.4 -36.7,-36.7 V 360.8 c 0,-20.3 16.4,-36.7 36.7,-36.7 h 136.2 c 20.3,0 36.7,16.4 36.7,36.7 V 497 Z" />
    <clipPath
       id="SVGID_2_">
      <use
         xlink:href="#SVGID_1_"
         style="overflow:visible"
         id="use9226"
         x="0"
         y="0"
         width="100%"
         height="100%" />
    </clipPath>
    <clipPath
       id="SVGID_4_">
      <use
         xlink:href="#SVGID_3_"
         style="overflow:visible"
         id="use9232"
         x="0"
         y="0"
         width="100%"
         height="100%" />
    </clipPath>
    <clipPath
       id="clipPath14027">
      <use
         xlink:href="#SVGID_3_"
         style="overflow:visible"
         id="use14025"
         x="0"
         y="0"
         width="100%"
         height="100%" />
    </clipPath>
    <clipPath
       id="clipPath14031">
      <use
         xlink:href="#SVGID_3_"
         style="overflow:visible"
         id="use14029"
         x="0"
         y="0"
         width="100%"
         height="100%" />
    </clipPath>
    <clipPath
       id="clipPath14035">
      <use
         xlink:href="#SVGID_3_"
         style="overflow:visible"
         id="use14033"
         x="0"
         y="0"
         width="100%"
         height="100%" />
    </clipPath>
    <clipPath
       id="clipPath14039">
      <use
         xlink:href="#SVGID_3_"
         style="overflow:visible"
         id="use14037"
         x="0"
         y="0"
         width="100%"
         height="100%" />
    </clipPath>
    <clipPath
       id="clipPath14043">
      <use
         xlink:href="#SVGID_3_"
         style="overflow:visible"
         id="use14041"
         x="0"
         y="0"
         width="100%"
         height="100%" />
    </clipPath>
    <clipPath
       id="clipPath14047">
      <use
         xlink:href="#SVGID_3_"
         style="overflow:visible"
         id="use14045"
         x="0"
         y="0"
         width="100%"
         height="100%" />
    </clipPath>
    <path
       id="SVGID_1_"
       d="m 784.9,497 c 0,20.3 -16.4,36.7 -36.7,36.7 H 612.1 c -20.3,0 -36.7,-16.4 -36.7,-36.7 V 360.8 c 0,-20.3 16.4,-36.7 36.7,-36.7 h 136.2 c 20.3,0 36.7,16.4 36.7,36.7 V 497 Z" />
    <path
       id="SVGID_3_"
       d="m 662.6,470.7 c 10.9,-1 23.8,-1.6 37.1,0.4 40.5,3.2 43.1,43.5 47.5,65.1 -45.4,0.3 -89,0.6 -131.1,0.9 0,-26.5 13.1,-63.4 46.5,-66.4 z" />
    <clipPath
       id="SVGID_36_">
      <use
         height="100%"
         width="100%"
         y="0"
         x="0"
         id="use9875"
         style="overflow:visible"
         xlink:href="#SVGID_35_" />
    </clipPath>
    <path
       d="m 1036.4,497 c 0,20.3 -16.4,36.7 -36.7,36.7 H 863.6 c -20.3,0 -36.7,-16.4 -36.7,-36.7 V 360.8 c 0,-20.3 16.4,-36.7 36.7,-36.7 h 136.2 c 20.3,0 36.7,16.4 36.7,36.7 V 497 Z"
       id="SVGID_35_" />
    <clipPath
       id="SVGID_56_">
      <use
         xlink:href="#SVGID_55_"
         style="overflow:visible"
         id="use10272"
         x="0"
         y="0"
         width="100%"
         height="100%" />
    </clipPath>
    <path
       id="SVGID_55_"
       d="m 1282.1,497 c 0,20.3 -16.4,36.7 -36.7,36.7 h -136.2 c -20.3,0 -36.7,-16.4 -36.7,-36.7 V 360.8 c 0,-20.3 16.4,-36.7 36.7,-36.7 h 136.2 c 20.3,0 36.7,16.4 36.7,36.7 z" />
    <clipPath
       id="SVGID_46_">
      <use
         xlink:href="#SVGID_45_"
         style="overflow:visible"
         id="use10074"
         x="0"
         y="0"
         width="100%"
         height="100%" />
    </clipPath>
    <clipPath
       id="SVGID_48_">
      <use
         xlink:href="#SVGID_47_"
         style="overflow:visible"
         id="use10084"
         x="0"
         y="0"
         width="100%"
         height="100%" />
    </clipPath>
    <clipPath
       id="clipPath14969">
      <use
         xlink:href="#SVGID_47_"
         style="overflow:visible"
         id="use14967"
         x="0"
         y="0"
         width="100%"
         height="100%" />
    </clipPath>
    <clipPath
       id="clipPath14973">
      <use
         xlink:href="#SVGID_47_"
         style="overflow:visible"
         id="use14971"
         x="0"
         y="0"
         width="100%"
         height="100%" />
    </clipPath>
    <clipPath
       id="clipPath14977">
      <use
         xlink:href="#SVGID_47_"
         style="overflow:visible"
         id="use14975"
         x="0"
         y="0"
         width="100%"
         height="100%" />
    </clipPath>
    <clipPath
       id="clipPath14981">
      <use
         xlink:href="#SVGID_47_"
         style="overflow:visible"
         id="use14979"
         x="0"
         y="0"
         width="100%"
         height="100%" />
    </clipPath>
    <clipPath
       id="clipPath14985">
      <use
         xlink:href="#SVGID_47_"
         style="overflow:visible"
         id="use14983"
         x="0"
         y="0"
         width="100%"
         height="100%" />
    </clipPath>
    <clipPath
       id="clipPath14989">
      <use
         xlink:href="#SVGID_47_"
         style="overflow:visible"
         id="use14987"
         x="0"
         y="0"
         width="100%"
         height="100%" />
    </clipPath>
    <clipPath
       id="clipPath14993">
      <use
         xlink:href="#SVGID_47_"
         style="overflow:visible"
         id="use14991"
         x="0"
         y="0"
         width="100%"
         height="100%" />
    </clipPath>
    <clipPath
       id="clipPath14997">
      <use
         xlink:href="#SVGID_47_"
         style="overflow:visible"
         id="use14995"
         x="0"
         y="0"
         width="100%"
         height="100%" />
    </clipPath>
    <clipPath
       id="clipPath15001">
      <use
         xlink:href="#SVGID_47_"
         style="overflow:visible"
         id="use14999"
         x="0"
         y="0"
         width="100%"
         height="100%" />
    </clipPath>
    <clipPath
       id="clipPath15005">
      <use
         xlink:href="#SVGID_47_"
         style="overflow:visible"
         id="use15003"
         x="0"
         y="0"
         width="100%"
         height="100%" />
    </clipPath>
    <clipPath
       id="clipPath15009">
      <use
         xlink:href="#SVGID_47_"
         style="overflow:visible"
         id="use15007"
         x="0"
         y="0"
         width="100%"
         height="100%" />
    </clipPath>
    <clipPath
       id="clipPath15013">
      <use
         xlink:href="#SVGID_47_"
         style="overflow:visible"
         id="use15011"
         x="0"
         y="0"
         width="100%"
         height="100%" />
    </clipPath>
    <clipPath
       id="clipPath15017">
      <use
         xlink:href="#SVGID_47_"
         style="overflow:visible"
         id="use15015"
         x="0"
         y="0"
         width="100%"
         height="100%" />
    </clipPath>
    <clipPath
       id="clipPath15021">
      <use
         xlink:href="#SVGID_47_"
         style="overflow:visible"
         id="use15019"
         x="0"
         y="0"
         width="100%"
         height="100%" />
    </clipPath>
    <clipPath
       id="clipPath15025">
      <use
         xlink:href="#SVGID_47_"
         style="overflow:visible"
         id="use15023"
         x="0"
         y="0"
         width="100%"
         height="100%" />
    </clipPath>
    <clipPath
       id="clipPath15029">
      <use
         xlink:href="#SVGID_47_"
         style="overflow:visible"
         id="use15027"
         x="0"
         y="0"
         width="100%"
         height="100%" />
    </clipPath>
    <clipPath
       id="clipPath15033">
      <use
         xlink:href="#SVGID_47_"
         style="overflow:visible"
         id="use15031"
         x="0"
         y="0"
         width="100%"
         height="100%" />
    </clipPath>
    <clipPath
       id="clipPath15037">
      <use
         xlink:href="#SVGID_47_"
         style="overflow:visible"
         id="use15035"
         x="0"
         y="0"
         width="100%"
         height="100%" />
    </clipPath>
    <clipPath
       id="clipPath15041">
      <use
         xlink:href="#SVGID_47_"
         style="overflow:visible"
         id="use15039"
         x="0"
         y="0"
         width="100%"
         height="100%" />
    </clipPath>
    <clipPath
       id="clipPath15045">
      <use
         xlink:href="#SVGID_47_"
         style="overflow:visible"
         id="use15043"
         x="0"
         y="0"
         width="100%"
         height="100%" />
    </clipPath>
    <clipPath
       id="clipPath15049">
      <use
         xlink:href="#SVGID_47_"
         style="overflow:visible"
         id="use15047"
         x="0"
         y="0"
         width="100%"
         height="100%" />
    </clipPath>
    <path
       id="SVGID_45_"
       d="m 1525.5,497 c 0,20.3 -16.4,36.7 -36.7,36.7 h -136.2 c -20.3,0 -36.7,-16.4 -36.7,-36.7 V 360.8 c 0,-20.3 16.4,-36.7 36.7,-36.7 h 136.2 c 20.3,0 36.7,16.4 36.7,36.7 z" />
    <path
       id="SVGID_47_"
       d="m 1409.8,478.1 c 9.8,-0.9 21.2,-1.4 33.1,0.4 36.2,2.8 38.5,37.8 42.5,56.5 -39.1,0.3 -78.1,0.5 -117.2,0.8 0,-23.1 11.7,-55.1 41.6,-57.7 z" />
    <clipPath
       id="SVGID_18_">
      <use
         xlink:href="#SVGID_17_"
         style="overflow:visible"
         id="use9486"
         x="0"
         y="0"
         width="100%"
         height="100%" />
    </clipPath>
    <path
       id="SVGID_17_"
       d="m 290.2,734.8 c 0,20.3 -16.4,36.7 -36.7,36.7 H 117.3 C 97,771.5 80.6,755.1 80.6,734.8 V 598.6 c 0,-20.3 16.4,-36.7 36.7,-36.7 h 136.2 c 20.3,0 36.7,16.4 36.7,36.7 z" />
    <clipPath
       id="SVGID_28_">
      <use
         xlink:href="#SVGID_27_"
         style="overflow:visible"
         id="use9716"
         x="0"
         y="0"
         width="100%"
         height="100%" />
    </clipPath>
    <path
       id="SVGID_27_"
       d="m 535,734.8 c 0,20.3 -16.4,36.7 -36.7,36.7 H 362.2 c -20.3,0 -36.7,-16.4 -36.7,-36.7 V 598.6 c 0,-20.3 16.4,-36.7 36.7,-36.7 h 136.2 c 20.3,0 36.7,16.4 36.7,36.7 v 136.2 z" />
    <clipPath
       id="SVGID_6_">
      <use
         xlink:href="#SVGID_5_"
         style="overflow:visible"
         id="use9271"
         x="0"
         y="0"
         width="100%"
         height="100%" />
    </clipPath>
    <path
       id="SVGID_5_"
       d="m 784.9,734.8 c 0,20.3 -16.4,36.7 -36.7,36.7 H 612.1 c -20.3,0 -36.7,-16.4 -36.7,-36.7 V 598.6 c 0,-20.3 16.4,-36.7 36.7,-36.7 h 136.2 c 20.3,0 36.7,16.4 36.7,36.7 v 136.2 z" />
    <clipPath
       id="SVGID_38_">
      <use
         height="100%"
         width="100%"
         y="0"
         x="0"
         id="use9903"
         style="overflow:visible"
         xlink:href="#SVGID_37_" />
    </clipPath>
    <path
       d="m 1036.4,734.8 c 0,20.3 -16.4,36.7 -36.7,36.7 H 863.6 c -20.3,0 -36.7,-16.4 -36.7,-36.7 V 598.6 c 0,-20.3 16.4,-36.7 36.7,-36.7 h 136.2 c 20.3,0 36.7,16.4 36.7,36.7 v 136.2 z"
       id="SVGID_37_" />
    <clipPath
       id="SVGID_58_">
      <use
         xlink:href="#SVGID_57_"
         style="overflow:visible"
         id="use10309"
         x="0"
         y="0"
         width="100%"
         height="100%" />
    </clipPath>
    <path
       id="SVGID_57_"
       d="m 1282.1,734.8 c 0,20.3 -16.4,36.7 -36.7,36.7 h -136.2 c -20.3,0 -36.7,-16.4 -36.7,-36.7 V 598.6 c 0,-20.3 16.4,-36.7 36.7,-36.7 h 136.2 c 20.3,0 36.7,16.4 36.7,36.7 z" />
    <clipPath
       id="SVGID_44_">
      <use
         xlink:href="#SVGID_43_"
         style="overflow:visible"
         id="use10042"
         x="0"
         y="0"
         width="100%"
         height="100%" />
    </clipPath>
    <path
       id="SVGID_43_"
       d="m 1525.5,734.8 c 0,20.3 -16.4,36.7 -36.7,36.7 h -136.2 c -20.3,0 -36.7,-16.4 -36.7,-36.7 V 598.6 c 0,-20.3 16.4,-36.7 36.7,-36.7 h 136.2 c 20.3,0 36.7,16.4 36.7,36.7 z" />
    <clipPath
       id="SVGID_20_">
      <use
         xlink:href="#SVGID_19_"
         style="overflow:visible"
         id="use9530"
         x="0"
         y="0"
         width="100%"
         height="100%" />
    </clipPath>
    <clipPath
       id="SVGID_22_-3">
      <use
         xlink:href="#SVGID_21_-6"
         style="overflow:visible"
         id="use9608"
         x="0"
         y="0"
         width="100%"
         height="100%" />
    </clipPath>
    <path
       id="SVGID_19_"
       d="m 290.2,979.7 c 0,20.3 -16.4,36.7 -36.7,36.7 H 117.3 C 97,1016.4 80.6,1000 80.6,979.7 V 843.5 c 0,-20.3 16.4,-36.7 36.7,-36.7 h 136.2 c 20.3,0 36.7,16.4 36.7,36.7 z" />
    <path
       id="SVGID_21_-6"
       d="m 194.4,1018.9 c -1.9,2 -63.5,1.8 -63.4,-0.2 0.8,-21.4 16.3,-47 29.7,-51.9 4.2,-1.6 9.8,-2.6 11.4,-2.5 3.3,0.2 5.4,0.5 6.8,0.6 3.6,0.5 -1.8,9.3 11.9,8.6 8.3,-0.4 4.5,-8.7 8.5,-9 7.5,-0.6 15.5,-0.5 23.5,5 -0.1,0 -9,28.5 -28.4,49.4 z" />
    <clipPath
       id="SVGID_30_">
      <use
         xlink:href="#SVGID_29_"
         style="overflow:visible"
         id="use9751"
         x="0"
         y="0"
         width="100%"
         height="100%" />
    </clipPath>
    <path
       id="SVGID_29_"
       d="m 535,979.7 c 0,20.3 -16.4,36.7 -36.7,36.7 H 362.2 c -20.3,0 -36.7,-16.4 -36.7,-36.7 V 843.5 c 0,-20.3 16.4,-36.7 36.7,-36.7 h 136.2 c 20.3,0 36.7,16.4 36.7,36.7 v 136.2 z" />
    <clipPath
       id="SVGID_8_-7">
      <use
         xlink:href="#SVGID_7_-3"
         style="overflow:visible"
         id="use9309"
         x="0"
         y="0"
         width="100%"
         height="100%" />
    </clipPath>
    <clipPath
       id="SVGID_10_-5">
      <use
         xlink:href="#SVGID_9_-5"
         style="overflow:visible"
         id="use9317"
         x="0"
         y="0"
         width="100%"
         height="100%" />
    </clipPath>
    <clipPath
       id="clipPath16428">
      <use
         xlink:href="#SVGID_9_-5"
         style="overflow:visible"
         id="use16426"
         x="0"
         y="0"
         width="100%"
         height="100%" />
    </clipPath>
    <clipPath
       id="clipPath16432">
      <use
         xlink:href="#SVGID_9_-5"
         style="overflow:visible"
         id="use16430"
         x="0"
         y="0"
         width="100%"
         height="100%" />
    </clipPath>
    <clipPath
       id="clipPath16436">
      <use
         xlink:href="#SVGID_9_-5"
         style="overflow:visible"
         id="use16434"
         x="0"
         y="0"
         width="100%"
         height="100%" />
    </clipPath>
    <clipPath
       id="SVGID_12_">
      <use
         xlink:href="#SVGID_11_"
         style="overflow:visible"
         id="use9335"
         x="0"
         y="0"
         width="100%"
         height="100%" />
    </clipPath>
    <path
       id="SVGID_7_-3"
       d="m 784.9,979.7 c 0,20.3 -16.4,36.7 -36.7,36.7 H 612.1 c -20.3,0 -36.7,-16.4 -36.7,-36.7 V 843.5 c 0,-20.3 16.4,-36.7 36.7,-36.7 h 136.2 c 20.3,0 36.7,16.4 36.7,36.7 v 136.2 z" />
    <path
       id="SVGID_9_-5"
       d="m 665.9,963.5 c 9.7,-0.9 21.1,-1.4 32.9,0.4 36,2.8 38.2,37.5 42.2,56.1 -38.8,0.3 -77.6,0.5 -116.4,0.8 0,-23 11.6,-54.7 41.3,-57.3 z" />
    <path
       id="SVGID_11_"
       d="m 696.5,953.1 -29.2,-0.8 c -0.1,0.4 1.5,17.2 2.2,19.3 1.2,2.8 6.4,22.8 12.4,22.9 6.2,0.1 13.3,-19.7 14.4,-23.8 z" />
    <clipPath
       id="SVGID_40_">
      <use
         height="100%"
         width="100%"
         y="0"
         x="0"
         id="use9938"
         style="overflow:visible"
         xlink:href="#SVGID_39_" />
    </clipPath>
    <path
       d="m 1036.4,979.7 c 0,20.3 -16.4,36.7 -36.7,36.7 H 863.6 c -20.3,0 -36.7,-16.4 -36.7,-36.7 V 843.5 c 0,-20.3 16.4,-36.7 36.7,-36.7 h 136.2 c 20.3,0 36.7,16.4 36.7,36.7 v 136.2 z"
       id="SVGID_39_" />
    <clipPath
       id="SVGID_60_">
      <use
         xlink:href="#SVGID_59_"
         style="overflow:visible"
         id="use10349"
         x="0"
         y="0"
         width="100%"
         height="100%" />
    </clipPath>
    <path
       id="SVGID_59_"
       d="m 1282.1,979.7 c 0,20.3 -16.4,36.7 -36.7,36.7 h -136.2 c -20.3,0 -36.7,-16.4 -36.7,-36.7 V 843.5 c 0,-20.3 16.4,-36.7 36.7,-36.7 h 136.2 c 20.3,0 36.7,16.4 36.7,36.7 z" />
  </defs>
  <metadata
     id="metadata5">
    <rdf:RDF>
      <cc:Work
         rdf:about="">
        <dc:format>image/svg+xml</dc:format>
        <dc:type
           rdf:resource="http://purl.org/dc/dcmitype/StillImage" />
        <dc:title></dc:title>
      </cc:Work>
    </rdf:RDF>
  </metadata>
  <g
     transform="translate(-314.39922,-249.17968)"
     id="layer1">
    <g
       id="g10400"
       transform="matrix(0.26458333,0,0,0.26458333,30.633598,35.713853)">
      <path
         class="st101"
         d="m 1282.1,979.7 c 0,20.3 -16.4,36.7 -36.7,36.7 h -136.2 c -20.3,0 -36.7,-16.4 -36.7,-36.7 V 843.5 c 0,-20.3 16.4,-36.7 36.7,-36.7 h 136.2 c 20.3,0 36.7,16.4 36.7,36.7 z"
         id="path10344"
         style="fill:#edd4d6" />
      <g
         id="g10398">
        <defs
           id="defs10347">
          <path
             id="path16835"
             d="m 1282.1,979.7 c 0,20.3 -16.4,36.7 -36.7,36.7 h -136.2 c -20.3,0 -36.7,-16.4 -36.7,-36.7 V 843.5 c 0,-20.3 16.4,-36.7 36.7,-36.7 h 136.2 c 20.3,0 36.7,16.4 36.7,36.7 z" />
        </defs>
        <clipPath
           id="clipPath16768">
          <use
             xlink:href="#SVGID_59_"
             style="overflow:visible"
             id="use16766"
             x="0"
             y="0"
             width="100%"
             height="100%" />
        </clipPath>
        <g
           class="st127"
           clip-path="url(#SVGID_60_)"
           id="g10396">
          <path
             class="st128"
             d="m 1163.1,972.9 c 8.9,-0.7 19.2,-0.6 30,0.3 32.1,2.6 34.9,31.2 38.5,46.7 -35.4,0.2 -70.9,0.4 -106.3,0.6 0.1,-19 10.7,-45.4 37.8,-47.6 z"
             id="path10352"
             style="clip-rule:evenodd;fill:#514734;fill-rule:evenodd" />
          <path
             class="st59"
             d="m 1185.1,978.5 -21.1,-1.4 c 1.3,14.8 -1.2,28.5 3.5,43.1 0.3,0.9 19.7,-0.4 21.3,0 5.1,1.1 2.8,-5.4 4,-10.3 0.5,-2 3.2,-15.5 4.6,-31 z"
             id="path10354"
             style="clip-rule:evenodd;fill:#cacac9;fill-rule:evenodd" />
          <path
             class="st17"
             d="m 1170.7,974 2.3,14.2 c -2.5,0.6 -23.6,1.5 -23.5,1.4 7.8,-9.1 13.5,-13.3 21.2,-15.6 z"
             id="path10356"
             style="clip-rule:evenodd;fill:#e4e4e3;fill-rule:evenodd" />
          <path
             class="st17"
             d="m 1189,973.9 -2.9,14 c 2.5,0.5 23,-1.3 23,-1.3 -4.1,-10.1 -12.3,-10.2 -20.1,-12.7 z"
             id="path10358"
             style="clip-rule:evenodd;fill:#e4e4e3;fill-rule:evenodd" />
          <path
             class="st129"
             d="m 1178.6,996.9 c 0.7,0 1.3,-0.6 1.3,-1.4 0,-0.8 -0.6,-1.4 -1.3,-1.4 -0.7,0 -1.3,0.6 -1.3,1.4 0,0.8 0.6,1.4 1.3,1.4 z"
             id="path10360"
             style="clip-rule:evenodd;fill:#496346;fill-rule:evenodd" />
          <path
             class="st129"
             d="m 1178.6,1005.4 c 0.7,0 1.3,-0.6 1.3,-1.4 0,-0.8 -0.6,-1.4 -1.3,-1.4 -0.7,0 -1.3,0.6 -1.3,1.4 0,0.8 0.6,1.4 1.3,1.4 z"
             id="path10362"
             style="clip-rule:evenodd;fill:#496346;fill-rule:evenodd" />
          <path
             class="st17"
             d="m 1189.2,986.9 -20.1,1 c -12.7,0.7 1.3,9.3 4.8,15.8 7.5,14.1 13.8,-2.1 19.1,-10.9 1.9,-3.2 -1.2,-4.1 -3.8,-5.9 z"
             id="path10364"
             style="clip-rule:evenodd;fill:#e4e4e3;fill-rule:evenodd" />
          <path
             class="st31"
             d="m 1189.9,951.4 -21.3,-0.9 c -0.1,0.4 1.1,19.3 1.6,21.6 0.9,3.1 4.7,36.2 9,36.4 4.6,0.2 9.7,-32.7 10.6,-37.4 z"
             id="path10366"
             style="clip-rule:evenodd;fill:#705528;fill-rule:evenodd" />
          <path
             class="st130"
             d="m 1186.5,875.5 -42.5,10.8 c -4.1,7.5 -6.3,44.5 -1,52.2 4.7,6.8 8.5,20.6 17.6,28.3 12.3,10.4 36.1,4.8 44.1,-17.6 10.4,-29.1 10.8,-19.8 15,-60.5 z"
             id="path10368"
             style="clip-rule:evenodd;fill:#b3863f;fill-rule:evenodd" />
          <path
             class="st24"
             d="m 1170,943.5 c -15,2.6 -14.9,27.7 -9.5,22.7 3.7,-3.5 0.7,-15.5 14.4,-17.2 1.6,-0.1 6.2,-7.4 -4.9,-5.5 z"
             id="path10370"
             style="clip-rule:evenodd;fill:#010002;fill-rule:evenodd" />
          <path
             class="st24"
             d="m 1134.1,927.2 8.8,-11.6 c -1.6,14.1 11.2,25.4 10.6,29.7 -1.3,2.3 -2,5.4 -3.7,5.3 -5.3,-0.4 -13,-17 -15.7,-23.4 z"
             id="path10372"
             style="clip-rule:evenodd;fill:#010002;fill-rule:evenodd" />
          <path
             class="st24"
             d="m 1170.1,958 c 1.5,3.5 5.4,6.8 3.6,8.5 -2.4,2.4 -7.6,1.5 -9.2,0.3 -1.8,-1.4 0.2,8.1 16.7,5.4 3.3,-0.5 10.5,-5.1 10.2,-6.9 -0.1,-0.9 -5.1,1.6 -8.8,1.3 -3.1,-0.2 2,-7.1 1.4,-8.7 -0.3,-0.8 -4.8,-1.8 -7.6,-1.6 -0.7,0.1 -6.4,1.5 -6.3,1.7 z"
             id="path10374"
             style="clip-rule:evenodd;fill:#010002;fill-rule:evenodd" />
          <path
             class="st24"
             d="m 1186.8,942.7 c 15.2,2.5 12.4,27.3 7.5,22.4 -3.4,-3.4 0.9,-15.4 -13.1,-16.9 -1.6,-0.2 -5.7,-7.3 5.6,-5.5 z"
             id="path10376"
             style="clip-rule:evenodd;fill:#010002;fill-rule:evenodd" />
          <path
             class="st24"
             d="m 1142.6,918.2 -11,10.6 c -2.2,-2.8 -12.6,-11.6 -18.2,-20.6 -4.9,-7.7 -5.2,-15.6 -5.6,-18 -10.2,-70.4 141.5,-92.5 141.5,-1 0,17 -14.3,24.9 -25.8,34.9 -12,10.5 -3,2.7 -13,16.1 -6.2,8.4 -7.6,-5.6 -1.1,-13.5 6.9,-8.4 3.9,-40.9 -11.7,-42.4 -12.5,-1.2 -51.6,-3.7 -53.4,13 -0.8,8 0,14.4 -1.7,20.9 z"
             id="path10378"
             style="clip-rule:evenodd;fill:#010002;fill-rule:evenodd" />
          <path
             class="st130"
             d="m 1148.6,977.4 c -5.9,7.6 -3.1,43.2 -4.2,43.1 -5.6,-0.2 -15.8,0.2 -20.1,-0.2 -0.7,-0.1 0.3,-4.2 1.8,-11 1.4,-6.3 6.4,-33.8 21.9,-32.3 z"
             id="path10380"
             style="clip-rule:evenodd;fill:#b3863f;fill-rule:evenodd" />
          <path
             class="st130"
             d="m 1208.9,977.8 c 5.9,7.6 2.2,43 3.2,43 5.6,-0.3 15.8,0.2 20.1,-0.2 0.7,-0.1 0,-4.7 -2,-10.2 -2.2,-6.1 -6.1,-34.7 -21.7,-33.2 z"
             id="path10382"
             style="clip-rule:evenodd;fill:#b3863f;fill-rule:evenodd" />
          <path
             class="st24"
             d="m 1138,929.3 -23.5,-54.8 c -8.3,0 -2.3,-15.7 -9.7,0.5 -2,4.3 12.4,8.2 -3.3,8.2 0,18.2 9.1,-1.3 5.8,18.4 -0.1,0.4 8.2,2.7 2.8,8.7 -0.7,0.8 -11.8,2.5 0,6.3 2.6,0.8 9.3,1.5 2.8,5.3 -3.5,2 4.4,3.9 7,0.3 2.1,-2.9 -3.4,7.6 6.9,7.3 8.2,-0.2 -4.5,1.5 8.5,1 0.4,0 2.4,-1.1 2.7,-1.2 z"
             id="path10384"
             style="clip-rule:evenodd;fill:#010002;fill-rule:evenodd" />
          <path
             class="st24"
             d="m 1109,878.3 41,-43.2 c -3.3,-7.6 13.5,-8.3 -4.3,-8.7 -4.7,-0.1 -2.7,14.6 -8.9,0.2 -16.7,7.2 4.7,7.8 -14.6,12.6 -0.3,0.1 0.8,8.6 -6.9,6 -1,-0.3 -7,-9.9 -5.8,2.5 0.3,2.7 2.2,9.1 -3.8,4.6 -3.2,-2.4 -1.8,5.6 2.5,6.6 3.5,0.8 -8.3,-0.1 -4,9.2 3.5,7.5 -3.1,-3.6 2.4,8.2 0.4,0.4 2.2,1.8 2.4,2 z"
             id="path10386"
             style="clip-rule:evenodd;fill:#010002;fill-rule:evenodd" />
          <path
             class="st24"
             d="m 1157.8,837.8 55.4,21.8 c 5.8,-5.9 12.8,9.4 6.5,-7.3 -1.7,-4.4 -14.6,3 -3.5,-8.2 -12.9,-12.8 -5.5,7.3 -17.1,-8.8 -0.2,-0.3 -7.7,4 -8.1,-4.1 -0.1,-1 6.5,-10.2 -4.5,-4.4 -2.4,1.3 -7.6,5.5 -5.7,-1.8 1,-3.9 -5.9,0.4 -5.1,4.8 0.6,3.6 -3,-7.7 -10,-0.2 -5.6,6 2.1,-4.2 -6.7,5.3 -0.5,0.4 -1,2.6 -1.2,2.9 z"
             id="path10388"
             style="clip-rule:evenodd;fill:#010002;fill-rule:evenodd" />
          <path
             class="st24"
             d="m 1180.8,837.8 55.4,21.8 c 5.8,-5.9 12.8,9.4 6.5,-7.3 -1.7,-4.4 -14.6,3 -3.5,-8.2 -12.9,-12.8 -5.5,7.3 -17.1,-8.8 -0.2,-0.3 -7.7,4 -8.1,-4.1 -0.1,-1 6.5,-10.2 -4.5,-4.4 -2.4,1.3 -7.6,5.5 -5.7,-1.8 1,-3.9 -5.9,0.4 -5.1,4.8 0.6,3.6 -3,-7.7 -10,-0.2 -5.6,6 2.1,-4.2 -6.7,5.3 -0.4,0.4 -1,2.6 -1.2,2.9 z"
             id="path10390"
             style="clip-rule:evenodd;fill:#010002;fill-rule:evenodd" />
          <path
             class="st24"
             d="m 1243.7,901 -16.4,-49.2 c 6.3,-5.3 -8.1,-11.3 7.7,-5.9 4.2,1.4 -4.2,13 7.7,3 11.4,11.4 -7.6,5 7.1,15.2 0.3,0.2 -4.6,6.9 3.3,7.2 1,0 10.5,-6 4,3.9 -1.4,2.2 -6,6.9 1.2,5.1 3.9,-0.9 -0.9,5.2 -5.1,4.6 -3.4,-0.5 7.3,2.6 -0.6,8.9 -6.4,5.1 4.3,-2 -5.8,6 -0.7,0.5 -2.9,1 -3.1,1.2 z"
             id="path10392"
             style="clip-rule:evenodd;fill:#010002;fill-rule:evenodd" />
          <path
             class="st24"
             d="m 1205.2,929.5 36,-37.4 c 7.6,3.1 6.3,-12.4 8.8,4.1 0.7,4.4 -13.5,2.3 0.9,8.2 -4.8,15.4 -7.9,-4.5 -10.2,13.3 0,0.3 -8.2,-0.8 -4.8,6.3 0.4,0.9 10.2,6.6 -1.7,5.3 -2.6,-0.3 -8.9,-2.2 -3.9,3.5 2.6,3 -5.1,1.6 -6.5,-2.4 -1.2,-3.2 1.1,7.6 -8.2,3.6 -7.5,-3.3 3.7,2.9 -8,-2.3 -0.6,-0.4 -2.1,-2 -2.4,-2.2 z"
             id="path10394"
             style="clip-rule:evenodd;fill:#010002;fill-rule:evenodd" />
        </g>
      </g>
    </g>
  </g>
</svg>
