<?xml version="1.0" encoding="UTF-8" standalone="no"?>
<svg
   xmlns:dc="http://purl.org/dc/elements/1.1/"
   xmlns:cc="http://creativecommons.org/ns#"
   xmlns:rdf="http://www.w3.org/1999/02/22-rdf-syntax-ns#"
   xmlns:svg="http://www.w3.org/2000/svg"
   xmlns="http://www.w3.org/2000/svg"
   xmlns:xlink="http://www.w3.org/1999/xlink"
   id="svg8"
   version="1.1"
   viewBox="0 0 55.456665 55.456665"
   height="55.456665mm"
   width="55.456665mm">
  <defs
     id="defs2">
    <clipPath
       id="clipPath2444"
       clipPathUnits="userSpaceOnUse">
      <path
         id="path2442"
         d="m 87.298,2047.988 c -12.367,0 -22.391,-10.024 -22.391,-22.389 v 0 -83.06 c 0,-12.367 10.024,-22.39 22.391,-22.39 v 0 h 83.058 c 12.367,0 22.391,10.023 22.391,22.39 v 0 83.06 c 0,12.365 -10.024,22.389 -22.391,22.389 v 0 z" />
    </clipPath>
    <clipPath
       id="SVGID_14_">
      <use
         xlink:href="#SVGID_13_"
         style="overflow:visible"
         id="use1204"
         x="0"
         y="0"
         width="100%"
         height="100%" />
    </clipPath>
    <path
       id="SVGID_13_"
       d="m 694.5,450.6 -28.3,-1.2 c -0.1,0.5 2.2,16.4 2.9,19.5 1.2,4.2 6.1,37.5 11.8,37.8 6.1,0.3 9.8,-33.2 10.9,-39.5 z" />
    <clipPath
       id="SVGID_8_">
      <use
         xlink:href="#SVGID_7_"
         style="overflow:visible"
         id="use1110"
         x="0"
         y="0"
         width="100%"
         height="100%" />
    </clipPath>
    <clipPath
       id="SVGID_10_">
      <use
         xlink:href="#SVGID_9_"
         style="overflow:visible"
         id="use1120"
         x="0"
         y="0"
         width="100%"
         height="100%" />
    </clipPath>
    <path
       id="SVGID_7_"
       d="m 537.3,480.6 c 0,19.8 -16.1,35.9 -35.9,35.9 H 368 c -19.9,0 -35.9,-16.1 -35.9,-35.9 V 347.3 c 0,-19.9 16.1,-35.9 35.9,-35.9 h 133.3 c 19.9,0 35.9,16.1 35.9,35.9 v 133.3 z" />
    <path
       id="SVGID_9_"
       d="M 448.4,448.5 429.6,447 c -0.1,0.6 1,32.1 1.4,35.9 1.6,10.6 15.8,13.4 17.2,-1.7 z" />
    <clipPath
       id="SVGID_22_">
      <use
         xlink:href="#SVGID_21_"
         style="overflow:visible"
         id="use1352"
         x="0"
         y="0"
         width="100%"
         height="100%" />
    </clipPath>
    <path
       id="SVGID_21_"
       d="m 1031.6,480.6 c 0,19.9 -16.1,35.9 -35.9,35.9 H 862.4 c -19.9,0 -35.9,-16.1 -35.9,-35.9 V 347.3 c 0,-19.9 16.1,-35.9 35.9,-35.9 h 133.3 c 19.9,0 35.9,16.1 35.9,35.9 z" />
    <clipPath
       id="SVGID_16_">
      <use
         height="100%"
         width="100%"
         y="0"
         x="0"
         id="use9459"
         style="overflow:visible"
         xlink:href="#SVGID_15_" />
    </clipPath>
    <path
       d="m 290.2,497 c 0,20.3 -16.4,36.7 -36.7,36.7 H 117.3 C 97,533.7 80.6,517.3 80.6,497 V 360.8 c 0,-20.3 16.4,-36.7 36.7,-36.7 h 136.2 c 20.3,0 36.7,16.4 36.7,36.7 z"
       id="SVGID_15_" />
    <clipPath
       id="SVGID_26_">
      <use
         xlink:href="#SVGID_25_"
         style="overflow:visible"
         id="use9668"
         x="0"
         y="0"
         width="100%"
         height="100%" />
    </clipPath>
    <path
       id="SVGID_25_"
       d="m 535,497 c 0,20.3 -16.4,36.7 -36.7,36.7 H 362.2 c -20.3,0 -36.7,-16.4 -36.7,-36.7 V 360.8 c 0,-20.3 16.4,-36.7 36.7,-36.7 h 136.2 c 20.3,0 36.7,16.4 36.7,36.7 V 497 Z" />
    <clipPath
       id="SVGID_2_">
      <use
         xlink:href="#SVGID_1_"
         style="overflow:visible"
         id="use9226"
         x="0"
         y="0"
         width="100%"
         height="100%" />
    </clipPath>
    <clipPath
       id="SVGID_4_">
      <use
         xlink:href="#SVGID_3_"
         style="overflow:visible"
         id="use9232"
         x="0"
         y="0"
         width="100%"
         height="100%" />
    </clipPath>
    <clipPath
       id="clipPath14027">
      <use
         xlink:href="#SVGID_3_"
         style="overflow:visible"
         id="use14025"
         x="0"
         y="0"
         width="100%"
         height="100%" />
    </clipPath>
    <clipPath
       id="clipPath14031">
      <use
         xlink:href="#SVGID_3_"
         style="overflow:visible"
         id="use14029"
         x="0"
         y="0"
         width="100%"
         height="100%" />
    </clipPath>
    <clipPath
       id="clipPath14035">
      <use
         xlink:href="#SVGID_3_"
         style="overflow:visible"
         id="use14033"
         x="0"
         y="0"
         width="100%"
         height="100%" />
    </clipPath>
    <clipPath
       id="clipPath14039">
      <use
         xlink:href="#SVGID_3_"
         style="overflow:visible"
         id="use14037"
         x="0"
         y="0"
         width="100%"
         height="100%" />
    </clipPath>
    <clipPath
       id="clipPath14043">
      <use
         xlink:href="#SVGID_3_"
         style="overflow:visible"
         id="use14041"
         x="0"
         y="0"
         width="100%"
         height="100%" />
    </clipPath>
    <clipPath
       id="clipPath14047">
      <use
         xlink:href="#SVGID_3_"
         style="overflow:visible"
         id="use14045"
         x="0"
         y="0"
         width="100%"
         height="100%" />
    </clipPath>
    <path
       id="SVGID_1_"
       d="m 784.9,497 c 0,20.3 -16.4,36.7 -36.7,36.7 H 612.1 c -20.3,0 -36.7,-16.4 -36.7,-36.7 V 360.8 c 0,-20.3 16.4,-36.7 36.7,-36.7 h 136.2 c 20.3,0 36.7,16.4 36.7,36.7 V 497 Z" />
    <path
       id="SVGID_3_"
       d="m 662.6,470.7 c 10.9,-1 23.8,-1.6 37.1,0.4 40.5,3.2 43.1,43.5 47.5,65.1 -45.4,0.3 -89,0.6 -131.1,0.9 0,-26.5 13.1,-63.4 46.5,-66.4 z" />
    <clipPath
       id="SVGID_36_">
      <use
         height="100%"
         width="100%"
         y="0"
         x="0"
         id="use9875"
         style="overflow:visible"
         xlink:href="#SVGID_35_" />
    </clipPath>
    <path
       d="m 1036.4,497 c 0,20.3 -16.4,36.7 -36.7,36.7 H 863.6 c -20.3,0 -36.7,-16.4 -36.7,-36.7 V 360.8 c 0,-20.3 16.4,-36.7 36.7,-36.7 h 136.2 c 20.3,0 36.7,16.4 36.7,36.7 V 497 Z"
       id="SVGID_35_" />
    <clipPath
       id="SVGID_56_">
      <use
         xlink:href="#SVGID_55_"
         style="overflow:visible"
         id="use10272"
         x="0"
         y="0"
         width="100%"
         height="100%" />
    </clipPath>
    <path
       id="SVGID_55_"
       d="m 1282.1,497 c 0,20.3 -16.4,36.7 -36.7,36.7 h -136.2 c -20.3,0 -36.7,-16.4 -36.7,-36.7 V 360.8 c 0,-20.3 16.4,-36.7 36.7,-36.7 h 136.2 c 20.3,0 36.7,16.4 36.7,36.7 z" />
    <clipPath
       id="SVGID_46_">
      <use
         xlink:href="#SVGID_45_"
         style="overflow:visible"
         id="use10074"
         x="0"
         y="0"
         width="100%"
         height="100%" />
    </clipPath>
    <clipPath
       id="SVGID_48_">
      <use
         xlink:href="#SVGID_47_"
         style="overflow:visible"
         id="use10084"
         x="0"
         y="0"
         width="100%"
         height="100%" />
    </clipPath>
    <clipPath
       id="clipPath14969">
      <use
         xlink:href="#SVGID_47_"
         style="overflow:visible"
         id="use14967"
         x="0"
         y="0"
         width="100%"
         height="100%" />
    </clipPath>
    <clipPath
       id="clipPath14973">
      <use
         xlink:href="#SVGID_47_"
         style="overflow:visible"
         id="use14971"
         x="0"
         y="0"
         width="100%"
         height="100%" />
    </clipPath>
    <clipPath
       id="clipPath14977">
      <use
         xlink:href="#SVGID_47_"
         style="overflow:visible"
         id="use14975"
         x="0"
         y="0"
         width="100%"
         height="100%" />
    </clipPath>
    <clipPath
       id="clipPath14981">
      <use
         xlink:href="#SVGID_47_"
         style="overflow:visible"
         id="use14979"
         x="0"
         y="0"
         width="100%"
         height="100%" />
    </clipPath>
    <clipPath
       id="clipPath14985">
      <use
         xlink:href="#SVGID_47_"
         style="overflow:visible"
         id="use14983"
         x="0"
         y="0"
         width="100%"
         height="100%" />
    </clipPath>
    <clipPath
       id="clipPath14989">
      <use
         xlink:href="#SVGID_47_"
         style="overflow:visible"
         id="use14987"
         x="0"
         y="0"
         width="100%"
         height="100%" />
    </clipPath>
    <clipPath
       id="clipPath14993">
      <use
         xlink:href="#SVGID_47_"
         style="overflow:visible"
         id="use14991"
         x="0"
         y="0"
         width="100%"
         height="100%" />
    </clipPath>
    <clipPath
       id="clipPath14997">
      <use
         xlink:href="#SVGID_47_"
         style="overflow:visible"
         id="use14995"
         x="0"
         y="0"
         width="100%"
         height="100%" />
    </clipPath>
    <clipPath
       id="clipPath15001">
      <use
         xlink:href="#SVGID_47_"
         style="overflow:visible"
         id="use14999"
         x="0"
         y="0"
         width="100%"
         height="100%" />
    </clipPath>
    <clipPath
       id="clipPath15005">
      <use
         xlink:href="#SVGID_47_"
         style="overflow:visible"
         id="use15003"
         x="0"
         y="0"
         width="100%"
         height="100%" />
    </clipPath>
    <clipPath
       id="clipPath15009">
      <use
         xlink:href="#SVGID_47_"
         style="overflow:visible"
         id="use15007"
         x="0"
         y="0"
         width="100%"
         height="100%" />
    </clipPath>
    <clipPath
       id="clipPath15013">
      <use
         xlink:href="#SVGID_47_"
         style="overflow:visible"
         id="use15011"
         x="0"
         y="0"
         width="100%"
         height="100%" />
    </clipPath>
    <clipPath
       id="clipPath15017">
      <use
         xlink:href="#SVGID_47_"
         style="overflow:visible"
         id="use15015"
         x="0"
         y="0"
         width="100%"
         height="100%" />
    </clipPath>
    <clipPath
       id="clipPath15021">
      <use
         xlink:href="#SVGID_47_"
         style="overflow:visible"
         id="use15019"
         x="0"
         y="0"
         width="100%"
         height="100%" />
    </clipPath>
    <clipPath
       id="clipPath15025">
      <use
         xlink:href="#SVGID_47_"
         style="overflow:visible"
         id="use15023"
         x="0"
         y="0"
         width="100%"
         height="100%" />
    </clipPath>
    <clipPath
       id="clipPath15029">
      <use
         xlink:href="#SVGID_47_"
         style="overflow:visible"
         id="use15027"
         x="0"
         y="0"
         width="100%"
         height="100%" />
    </clipPath>
    <clipPath
       id="clipPath15033">
      <use
         xlink:href="#SVGID_47_"
         style="overflow:visible"
         id="use15031"
         x="0"
         y="0"
         width="100%"
         height="100%" />
    </clipPath>
    <clipPath
       id="clipPath15037">
      <use
         xlink:href="#SVGID_47_"
         style="overflow:visible"
         id="use15035"
         x="0"
         y="0"
         width="100%"
         height="100%" />
    </clipPath>
    <clipPath
       id="clipPath15041">
      <use
         xlink:href="#SVGID_47_"
         style="overflow:visible"
         id="use15039"
         x="0"
         y="0"
         width="100%"
         height="100%" />
    </clipPath>
    <clipPath
       id="clipPath15045">
      <use
         xlink:href="#SVGID_47_"
         style="overflow:visible"
         id="use15043"
         x="0"
         y="0"
         width="100%"
         height="100%" />
    </clipPath>
    <clipPath
       id="clipPath15049">
      <use
         xlink:href="#SVGID_47_"
         style="overflow:visible"
         id="use15047"
         x="0"
         y="0"
         width="100%"
         height="100%" />
    </clipPath>
    <path
       id="SVGID_45_"
       d="m 1525.5,497 c 0,20.3 -16.4,36.7 -36.7,36.7 h -136.2 c -20.3,0 -36.7,-16.4 -36.7,-36.7 V 360.8 c 0,-20.3 16.4,-36.7 36.7,-36.7 h 136.2 c 20.3,0 36.7,16.4 36.7,36.7 z" />
    <path
       id="SVGID_47_"
       d="m 1409.8,478.1 c 9.8,-0.9 21.2,-1.4 33.1,0.4 36.2,2.8 38.5,37.8 42.5,56.5 -39.1,0.3 -78.1,0.5 -117.2,0.8 0,-23.1 11.7,-55.1 41.6,-57.7 z" />
    <clipPath
       id="SVGID_18_">
      <use
         xlink:href="#SVGID_17_"
         style="overflow:visible"
         id="use9486"
         x="0"
         y="0"
         width="100%"
         height="100%" />
    </clipPath>
    <path
       id="SVGID_17_"
       d="m 290.2,734.8 c 0,20.3 -16.4,36.7 -36.7,36.7 H 117.3 C 97,771.5 80.6,755.1 80.6,734.8 V 598.6 c 0,-20.3 16.4,-36.7 36.7,-36.7 h 136.2 c 20.3,0 36.7,16.4 36.7,36.7 z" />
    <clipPath
       id="SVGID_28_">
      <use
         xlink:href="#SVGID_27_"
         style="overflow:visible"
         id="use9716"
         x="0"
         y="0"
         width="100%"
         height="100%" />
    </clipPath>
    <path
       id="SVGID_27_"
       d="m 535,734.8 c 0,20.3 -16.4,36.7 -36.7,36.7 H 362.2 c -20.3,0 -36.7,-16.4 -36.7,-36.7 V 598.6 c 0,-20.3 16.4,-36.7 36.7,-36.7 h 136.2 c 20.3,0 36.7,16.4 36.7,36.7 v 136.2 z" />
    <clipPath
       id="SVGID_6_">
      <use
         xlink:href="#SVGID_5_"
         style="overflow:visible"
         id="use9271"
         x="0"
         y="0"
         width="100%"
         height="100%" />
    </clipPath>
    <path
       id="SVGID_5_"
       d="m 784.9,734.8 c 0,20.3 -16.4,36.7 -36.7,36.7 H 612.1 c -20.3,0 -36.7,-16.4 -36.7,-36.7 V 598.6 c 0,-20.3 16.4,-36.7 36.7,-36.7 h 136.2 c 20.3,0 36.7,16.4 36.7,36.7 v 136.2 z" />
    <clipPath
       id="SVGID_38_">
      <use
         height="100%"
         width="100%"
         y="0"
         x="0"
         id="use9903"
         style="overflow:visible"
         xlink:href="#SVGID_37_" />
    </clipPath>
    <path
       d="m 1036.4,734.8 c 0,20.3 -16.4,36.7 -36.7,36.7 H 863.6 c -20.3,0 -36.7,-16.4 -36.7,-36.7 V 598.6 c 0,-20.3 16.4,-36.7 36.7,-36.7 h 136.2 c 20.3,0 36.7,16.4 36.7,36.7 v 136.2 z"
       id="SVGID_37_" />
    <clipPath
       id="SVGID_58_">
      <use
         xlink:href="#SVGID_57_"
         style="overflow:visible"
         id="use10309"
         x="0"
         y="0"
         width="100%"
         height="100%" />
    </clipPath>
    <path
       id="SVGID_57_"
       d="m 1282.1,734.8 c 0,20.3 -16.4,36.7 -36.7,36.7 h -136.2 c -20.3,0 -36.7,-16.4 -36.7,-36.7 V 598.6 c 0,-20.3 16.4,-36.7 36.7,-36.7 h 136.2 c 20.3,0 36.7,16.4 36.7,36.7 z" />
    <clipPath
       id="SVGID_44_">
      <use
         xlink:href="#SVGID_43_"
         style="overflow:visible"
         id="use10042"
         x="0"
         y="0"
         width="100%"
         height="100%" />
    </clipPath>
    <path
       id="SVGID_43_"
       d="m 1525.5,734.8 c 0,20.3 -16.4,36.7 -36.7,36.7 h -136.2 c -20.3,0 -36.7,-16.4 -36.7,-36.7 V 598.6 c 0,-20.3 16.4,-36.7 36.7,-36.7 h 136.2 c 20.3,0 36.7,16.4 36.7,36.7 z" />
    <clipPath
       id="SVGID_20_">
      <use
         xlink:href="#SVGID_19_"
         style="overflow:visible"
         id="use9530"
         x="0"
         y="0"
         width="100%"
         height="100%" />
    </clipPath>
    <clipPath
       id="SVGID_22_-3">
      <use
         xlink:href="#SVGID_21_-6"
         style="overflow:visible"
         id="use9608"
         x="0"
         y="0"
         width="100%"
         height="100%" />
    </clipPath>
    <path
       id="SVGID_19_"
       d="m 290.2,979.7 c 0,20.3 -16.4,36.7 -36.7,36.7 H 117.3 C 97,1016.4 80.6,1000 80.6,979.7 V 843.5 c 0,-20.3 16.4,-36.7 36.7,-36.7 h 136.2 c 20.3,0 36.7,16.4 36.7,36.7 z" />
    <path
       id="SVGID_21_-6"
       d="m 194.4,1018.9 c -1.9,2 -63.5,1.8 -63.4,-0.2 0.8,-21.4 16.3,-47 29.7,-51.9 4.2,-1.6 9.8,-2.6 11.4,-2.5 3.3,0.2 5.4,0.5 6.8,0.6 3.6,0.5 -1.8,9.3 11.9,8.6 8.3,-0.4 4.5,-8.7 8.5,-9 7.5,-0.6 15.5,-0.5 23.5,5 -0.1,0 -9,28.5 -28.4,49.4 z" />
    <clipPath
       id="SVGID_30_">
      <use
         xlink:href="#SVGID_29_"
         style="overflow:visible"
         id="use9751"
         x="0"
         y="0"
         width="100%"
         height="100%" />
    </clipPath>
    <path
       id="SVGID_29_"
       d="m 535,979.7 c 0,20.3 -16.4,36.7 -36.7,36.7 H 362.2 c -20.3,0 -36.7,-16.4 -36.7,-36.7 V 843.5 c 0,-20.3 16.4,-36.7 36.7,-36.7 h 136.2 c 20.3,0 36.7,16.4 36.7,36.7 v 136.2 z" />
    <clipPath
       id="SVGID_8_-7">
      <use
         xlink:href="#SVGID_7_-3"
         style="overflow:visible"
         id="use9309"
         x="0"
         y="0"
         width="100%"
         height="100%" />
    </clipPath>
    <clipPath
       id="SVGID_10_-5">
      <use
         xlink:href="#SVGID_9_-5"
         style="overflow:visible"
         id="use9317"
         x="0"
         y="0"
         width="100%"
         height="100%" />
    </clipPath>
    <clipPath
       id="clipPath16428">
      <use
         xlink:href="#SVGID_9_-5"
         style="overflow:visible"
         id="use16426"
         x="0"
         y="0"
         width="100%"
         height="100%" />
    </clipPath>
    <clipPath
       id="clipPath16432">
      <use
         xlink:href="#SVGID_9_-5"
         style="overflow:visible"
         id="use16430"
         x="0"
         y="0"
         width="100%"
         height="100%" />
    </clipPath>
    <clipPath
       id="clipPath16436">
      <use
         xlink:href="#SVGID_9_-5"
         style="overflow:visible"
         id="use16434"
         x="0"
         y="0"
         width="100%"
         height="100%" />
    </clipPath>
    <clipPath
       id="SVGID_12_">
      <use
         xlink:href="#SVGID_11_"
         style="overflow:visible"
         id="use9335"
         x="0"
         y="0"
         width="100%"
         height="100%" />
    </clipPath>
    <path
       id="SVGID_7_-3"
       d="m 784.9,979.7 c 0,20.3 -16.4,36.7 -36.7,36.7 H 612.1 c -20.3,0 -36.7,-16.4 -36.7,-36.7 V 843.5 c 0,-20.3 16.4,-36.7 36.7,-36.7 h 136.2 c 20.3,0 36.7,16.4 36.7,36.7 v 136.2 z" />
    <path
       id="SVGID_9_-5"
       d="m 665.9,963.5 c 9.7,-0.9 21.1,-1.4 32.9,0.4 36,2.8 38.2,37.5 42.2,56.1 -38.8,0.3 -77.6,0.5 -116.4,0.8 0,-23 11.6,-54.7 41.3,-57.3 z" />
    <path
       id="SVGID_11_"
       d="m 696.5,953.1 -29.2,-0.8 c -0.1,0.4 1.5,17.2 2.2,19.3 1.2,2.8 6.4,22.8 12.4,22.9 6.2,0.1 13.3,-19.7 14.4,-23.8 z" />
    <clipPath
       id="SVGID_40_">
      <use
         height="100%"
         width="100%"
         y="0"
         x="0"
         id="use9938"
         style="overflow:visible"
         xlink:href="#SVGID_39_" />
    </clipPath>
    <path
       d="m 1036.4,979.7 c 0,20.3 -16.4,36.7 -36.7,36.7 H 863.6 c -20.3,0 -36.7,-16.4 -36.7,-36.7 V 843.5 c 0,-20.3 16.4,-36.7 36.7,-36.7 h 136.2 c 20.3,0 36.7,16.4 36.7,36.7 v 136.2 z"
       id="SVGID_39_" />
    <clipPath
       id="SVGID_60_">
      <use
         xlink:href="#SVGID_59_"
         style="overflow:visible"
         id="use10349"
         x="0"
         y="0"
         width="100%"
         height="100%" />
    </clipPath>
    <path
       id="SVGID_59_"
       d="m 1282.1,979.7 c 0,20.3 -16.4,36.7 -36.7,36.7 h -136.2 c -20.3,0 -36.7,-16.4 -36.7,-36.7 V 843.5 c 0,-20.3 16.4,-36.7 36.7,-36.7 h 136.2 c 20.3,0 36.7,16.4 36.7,36.7 z" />
    <clipPath
       id="SVGID_54_">
      <use
         xlink:href="#SVGID_53_"
         style="overflow:visible"
         id="use10240"
         x="0"
         y="0"
         width="100%"
         height="100%" />
    </clipPath>
    <path
       id="SVGID_53_"
       d="m 1525.5,979.7 c 0,20.3 -16.4,36.7 -36.7,36.7 h -136.2 c -20.3,0 -36.7,-16.4 -36.7,-36.7 V 843.5 c 0,-20.3 16.4,-36.7 36.7,-36.7 h 136.2 c 20.3,0 36.7,16.4 36.7,36.7 z" />
    <clipPath
       id="SVGID_24_">
      <use
         xlink:href="#SVGID_23_"
         style="overflow:visible"
         id="use9634"
         x="0"
         y="0"
         width="100%"
         height="100%" />
    </clipPath>
    <path
       id="SVGID_23_"
       d="m 290.2,1222.6 c 0,20.3 -16.4,36.7 -36.7,36.7 H 117.3 c -20.3,0 -36.7,-16.4 -36.7,-36.7 v -136.2 c 0,-20.3 16.4,-36.7 36.7,-36.7 h 136.2 c 20.3,0 36.7,16.4 36.7,36.7 z" />
    <clipPath
       id="SVGID_32_">
      <use
         xlink:href="#SVGID_31_"
         style="overflow:visible"
         id="use9795"
         x="0"
         y="0"
         width="100%"
         height="100%" />
    </clipPath>
    <clipPath
       id="SVGID_34_">
      <use
         xlink:href="#SVGID_33_"
         style="overflow:visible"
         id="use9823"
         x="0"
         y="0"
         width="100%"
         height="100%" />
    </clipPath>
    <clipPath
       id="clipPath17079">
      <use
         xlink:href="#SVGID_33_"
         style="overflow:visible"
         id="use17077"
         x="0"
         y="0"
         width="100%"
         height="100%" />
    </clipPath>
    <path
       id="SVGID_31_"
       d="m 535,1222.6 c 0,20.3 -16.4,36.7 -36.7,36.7 H 362.2 c -20.3,0 -36.7,-16.4 -36.7,-36.7 v -136.2 c 0,-20.3 16.4,-36.7 36.7,-36.7 h 136.2 c 20.3,0 36.7,16.4 36.7,36.7 v 136.2 z" />
    <path
       id="SVGID_33_"
       d="m 429.4,1171.2 c -1.2,-2.2 -29.1,-8.4 -34,15 -4.5,21 -15.7,19.1 -16.7,14.1 -0.7,-3.5 -0.7,-11.7 1.6,-16.8 -2.5,0 -20.8,-1.7 -21.2,1.2 -1.4,10.7 -0.4,21.5 9.6,28.4 12.5,8.6 31.2,-0.6 35.7,-16.3 5.3,-18.6 2.9,-25.6 21.8,-22.6 4.5,0.8 4.1,-1.5 3.2,-3 z" />
    <clipPath
       id="SVGID_14_-6">
      <use
         xlink:href="#SVGID_13_-2"
         style="overflow:visible"
         id="use9405"
         x="0"
         y="0"
         width="100%"
         height="100%" />
    </clipPath>
    <path
       id="SVGID_13_-2"
       d="m 784.9,1222.6 c 0,20.3 -16.4,36.7 -36.7,36.7 H 612.1 c -20.3,0 -36.7,-16.4 -36.7,-36.7 v -136.2 c 0,-20.3 16.4,-36.7 36.7,-36.7 h 136.2 c 20.3,0 36.7,16.4 36.7,36.7 v 136.2 z" />
    <clipPath
       id="SVGID_42_">
      <use
         height="100%"
         width="100%"
         y="0"
         x="0"
         id="use9976"
         style="overflow:visible"
         xlink:href="#SVGID_41_" />
    </clipPath>
    <path
       d="m 1036.4,1222.6 c 0,20.3 -16.4,36.7 -36.7,36.7 H 863.6 c -20.3,0 -36.7,-16.4 -36.7,-36.7 v -136.2 c 0,-20.3 16.4,-36.7 36.7,-36.7 h 136.2 c 20.3,0 36.7,16.4 36.7,36.7 v 136.2 z"
       id="SVGID_41_" />
    <clipPath
       id="SVGID_62_">
      <use
         xlink:href="#SVGID_61_"
         style="overflow:visible"
         id="use10407"
         x="0"
         y="0"
         width="100%"
         height="100%" />
    </clipPath>
    <path
       id="SVGID_61_"
       d="m 1282.1,1222.6 c 0,20.3 -16.4,36.7 -36.7,36.7 h -136.2 c -20.3,0 -36.7,-16.4 -36.7,-36.7 v -136.2 c 0,-20.3 16.4,-36.7 36.7,-36.7 h 136.2 c 20.3,0 36.7,16.4 36.7,36.7 z" />
  </defs>
  <metadata
     id="metadata5">
    <rdf:RDF>
      <cc:Work
         rdf:about="">
        <dc:format>image/svg+xml</dc:format>
        <dc:type
           rdf:resource="http://purl.org/dc/dcmitype/StillImage" />
        <dc:title></dc:title>
      </cc:Work>
    </rdf:RDF>
  </metadata>
  <g
     transform="translate(-27.832791,-120.72823)"
     id="layer1">
    <g
       id="g10450"
       transform="matrix(0.26458333,0,0,0.26458333,-255.93283,-157.00489)">
      <path
         class="st131"
         d="m 1282.1,1222.6 c 0,20.3 -16.4,36.7 -36.7,36.7 h -136.2 c -20.3,0 -36.7,-16.4 -36.7,-36.7 v -136.2 c 0,-20.3 16.4,-36.7 36.7,-36.7 h 136.2 c 20.3,0 36.7,16.4 36.7,36.7 z"
         id="path10402"
         style="fill:#aa3453" />
      <g
         id="g10448">
        <defs
           id="defs10405">
          <path
             id="path17773"
             d="m 1282.1,1222.6 c 0,20.3 -16.4,36.7 -36.7,36.7 h -136.2 c -20.3,0 -36.7,-16.4 -36.7,-36.7 v -136.2 c 0,-20.3 16.4,-36.7 36.7,-36.7 h 136.2 c 20.3,0 36.7,16.4 36.7,36.7 z" />
        </defs>
        <clipPath
           id="clipPath17714">
          <use
             xlink:href="#SVGID_61_"
             style="overflow:visible"
             id="use17712"
             x="0"
             y="0"
             width="100%"
             height="100%" />
        </clipPath>
        <g
           class="st132"
           clip-path="url(#SVGID_62_)"
           id="g10446">
          <path
             class="st133"
             d="m 1159.2,1229.3 c 10,-0.9 21.7,-1.4 33.8,0.4 37,2.7 39.3,36.8 43.3,55.1 -39.9,0.2 -79.7,0.5 -119.6,0.7 0,-22.5 12,-53.6 42.5,-56.2 z"
             id="path10410"
             style="clip-rule:evenodd;fill:#67462c;fill-rule:evenodd" />
          <path
             class="st134"
             d="m 1176.4,1279.2 14.3,-50.1 c 1,3.3 16.5,11.1 14.3,13.5 -2,2.2 -5,4 -4.5,4.9 1,1.7 7,3.4 10.5,6.4 1.7,1.4 -20.7,26 -33.6,28.1 l -1.4,0.8 z"
             id="path10412"
             style="clip-rule:evenodd;fill:#432b14;fill-rule:evenodd" />
          <path
             class="st134"
             d="m 1175.7,1279.2 -14.4,-50.1 c -1,3.3 -16.6,11.1 -14.4,13.5 2,2.2 5.1,4 4.5,4.9 -1,1.7 -7,3.4 -10.5,6.4 -1.7,1.4 20.8,26 33.8,28.1 l 1.4,0.8 z"
             id="path10414"
             style="clip-rule:evenodd;fill:#432b14;fill-rule:evenodd" />
          <path
             class="st27"
             d="m 1181.8,1235.3 -22.7,-2.7 c 1.3,15.6 0.5,30.9 14.8,44.9 1.7,1.7 1.2,2.2 2.7,1.6 4.6,-2 7.1,-6.2 10.4,-10.7 1.3,-1.7 5.1,-16.4 6.5,-32.8 z"
             id="path10416"
             style="clip-rule:evenodd;fill:#ffffff;fill-rule:evenodd" />
          <path
             class="st133"
             d="m 1182.6,1234.4 -13.1,0.2 c 0.4,4.2 5.3,22.4 11.1,5.7 0.6,-1.8 2,-4.1 2,-5.9 z"
             id="path10418"
             style="clip-rule:evenodd;fill:#67462c;fill-rule:evenodd" />
          <path
             class="st63"
             d="m 1189.6,1229.3 -12.3,6.1 c 1.6,2 11.6,11.3 11.6,11.2 1.8,-3.2 11.4,-18 0.7,-17.3 z"
             id="path10420"
             style="clip-rule:evenodd;fill:#cbcbcb;fill-rule:evenodd" />
          <path
             class="st63"
             d="m 1163.3,1228.1 12.3,6.1 c -1.6,2 -11.6,11.3 -11.6,11.2 -1.8,-3.2 -11.4,-18 -0.7,-17.3 z"
             id="path10422"
             style="clip-rule:evenodd;fill:#cbcbcb;fill-rule:evenodd" />
          <path
             class="st47"
             d="m 1191.4,1210.6 -30,-0.9 c -0.1,0.4 1.6,18.7 2.3,20.9 2.5,6.2 25.2,7.8 27.5,-1 z"
             id="path10424"
             style="clip-rule:evenodd;fill:#cca263;fill-rule:evenodd" />
          <path
             class="st133"
             d="m 1177.5,1244.3 -3.8,1.4 c -0.3,0.5 -7.2,23.7 -6.5,25.6 0.9,2.5 8.2,9.6 9.1,9.6 1.8,0 10.8,-9.9 10.4,-11 z"
             id="path10426"
             style="clip-rule:evenodd;fill:#67462c;fill-rule:evenodd" />
          <path
             class="st36"
             d="m 1206.7,1180.4 c 2.4,-7.4 5.1,-24.2 7.5,-31.5 2.9,-1.5 15.3,-1.4 16.2,8.6 0.7,13.7 -10.2,21.7 -14.2,23.9 -3.9,0.8 -8.4,-0.3 -9.5,-1 z"
             id="path10428"
             style="clip-rule:evenodd;fill:#f0d6ac;fill-rule:evenodd" />
          <path
             class="st36"
             d="m 1143.3,1182.5 c -2.4,-7.4 -5.1,-24.2 -7.5,-31.5 -2.9,-1.5 -15.3,-1.4 -16.2,8.6 -0.7,13.7 10.2,21.7 14.2,23.9 3.8,0.8 8.3,-0.3 9.5,-1 z"
             id="path10430"
             style="clip-rule:evenodd;fill:#f0d6ac;fill-rule:evenodd" />
          <path
             class="st36"
             d="m 1132.3,1112.4 1.6,11.1 c -5.8,10.9 3.5,84.8 20.2,94.7 5.6,3.3 13.5,13 27.1,7.3 18.3,-7.6 26.8,-19.1 30.7,-37.4 3.5,-16.4 11.7,-57.1 3.1,-73 -0.4,-0.7 -0.2,-2.8 -0.7,-3.3 z"
             id="path10432"
             style="clip-rule:evenodd;fill:#f0d6ac;fill-rule:evenodd" />
          <path
             class="st135"
             d="m 1123.8,1116 c -6.1,15.3 -0.3,18.7 6.3,35.9 2.7,7 3.5,-22.3 3.5,-25.4 0,-9.3 22.9,1.6 26,-7.8 -0.1,0.4 9.6,12 14,6.2 3.7,-4.8 0.2,0.1 5.7,0.1 28.3,0 23.2,-8.1 27.8,-8.1 6.9,9.6 -2.2,10.2 8.2,29.6 4.2,7.8 11,-11.5 10.9,-30.5 z"
             id="path10434"
             style="clip-rule:evenodd;fill:#3f2a00;fill-rule:evenodd" />
          <path
             class="st136"
             d="m 1178.2,1158.1 c 0,0 0,5.5 0.9,8.6 0.9,3.1 6,10.7 17.7,10.7 11.7,0 17.2,-5.3 18,-17.5 0.9,-1 1.5,-2.3 3,-2.3 -0.3,-3.2 -0.8,-5.6 -0.8,-5.6 -0.6,-0.1 -2.4,0 -5.1,-0.8 -3.2,-1 -7,-2.5 -14.9,-2.5 -7.9,0 -13.5,2 -17.9,6.4 -6,-1.3 -9.8,0 -9.8,0 -4.4,-4.3 -9.9,-6.4 -17.9,-6.4 -7.9,0 -11.7,1.6 -14.9,2.5 -2.7,0.8 -4.5,0.7 -5.1,0.8 0,0 -0.5,2.4 -0.8,5.6 1.5,0 2.1,1.3 3,2.3 0.8,12.3 6.3,17.5 18,17.5 11.7,0 16.9,-7.6 17.7,-10.7 0.9,-3.1 0.9,-8.6 0.9,-8.6 0.3,-0.1 4,-0.8 8,0 z m -14.8,13.4 c -4.4,4.4 -12,4.1 -12,4.1 -6.9,0.2 -11.6,-2.4 -13.3,-7.2 -1.8,-4.8 0.1,-11 0.1,-11 0,0 4.9,-3.7 12.3,-3.8 7.4,-0.1 15.2,1.7 16.9,3.7 0.8,5.4 0.4,9.8 -4,14.2 z m 47,-3.1 c -1.8,4.8 -6.4,7.4 -13.3,7.2 0,0 -7.5,0.4 -12,-4.1 -4.4,-4.4 -4.8,-8.9 -4,-14.3 1.6,-2 9.4,-3.8 16.9,-3.7 7.4,0.1 12.3,3.8 12.3,3.8 0,0 1.9,6.3 0.1,11.1 z"
             id="path10436"
             style="fill:#67462c" />
          <path
             class="st137"
             d="m 1210.6,1195.8 c -0.7,-4.6 -4.6,-5.6 -7.8,-3.3 2.8,-1.1 5.3,-0.1 5.8,2.1 0.5,2.3 -2,4.5 -5.4,3.9 -3.4,-0.6 -9.1,-4.4 -15.8,-11.3 -6.2,-6.4 -12.2,-0.4 -13.1,0.6 -0.9,-1 -7,-7 -13.1,-0.6 -6.7,6.9 -12.3,10.7 -15.8,11.3 -3.4,0.6 -5.9,-1.6 -5.4,-3.9 0.5,-2.3 3,-3.3 5.8,-2.1 -3.2,-2.4 -7.1,-1.4 -7.8,3.3 -0.7,4.6 1.6,13.4 15.8,14.8 14.2,1.4 20.4,-8.7 20.4,-8.7 0,0 0.1,-0.3 0.1,-0.7 0.1,0.4 0.1,0.7 0.1,0.7 0,0 6.2,10 20.4,8.7 14.3,-1.4 16.5,-10.2 15.8,-14.8 z"
             id="path10438"
             style="fill:#3f2a00" />
          <g
             id="g10444">
            <path
               class="st136"
               d="m 1213.7,1105.1 6.6,3 -0.7,18.4 -56.1,11.7 c 0,0 -30.9,-12.4 -31,-12.9 -0.2,-0.5 -6.8,-12 -6.8,-12 l 4,-7.1 c 0,0 3.8,-1.1 5.3,-1.4 1.5,-0.3 78.9,-0.2 78.9,-0.2 z"
               id="path10440"
               style="fill:#67462c" />
            <path
               class="st138"
               d="m 1234.4,1119.2 c -4.1,-13.7 -19.6,-15.9 -19.6,-15.9 0,0 -3.2,-17.3 -7.6,-27.9 -4.4,-10.6 -13.1,-12.8 -28.6,-12 -15.5,0.8 -31.5,-4.5 -39.4,17.3 -3.8,8.9 -6.7,22.3 -6.7,22.3 0,0 -19.6,5.3 -20.4,18.7 -0.9,13.4 21.9,26.8 62.5,27 40.5,0.4 63.9,-15.8 59.8,-29.5 z m -58.7,10.9 c -25.4,0.8 -51.1,-5 -43.8,-23.1 0,0 0,12.8 44.1,13.4 20.7,-0.3 36.5,-3.1 38.8,-14.2 3.3,8.9 3.3,21.1 -39.1,23.9 z"
               id="path10442"
               style="fill:#c1a15b" />
          </g>
        </g>
      </g>
    </g>
  </g>
</svg>
