<?xml version="1.0" encoding="UTF-8" standalone="no"?>
<svg
   xmlns:dc="http://purl.org/dc/elements/1.1/"
   xmlns:cc="http://creativecommons.org/ns#"
   xmlns:rdf="http://www.w3.org/1999/02/22-rdf-syntax-ns#"
   xmlns:svg="http://www.w3.org/2000/svg"
   xmlns="http://www.w3.org/2000/svg"
   xmlns:xlink="http://www.w3.org/1999/xlink"
   id="svg8"
   version="1.1"
   viewBox="0 0 55.456665 55.456665"
   height="55.456665mm"
   width="55.456665mm">
  <defs
     id="defs2">
    <clipPath
       id="clipPath2444"
       clipPathUnits="userSpaceOnUse">
      <path
         id="path2442"
         d="m 87.298,2047.988 c -12.367,0 -22.391,-10.024 -22.391,-22.389 v 0 -83.06 c 0,-12.367 10.024,-22.39 22.391,-22.39 v 0 h 83.058 c 12.367,0 22.391,10.023 22.391,22.39 v 0 83.06 c 0,12.365 -10.024,22.389 -22.391,22.389 v 0 z" />
    </clipPath>
    <clipPath
       id="SVGID_14_">
      <use
         xlink:href="#SVGID_13_"
         style="overflow:visible"
         id="use1204"
         x="0"
         y="0"
         width="100%"
         height="100%" />
    </clipPath>
    <path
       id="SVGID_13_"
       d="m 694.5,450.6 -28.3,-1.2 c -0.1,0.5 2.2,16.4 2.9,19.5 1.2,4.2 6.1,37.5 11.8,37.8 6.1,0.3 9.8,-33.2 10.9,-39.5 z" />
    <clipPath
       id="SVGID_8_">
      <use
         xlink:href="#SVGID_7_"
         style="overflow:visible"
         id="use1110"
         x="0"
         y="0"
         width="100%"
         height="100%" />
    </clipPath>
    <clipPath
       id="SVGID_10_">
      <use
         xlink:href="#SVGID_9_"
         style="overflow:visible"
         id="use1120"
         x="0"
         y="0"
         width="100%"
         height="100%" />
    </clipPath>
    <path
       id="SVGID_7_"
       d="m 537.3,480.6 c 0,19.8 -16.1,35.9 -35.9,35.9 H 368 c -19.9,0 -35.9,-16.1 -35.9,-35.9 V 347.3 c 0,-19.9 16.1,-35.9 35.9,-35.9 h 133.3 c 19.9,0 35.9,16.1 35.9,35.9 v 133.3 z" />
    <path
       id="SVGID_9_"
       d="M 448.4,448.5 429.6,447 c -0.1,0.6 1,32.1 1.4,35.9 1.6,10.6 15.8,13.4 17.2,-1.7 z" />
    <clipPath
       id="SVGID_22_">
      <use
         xlink:href="#SVGID_21_"
         style="overflow:visible"
         id="use1352"
         x="0"
         y="0"
         width="100%"
         height="100%" />
    </clipPath>
    <path
       id="SVGID_21_"
       d="m 1031.6,480.6 c 0,19.9 -16.1,35.9 -35.9,35.9 H 862.4 c -19.9,0 -35.9,-16.1 -35.9,-35.9 V 347.3 c 0,-19.9 16.1,-35.9 35.9,-35.9 h 133.3 c 19.9,0 35.9,16.1 35.9,35.9 z" />
    <clipPath
       id="SVGID_16_">
      <use
         height="100%"
         width="100%"
         y="0"
         x="0"
         id="use9459"
         style="overflow:visible"
         xlink:href="#SVGID_15_" />
    </clipPath>
    <path
       d="m 290.2,497 c 0,20.3 -16.4,36.7 -36.7,36.7 H 117.3 C 97,533.7 80.6,517.3 80.6,497 V 360.8 c 0,-20.3 16.4,-36.7 36.7,-36.7 h 136.2 c 20.3,0 36.7,16.4 36.7,36.7 z"
       id="SVGID_15_" />
    <clipPath
       id="SVGID_26_">
      <use
         xlink:href="#SVGID_25_"
         style="overflow:visible"
         id="use9668"
         x="0"
         y="0"
         width="100%"
         height="100%" />
    </clipPath>
    <path
       id="SVGID_25_"
       d="m 535,497 c 0,20.3 -16.4,36.7 -36.7,36.7 H 362.2 c -20.3,0 -36.7,-16.4 -36.7,-36.7 V 360.8 c 0,-20.3 16.4,-36.7 36.7,-36.7 h 136.2 c 20.3,0 36.7,16.4 36.7,36.7 V 497 Z" />
    <clipPath
       id="SVGID_2_">
      <use
         xlink:href="#SVGID_1_"
         style="overflow:visible"
         id="use9226"
         x="0"
         y="0"
         width="100%"
         height="100%" />
    </clipPath>
    <clipPath
       id="SVGID_4_">
      <use
         xlink:href="#SVGID_3_"
         style="overflow:visible"
         id="use9232"
         x="0"
         y="0"
         width="100%"
         height="100%" />
    </clipPath>
    <clipPath
       id="clipPath14027">
      <use
         xlink:href="#SVGID_3_"
         style="overflow:visible"
         id="use14025"
         x="0"
         y="0"
         width="100%"
         height="100%" />
    </clipPath>
    <clipPath
       id="clipPath14031">
      <use
         xlink:href="#SVGID_3_"
         style="overflow:visible"
         id="use14029"
         x="0"
         y="0"
         width="100%"
         height="100%" />
    </clipPath>
    <clipPath
       id="clipPath14035">
      <use
         xlink:href="#SVGID_3_"
         style="overflow:visible"
         id="use14033"
         x="0"
         y="0"
         width="100%"
         height="100%" />
    </clipPath>
    <clipPath
       id="clipPath14039">
      <use
         xlink:href="#SVGID_3_"
         style="overflow:visible"
         id="use14037"
         x="0"
         y="0"
         width="100%"
         height="100%" />
    </clipPath>
    <clipPath
       id="clipPath14043">
      <use
         xlink:href="#SVGID_3_"
         style="overflow:visible"
         id="use14041"
         x="0"
         y="0"
         width="100%"
         height="100%" />
    </clipPath>
    <clipPath
       id="clipPath14047">
      <use
         xlink:href="#SVGID_3_"
         style="overflow:visible"
         id="use14045"
         x="0"
         y="0"
         width="100%"
         height="100%" />
    </clipPath>
    <path
       id="SVGID_1_"
       d="m 784.9,497 c 0,20.3 -16.4,36.7 -36.7,36.7 H 612.1 c -20.3,0 -36.7,-16.4 -36.7,-36.7 V 360.8 c 0,-20.3 16.4,-36.7 36.7,-36.7 h 136.2 c 20.3,0 36.7,16.4 36.7,36.7 V 497 Z" />
    <path
       id="SVGID_3_"
       d="m 662.6,470.7 c 10.9,-1 23.8,-1.6 37.1,0.4 40.5,3.2 43.1,43.5 47.5,65.1 -45.4,0.3 -89,0.6 -131.1,0.9 0,-26.5 13.1,-63.4 46.5,-66.4 z" />
    <clipPath
       id="SVGID_36_">
      <use
         height="100%"
         width="100%"
         y="0"
         x="0"
         id="use9875"
         style="overflow:visible"
         xlink:href="#SVGID_35_" />
    </clipPath>
    <path
       d="m 1036.4,497 c 0,20.3 -16.4,36.7 -36.7,36.7 H 863.6 c -20.3,0 -36.7,-16.4 -36.7,-36.7 V 360.8 c 0,-20.3 16.4,-36.7 36.7,-36.7 h 136.2 c 20.3,0 36.7,16.4 36.7,36.7 V 497 Z"
       id="SVGID_35_" />
    <clipPath
       id="SVGID_56_">
      <use
         xlink:href="#SVGID_55_"
         style="overflow:visible"
         id="use10272"
         x="0"
         y="0"
         width="100%"
         height="100%" />
    </clipPath>
    <path
       id="SVGID_55_"
       d="m 1282.1,497 c 0,20.3 -16.4,36.7 -36.7,36.7 h -136.2 c -20.3,0 -36.7,-16.4 -36.7,-36.7 V 360.8 c 0,-20.3 16.4,-36.7 36.7,-36.7 h 136.2 c 20.3,0 36.7,16.4 36.7,36.7 z" />
    <clipPath
       id="SVGID_46_">
      <use
         xlink:href="#SVGID_45_"
         style="overflow:visible"
         id="use10074"
         x="0"
         y="0"
         width="100%"
         height="100%" />
    </clipPath>
    <clipPath
       id="SVGID_48_">
      <use
         xlink:href="#SVGID_47_"
         style="overflow:visible"
         id="use10084"
         x="0"
         y="0"
         width="100%"
         height="100%" />
    </clipPath>
    <clipPath
       id="clipPath14969">
      <use
         xlink:href="#SVGID_47_"
         style="overflow:visible"
         id="use14967"
         x="0"
         y="0"
         width="100%"
         height="100%" />
    </clipPath>
    <clipPath
       id="clipPath14973">
      <use
         xlink:href="#SVGID_47_"
         style="overflow:visible"
         id="use14971"
         x="0"
         y="0"
         width="100%"
         height="100%" />
    </clipPath>
    <clipPath
       id="clipPath14977">
      <use
         xlink:href="#SVGID_47_"
         style="overflow:visible"
         id="use14975"
         x="0"
         y="0"
         width="100%"
         height="100%" />
    </clipPath>
    <clipPath
       id="clipPath14981">
      <use
         xlink:href="#SVGID_47_"
         style="overflow:visible"
         id="use14979"
         x="0"
         y="0"
         width="100%"
         height="100%" />
    </clipPath>
    <clipPath
       id="clipPath14985">
      <use
         xlink:href="#SVGID_47_"
         style="overflow:visible"
         id="use14983"
         x="0"
         y="0"
         width="100%"
         height="100%" />
    </clipPath>
    <clipPath
       id="clipPath14989">
      <use
         xlink:href="#SVGID_47_"
         style="overflow:visible"
         id="use14987"
         x="0"
         y="0"
         width="100%"
         height="100%" />
    </clipPath>
    <clipPath
       id="clipPath14993">
      <use
         xlink:href="#SVGID_47_"
         style="overflow:visible"
         id="use14991"
         x="0"
         y="0"
         width="100%"
         height="100%" />
    </clipPath>
    <clipPath
       id="clipPath14997">
      <use
         xlink:href="#SVGID_47_"
         style="overflow:visible"
         id="use14995"
         x="0"
         y="0"
         width="100%"
         height="100%" />
    </clipPath>
    <clipPath
       id="clipPath15001">
      <use
         xlink:href="#SVGID_47_"
         style="overflow:visible"
         id="use14999"
         x="0"
         y="0"
         width="100%"
         height="100%" />
    </clipPath>
    <clipPath
       id="clipPath15005">
      <use
         xlink:href="#SVGID_47_"
         style="overflow:visible"
         id="use15003"
         x="0"
         y="0"
         width="100%"
         height="100%" />
    </clipPath>
    <clipPath
       id="clipPath15009">
      <use
         xlink:href="#SVGID_47_"
         style="overflow:visible"
         id="use15007"
         x="0"
         y="0"
         width="100%"
         height="100%" />
    </clipPath>
    <clipPath
       id="clipPath15013">
      <use
         xlink:href="#SVGID_47_"
         style="overflow:visible"
         id="use15011"
         x="0"
         y="0"
         width="100%"
         height="100%" />
    </clipPath>
    <clipPath
       id="clipPath15017">
      <use
         xlink:href="#SVGID_47_"
         style="overflow:visible"
         id="use15015"
         x="0"
         y="0"
         width="100%"
         height="100%" />
    </clipPath>
    <clipPath
       id="clipPath15021">
      <use
         xlink:href="#SVGID_47_"
         style="overflow:visible"
         id="use15019"
         x="0"
         y="0"
         width="100%"
         height="100%" />
    </clipPath>
    <clipPath
       id="clipPath15025">
      <use
         xlink:href="#SVGID_47_"
         style="overflow:visible"
         id="use15023"
         x="0"
         y="0"
         width="100%"
         height="100%" />
    </clipPath>
    <clipPath
       id="clipPath15029">
      <use
         xlink:href="#SVGID_47_"
         style="overflow:visible"
         id="use15027"
         x="0"
         y="0"
         width="100%"
         height="100%" />
    </clipPath>
    <clipPath
       id="clipPath15033">
      <use
         xlink:href="#SVGID_47_"
         style="overflow:visible"
         id="use15031"
         x="0"
         y="0"
         width="100%"
         height="100%" />
    </clipPath>
    <clipPath
       id="clipPath15037">
      <use
         xlink:href="#SVGID_47_"
         style="overflow:visible"
         id="use15035"
         x="0"
         y="0"
         width="100%"
         height="100%" />
    </clipPath>
    <clipPath
       id="clipPath15041">
      <use
         xlink:href="#SVGID_47_"
         style="overflow:visible"
         id="use15039"
         x="0"
         y="0"
         width="100%"
         height="100%" />
    </clipPath>
    <clipPath
       id="clipPath15045">
      <use
         xlink:href="#SVGID_47_"
         style="overflow:visible"
         id="use15043"
         x="0"
         y="0"
         width="100%"
         height="100%" />
    </clipPath>
    <clipPath
       id="clipPath15049">
      <use
         xlink:href="#SVGID_47_"
         style="overflow:visible"
         id="use15047"
         x="0"
         y="0"
         width="100%"
         height="100%" />
    </clipPath>
    <path
       id="SVGID_45_"
       d="m 1525.5,497 c 0,20.3 -16.4,36.7 -36.7,36.7 h -136.2 c -20.3,0 -36.7,-16.4 -36.7,-36.7 V 360.8 c 0,-20.3 16.4,-36.7 36.7,-36.7 h 136.2 c 20.3,0 36.7,16.4 36.7,36.7 z" />
    <path
       id="SVGID_47_"
       d="m 1409.8,478.1 c 9.8,-0.9 21.2,-1.4 33.1,0.4 36.2,2.8 38.5,37.8 42.5,56.5 -39.1,0.3 -78.1,0.5 -117.2,0.8 0,-23.1 11.7,-55.1 41.6,-57.7 z" />
    <clipPath
       id="SVGID_18_">
      <use
         xlink:href="#SVGID_17_"
         style="overflow:visible"
         id="use9486"
         x="0"
         y="0"
         width="100%"
         height="100%" />
    </clipPath>
    <path
       id="SVGID_17_"
       d="m 290.2,734.8 c 0,20.3 -16.4,36.7 -36.7,36.7 H 117.3 C 97,771.5 80.6,755.1 80.6,734.8 V 598.6 c 0,-20.3 16.4,-36.7 36.7,-36.7 h 136.2 c 20.3,0 36.7,16.4 36.7,36.7 z" />
    <clipPath
       id="SVGID_28_">
      <use
         xlink:href="#SVGID_27_"
         style="overflow:visible"
         id="use9716"
         x="0"
         y="0"
         width="100%"
         height="100%" />
    </clipPath>
    <path
       id="SVGID_27_"
       d="m 535,734.8 c 0,20.3 -16.4,36.7 -36.7,36.7 H 362.2 c -20.3,0 -36.7,-16.4 -36.7,-36.7 V 598.6 c 0,-20.3 16.4,-36.7 36.7,-36.7 h 136.2 c 20.3,0 36.7,16.4 36.7,36.7 v 136.2 z" />
    <clipPath
       id="SVGID_6_">
      <use
         xlink:href="#SVGID_5_"
         style="overflow:visible"
         id="use9271"
         x="0"
         y="0"
         width="100%"
         height="100%" />
    </clipPath>
    <path
       id="SVGID_5_"
       d="m 784.9,734.8 c 0,20.3 -16.4,36.7 -36.7,36.7 H 612.1 c -20.3,0 -36.7,-16.4 -36.7,-36.7 V 598.6 c 0,-20.3 16.4,-36.7 36.7,-36.7 h 136.2 c 20.3,0 36.7,16.4 36.7,36.7 v 136.2 z" />
    <clipPath
       id="SVGID_38_">
      <use
         height="100%"
         width="100%"
         y="0"
         x="0"
         id="use9903"
         style="overflow:visible"
         xlink:href="#SVGID_37_" />
    </clipPath>
    <path
       d="m 1036.4,734.8 c 0,20.3 -16.4,36.7 -36.7,36.7 H 863.6 c -20.3,0 -36.7,-16.4 -36.7,-36.7 V 598.6 c 0,-20.3 16.4,-36.7 36.7,-36.7 h 136.2 c 20.3,0 36.7,16.4 36.7,36.7 v 136.2 z"
       id="SVGID_37_" />
    <clipPath
       id="SVGID_58_">
      <use
         xlink:href="#SVGID_57_"
         style="overflow:visible"
         id="use10309"
         x="0"
         y="0"
         width="100%"
         height="100%" />
    </clipPath>
    <path
       id="SVGID_57_"
       d="m 1282.1,734.8 c 0,20.3 -16.4,36.7 -36.7,36.7 h -136.2 c -20.3,0 -36.7,-16.4 -36.7,-36.7 V 598.6 c 0,-20.3 16.4,-36.7 36.7,-36.7 h 136.2 c 20.3,0 36.7,16.4 36.7,36.7 z" />
    <clipPath
       id="SVGID_44_">
      <use
         xlink:href="#SVGID_43_"
         style="overflow:visible"
         id="use10042"
         x="0"
         y="0"
         width="100%"
         height="100%" />
    </clipPath>
    <path
       id="SVGID_43_"
       d="m 1525.5,734.8 c 0,20.3 -16.4,36.7 -36.7,36.7 h -136.2 c -20.3,0 -36.7,-16.4 -36.7,-36.7 V 598.6 c 0,-20.3 16.4,-36.7 36.7,-36.7 h 136.2 c 20.3,0 36.7,16.4 36.7,36.7 z" />
    <clipPath
       id="SVGID_20_">
      <use
         xlink:href="#SVGID_19_"
         style="overflow:visible"
         id="use9530"
         x="0"
         y="0"
         width="100%"
         height="100%" />
    </clipPath>
    <clipPath
       id="SVGID_22_-3">
      <use
         xlink:href="#SVGID_21_-6"
         style="overflow:visible"
         id="use9608"
         x="0"
         y="0"
         width="100%"
         height="100%" />
    </clipPath>
    <path
       id="SVGID_19_"
       d="m 290.2,979.7 c 0,20.3 -16.4,36.7 -36.7,36.7 H 117.3 C 97,1016.4 80.6,1000 80.6,979.7 V 843.5 c 0,-20.3 16.4,-36.7 36.7,-36.7 h 136.2 c 20.3,0 36.7,16.4 36.7,36.7 z" />
    <path
       id="SVGID_21_-6"
       d="m 194.4,1018.9 c -1.9,2 -63.5,1.8 -63.4,-0.2 0.8,-21.4 16.3,-47 29.7,-51.9 4.2,-1.6 9.8,-2.6 11.4,-2.5 3.3,0.2 5.4,0.5 6.8,0.6 3.6,0.5 -1.8,9.3 11.9,8.6 8.3,-0.4 4.5,-8.7 8.5,-9 7.5,-0.6 15.5,-0.5 23.5,5 -0.1,0 -9,28.5 -28.4,49.4 z" />
    <clipPath
       id="SVGID_30_">
      <use
         xlink:href="#SVGID_29_"
         style="overflow:visible"
         id="use9751"
         x="0"
         y="0"
         width="100%"
         height="100%" />
    </clipPath>
    <path
       id="SVGID_29_"
       d="m 535,979.7 c 0,20.3 -16.4,36.7 -36.7,36.7 H 362.2 c -20.3,0 -36.7,-16.4 -36.7,-36.7 V 843.5 c 0,-20.3 16.4,-36.7 36.7,-36.7 h 136.2 c 20.3,0 36.7,16.4 36.7,36.7 v 136.2 z" />
    <clipPath
       id="SVGID_8_-7">
      <use
         xlink:href="#SVGID_7_-3"
         style="overflow:visible"
         id="use9309"
         x="0"
         y="0"
         width="100%"
         height="100%" />
    </clipPath>
    <clipPath
       id="SVGID_10_-5">
      <use
         xlink:href="#SVGID_9_-5"
         style="overflow:visible"
         id="use9317"
         x="0"
         y="0"
         width="100%"
         height="100%" />
    </clipPath>
    <clipPath
       id="clipPath16428">
      <use
         xlink:href="#SVGID_9_-5"
         style="overflow:visible"
         id="use16426"
         x="0"
         y="0"
         width="100%"
         height="100%" />
    </clipPath>
    <clipPath
       id="clipPath16432">
      <use
         xlink:href="#SVGID_9_-5"
         style="overflow:visible"
         id="use16430"
         x="0"
         y="0"
         width="100%"
         height="100%" />
    </clipPath>
    <clipPath
       id="clipPath16436">
      <use
         xlink:href="#SVGID_9_-5"
         style="overflow:visible"
         id="use16434"
         x="0"
         y="0"
         width="100%"
         height="100%" />
    </clipPath>
    <clipPath
       id="SVGID_12_">
      <use
         xlink:href="#SVGID_11_"
         style="overflow:visible"
         id="use9335"
         x="0"
         y="0"
         width="100%"
         height="100%" />
    </clipPath>
    <path
       id="SVGID_7_-3"
       d="m 784.9,979.7 c 0,20.3 -16.4,36.7 -36.7,36.7 H 612.1 c -20.3,0 -36.7,-16.4 -36.7,-36.7 V 843.5 c 0,-20.3 16.4,-36.7 36.7,-36.7 h 136.2 c 20.3,0 36.7,16.4 36.7,36.7 v 136.2 z" />
    <path
       id="SVGID_9_-5"
       d="m 665.9,963.5 c 9.7,-0.9 21.1,-1.4 32.9,0.4 36,2.8 38.2,37.5 42.2,56.1 -38.8,0.3 -77.6,0.5 -116.4,0.8 0,-23 11.6,-54.7 41.3,-57.3 z" />
    <path
       id="SVGID_11_"
       d="m 696.5,953.1 -29.2,-0.8 c -0.1,0.4 1.5,17.2 2.2,19.3 1.2,2.8 6.4,22.8 12.4,22.9 6.2,0.1 13.3,-19.7 14.4,-23.8 z" />
    <clipPath
       id="SVGID_40_">
      <use
         height="100%"
         width="100%"
         y="0"
         x="0"
         id="use9938"
         style="overflow:visible"
         xlink:href="#SVGID_39_" />
    </clipPath>
    <path
       d="m 1036.4,979.7 c 0,20.3 -16.4,36.7 -36.7,36.7 H 863.6 c -20.3,0 -36.7,-16.4 -36.7,-36.7 V 843.5 c 0,-20.3 16.4,-36.7 36.7,-36.7 h 136.2 c 20.3,0 36.7,16.4 36.7,36.7 v 136.2 z"
       id="SVGID_39_" />
    <clipPath
       id="SVGID_60_">
      <use
         xlink:href="#SVGID_59_"
         style="overflow:visible"
         id="use10349"
         x="0"
         y="0"
         width="100%"
         height="100%" />
    </clipPath>
    <path
       id="SVGID_59_"
       d="m 1282.1,979.7 c 0,20.3 -16.4,36.7 -36.7,36.7 h -136.2 c -20.3,0 -36.7,-16.4 -36.7,-36.7 V 843.5 c 0,-20.3 16.4,-36.7 36.7,-36.7 h 136.2 c 20.3,0 36.7,16.4 36.7,36.7 z" />
    <clipPath
       id="SVGID_54_">
      <use
         xlink:href="#SVGID_53_"
         style="overflow:visible"
         id="use10240"
         x="0"
         y="0"
         width="100%"
         height="100%" />
    </clipPath>
    <path
       id="SVGID_53_"
       d="m 1525.5,979.7 c 0,20.3 -16.4,36.7 -36.7,36.7 h -136.2 c -20.3,0 -36.7,-16.4 -36.7,-36.7 V 843.5 c 0,-20.3 16.4,-36.7 36.7,-36.7 h 136.2 c 20.3,0 36.7,16.4 36.7,36.7 z" />
    <clipPath
       id="SVGID_24_">
      <use
         xlink:href="#SVGID_23_"
         style="overflow:visible"
         id="use9634"
         x="0"
         y="0"
         width="100%"
         height="100%" />
    </clipPath>
    <path
       id="SVGID_23_"
       d="m 290.2,1222.6 c 0,20.3 -16.4,36.7 -36.7,36.7 H 117.3 c -20.3,0 -36.7,-16.4 -36.7,-36.7 v -136.2 c 0,-20.3 16.4,-36.7 36.7,-36.7 h 136.2 c 20.3,0 36.7,16.4 36.7,36.7 z" />
    <clipPath
       id="SVGID_32_">
      <use
         xlink:href="#SVGID_31_"
         style="overflow:visible"
         id="use9795"
         x="0"
         y="0"
         width="100%"
         height="100%" />
    </clipPath>
    <clipPath
       id="SVGID_34_">
      <use
         xlink:href="#SVGID_33_"
         style="overflow:visible"
         id="use9823"
         x="0"
         y="0"
         width="100%"
         height="100%" />
    </clipPath>
    <clipPath
       id="clipPath17079">
      <use
         xlink:href="#SVGID_33_"
         style="overflow:visible"
         id="use17077"
         x="0"
         y="0"
         width="100%"
         height="100%" />
    </clipPath>
    <path
       id="SVGID_31_"
       d="m 535,1222.6 c 0,20.3 -16.4,36.7 -36.7,36.7 H 362.2 c -20.3,0 -36.7,-16.4 -36.7,-36.7 v -136.2 c 0,-20.3 16.4,-36.7 36.7,-36.7 h 136.2 c 20.3,0 36.7,16.4 36.7,36.7 v 136.2 z" />
    <path
       id="SVGID_33_"
       d="m 429.4,1171.2 c -1.2,-2.2 -29.1,-8.4 -34,15 -4.5,21 -15.7,19.1 -16.7,14.1 -0.7,-3.5 -0.7,-11.7 1.6,-16.8 -2.5,0 -20.8,-1.7 -21.2,1.2 -1.4,10.7 -0.4,21.5 9.6,28.4 12.5,8.6 31.2,-0.6 35.7,-16.3 5.3,-18.6 2.9,-25.6 21.8,-22.6 4.5,0.8 4.1,-1.5 3.2,-3 z" />
    <clipPath
       id="SVGID_14_-6">
      <use
         xlink:href="#SVGID_13_-2"
         style="overflow:visible"
         id="use9405"
         x="0"
         y="0"
         width="100%"
         height="100%" />
    </clipPath>
    <path
       id="SVGID_13_-2"
       d="m 784.9,1222.6 c 0,20.3 -16.4,36.7 -36.7,36.7 H 612.1 c -20.3,0 -36.7,-16.4 -36.7,-36.7 v -136.2 c 0,-20.3 16.4,-36.7 36.7,-36.7 h 136.2 c 20.3,0 36.7,16.4 36.7,36.7 v 136.2 z" />
    <clipPath
       id="SVGID_42_">
      <use
         height="100%"
         width="100%"
         y="0"
         x="0"
         id="use9976"
         style="overflow:visible"
         xlink:href="#SVGID_41_" />
    </clipPath>
    <path
       d="m 1036.4,1222.6 c 0,20.3 -16.4,36.7 -36.7,36.7 H 863.6 c -20.3,0 -36.7,-16.4 -36.7,-36.7 v -136.2 c 0,-20.3 16.4,-36.7 36.7,-36.7 h 136.2 c 20.3,0 36.7,16.4 36.7,36.7 v 136.2 z"
       id="SVGID_41_" />
    <clipPath
       id="SVGID_62_">
      <use
         xlink:href="#SVGID_61_"
         style="overflow:visible"
         id="use10407"
         x="0"
         y="0"
         width="100%"
         height="100%" />
    </clipPath>
    <path
       id="SVGID_61_"
       d="m 1282.1,1222.6 c 0,20.3 -16.4,36.7 -36.7,36.7 h -136.2 c -20.3,0 -36.7,-16.4 -36.7,-36.7 v -136.2 c 0,-20.3 16.4,-36.7 36.7,-36.7 h 136.2 c 20.3,0 36.7,16.4 36.7,36.7 z" />
    <clipPath
       id="SVGID_50_">
      <use
         xlink:href="#SVGID_49_"
         style="overflow:visible"
         id="use10178"
         x="0"
         y="0"
         width="100%"
         height="100%" />
    </clipPath>
    <clipPath
       id="SVGID_52_">
      <use
         xlink:href="#SVGID_51_"
         style="overflow:visible"
         id="use10214"
         x="0"
         y="0"
         width="100%"
         height="100%" />
    </clipPath>
    <clipPath
       id="clipPath17832">
      <use
         xlink:href="#SVGID_51_"
         style="overflow:visible"
         id="use17830"
         x="0"
         y="0"
         width="100%"
         height="100%" />
    </clipPath>
    <clipPath
       id="clipPath17836">
      <use
         xlink:href="#SVGID_51_"
         style="overflow:visible"
         id="use17834"
         x="0"
         y="0"
         width="100%"
         height="100%" />
    </clipPath>
    <path
       id="SVGID_49_"
       d="m 1525.5,1222.6 c 0,20.3 -16.4,36.7 -36.7,36.7 h -136.2 c -20.3,0 -36.7,-16.4 -36.7,-36.7 v -136.2 c 0,-20.3 16.4,-36.7 36.7,-36.7 h 136.2 c 20.3,0 36.7,16.4 36.7,36.7 z" />
    <path
       id="SVGID_51_"
       d="m 1422.7,1221 -3.6,1.3 c -0.3,0.5 -6.9,23 -6.2,24.8 0.9,2.5 7.9,9.3 8.7,9.3 1.7,0 10.4,-9.6 9.9,-10.7 z" />
  </defs>
  <metadata
     id="metadata5">
    <rdf:RDF>
      <cc:Work
         rdf:about="">
        <dc:format>image/svg+xml</dc:format>
        <dc:type
           rdf:resource="http://purl.org/dc/dcmitype/StillImage" />
        <dc:title></dc:title>
      </cc:Work>
    </rdf:RDF>
  </metadata>
  <g
     transform="translate(298.49674,115.37082)"
     id="layer1">
    <g
       id="g10233"
       transform="matrix(0.26458333,0,0,0.26458333,-646.66194,-393.10394)">
      <path
         class="st113"
         d="m 1525.5,1222.6 c 0,20.3 -16.4,36.7 -36.7,36.7 h -136.2 c -20.3,0 -36.7,-16.4 -36.7,-36.7 v -136.2 c 0,-20.3 16.4,-36.7 36.7,-36.7 h 136.2 c 20.3,0 36.7,16.4 36.7,36.7 z"
         id="path10173"
         style="fill:#d8d9db" />
      <g
         id="g10231">
        <defs
           id="defs10176">
          <path
             id="path17931"
             d="m 1525.5,1222.6 c 0,20.3 -16.4,36.7 -36.7,36.7 h -136.2 c -20.3,0 -36.7,-16.4 -36.7,-36.7 v -136.2 c 0,-20.3 16.4,-36.7 36.7,-36.7 h 136.2 c 20.3,0 36.7,16.4 36.7,36.7 z" />
        </defs>
        <clipPath
           id="clipPath17843">
          <use
             xlink:href="#SVGID_49_"
             style="overflow:visible"
             id="use17841"
             x="0"
             y="0"
             width="100%"
             height="100%" />
        </clipPath>
        <g
           class="st114"
           clip-path="url(#SVGID_50_)"
           id="g10229">
          <path
             class="st43"
             d="m 1405.2,1206.1 c 9.5,-0.9 20.7,-1.4 32.4,0.4 35.4,2.7 37.6,37 41.5,55.2 -38.2,0.2 -76.3,0.5 -114.5,0.7 -0.1,-22.5 11.4,-53.8 40.6,-56.3 z"
             id="path10181"
             style="clip-rule:evenodd;fill:#3d3c3a;fill-rule:evenodd" />
          <path
             class="st44"
             d="m 1421.7,1256 13.7,-50.2 c 1,3.3 15.8,11.1 13.7,13.6 -1.9,2.2 -4.8,4 -4.3,4.9 0.9,1.7 6.7,3.4 10,6.4 1.6,1.4 -19.8,26 -32.2,28.2 l -1.3,0.8 z"
             id="path10183"
             style="clip-rule:evenodd;fill:#191919;fill-rule:evenodd" />
          <path
             class="st44"
             d="m 1421,1256 -13.8,-50.2 c -1,3.3 -15.9,11.1 -13.8,13.6 2,2.2 4.9,4 4.3,4.9 -0.9,1.7 -6.7,3.4 -10.1,6.4 -1.6,1.4 19.9,26 32.4,28.2 l 1.3,0.8 z"
             id="path10185"
             style="clip-rule:evenodd;fill:#191919;fill-rule:evenodd" />
          <path
             class="st45"
             d="m 1426.9,1212.1 -21.7,-2.7 c 1.2,15.7 0.5,31 14.2,45.1 1.7,1.7 1.1,2.2 2.6,1.6 4.4,-2 6.8,-6.3 10,-10.7 1.2,-1.7 4.9,-16.5 6.2,-32.9 z"
             id="path10187"
             style="clip-rule:evenodd;fill:#c7b021;fill-rule:evenodd" />
          <path
             class="st115"
             d="m 1427.6,1211.1 -12.6,0.2 c 0.4,4.2 5.1,22.5 10.6,5.7 0.7,-1.7 2,-4 2,-5.9 z"
             id="path10189"
             style="clip-rule:evenodd;fill:#289556;fill-rule:evenodd" />
          <path
             class="st46"
             d="m 1434.3,1206 -11.8,6.1 c 1.6,2 11.1,11.3 11.1,11.3 1.8,-3.3 11,-18.1 0.7,-17.4 z"
             id="path10191"
             style="clip-rule:evenodd;fill:#f1d741;fill-rule:evenodd" />
          <path
             class="st46"
             d="m 1409.2,1204.9 11.8,6.1 c -1.6,2 -11.1,11.3 -11.1,11.3 -1.8,-3.3 -11,-18.1 -0.7,-17.4 z"
             id="path10193"
             style="clip-rule:evenodd;fill:#f1d741;fill-rule:evenodd" />
          <path
             class="st47"
             d="m 1436.1,1187.2 -28.7,-0.9 c -0.1,0.4 1.5,18.8 2.2,21 2.4,6.2 24.1,7.8 26.3,-1 z"
             id="path10195"
             style="clip-rule:evenodd;fill:#cca263;fill-rule:evenodd" />
          <path
             class="st36"
             d="m 1462.6,1175.6 c 0.5,-5.9 -0.5,-18.9 0,-24.8 2.2,-1.6 13,-3.2 15.8,4.2 3.5,10.2 -4.4,17.8 -7.3,20.1 -3.2,1.1 -7.3,0.9 -8.5,0.5 z"
             id="path10197"
             style="clip-rule:evenodd;fill:#f0d6ac;fill-rule:evenodd" />
          <path
             class="st36"
             d="m 1461,1098.4 c -10.4,-21.2 -78.2,-21.4 -88.6,4.6 -5.4,24.2 -5.9,50.4 0.7,69.4 6.2,14 18.5,21.8 29.7,27.4 9.2,4.6 23.2,6.2 33.2,1.2 15,-7.1 25.6,-21.2 28.5,-32.5 3.4,-24.1 5.4,-47.1 -3.5,-70.1 z"
             id="path10199"
             style="clip-rule:evenodd;fill:#f0d6ac;fill-rule:evenodd" />
          <path
             class="st36"
             d="m 1374.9,1176.5 c -0.5,-5.8 0.5,-18.7 0,-24.5 -2.2,-1.5 -13,-3.2 -15.8,4.1 -3.5,10.1 4.4,17.6 7.3,19.8 3.3,1.1 7.4,0.9 8.5,0.6 z"
             id="path10201"
             style="clip-rule:evenodd;fill:#f0d6ac;fill-rule:evenodd" />
          <path
             class="st116"
             d="m 1455.8,1091.6 c -0.2,10.6 -3.1,13.5 -35.6,12 -42.2,-2 -51.4,21.6 -51.5,21.4 -5.3,-25.4 -3.7,-54.9 46.3,-54.9 10.5,0 39.9,7.5 40.8,21.5 z"
             id="path10203"
             style="clip-rule:evenodd;fill:#835a20;fill-rule:evenodd" />
          <path
             class="st116"
             d="m 1453.5,1092.4 c 1.7,-1.2 33.7,1.8 33.7,26.8 0,15 -18.6,43.6 -27.3,54.2 -2.7,3.3 -3.2,1.1 -3.5,1.1 -2.2,-0.2 5,-12.5 7.8,-26.1 4.8,-23.8 1.9,-42.9 -9,-50.7 z"
             id="path10205"
             style="clip-rule:evenodd;fill:#835a20;fill-rule:evenodd" />
          <path
             class="st116"
             d="m 1368.8,1111.2 c -16.1,3.7 -11.3,29 -2.7,39.4 0.1,0.1 10.2,35.2 10.8,21.7 0.2,-4.6 -14.8,-32.5 -3.6,-54.2 z"
             id="path10207"
             style="clip-rule:evenodd;fill:#835a20;fill-rule:evenodd" />
          <path
             class="st115"
             d="m 1422.7,1221 -3.6,1.3 c -0.3,0.5 -6.9,23 -6.2,24.8 0.9,2.5 7.9,9.3 8.7,9.3 1.7,0 10.4,-9.6 9.9,-10.7 z"
             id="path10209"
             style="clip-rule:evenodd;fill:#289556;fill-rule:evenodd" />
          <g
             id="g10223">
            <defs
               id="defs10212">
              <path
                 id="path17951"
                 d="m 1422.7,1221 -3.6,1.3 c -0.3,0.5 -6.9,23 -6.2,24.8 0.9,2.5 7.9,9.3 8.7,9.3 1.7,0 10.4,-9.6 9.9,-10.7 z" />
            </defs>
            <clipPath
               id="clipPath17864">
              <use
                 xlink:href="#SVGID_51_"
                 style="overflow:visible"
                 id="use17862"
                 x="0"
                 y="0"
                 width="100%"
                 height="100%" />
            </clipPath>
            <path
               class="st117"
               d="m 1415.2,1231.2 0.3,-3.7 c 1.8,0.2 8.8,-0.6 11.7,-3.8 l 0.3,4 -0.1,0.8 c -4.1,2.7 -8.9,2.7 -12.2,2.7 z"
               clip-path="url(#SVGID_52_)"
               id="path10217"
               style="clip-rule:evenodd;fill:#d27e41;fill-rule:evenodd" />
            <path
               class="st117"
               d="m 1412.6,1241.5 0.5,-6.2 c 3,0.4 14.7,-0.9 19.6,-6.1 l 0.4,6.7 -0.2,1.3 c -6.8,4.5 -14.7,4.4 -20.3,4.3 z"
               clip-path="url(#SVGID_52_)"
               id="path10219"
               style="clip-rule:evenodd;fill:#d27e41;fill-rule:evenodd" />
            <path
               class="st117"
               d="m 1409.8,1251.6 1.7,-6.4 c 3.1,1 15.6,1.7 21.7,-2.9 l -0.8,7.1 -0.4,1.3 c -8.1,3.4 -16.4,2 -22.2,0.9 z"
               clip-path="url(#SVGID_52_)"
               id="path10221"
               style="clip-rule:evenodd;fill:#d27e41;fill-rule:evenodd" />
          </g>
          <path
             class="st118"
             d="m 1447.5,1246.5 c 1.3,-0.7 17.6,1.1 13.3,-3.2 -2,-1.9 -2.5,-9.1 -5.4,-2.9 -2.6,5.7 -2,-2.7 -7.5,5.8 -0.1,0.3 -0.1,0.2 -0.4,0.3 z"
             id="path10225"
             style="clip-rule:evenodd;fill:#d27e41;fill-rule:evenodd" />
          <path
             class="st44"
             d="m 1366.7,1169.1 c 5.5,-3.4 0.5,-6.2 -1.2,-5.9 -11.3,2.1 -0.5,15.9 3.6,15.2 3,-0.5 0.4,-3.6 -0.5,-5.6 -0.8,-2 -1.8,-3.8 -1.9,-3.7 z"
             id="path10227"
             style="clip-rule:evenodd;fill:#191919;fill-rule:evenodd" />
        </g>
      </g>
    </g>
  </g>
</svg>
