<?xml version="1.0" encoding="UTF-8" standalone="no"?>
<!-- Created with Inkscape (http://www.inkscape.org/) -->

<svg
   xmlns:dc="http://purl.org/dc/elements/1.1/"
   xmlns:cc="http://creativecommons.org/ns#"
   xmlns:rdf="http://www.w3.org/1999/02/22-rdf-syntax-ns#"
   xmlns:svg="http://www.w3.org/2000/svg"
   xmlns="http://www.w3.org/2000/svg"
   xmlns:xlink="http://www.w3.org/1999/xlink"
   xmlns:sodipodi="http://sodipodi.sourceforge.net/DTD/sodipodi-0.dtd"
   xmlns:inkscape="http://www.inkscape.org/namespaces/inkscape"
   width="54.266041mm"
   height="54.266041mm"
   viewBox="0 0 54.266041 54.266041"
   version="1.1"
   id="svg8"
   inkscape:version="0.92.5 (2060ec1f9f, 2020-04-08)"
   sodipodi:docname="a29.svg">
  <defs
     id="defs2">
    <clipPath
       clipPathUnits="userSpaceOnUse"
       id="clipPath2444">
      <path
         d="m 87.298,2047.988 c -12.367,0 -22.391,-10.024 -22.391,-22.389 v 0 -83.06 c 0,-12.367 10.024,-22.39 22.391,-22.39 v 0 h 83.058 c 12.367,0 22.391,10.023 22.391,22.39 v 0 83.06 c 0,12.365 -10.024,22.389 -22.391,22.389 v 0 z"
         id="path2442"
         inkscape:connector-curvature="0" />
    </clipPath>
    <clipPath
       id="SVGID_14_">
      <use
         height="100%"
         width="100%"
         y="0"
         x="0"
         id="use1204"
         style="overflow:visible"
         xlink:href="#SVGID_13_" />
    </clipPath>
    <path
       inkscape:connector-curvature="0"
       d="m 694.5,450.6 -28.3,-1.2 c -0.1,0.5 2.2,16.4 2.9,19.5 1.2,4.2 6.1,37.5 11.8,37.8 6.1,0.3 9.8,-33.2 10.9,-39.5 z"
       id="SVGID_13_" />
    <clipPath
       id="SVGID_8_">
      <use
         height="100%"
         width="100%"
         y="0"
         x="0"
         id="use1110"
         style="overflow:visible"
         xlink:href="#SVGID_7_" />
    </clipPath>
    <clipPath
       id="SVGID_10_">
      <use
         height="100%"
         width="100%"
         y="0"
         x="0"
         id="use1120"
         style="overflow:visible"
         xlink:href="#SVGID_9_" />
    </clipPath>
    <path
       inkscape:connector-curvature="0"
       d="m 537.3,480.6 c 0,19.8 -16.1,35.9 -35.9,35.9 H 368 c -19.9,0 -35.9,-16.1 -35.9,-35.9 V 347.3 c 0,-19.9 16.1,-35.9 35.9,-35.9 h 133.3 c 19.9,0 35.9,16.1 35.9,35.9 v 133.3 z"
       id="SVGID_7_" />
    <path
       inkscape:connector-curvature="0"
       d="M 448.4,448.5 429.6,447 c -0.1,0.6 1,32.1 1.4,35.9 1.6,10.6 15.8,13.4 17.2,-1.7 z"
       id="SVGID_9_" />
    <clipPath
       id="SVGID_22_">
      <use
         height="100%"
         width="100%"
         y="0"
         x="0"
         id="use1352"
         style="overflow:visible"
         xlink:href="#SVGID_21_" />
    </clipPath>
    <path
       inkscape:connector-curvature="0"
       d="m 1031.6,480.6 c 0,19.9 -16.1,35.9 -35.9,35.9 H 862.4 c -19.9,0 -35.9,-16.1 -35.9,-35.9 V 347.3 c 0,-19.9 16.1,-35.9 35.9,-35.9 h 133.3 c 19.9,0 35.9,16.1 35.9,35.9 z"
       id="SVGID_21_" />
    <clipPath
       id="SVGID_16_">
      <use
         xlink:href="#SVGID_15_"
         style="overflow:visible"
         id="use9459"
         x="0"
         y="0"
         width="100%"
         height="100%" />
    </clipPath>
    <path
       id="SVGID_15_"
       d="m 290.2,497 c 0,20.3 -16.4,36.7 -36.7,36.7 H 117.3 C 97,533.7 80.6,517.3 80.6,497 V 360.8 c 0,-20.3 16.4,-36.7 36.7,-36.7 h 136.2 c 20.3,0 36.7,16.4 36.7,36.7 z"
       inkscape:connector-curvature="0" />
    <clipPath
       id="SVGID_26_">
      <use
         height="100%"
         width="100%"
         y="0"
         x="0"
         id="use9668"
         style="overflow:visible"
         xlink:href="#SVGID_25_" />
    </clipPath>
    <path
       inkscape:connector-curvature="0"
       d="m 535,497 c 0,20.3 -16.4,36.7 -36.7,36.7 H 362.2 c -20.3,0 -36.7,-16.4 -36.7,-36.7 V 360.8 c 0,-20.3 16.4,-36.7 36.7,-36.7 h 136.2 c 20.3,0 36.7,16.4 36.7,36.7 V 497 Z"
       id="SVGID_25_" />
    <clipPath
       id="SVGID_2_">
      <use
         height="100%"
         width="100%"
         y="0"
         x="0"
         id="use9226"
         style="overflow:visible"
         xlink:href="#SVGID_1_" />
    </clipPath>
    <clipPath
       id="SVGID_4_">
      <use
         height="100%"
         width="100%"
         y="0"
         x="0"
         id="use9232"
         style="overflow:visible"
         xlink:href="#SVGID_3_" />
    </clipPath>
    <clipPath
       id="clipPath14027">
      <use
         height="100%"
         width="100%"
         y="0"
         x="0"
         id="use14025"
         style="overflow:visible"
         xlink:href="#SVGID_3_" />
    </clipPath>
    <clipPath
       id="clipPath14031">
      <use
         height="100%"
         width="100%"
         y="0"
         x="0"
         id="use14029"
         style="overflow:visible"
         xlink:href="#SVGID_3_" />
    </clipPath>
    <clipPath
       id="clipPath14035">
      <use
         height="100%"
         width="100%"
         y="0"
         x="0"
         id="use14033"
         style="overflow:visible"
         xlink:href="#SVGID_3_" />
    </clipPath>
    <clipPath
       id="clipPath14039">
      <use
         height="100%"
         width="100%"
         y="0"
         x="0"
         id="use14037"
         style="overflow:visible"
         xlink:href="#SVGID_3_" />
    </clipPath>
    <clipPath
       id="clipPath14043">
      <use
         height="100%"
         width="100%"
         y="0"
         x="0"
         id="use14041"
         style="overflow:visible"
         xlink:href="#SVGID_3_" />
    </clipPath>
    <clipPath
       id="clipPath14047">
      <use
         height="100%"
         width="100%"
         y="0"
         x="0"
         id="use14045"
         style="overflow:visible"
         xlink:href="#SVGID_3_" />
    </clipPath>
    <path
       inkscape:connector-curvature="0"
       d="m 784.9,497 c 0,20.3 -16.4,36.7 -36.7,36.7 H 612.1 c -20.3,0 -36.7,-16.4 -36.7,-36.7 V 360.8 c 0,-20.3 16.4,-36.7 36.7,-36.7 h 136.2 c 20.3,0 36.7,16.4 36.7,36.7 V 497 Z"
       id="SVGID_1_" />
    <path
       inkscape:connector-curvature="0"
       d="m 662.6,470.7 c 10.9,-1 23.8,-1.6 37.1,0.4 40.5,3.2 43.1,43.5 47.5,65.1 -45.4,0.3 -89,0.6 -131.1,0.9 0,-26.5 13.1,-63.4 46.5,-66.4 z"
       id="SVGID_3_" />
    <clipPath
       id="SVGID_36_">
      <use
         xlink:href="#SVGID_35_"
         style="overflow:visible"
         id="use9875"
         x="0"
         y="0"
         width="100%"
         height="100%" />
    </clipPath>
    <path
       id="SVGID_35_"
       d="m 1036.4,497 c 0,20.3 -16.4,36.7 -36.7,36.7 H 863.6 c -20.3,0 -36.7,-16.4 -36.7,-36.7 V 360.8 c 0,-20.3 16.4,-36.7 36.7,-36.7 h 136.2 c 20.3,0 36.7,16.4 36.7,36.7 V 497 Z"
       inkscape:connector-curvature="0" />
    <clipPath
       id="SVGID_56_">
      <use
         height="100%"
         width="100%"
         y="0"
         x="0"
         id="use10272"
         style="overflow:visible"
         xlink:href="#SVGID_55_" />
    </clipPath>
    <path
       inkscape:connector-curvature="0"
       d="m 1282.1,497 c 0,20.3 -16.4,36.7 -36.7,36.7 h -136.2 c -20.3,0 -36.7,-16.4 -36.7,-36.7 V 360.8 c 0,-20.3 16.4,-36.7 36.7,-36.7 h 136.2 c 20.3,0 36.7,16.4 36.7,36.7 z"
       id="SVGID_55_" />
    <clipPath
       id="SVGID_46_">
      <use
         height="100%"
         width="100%"
         y="0"
         x="0"
         id="use10074"
         style="overflow:visible"
         xlink:href="#SVGID_45_" />
    </clipPath>
    <clipPath
       id="SVGID_48_">
      <use
         height="100%"
         width="100%"
         y="0"
         x="0"
         id="use10084"
         style="overflow:visible"
         xlink:href="#SVGID_47_" />
    </clipPath>
    <clipPath
       id="clipPath14969">
      <use
         height="100%"
         width="100%"
         y="0"
         x="0"
         id="use14967"
         style="overflow:visible"
         xlink:href="#SVGID_47_" />
    </clipPath>
    <clipPath
       id="clipPath14973">
      <use
         height="100%"
         width="100%"
         y="0"
         x="0"
         id="use14971"
         style="overflow:visible"
         xlink:href="#SVGID_47_" />
    </clipPath>
    <clipPath
       id="clipPath14977">
      <use
         height="100%"
         width="100%"
         y="0"
         x="0"
         id="use14975"
         style="overflow:visible"
         xlink:href="#SVGID_47_" />
    </clipPath>
    <clipPath
       id="clipPath14981">
      <use
         height="100%"
         width="100%"
         y="0"
         x="0"
         id="use14979"
         style="overflow:visible"
         xlink:href="#SVGID_47_" />
    </clipPath>
    <clipPath
       id="clipPath14985">
      <use
         height="100%"
         width="100%"
         y="0"
         x="0"
         id="use14983"
         style="overflow:visible"
         xlink:href="#SVGID_47_" />
    </clipPath>
    <clipPath
       id="clipPath14989">
      <use
         height="100%"
         width="100%"
         y="0"
         x="0"
         id="use14987"
         style="overflow:visible"
         xlink:href="#SVGID_47_" />
    </clipPath>
    <clipPath
       id="clipPath14993">
      <use
         height="100%"
         width="100%"
         y="0"
         x="0"
         id="use14991"
         style="overflow:visible"
         xlink:href="#SVGID_47_" />
    </clipPath>
    <clipPath
       id="clipPath14997">
      <use
         height="100%"
         width="100%"
         y="0"
         x="0"
         id="use14995"
         style="overflow:visible"
         xlink:href="#SVGID_47_" />
    </clipPath>
    <clipPath
       id="clipPath15001">
      <use
         height="100%"
         width="100%"
         y="0"
         x="0"
         id="use14999"
         style="overflow:visible"
         xlink:href="#SVGID_47_" />
    </clipPath>
    <clipPath
       id="clipPath15005">
      <use
         height="100%"
         width="100%"
         y="0"
         x="0"
         id="use15003"
         style="overflow:visible"
         xlink:href="#SVGID_47_" />
    </clipPath>
    <clipPath
       id="clipPath15009">
      <use
         height="100%"
         width="100%"
         y="0"
         x="0"
         id="use15007"
         style="overflow:visible"
         xlink:href="#SVGID_47_" />
    </clipPath>
    <clipPath
       id="clipPath15013">
      <use
         height="100%"
         width="100%"
         y="0"
         x="0"
         id="use15011"
         style="overflow:visible"
         xlink:href="#SVGID_47_" />
    </clipPath>
    <clipPath
       id="clipPath15017">
      <use
         height="100%"
         width="100%"
         y="0"
         x="0"
         id="use15015"
         style="overflow:visible"
         xlink:href="#SVGID_47_" />
    </clipPath>
    <clipPath
       id="clipPath15021">
      <use
         height="100%"
         width="100%"
         y="0"
         x="0"
         id="use15019"
         style="overflow:visible"
         xlink:href="#SVGID_47_" />
    </clipPath>
    <clipPath
       id="clipPath15025">
      <use
         height="100%"
         width="100%"
         y="0"
         x="0"
         id="use15023"
         style="overflow:visible"
         xlink:href="#SVGID_47_" />
    </clipPath>
    <clipPath
       id="clipPath15029">
      <use
         height="100%"
         width="100%"
         y="0"
         x="0"
         id="use15027"
         style="overflow:visible"
         xlink:href="#SVGID_47_" />
    </clipPath>
    <clipPath
       id="clipPath15033">
      <use
         height="100%"
         width="100%"
         y="0"
         x="0"
         id="use15031"
         style="overflow:visible"
         xlink:href="#SVGID_47_" />
    </clipPath>
    <clipPath
       id="clipPath15037">
      <use
         height="100%"
         width="100%"
         y="0"
         x="0"
         id="use15035"
         style="overflow:visible"
         xlink:href="#SVGID_47_" />
    </clipPath>
    <clipPath
       id="clipPath15041">
      <use
         height="100%"
         width="100%"
         y="0"
         x="0"
         id="use15039"
         style="overflow:visible"
         xlink:href="#SVGID_47_" />
    </clipPath>
    <clipPath
       id="clipPath15045">
      <use
         height="100%"
         width="100%"
         y="0"
         x="0"
         id="use15043"
         style="overflow:visible"
         xlink:href="#SVGID_47_" />
    </clipPath>
    <clipPath
       id="clipPath15049">
      <use
         height="100%"
         width="100%"
         y="0"
         x="0"
         id="use15047"
         style="overflow:visible"
         xlink:href="#SVGID_47_" />
    </clipPath>
    <path
       inkscape:connector-curvature="0"
       d="m 1525.5,497 c 0,20.3 -16.4,36.7 -36.7,36.7 h -136.2 c -20.3,0 -36.7,-16.4 -36.7,-36.7 V 360.8 c 0,-20.3 16.4,-36.7 36.7,-36.7 h 136.2 c 20.3,0 36.7,16.4 36.7,36.7 z"
       id="SVGID_45_" />
    <path
       inkscape:connector-curvature="0"
       d="m 1409.8,478.1 c 9.8,-0.9 21.2,-1.4 33.1,0.4 36.2,2.8 38.5,37.8 42.5,56.5 -39.1,0.3 -78.1,0.5 -117.2,0.8 0,-23.1 11.7,-55.1 41.6,-57.7 z"
       id="SVGID_47_" />
    <clipPath
       id="SVGID_18_">
      <use
         height="100%"
         width="100%"
         y="0"
         x="0"
         id="use9486"
         style="overflow:visible"
         xlink:href="#SVGID_17_" />
    </clipPath>
    <path
       inkscape:connector-curvature="0"
       d="m 290.2,734.8 c 0,20.3 -16.4,36.7 -36.7,36.7 H 117.3 C 97,771.5 80.6,755.1 80.6,734.8 V 598.6 c 0,-20.3 16.4,-36.7 36.7,-36.7 h 136.2 c 20.3,0 36.7,16.4 36.7,36.7 z"
       id="SVGID_17_" />
    <clipPath
       id="SVGID_28_">
      <use
         height="100%"
         width="100%"
         y="0"
         x="0"
         id="use9716"
         style="overflow:visible"
         xlink:href="#SVGID_27_" />
    </clipPath>
    <path
       inkscape:connector-curvature="0"
       d="m 535,734.8 c 0,20.3 -16.4,36.7 -36.7,36.7 H 362.2 c -20.3,0 -36.7,-16.4 -36.7,-36.7 V 598.6 c 0,-20.3 16.4,-36.7 36.7,-36.7 h 136.2 c 20.3,0 36.7,16.4 36.7,36.7 v 136.2 z"
       id="SVGID_27_" />
    <clipPath
       id="SVGID_6_">
      <use
         height="100%"
         width="100%"
         y="0"
         x="0"
         id="use9271"
         style="overflow:visible"
         xlink:href="#SVGID_5_" />
    </clipPath>
    <path
       inkscape:connector-curvature="0"
       d="m 784.9,734.8 c 0,20.3 -16.4,36.7 -36.7,36.7 H 612.1 c -20.3,0 -36.7,-16.4 -36.7,-36.7 V 598.6 c 0,-20.3 16.4,-36.7 36.7,-36.7 h 136.2 c 20.3,0 36.7,16.4 36.7,36.7 v 136.2 z"
       id="SVGID_5_" />
    <clipPath
       id="SVGID_38_">
      <use
         xlink:href="#SVGID_37_"
         style="overflow:visible"
         id="use9903"
         x="0"
         y="0"
         width="100%"
         height="100%" />
    </clipPath>
    <path
       id="SVGID_37_"
       d="m 1036.4,734.8 c 0,20.3 -16.4,36.7 -36.7,36.7 H 863.6 c -20.3,0 -36.7,-16.4 -36.7,-36.7 V 598.6 c 0,-20.3 16.4,-36.7 36.7,-36.7 h 136.2 c 20.3,0 36.7,16.4 36.7,36.7 v 136.2 z"
       inkscape:connector-curvature="0" />
    <clipPath
       id="SVGID_58_">
      <use
         height="100%"
         width="100%"
         y="0"
         x="0"
         id="use10309"
         style="overflow:visible"
         xlink:href="#SVGID_57_" />
    </clipPath>
    <path
       inkscape:connector-curvature="0"
       d="m 1282.1,734.8 c 0,20.3 -16.4,36.7 -36.7,36.7 h -136.2 c -20.3,0 -36.7,-16.4 -36.7,-36.7 V 598.6 c 0,-20.3 16.4,-36.7 36.7,-36.7 h 136.2 c 20.3,0 36.7,16.4 36.7,36.7 z"
       id="SVGID_57_" />
    <clipPath
       id="SVGID_44_">
      <use
         height="100%"
         width="100%"
         y="0"
         x="0"
         id="use10042"
         style="overflow:visible"
         xlink:href="#SVGID_43_" />
    </clipPath>
    <path
       inkscape:connector-curvature="0"
       d="m 1525.5,734.8 c 0,20.3 -16.4,36.7 -36.7,36.7 h -136.2 c -20.3,0 -36.7,-16.4 -36.7,-36.7 V 598.6 c 0,-20.3 16.4,-36.7 36.7,-36.7 h 136.2 c 20.3,0 36.7,16.4 36.7,36.7 z"
       id="SVGID_43_" />
    <clipPath
       id="SVGID_20_">
      <use
         height="100%"
         width="100%"
         y="0"
         x="0"
         id="use9530"
         style="overflow:visible"
         xlink:href="#SVGID_19_" />
    </clipPath>
    <clipPath
       id="SVGID_22_-3">
      <use
         height="100%"
         width="100%"
         y="0"
         x="0"
         id="use9608"
         style="overflow:visible"
         xlink:href="#SVGID_21_-6" />
    </clipPath>
    <path
       inkscape:connector-curvature="0"
       d="m 290.2,979.7 c 0,20.3 -16.4,36.7 -36.7,36.7 H 117.3 C 97,1016.4 80.6,1000 80.6,979.7 V 843.5 c 0,-20.3 16.4,-36.7 36.7,-36.7 h 136.2 c 20.3,0 36.7,16.4 36.7,36.7 z"
       id="SVGID_19_" />
    <path
       inkscape:connector-curvature="0"
       d="m 194.4,1018.9 c -1.9,2 -63.5,1.8 -63.4,-0.2 0.8,-21.4 16.3,-47 29.7,-51.9 4.2,-1.6 9.8,-2.6 11.4,-2.5 3.3,0.2 5.4,0.5 6.8,0.6 3.6,0.5 -1.8,9.3 11.9,8.6 8.3,-0.4 4.5,-8.7 8.5,-9 7.5,-0.6 15.5,-0.5 23.5,5 -0.1,0 -9,28.5 -28.4,49.4 z"
       id="SVGID_21_-6" />
    <clipPath
       id="SVGID_30_">
      <use
         height="100%"
         width="100%"
         y="0"
         x="0"
         id="use9751"
         style="overflow:visible"
         xlink:href="#SVGID_29_" />
    </clipPath>
    <path
       inkscape:connector-curvature="0"
       d="m 535,979.7 c 0,20.3 -16.4,36.7 -36.7,36.7 H 362.2 c -20.3,0 -36.7,-16.4 -36.7,-36.7 V 843.5 c 0,-20.3 16.4,-36.7 36.7,-36.7 h 136.2 c 20.3,0 36.7,16.4 36.7,36.7 v 136.2 z"
       id="SVGID_29_" />
    <clipPath
       id="SVGID_8_-7">
      <use
         height="100%"
         width="100%"
         y="0"
         x="0"
         id="use9309"
         style="overflow:visible"
         xlink:href="#SVGID_7_-3" />
    </clipPath>
    <clipPath
       id="SVGID_10_-5">
      <use
         height="100%"
         width="100%"
         y="0"
         x="0"
         id="use9317"
         style="overflow:visible"
         xlink:href="#SVGID_9_-5" />
    </clipPath>
    <clipPath
       id="clipPath16428">
      <use
         height="100%"
         width="100%"
         y="0"
         x="0"
         id="use16426"
         style="overflow:visible"
         xlink:href="#SVGID_9_-5" />
    </clipPath>
    <clipPath
       id="clipPath16432">
      <use
         height="100%"
         width="100%"
         y="0"
         x="0"
         id="use16430"
         style="overflow:visible"
         xlink:href="#SVGID_9_-5" />
    </clipPath>
    <clipPath
       id="clipPath16436">
      <use
         height="100%"
         width="100%"
         y="0"
         x="0"
         id="use16434"
         style="overflow:visible"
         xlink:href="#SVGID_9_-5" />
    </clipPath>
    <clipPath
       id="SVGID_12_">
      <use
         height="100%"
         width="100%"
         y="0"
         x="0"
         id="use9335"
         style="overflow:visible"
         xlink:href="#SVGID_11_" />
    </clipPath>
    <path
       inkscape:connector-curvature="0"
       d="m 784.9,979.7 c 0,20.3 -16.4,36.7 -36.7,36.7 H 612.1 c -20.3,0 -36.7,-16.4 -36.7,-36.7 V 843.5 c 0,-20.3 16.4,-36.7 36.7,-36.7 h 136.2 c 20.3,0 36.7,16.4 36.7,36.7 v 136.2 z"
       id="SVGID_7_-3" />
    <path
       inkscape:connector-curvature="0"
       d="m 665.9,963.5 c 9.7,-0.9 21.1,-1.4 32.9,0.4 36,2.8 38.2,37.5 42.2,56.1 -38.8,0.3 -77.6,0.5 -116.4,0.8 0,-23 11.6,-54.7 41.3,-57.3 z"
       id="SVGID_9_-5" />
    <path
       inkscape:connector-curvature="0"
       d="m 696.5,953.1 -29.2,-0.8 c -0.1,0.4 1.5,17.2 2.2,19.3 1.2,2.8 6.4,22.8 12.4,22.9 6.2,0.1 13.3,-19.7 14.4,-23.8 z"
       id="SVGID_11_" />
    <clipPath
       id="SVGID_40_">
      <use
         xlink:href="#SVGID_39_"
         style="overflow:visible"
         id="use9938"
         x="0"
         y="0"
         width="100%"
         height="100%" />
    </clipPath>
    <path
       id="SVGID_39_"
       d="m 1036.4,979.7 c 0,20.3 -16.4,36.7 -36.7,36.7 H 863.6 c -20.3,0 -36.7,-16.4 -36.7,-36.7 V 843.5 c 0,-20.3 16.4,-36.7 36.7,-36.7 h 136.2 c 20.3,0 36.7,16.4 36.7,36.7 v 136.2 z"
       inkscape:connector-curvature="0" />
    <clipPath
       id="SVGID_60_">
      <use
         height="100%"
         width="100%"
         y="0"
         x="0"
         id="use10349"
         style="overflow:visible"
         xlink:href="#SVGID_59_" />
    </clipPath>
    <path
       inkscape:connector-curvature="0"
       d="m 1282.1,979.7 c 0,20.3 -16.4,36.7 -36.7,36.7 h -136.2 c -20.3,0 -36.7,-16.4 -36.7,-36.7 V 843.5 c 0,-20.3 16.4,-36.7 36.7,-36.7 h 136.2 c 20.3,0 36.7,16.4 36.7,36.7 z"
       id="SVGID_59_" />
    <clipPath
       id="SVGID_54_">
      <use
         height="100%"
         width="100%"
         y="0"
         x="0"
         id="use10240"
         style="overflow:visible"
         xlink:href="#SVGID_53_" />
    </clipPath>
    <path
       inkscape:connector-curvature="0"
       d="m 1525.5,979.7 c 0,20.3 -16.4,36.7 -36.7,36.7 h -136.2 c -20.3,0 -36.7,-16.4 -36.7,-36.7 V 843.5 c 0,-20.3 16.4,-36.7 36.7,-36.7 h 136.2 c 20.3,0 36.7,16.4 36.7,36.7 z"
       id="SVGID_53_" />
    <clipPath
       id="SVGID_24_">
      <use
         height="100%"
         width="100%"
         y="0"
         x="0"
         id="use9634"
         style="overflow:visible"
         xlink:href="#SVGID_23_" />
    </clipPath>
    <path
       inkscape:connector-curvature="0"
       d="m 290.2,1222.6 c 0,20.3 -16.4,36.7 -36.7,36.7 H 117.3 c -20.3,0 -36.7,-16.4 -36.7,-36.7 v -136.2 c 0,-20.3 16.4,-36.7 36.7,-36.7 h 136.2 c 20.3,0 36.7,16.4 36.7,36.7 z"
       id="SVGID_23_" />
    <clipPath
       id="SVGID_32_">
      <use
         height="100%"
         width="100%"
         y="0"
         x="0"
         id="use9795"
         style="overflow:visible"
         xlink:href="#SVGID_31_" />
    </clipPath>
    <clipPath
       id="SVGID_34_">
      <use
         height="100%"
         width="100%"
         y="0"
         x="0"
         id="use9823"
         style="overflow:visible"
         xlink:href="#SVGID_33_" />
    </clipPath>
    <clipPath
       id="clipPath17079">
      <use
         height="100%"
         width="100%"
         y="0"
         x="0"
         id="use17077"
         style="overflow:visible"
         xlink:href="#SVGID_33_" />
    </clipPath>
    <path
       inkscape:connector-curvature="0"
       d="m 535,1222.6 c 0,20.3 -16.4,36.7 -36.7,36.7 H 362.2 c -20.3,0 -36.7,-16.4 -36.7,-36.7 v -136.2 c 0,-20.3 16.4,-36.7 36.7,-36.7 h 136.2 c 20.3,0 36.7,16.4 36.7,36.7 v 136.2 z"
       id="SVGID_31_" />
    <path
       inkscape:connector-curvature="0"
       d="m 429.4,1171.2 c -1.2,-2.2 -29.1,-8.4 -34,15 -4.5,21 -15.7,19.1 -16.7,14.1 -0.7,-3.5 -0.7,-11.7 1.6,-16.8 -2.5,0 -20.8,-1.7 -21.2,1.2 -1.4,10.7 -0.4,21.5 9.6,28.4 12.5,8.6 31.2,-0.6 35.7,-16.3 5.3,-18.6 2.9,-25.6 21.8,-22.6 4.5,0.8 4.1,-1.5 3.2,-3 z"
       id="SVGID_33_" />
    <clipPath
       id="SVGID_14_-6">
      <use
         height="100%"
         width="100%"
         y="0"
         x="0"
         id="use9405"
         style="overflow:visible"
         xlink:href="#SVGID_13_-2" />
    </clipPath>
    <path
       inkscape:connector-curvature="0"
       d="m 784.9,1222.6 c 0,20.3 -16.4,36.7 -36.7,36.7 H 612.1 c -20.3,0 -36.7,-16.4 -36.7,-36.7 v -136.2 c 0,-20.3 16.4,-36.7 36.7,-36.7 h 136.2 c 20.3,0 36.7,16.4 36.7,36.7 v 136.2 z"
       id="SVGID_13_-2" />
    <clipPath
       id="SVGID_42_">
      <use
         xlink:href="#SVGID_41_"
         style="overflow:visible"
         id="use9976"
         x="0"
         y="0"
         width="100%"
         height="100%" />
    </clipPath>
    <path
       id="SVGID_41_"
       d="m 1036.4,1222.6 c 0,20.3 -16.4,36.7 -36.7,36.7 H 863.6 c -20.3,0 -36.7,-16.4 -36.7,-36.7 v -136.2 c 0,-20.3 16.4,-36.7 36.7,-36.7 h 136.2 c 20.3,0 36.7,16.4 36.7,36.7 v 136.2 z"
       inkscape:connector-curvature="0" />
    <clipPath
       id="SVGID_62_">
      <use
         height="100%"
         width="100%"
         y="0"
         x="0"
         id="use10407"
         style="overflow:visible"
         xlink:href="#SVGID_61_" />
    </clipPath>
    <path
       inkscape:connector-curvature="0"
       d="m 1282.1,1222.6 c 0,20.3 -16.4,36.7 -36.7,36.7 h -136.2 c -20.3,0 -36.7,-16.4 -36.7,-36.7 v -136.2 c 0,-20.3 16.4,-36.7 36.7,-36.7 h 136.2 c 20.3,0 36.7,16.4 36.7,36.7 z"
       id="SVGID_61_" />
    <clipPath
       id="SVGID_50_">
      <use
         height="100%"
         width="100%"
         y="0"
         x="0"
         id="use10178"
         style="overflow:visible"
         xlink:href="#SVGID_49_" />
    </clipPath>
    <clipPath
       id="SVGID_52_">
      <use
         height="100%"
         width="100%"
         y="0"
         x="0"
         id="use10214"
         style="overflow:visible"
         xlink:href="#SVGID_51_" />
    </clipPath>
    <clipPath
       id="clipPath17832">
      <use
         height="100%"
         width="100%"
         y="0"
         x="0"
         id="use17830"
         style="overflow:visible"
         xlink:href="#SVGID_51_" />
    </clipPath>
    <clipPath
       id="clipPath17836">
      <use
         height="100%"
         width="100%"
         y="0"
         x="0"
         id="use17834"
         style="overflow:visible"
         xlink:href="#SVGID_51_" />
    </clipPath>
    <path
       inkscape:connector-curvature="0"
       d="m 1525.5,1222.6 c 0,20.3 -16.4,36.7 -36.7,36.7 h -136.2 c -20.3,0 -36.7,-16.4 -36.7,-36.7 v -136.2 c 0,-20.3 16.4,-36.7 36.7,-36.7 h 136.2 c 20.3,0 36.7,16.4 36.7,36.7 z"
       id="SVGID_49_" />
    <path
       inkscape:connector-curvature="0"
       d="m 1422.7,1221 -3.6,1.3 c -0.3,0.5 -6.9,23 -6.2,24.8 0.9,2.5 7.9,9.3 8.7,9.3 1.7,0 10.4,-9.6 9.9,-10.7 z"
       id="SVGID_51_" />
    <clipPath
       id="SVGID_18_-9">
      <use
         height="100%"
         width="100%"
         y="0"
         x="0"
         id="use1282"
         style="overflow:visible"
         xlink:href="#SVGID_17_-1" />
    </clipPath>
    <path
       inkscape:connector-curvature="0"
       d="m 1268.8,480.6 c 0,19.9 -16.1,35.9 -35.9,35.9 h -133.3 c -19.9,0 -35.9,-16.1 -35.9,-35.9 V 347.3 c 0,-19.9 16.1,-35.9 35.9,-35.9 h 133.3 c 19.8,0 35.9,16.1 35.9,35.9 z"
       id="SVGID_17_-1" />
    <clipPath
       id="SVGID_26_-2">
      <use
         height="100%"
         width="100%"
         y="0"
         x="0"
         id="use1422"
         style="overflow:visible"
         xlink:href="#SVGID_25_-7" />
    </clipPath>
    <path
       inkscape:connector-curvature="0"
       d="m 1507.2,480.6 c 0,19.9 -16.1,35.9 -35.9,35.9 H 1338 c -19.9,0 -35.9,-16.1 -35.9,-35.9 V 347.3 c 0,-19.8 16.1,-35.9 35.9,-35.9 h 133.3 c 19.9,0 35.9,16.1 35.9,35.9 z"
       id="SVGID_25_-7" />
  </defs>
  <sodipodi:namedview
     id="base"
     pagecolor="#ffffff"
     bordercolor="#666666"
     borderopacity="1.0"
     inkscape:pageopacity="0.0"
     inkscape:pageshadow="2"
     inkscape:zoom="0.35"
     inkscape:cx="1428.9909"
     inkscape:cy="-689.58111"
     inkscape:document-units="mm"
     inkscape:current-layer="layer1"
     showgrid="false"
     fit-margin-top="0"
     fit-margin-left="0"
     fit-margin-right="0"
     fit-margin-bottom="0"
     inkscape:window-width="1920"
     inkscape:window-height="1052"
     inkscape:window-x="0"
     inkscape:window-y="0"
     inkscape:window-maximized="1" />
  <metadata
     id="metadata5">
    <rdf:RDF>
      <cc:Work
         rdf:about="">
        <dc:format>image/svg+xml</dc:format>
        <dc:type
           rdf:resource="http://purl.org/dc/dcmitype/StillImage" />
        <dc:title></dc:title>
      </cc:Work>
    </rdf:RDF>
  </metadata>
  <g
     inkscape:label="Layer 1"
     inkscape:groupmode="layer"
     id="layer1"
     transform="translate(373.92945,148.36058)">
    <g
       id="g1455"
       transform="matrix(0.26458333,0,0,0.26458333,-718.4434,-230.75183)">
      <path
         style="fill:#2a968c"
         inkscape:connector-curvature="0"
         id="path1417"
         d="m 1507.2,480.6 c 0,19.9 -16.1,35.9 -35.9,35.9 H 1338 c -19.9,0 -35.9,-16.1 -35.9,-35.9 V 347.3 c 0,-19.8 16.1,-35.9 35.9,-35.9 h 133.3 c 19.9,0 35.9,16.1 35.9,35.9 z"
         class="st59" />
      <g
         id="g1453">
        <defs
           id="defs1420">
          <path
             inkscape:connector-curvature="0"
             d="m 1507.2,480.6 c 0,19.9 -16.1,35.9 -35.9,35.9 H 1338 c -19.9,0 -35.9,-16.1 -35.9,-35.9 V 347.3 c 0,-19.8 16.1,-35.9 35.9,-35.9 h 133.3 c 19.9,0 35.9,16.1 35.9,35.9 z"
             id="path18165" />
        </defs>
        <clipPath
           id="clipPath18116">
          <use
             height="100%"
             width="100%"
             y="0"
             x="0"
             id="use18114"
             style="overflow:visible"
             xlink:href="#SVGID_25_-7" />
        </clipPath>
        <g
           id="g1451"
           clip-path="url(#SVGID_26_-2)"
           class="st60">
          <path
             style="clip-rule:evenodd;fill:#606062;fill-rule:evenodd"
             inkscape:connector-curvature="0"
             id="path1425"
             d="m 1459.4,421.8 -105.2,-4.5 c 0,22.2 0.5,27.7 13.5,44.7 8.2,10.7 60.6,6 73.9,5 1.9,-0.1 0.2,0.4 1.9,-0.6 z"
             class="st61" />
          <g
             id="g1433">
            <path
               style="clip-rule:evenodd;fill:#010002;fill-rule:evenodd"
               inkscape:connector-curvature="0"
               id="path1427"
               d="m 1395.6,464.7 c 9.5,-0.9 7.1,-0.9 18.6,0.8 35,2.7 34.5,38.6 37.4,56.8 -37.9,0.2 -52.7,-2.6 -90.6,-2.3 1.2,-22.5 5.5,-52.8 34.6,-55.3 z"
               class="st7" />
            <path
               style="clip-rule:evenodd;fill:#ffffff;fill-rule:evenodd"
               inkscape:connector-curvature="0"
               id="path1429"
               d="m 1410.7,458.9 -11.8,2.2 c -5.4,0 -41.7,19.8 -37.3,24 4.3,4.1 30,5.1 29.4,5.5 -8.2,5.9 7.5,-4.5 13.5,15.2 5.3,17.5 5,13.3 7.5,-1.2 2.9,-16.8 4.8,-10.3 13.6,-12.2 -3.7,-7 -11.1,-5.5 8.8,-4.4 17.3,0.9 22.4,2.5 13,-7.2 -9.3,-9.5 -19.8,-13.3 -36.7,-21.9 z"
               class="st23" />
            <path
               style="clip-rule:evenodd;fill:#d7ac6c;fill-rule:evenodd"
               inkscape:connector-curvature="0"
               id="path1431"
               d="m 1416,423.9 -19.8,-1.9 c -0.1,0.8 0.5,41.5 0.6,46.4 0.2,3.9 10.4,44.1 11.8,44 0.8,0 3.3,-39.6 3.9,-44.5 z"
               class="st24" />
          </g>
          <path
             style="clip-rule:evenodd;fill:#f0d6ac;fill-rule:evenodd"
             inkscape:connector-curvature="0"
             id="path1435"
             d="m 1357.8,368.5 92,-10.3 v 57.7 c 0,33.2 -29.7,46 -45,47.1 -16.3,1.2 -51.1,-24 -49.5,-51.8 z"
             class="st5" />
          <path
             style="clip-rule:evenodd;fill:#bd3938;fill-rule:evenodd"
             inkscape:connector-curvature="0"
             id="path1437"
             d="m 1407.5,438.8 c -1.9,0 -2.7,1 -2.7,1 0,0 -0.8,-1 -2.7,-1 -1.9,0 -8.2,4.6 -10.2,6.4 0.9,0.4 3.2,1.6 4.1,2.7 0.9,1.1 3.8,5.4 8.9,5.4 5.1,0 8,-4.3 8.9,-5.4 0.9,-1.1 3.2,-2.3 4.1,-2.7 -2.2,-1.8 -8.5,-6.4 -10.4,-6.4 z"
             class="st62" />
          <path
             style="clip-rule:evenodd;fill:#010002;fill-rule:evenodd"
             inkscape:connector-curvature="0"
             id="path1439"
             d="m 1362.9,358.5 c -0.1,2.1 2.5,45.8 6.3,40.4 3,-4.3 29.6,-0.9 29.6,-3 0,-13.8 0.9,1.9 5,1.9 8.9,0 0.4,-9.6 5,-15.2 5.7,4.9 -6.6,18.1 11.6,14.5 1.3,-0.3 2.9,-12.7 2.9,-0.9 0,1.8 12.4,3.8 13.6,-0.2 5.8,-20.4 8.2,-57.3 -12.6,-64.9 -27.7,-10.1 -58.9,-7.8 -61.4,27.4 z"
             class="st7" />
          <path
             style="fill:#010002"
             inkscape:connector-curvature="0"
             id="path1441"
             d="m 1362.9,358.5 h -0.3 c 0,0.1 0,0.2 0,0.3 0,2 0.6,12.1 1.6,21.8 0.5,4.8 1.1,9.5 1.8,13.1 0.3,1.8 0.7,3.2 1.1,4.3 0.2,0.5 0.4,0.9 0.6,1.2 0.2,0.3 0.5,0.5 0.8,0.5 0.2,0 0.3,-0.1 0.5,-0.2 0.1,-0.1 0.3,-0.2 0.4,-0.4 0.3,-0.4 0.9,-0.8 1.8,-1.1 2.7,-0.9 7.6,-1.1 12.5,-1.1 3.3,0 6.6,0.1 9.3,0.1 1.7,0 3.2,0 4.2,-0.1 0.5,-0.1 0.9,-0.1 1.3,-0.2 0.2,-0.1 0.3,-0.1 0.4,-0.2 0.1,-0.1 0.2,-0.2 0.2,-0.4 0,-2.1 0,-3.5 0.1,-4.4 0,-0.4 0.1,-0.7 0.1,-0.9 0,-0.1 0,-0.1 0,-0.2 v 0 0 0 0 0 l -0.2,-0.1 v 0.2 c 0.1,0 0.2,-0.1 0.2,-0.1 l -0.2,-0.1 v 0.2 -0.2 l -0.1,0.1 h 0.1 v -0.2 l -0.1,0.1 v 0 0 0 0 0 c 0,0 0.1,0.2 0.2,0.4 0.3,0.8 0.8,2.6 1.5,4.2 0.4,0.8 0.8,1.5 1.3,2.1 0.5,0.6 1.1,0.9 1.8,0.9 1.8,0 2.9,-0.4 3.6,-1.1 0.7,-0.7 0.9,-1.7 0.9,-2.7 0,-2 -0.8,-4.6 -0.8,-7 0,-1.6 0.3,-3.2 1.4,-4.5 l -0.2,-0.2 -0.2,0.2 c 1.2,1.1 1.6,2.5 1.6,4.2 0,2.1 -0.6,4.4 -0.6,6.3 0,1.3 0.2,2.5 1.1,3.3 0.8,0.9 2.2,1.3 4.4,1.3 1.4,0 3.1,-0.2 5.3,-0.6 0.2,-0.1 0.4,-0.2 0.5,-0.4 0.2,-0.4 0.4,-0.9 0.6,-1.5 0.3,-0.9 0.6,-2 0.8,-2.8 0.1,-0.4 0.2,-0.8 0.4,-1 0.1,-0.1 0.1,-0.2 0.1,-0.3 v 0 0 l -0.1,-0.1 v 0.1 h 0.1 l -0.1,-0.1 v 0.1 -0.2 l -0.1,0.1 h 0.1 V 391 l -0.1,0.1 0.1,-0.1 -0.1,0.1 v 0 l 0.1,-0.1 -0.1,0.1 c 0,0 0.1,0.1 0.1,0.3 0.1,0.6 0.2,2.1 0.2,4.5 0,0.2 0.1,0.4 0.3,0.6 0.3,0.3 0.7,0.5 1.2,0.7 1.5,0.6 4.1,1.1 6.6,1.1 1.4,0 2.8,-0.2 3.8,-0.5 1.1,-0.4 1.9,-1 2.2,-2 2.3,-8.1 4.1,-18.8 4.1,-29.2 0,-8 -1,-15.8 -3.6,-22.2 -2.6,-6.4 -6.8,-11.5 -13.2,-13.8 -8.9,-3.2 -18.2,-5.2 -26.7,-5.2 -9.1,0 -17.4,2.2 -23.7,7.4 -6.3,5.2 -10.4,13.5 -11.3,25.5 l 0.4,0.2 h 0.3 c 0.8,-11.9 4.9,-20 11.1,-25.1 6.1,-5.1 14.3,-7.3 23.3,-7.3 8.5,0 17.7,1.9 26.6,5.2 6.2,2.2 10.3,7.1 12.9,13.5 2.6,6.3 3.6,14.1 3.6,22 0,10.4 -1.8,21 -4,29 -0.2,0.7 -0.9,1.3 -1.9,1.6 -1,0.4 -2.3,0.5 -3.7,0.5 -1.8,0 -3.7,-0.3 -5.2,-0.7 -0.7,-0.2 -1.3,-0.4 -1.7,-0.7 -0.2,-0.1 -0.4,-0.2 -0.4,-0.3 -0.1,-0.1 -0.1,-0.2 -0.1,-0.2 0,-1.9 0,-3.2 -0.1,-4 0,-0.4 -0.1,-0.7 -0.1,-0.9 0,-0.1 -0.1,-0.2 -0.1,-0.3 0,-0.1 -0.2,-0.2 -0.3,-0.2 -0.2,0 -0.2,0.1 -0.3,0.2 -0.1,0.1 -0.2,0.3 -0.3,0.5 -0.3,0.7 -0.6,2.1 -1,3.2 -0.2,0.6 -0.4,1.1 -0.5,1.5 -0.1,0.2 -0.2,0.4 -0.3,0.5 l -0.1,0.1 v 0 0 0 0 0 0 c -2.1,0.4 -3.8,0.6 -5.2,0.6 -2.1,0 -3.4,-0.5 -4.1,-1.2 -0.7,-0.7 -0.9,-1.7 -0.9,-2.9 0,-1.9 0.6,-4.2 0.6,-6.3 0,-1.7 -0.4,-3.4 -1.8,-4.6 l -0.2,-0.2 -0.2,0.2 c -1.2,1.5 -1.5,3.2 -1.5,4.9 0,2.5 0.8,5.1 0.8,7 0,1 -0.2,1.8 -0.8,2.3 -0.6,0.6 -1.6,0.9 -3.3,0.9 -0.6,0 -1.1,-0.4 -1.6,-1.1 -0.8,-1 -1.4,-2.6 -1.8,-3.9 -0.2,-0.7 -0.4,-1.3 -0.6,-1.7 -0.1,-0.2 -0.2,-0.4 -0.2,-0.5 l -0.1,-0.2 c 0,-0.1 -0.1,-0.1 -0.3,-0.1 -0.1,0 -0.2,0 -0.2,0.1 -0.1,0.1 -0.1,0.2 -0.1,0.2 -0.1,0.3 -0.1,0.8 -0.2,1.7 0,0.9 0,2.2 0,3.9 v 0 0 0 0 0 l -0.1,0.1 c -0.2,0.1 -0.9,0.3 -1.9,0.3 -0.9,0.1 -2.2,0.1 -3.6,0.1 -2.7,0 -6,-0.1 -9.3,-0.1 -3.3,0 -6.6,0.1 -9.3,0.4 -1.3,0.2 -2.5,0.4 -3.4,0.7 -0.9,0.3 -1.7,0.7 -2.1,1.3 -0.1,0.1 -0.2,0.2 -0.3,0.3 l -0.2,0.1 c -0.1,0 -0.2,-0.1 -0.4,-0.3 -0.3,-0.4 -0.7,-1.4 -1,-2.7 -2.4,-8.9 -3.9,-34.2 -3.9,-37.4 0,-0.1 0,-0.2 0,-0.2 z"
             class="st30" />
          <path
             style="clip-rule:evenodd;fill:#010002;fill-rule:evenodd"
             inkscape:connector-curvature="0"
             id="path1443"
             d="m 1436,360.8 -9.2,-28.8 c 14.8,7.3 30,26.7 35.5,44.5 8.9,28.6 25.2,89.7 -13,91.9 -19.1,1.1 -32.6,3.5 -32.9,-0.8 -0.1,-1.5 1.4,1.8 7.1,-1 23.5,-11.4 23.8,-26.2 25,-31.5 l 1.3,-19.9 0.8,-25.3 c -0.8,-17.1 -7,-26 -14.6,-29.1 z"
             class="st7" />
          <path
             style="fill:#010002"
             inkscape:connector-curvature="0"
             id="path1445"
             d="m 1436,360.8 0.2,-0.1 -9.2,-28.8 -0.3,0.1 -0.1,0.2 c 14.7,7.2 29.9,26.6 35.4,44.4 4.6,14.8 11.2,38.2 11.2,57.7 0,9.1 -1.4,17.3 -5.1,23.4 -3.7,6.1 -9.7,10 -18.8,10.5 -10.8,0.6 -19.8,1.7 -25.7,1.7 -2.2,0 -4,-0.2 -5.2,-0.5 -0.6,-0.2 -1,-0.4 -1.3,-0.7 -0.3,-0.3 -0.4,-0.6 -0.5,-1 v -0.1 -0.1 0 h -0.1 v 0 0 h -0.1 v 0 l -0.1,-0.1 0.1,0.1 0.1,-0.1 -0.1,-0.1 0.1,0.1 v -0.1 0.1 0 -0.1 0.1 c 0,0 0.1,0 0.2,0.1 0.4,0.2 1.2,0.5 2.4,0.5 1.1,0 2.5,-0.3 4.4,-1.2 11.8,-5.7 17.8,-12.3 21,-18.1 3.2,-5.8 3.6,-10.9 4.1,-13.5 v 0 l 1.3,-19.9 0.8,-25.3 v 0 c -0.6,-17.2 -6.9,-26.1 -14.7,-29.4 v 0.2 l 0.2,-0.1 -0.2,0.1 -0.1,0.2 c 7.5,3.1 13.7,11.8 14.3,28.9 h 0.3 -0.3 l -0.8,25.3 -1.3,19.9 h 0.3 l -0.3,-0.1 c -0.6,2.7 -1,7.7 -4.1,13.4 -3.1,5.7 -9,12.2 -20.7,17.9 -1.8,0.9 -3.2,1.1 -4.2,1.1 -0.7,0 -1.3,-0.1 -1.7,-0.3 -0.2,-0.1 -0.4,-0.1 -0.5,-0.2 -0.1,-0.1 -0.3,-0.1 -0.4,-0.1 -0.1,0 -0.3,0.1 -0.3,0.2 -0.1,0.1 -0.1,0.2 -0.1,0.4 v 0.2 c 0,0.5 0.3,1 0.6,1.4 0.6,0.5 1.5,0.9 2.6,1.1 1.2,0.2 2.6,0.3 4.3,0.3 5.9,0 14.9,-1 25.7,-1.7 9.3,-0.5 15.5,-4.6 19.2,-10.8 3.8,-6.2 5.2,-14.5 5.2,-23.6 0,-19.6 -6.6,-43.1 -11.2,-57.9 -5.6,-17.9 -20.8,-37.4 -35.7,-44.7 l -0.6,-0.3 9.4,29.5 h 0.1 z"
             class="st30" />
          <path
             style="clip-rule:evenodd;fill:#010002;fill-rule:evenodd"
             inkscape:connector-curvature="0"
             id="path1447"
             d="m 1384.6,357.1 -8.1,-25.8 c -11.5,6.3 -27.5,26.6 -33,44.4 -8.9,28.4 -24.1,91.5 14.1,93.8 19.1,1.1 34.6,2.1 34.9,-2.2 0.1,-1.5 -5.3,0.1 -11,-2.7 -23.5,-11.4 -19.1,-25 -20.2,-30.3 l -1.3,-19.8 c 0.1,-8.4 0.2,-16.8 0.3,-25.2 1,-22.4 14.9,-21.5 24.3,-32.2 z"
             class="st7" />
          <path
             style="fill:#010002"
             inkscape:connector-curvature="0"
             id="path1449"
             d="m 1384.6,357.1 0.3,-0.1 -8.2,-26.1 -0.3,0.2 c -11.6,6.4 -27.5,26.6 -33.2,44.5 -4.5,14.4 -10.6,37.6 -10.6,57.5 0,9.7 1.5,18.5 5.3,25.2 3.9,6.6 10.2,11 19.7,11.5 8.5,0.5 16.2,1 22.2,1 3.8,0 7,-0.2 9.2,-0.7 1.1,-0.3 2,-0.6 2.7,-1 0.6,-0.4 1.1,-1 1.1,-1.7 v -0.1 c 0,-0.3 -0.2,-0.5 -0.4,-0.6 -0.4,-0.2 -0.9,-0.3 -1.6,-0.3 -2,-0.2 -5.6,-0.1 -9.2,-1.9 -11.7,-5.7 -16.4,-11.9 -18.4,-17.3 -1,-2.7 -1.3,-5.2 -1.4,-7.4 -0.1,-2.2 -0.1,-4 -0.4,-5.4 l -0.3,0.1 h 0.3 l -1.3,-19.8 h -0.3 0.3 c 0.1,-8.4 0.2,-16.8 0.3,-25.2 h -0.3 0.3 c 0.5,-11.2 4.2,-16.5 8.9,-20.4 4.7,-3.9 10.6,-6.3 15.3,-11.7 l 0.1,-0.1 v -0.1 l -0.1,-0.1 -0.2,-0.2 c -4.6,5.3 -10.4,7.7 -15.2,11.7 -4.8,3.9 -8.6,9.5 -9.1,20.8 v 0 0 c -0.1,8.4 -0.2,16.8 -0.3,25.2 v 0 l 1.3,19.9 v 0 c 0.3,1.3 0.2,3.1 0.3,5.3 0.2,3.3 0.7,7.5 3.5,11.8 2.8,4.4 7.7,9 16.5,13.3 2.9,1.4 5.6,1.7 7.7,1.8 1,0.1 1.9,0.1 2.4,0.2 0.3,0 0.5,0.1 0.6,0.2 0.1,0.1 0.1,0.1 0.1,0.2 v 0 c 0,0.5 -0.3,0.9 -0.9,1.3 -0.8,0.6 -2.3,1 -4.3,1.2 -2,0.3 -4.4,0.4 -7.3,0.4 -6,0 -13.7,-0.5 -22.2,-1 -9.4,-0.6 -15.5,-4.8 -19.3,-11.3 -3.8,-6.5 -5.3,-15.3 -5.3,-24.9 0,-19.7 6.1,-42.9 10.6,-57.3 5.5,-17.7 21.5,-37.9 32.9,-44.2 l -0.1,-0.2 -0.3,0.1 8.1,25.8 0.5,-0.1 -0.2,-0.2 z"
             class="st30" />
        </g>
      </g>
    </g>
  </g>
</svg>
