<?xml version="1.0" encoding="UTF-8" standalone="no"?>
<svg
   xmlns:dc="http://purl.org/dc/elements/1.1/"
   xmlns:cc="http://creativecommons.org/ns#"
   xmlns:rdf="http://www.w3.org/1999/02/22-rdf-syntax-ns#"
   xmlns:svg="http://www.w3.org/2000/svg"
   xmlns="http://www.w3.org/2000/svg"
   xmlns:xlink="http://www.w3.org/1999/xlink"
   id="svg8"
   version="1.1"
   viewBox="0 0 54.2925 54.266041"
   height="54.266041mm"
   width="54.2925mm">
  <defs
     id="defs2">
    <clipPath
       id="clipPath2444"
       clipPathUnits="userSpaceOnUse">
      <path
         id="path2442"
         d="m 87.298,2047.988 c -12.367,0 -22.391,-10.024 -22.391,-22.389 v 0 -83.06 c 0,-12.367 10.024,-22.39 22.391,-22.39 v 0 h 83.058 c 12.367,0 22.391,10.023 22.391,22.39 v 0 83.06 c 0,12.365 -10.024,22.389 -22.391,22.389 v 0 z" />
    </clipPath>
    <clipPath
       id="SVGID_14_">
      <use
         xlink:href="#SVGID_13_"
         style="overflow:visible"
         id="use1204"
         x="0"
         y="0"
         width="100%"
         height="100%" />
    </clipPath>
    <path
       id="SVGID_13_"
       d="m 694.5,450.6 -28.3,-1.2 c -0.1,0.5 2.2,16.4 2.9,19.5 1.2,4.2 6.1,37.5 11.8,37.8 6.1,0.3 9.8,-33.2 10.9,-39.5 z" />
    <clipPath
       id="SVGID_8_">
      <use
         xlink:href="#SVGID_7_"
         style="overflow:visible"
         id="use1110"
         x="0"
         y="0"
         width="100%"
         height="100%" />
    </clipPath>
    <clipPath
       id="SVGID_10_">
      <use
         xlink:href="#SVGID_9_"
         style="overflow:visible"
         id="use1120"
         x="0"
         y="0"
         width="100%"
         height="100%" />
    </clipPath>
    <path
       id="SVGID_7_"
       d="m 537.3,480.6 c 0,19.8 -16.1,35.9 -35.9,35.9 H 368 c -19.9,0 -35.9,-16.1 -35.9,-35.9 V 347.3 c 0,-19.9 16.1,-35.9 35.9,-35.9 h 133.3 c 19.9,0 35.9,16.1 35.9,35.9 v 133.3 z" />
    <path
       id="SVGID_9_"
       d="M 448.4,448.5 429.6,447 c -0.1,0.6 1,32.1 1.4,35.9 1.6,10.6 15.8,13.4 17.2,-1.7 z" />
  </defs>
  <metadata
     id="metadata5">
    <rdf:RDF>
      <cc:Work
         rdf:about="">
        <dc:format>image/svg+xml</dc:format>
        <dc:type
           rdf:resource="http://purl.org/dc/dcmitype/StillImage" />
        <dc:title></dc:title>
      </cc:Work>
    </rdf:RDF>
  </metadata>
  <g
     transform="translate(-203.61628,-185.01633)"
     id="layer1">
    <g
       transform="matrix(0.26458333,0,0,0.26458333,115.74816,102.62508)"
       id="g1143">
      <path
         class="st13"
         d="m 537.3,480.6 c 0,19.8 -16.1,35.9 -35.9,35.9 H 368 c -19.9,0 -35.9,-16.1 -35.9,-35.9 V 347.3 c 0,-19.9 16.1,-35.9 35.9,-35.9 h 133.3 c 19.9,0 35.9,16.1 35.9,35.9 v 133.3 z"
         id="path1105"
         style="fill:#dda7b2" />
      <g
         id="g1141">
        <defs
           id="defs1108">
          <path
             id="path7582"
             d="m 537.3,480.6 c 0,19.8 -16.1,35.9 -35.9,35.9 H 368 c -19.9,0 -35.9,-16.1 -35.9,-35.9 V 347.3 c 0,-19.9 16.1,-35.9 35.9,-35.9 h 133.3 c 19.9,0 35.9,16.1 35.9,35.9 v 133.3 z" />
        </defs>
        <clipPath
           id="clipPath7524">
          <use
             xlink:href="#SVGID_7_"
             style="overflow:visible"
             id="use7522"
             x="0"
             y="0"
             width="100%"
             height="100%" />
        </clipPath>
        <g
           class="st14"
           clip-path="url(#SVGID_8_)"
           id="g1139">
          <path
             class="st15"
             d="m 372.7,391.1 c 0,22.1 6.4,34.3 6.4,45.9 -12.8,0 -29.3,-2.9 -21.3,24.4 4.8,16.3 15.7,7.4 6.4,14.6 -4.3,3.3 -9.4,16.1 8.3,16.1 1.4,0 0.2,29.6 32.8,15.5 4,-1.7 10.2,-9.9 11,-14.7 3.8,-2.1 3,-19.9 18.1,-17.1 25.7,4.8 14.4,38.5 57.3,28.4 8.8,-2.1 26.6,-23.6 15.1,-30 -0.1,-0.1 9.6,-6.7 5.6,-17.1 -4.2,-10.9 -11.5,-0.1 -4.9,-11.5 3.6,-6.2 -2.4,-23.3 -17,-18.1 -0.1,-0.1 9.6,-15 10.1,-16.7 7.4,-25.4 2.7,-55.5 -14.8,-73.7 -7.1,-7.3 -15.6,-10.8 -24.7,-13.1 -50.5,-12.6 -88.4,4.5 -88.4,67.1 z"
             id="path1113"
             style="clip-rule:evenodd;fill:#5a3608;fill-rule:evenodd" />
          <path
             class="st16"
             d="M 448.4,448.5 429.6,447 c -0.1,0.6 1,32.1 1.4,35.9 1.6,10.6 15.8,13.4 17.2,-1.7 z"
             id="path1115"
             style="clip-rule:evenodd;fill:#efd8aa;fill-rule:evenodd" />
          <g
             id="g1125">
            <defs
               id="defs1118">
              <path
                 id="path7589"
                 d="M 448.4,448.5 429.6,447 c -0.1,0.6 1,32.1 1.4,35.9 1.6,10.6 15.8,13.4 17.2,-1.7 z" />
            </defs>
            <clipPath
               id="clipPath7532">
              <use
                 xlink:href="#SVGID_9_"
                 style="overflow:visible"
                 id="use7530"
                 x="0"
                 y="0"
                 width="100%"
                 height="100%" />
            </clipPath>
            <path
               class="st17"
               d="m 450.8,447.6 -23.6,-0.5 c -0.1,0.2 1.3,11.6 1.8,12.9 2,3.8 19.9,4.8 21.7,-0.6 z"
               clip-path="url(#SVGID_10_)"
               id="path1123"
               style="clip-rule:evenodd;fill:#c6aa76;fill-rule:evenodd" />
          </g>
          <path
             class="st16"
             d="m 430.5,471.8 c 6.7,-3.3 10.4,-1.7 17.6,0.2 7.6,2 23.3,14.7 28.1,48 h -69.8 c -0.1,0 -6.5,-33.2 24.1,-48.2 z"
             id="path1127"
             style="clip-rule:evenodd;fill:#efd8aa;fill-rule:evenodd" />
          <path
             class="st16"
             d="m 466.4,371.2 c 9.4,9.3 8.9,28.1 5.5,40.5 -4.6,17 -0.9,31.3 -22.4,41.7 -16.4,8 -30,-2.8 -36,-14.2 -6,-11.5 -4.7,-22.1 -6.6,-25.4 -4.8,-8.1 1.2,-31.8 3.6,-40.3 0,0 19.9,-3.5 27.5,-16.1 7.6,12.7 23.1,14.2 28.4,13.8 z"
             id="path1129"
             style="clip-rule:evenodd;fill:#efd8aa;fill-rule:evenodd" />
          <path
             class="st18"
             d="m 442.8,429.6 c -1.8,0 -2.5,0.6 -2.5,0.6 0,0 -0.7,-0.6 -2.5,-0.6 -1.1,0 -3.8,1 -6.1,2.1 -1.3,0.6 -4,-0.2 -4.7,0.1 0.8,0.2 4.4,2.3 5.2,3 0.8,0.6 3.4,3.1 8.1,3.1 4.7,0 7.3,-2.4 8.1,-3.1 0.8,-0.6 4,-1.7 4.2,-2.7 -0.5,-0.3 -1.9,0.5 -2.8,0 -2.5,-1.2 -5.8,-2.5 -7,-2.5 z"
             id="path1131"
             style="clip-rule:evenodd;fill:#bc7771;fill-rule:evenodd" />
          <path
             class="st16"
             d="m 470.3,417.4 c 2.4,-1.9 17.1,-4.1 10,-9.1 -1.7,-1.2 1.9,-12.2 -3.3,-1.1 -1.1,2.3 -4.9,8.8 -6.7,10.2 z"
             id="path1133"
             style="clip-rule:evenodd;fill:#efd8aa;fill-rule:evenodd" />
          <path
             class="st16"
             d="m 408.4,417.6 c -2.4,-1.9 -17.1,-4.1 -10.1,-9 1.7,-1.2 -2,-12.2 3.3,-1.2 1.2,2.4 5,8.8 6.8,10.2 z"
             id="path1135"
             style="clip-rule:evenodd;fill:#efd8aa;fill-rule:evenodd" />
          <path
             class="st19"
             d="m 415.7,520.9 48.9,-0.4 c 0,0 -0.5,-13.5 -3.8,-16.9 -1.6,-13.9 -0.7,-23.1 -0.7,-23.1 l -1.8,-2.1 c 0,0 -0.9,10.9 0.2,25.2 -16,9.7 -34.4,1 -39.1,-0.5 1.6,-13.5 0.1,-24 0.1,-24 0,0 -0.1,0.1 -1.9,1.7 0.8,8.4 -1.3,21.6 -1.3,21.6 0,0 -4.5,8.7 -0.6,17.6"
             id="path1137"
             style="clip-rule:evenodd;fill:#cf7400;fill-rule:evenodd" />
        </g>
      </g>
    </g>
  </g>
</svg>
