<?xml version="1.0" encoding="UTF-8" standalone="no"?>
<svg
   xmlns:dc="http://purl.org/dc/elements/1.1/"
   xmlns:cc="http://creativecommons.org/ns#"
   xmlns:rdf="http://www.w3.org/1999/02/22-rdf-syntax-ns#"
   xmlns:svg="http://www.w3.org/2000/svg"
   xmlns="http://www.w3.org/2000/svg"
   xmlns:xlink="http://www.w3.org/1999/xlink"
   id="svg8"
   version="1.1"
   viewBox="0 0 55.456665 55.456665"
   height="55.456665mm"
   width="55.456665mm">
  <defs
     id="defs2">
    <clipPath
       id="clipPath2444"
       clipPathUnits="userSpaceOnUse">
      <path
         id="path2442"
         d="m 87.298,2047.988 c -12.367,0 -22.391,-10.024 -22.391,-22.389 v 0 -83.06 c 0,-12.367 10.024,-22.39 22.391,-22.39 v 0 h 83.058 c 12.367,0 22.391,10.023 22.391,22.39 v 0 83.06 c 0,12.365 -10.024,22.389 -22.391,22.389 v 0 z" />
    </clipPath>
    <clipPath
       id="SVGID_14_">
      <use
         xlink:href="#SVGID_13_"
         style="overflow:visible"
         id="use1204"
         x="0"
         y="0"
         width="100%"
         height="100%" />
    </clipPath>
    <path
       id="SVGID_13_"
       d="m 694.5,450.6 -28.3,-1.2 c -0.1,0.5 2.2,16.4 2.9,19.5 1.2,4.2 6.1,37.5 11.8,37.8 6.1,0.3 9.8,-33.2 10.9,-39.5 z" />
    <clipPath
       id="SVGID_8_">
      <use
         xlink:href="#SVGID_7_"
         style="overflow:visible"
         id="use1110"
         x="0"
         y="0"
         width="100%"
         height="100%" />
    </clipPath>
    <clipPath
       id="SVGID_10_">
      <use
         xlink:href="#SVGID_9_"
         style="overflow:visible"
         id="use1120"
         x="0"
         y="0"
         width="100%"
         height="100%" />
    </clipPath>
    <path
       id="SVGID_7_"
       d="m 537.3,480.6 c 0,19.8 -16.1,35.9 -35.9,35.9 H 368 c -19.9,0 -35.9,-16.1 -35.9,-35.9 V 347.3 c 0,-19.9 16.1,-35.9 35.9,-35.9 h 133.3 c 19.9,0 35.9,16.1 35.9,35.9 v 133.3 z" />
    <path
       id="SVGID_9_"
       d="M 448.4,448.5 429.6,447 c -0.1,0.6 1,32.1 1.4,35.9 1.6,10.6 15.8,13.4 17.2,-1.7 z" />
    <clipPath
       id="SVGID_22_">
      <use
         xlink:href="#SVGID_21_"
         style="overflow:visible"
         id="use1352"
         x="0"
         y="0"
         width="100%"
         height="100%" />
    </clipPath>
    <path
       id="SVGID_21_"
       d="m 1031.6,480.6 c 0,19.9 -16.1,35.9 -35.9,35.9 H 862.4 c -19.9,0 -35.9,-16.1 -35.9,-35.9 V 347.3 c 0,-19.9 16.1,-35.9 35.9,-35.9 h 133.3 c 19.9,0 35.9,16.1 35.9,35.9 z" />
    <clipPath
       id="SVGID_16_">
      <use
         height="100%"
         width="100%"
         y="0"
         x="0"
         id="use9459"
         style="overflow:visible"
         xlink:href="#SVGID_15_" />
    </clipPath>
    <path
       d="m 290.2,497 c 0,20.3 -16.4,36.7 -36.7,36.7 H 117.3 C 97,533.7 80.6,517.3 80.6,497 V 360.8 c 0,-20.3 16.4,-36.7 36.7,-36.7 h 136.2 c 20.3,0 36.7,16.4 36.7,36.7 z"
       id="SVGID_15_" />
  </defs>
  <metadata
     id="metadata5">
    <rdf:RDF>
      <cc:Work
         rdf:about="">
        <dc:format>image/svg+xml</dc:format>
        <dc:type
           rdf:resource="http://purl.org/dc/dcmitype/StillImage" />
        <dc:title></dc:title>
      </cc:Work>
    </rdf:RDF>
  </metadata>
  <g
     transform="translate(-272.73112,-193.32992)"
     id="layer1">
    <g
       id="g13454"
       transform="matrix(0.26458333,0,0,0.26458333,251.4057,107.57846)">
      <path
         style="fill:#da962b"
         id="path9454"
         d="m 290.2,497 c 0,20.3 -16.4,36.7 -36.7,36.7 H 117.3 C 97,533.7 80.6,517.3 80.6,497 V 360.8 c 0,-20.3 16.4,-36.7 36.7,-36.7 h 136.2 c 20.3,0 36.7,16.4 36.7,36.7 z"
         class="st38" />
      <g
         id="g9479">
        <defs
           id="defs9457">
          <path
             d="m 290.2,497 c 0,20.3 -16.4,36.7 -36.7,36.7 H 117.3 C 97,533.7 80.6,517.3 80.6,497 V 360.8 c 0,-20.3 16.4,-36.7 36.7,-36.7 h 136.2 c 20.3,0 36.7,16.4 36.7,36.7 z"
             id="path13538" />
        </defs>
        <clipPath
           id="clipPath13499">
          <use
             height="100%"
             width="100%"
             y="0"
             x="0"
             id="use13497"
             style="overflow:visible"
             xlink:href="#SVGID_15_" />
        </clipPath>
        <g
           id="g9477"
           clip-path="url(#SVGID_16_)"
           class="st39">
          <path
             style="fill:#00938f"
             id="path9462"
             d="m 212.3,473.4 61.9,57.5 -9.8,11.2 c 0,0 -151.1,1.7 -153.4,1.4 -3.9,-0.4 -10.5,-7.2 -10.5,-7.2 l 69.9,-63.7 z"
             class="st40" />
          <path
             style="fill:#f0d6ac"
             id="path9464"
             d="m 208.3,480.4 c 0.9,-0.7 -17.2,37.7 -17.2,37.7 l -21.2,-37 c 0,0 26.2,8.3 38.4,-0.7 z"
             class="st7" />
          <g
             id="g9475">
            <path
               style="fill:#f0d6ac"
               id="path9466"
               d="m 151.9,380.9 -8.1,35.6 c 0,0 -9.6,-7.8 -7.5,8.9 2.1,16.6 11.8,18.2 11.8,16.6 0,-1.6 5.9,27.4 27.4,44 10.2,10.2 16.1,10.2 21.5,3.8 5.4,-6.4 24.7,-28.4 26.8,-32.7 2.1,-4.3 3.8,-20.9 3.8,-20.9 0,0 5.9,6.4 8,-4.8 2.1,-11.3 -1.6,-20.9 -4.8,-20.9 -3.2,0 -3.8,-8 -3.8,-10.2 0,-2.1 -9.7,-27.9 -9.7,-27.9 0,0 -18.8,-4.8 -20.4,-4.8 -1.5,-0.2 -46.6,12.2 -45,13.3 z"
               class="st7" />
            <g
               id="Capa_1_8_">
              <g
                 id="g9472">
                <path
                   style="fill:#7e6244"
                   id="path9468"
                   d="m 230,432.1 c -0.4,0.1 -1.1,0.5 -2,3 -1.5,4.1 -13.1,29 -16.2,29.6 -0.1,0 -0.1,0 -0.2,-0.1 -2.8,-3.1 -9.5,-8.3 -13.8,-10.7 -4.4,-2.4 -9.7,-3.5 -9.9,-3.5 h -0.1 -0.1 c -0.2,0.1 -4.7,1.1 -9,3.5 -4.3,2.4 -11,7.6 -13.7,10.7 -0.1,0.1 -0.1,0.1 -0.2,0.1 -3.2,-0.6 -14.7,-25.4 -16.2,-29.6 -0.9,-2.5 -1.5,-2.9 -2,-3 -0.3,-0.1 -0.5,0 -0.6,0.1 l -0.2,0.2 0.1,0.3 c 0.3,1.3 6.9,32 13.6,39.1 1.4,1.5 3,3.3 4.8,5.3 9,9.9 16.6,18.2 19.7,18.6 l 4,0.5 h 0.9 l 4,-0.5 c 3.1,-0.4 10.7,-8.7 19.7,-18.6 1.8,-2 3.5,-3.9 4.8,-5.3 6.6,-7.1 13.3,-37.8 13.6,-39.1 v -0.3 l -0.2,-0.2 c -0.3,-0.1 -0.6,-0.2 -0.8,-0.1 z m -24.4,40.3 c -0.7,0.7 -2,2.2 -3.5,4 -3.1,3.6 -8.9,10.1 -10.3,11.1 -0.3,-1.1 -0.5,-5.2 -0.4,-9 0.9,0.1 2.4,0.1 3.4,-0.5 0.4,-0.3 0.6,-0.7 0.7,-1.2 0.1,-1 0.1,-2.1 -0.5,-2.8 -0.4,-0.5 -1.1,-0.8 -2.1,-0.9 -1.7,-0.1 -3.7,-0.1 -4.4,0 -0.7,0 -2.9,-0.1 -4.7,0 -1,0.1 -1.7,0.3 -2.1,0.9 -0.6,0.7 -0.6,1.8 -0.5,2.8 0,0.5 0.3,0.9 0.7,1.2 0.9,0.7 2.5,0.6 3.4,0.5 0.1,3.9 -0.1,8 -0.4,9 -1.4,-0.9 -7.2,-7.5 -10.3,-11.1 -1.5,-1.8 -2.8,-3.3 -3.5,-4 -2,-2.1 -0.9,-4 -0.2,-5.2 0.1,-0.2 0.2,-0.3 0.3,-0.5 0.4,-0.7 4.1,-2.9 6.1,-4.1 1,-0.6 1.9,-1.1 2.4,-1.5 1.2,-0.8 5.8,-1.4 8,-1.6 h 1.1 c 1.9,0.2 7.1,0.8 8.3,1.7 0.5,0.3 1.4,0.8 2.4,1.5 2,1.2 5.8,3.4 6.1,4.1 0.1,0.1 0.2,0.3 0.3,0.5 0.6,1.1 1.7,3 -0.3,5.1 z"
                   class="st41" />
                <path
                   style="fill:#7e6244"
                   id="path9470"
                   d="m 145.8,427.7 h 0.9 c 0,-0.1 0,-0.6 0,-1.4 0,-3.9 0.3,-15.2 4.5,-20.2 4.6,-5.5 9.4,-13.1 8.8,-16.8 -0.2,-1.5 -0.5,-3.1 -0.6,-4.4 1.4,0.2 7.7,1.2 15.9,1.2 5.8,0 12.6,-0.5 19.5,-2.1 5.2,-1.2 10.2,-3.1 14.7,-5.3 -0.6,2.1 -1.4,6.8 2.2,8.2 4.1,1.6 13.2,18.9 14.1,22.8 0.9,3.8 2,16.5 2,16.6 l 0.3,2.9 0.7,-2.9 c 0.3,-1.4 7.9,-35.3 7.7,-43.3 -0.3,-10.2 -3.6,-19.1 -6.2,-19.9 -0.2,-0.1 -0.4,-0.1 -0.5,-0.1 0,-0.4 0,-0.8 -0.1,-1.3 -1.8,-6.3 -18.6,-16.8 -26.1,-20.6 -21.7,-11.1 -36.5,-2 -42.1,1.4 -2.4,1.5 -4.9,3.6 -7.4,5.6 -4,3.3 -7.7,6.4 -10,5.9 -3.4,-0.8 -2.2,-7.9 -2.2,-8 l -0.9,-0.2 c -0.1,0.4 -3.5,9.1 -3,14.2 0.6,7.8 5.2,12.4 7.1,14.4 0.3,0.3 0.5,0.5 0.7,0.7 -1.1,1.3 -6.1,7.6 -5.9,11.6 0.2,4.1 1.8,19.8 3.9,26 1.5,4.5 1.9,10.7 2,13.5 -0.1,0.8 0,1.3 0,1.5 z"
                   class="st41" />
              </g>
            </g>
          </g>
        </g>
      </g>
    </g>
  </g>
</svg>
