<?xml version="1.0" encoding="UTF-8" standalone="no"?>
<!-- Created with Inkscape (http://www.inkscape.org/) -->

<svg
   xmlns:dc="http://purl.org/dc/elements/1.1/"
   xmlns:cc="http://creativecommons.org/ns#"
   xmlns:rdf="http://www.w3.org/1999/02/22-rdf-syntax-ns#"
   xmlns:svg="http://www.w3.org/2000/svg"
   xmlns="http://www.w3.org/2000/svg"
   xmlns:xlink="http://www.w3.org/1999/xlink"
   xmlns:sodipodi="http://sodipodi.sourceforge.net/DTD/sodipodi-0.dtd"
   xmlns:inkscape="http://www.inkscape.org/namespaces/inkscape"
   width="54.001457mm"
   height="53.974998mm"
   viewBox="0 0 54.001458 53.974999"
   version="1.1"
   id="svg8"
   inkscape:version="0.92.5 (2060ec1f9f, 2020-04-08)"
   sodipodi:docname="a44.svg">
  <defs
     id="defs2">
    <clipPath
       clipPathUnits="userSpaceOnUse"
       id="clipPath2444">
      <path
         d="m 87.298,2047.988 c -12.367,0 -22.391,-10.024 -22.391,-22.389 v 0 -83.06 c 0,-12.367 10.024,-22.39 22.391,-22.39 v 0 h 83.058 c 12.367,0 22.391,10.023 22.391,22.39 v 0 83.06 c 0,12.365 -10.024,22.389 -22.391,22.389 v 0 z"
         id="path2442"
         inkscape:connector-curvature="0" />
    </clipPath>
    <clipPath
       id="SVGID_14_">
      <use
         height="100%"
         width="100%"
         y="0"
         x="0"
         id="use1204"
         style="overflow:visible"
         xlink:href="#SVGID_13_" />
    </clipPath>
    <path
       inkscape:connector-curvature="0"
       d="m 694.5,450.6 -28.3,-1.2 c -0.1,0.5 2.2,16.4 2.9,19.5 1.2,4.2 6.1,37.5 11.8,37.8 6.1,0.3 9.8,-33.2 10.9,-39.5 z"
       id="SVGID_13_" />
    <clipPath
       id="SVGID_8_">
      <use
         height="100%"
         width="100%"
         y="0"
         x="0"
         id="use1110"
         style="overflow:visible"
         xlink:href="#SVGID_7_" />
    </clipPath>
    <clipPath
       id="SVGID_10_">
      <use
         height="100%"
         width="100%"
         y="0"
         x="0"
         id="use1120"
         style="overflow:visible"
         xlink:href="#SVGID_9_" />
    </clipPath>
    <path
       inkscape:connector-curvature="0"
       d="m 537.3,480.6 c 0,19.8 -16.1,35.9 -35.9,35.9 H 368 c -19.9,0 -35.9,-16.1 -35.9,-35.9 V 347.3 c 0,-19.9 16.1,-35.9 35.9,-35.9 h 133.3 c 19.9,0 35.9,16.1 35.9,35.9 v 133.3 z"
       id="SVGID_7_" />
    <path
       inkscape:connector-curvature="0"
       d="M 448.4,448.5 429.6,447 c -0.1,0.6 1,32.1 1.4,35.9 1.6,10.6 15.8,13.4 17.2,-1.7 z"
       id="SVGID_9_" />
    <clipPath
       id="SVGID_22_">
      <use
         height="100%"
         width="100%"
         y="0"
         x="0"
         id="use1352"
         style="overflow:visible"
         xlink:href="#SVGID_21_" />
    </clipPath>
    <path
       inkscape:connector-curvature="0"
       d="m 1031.6,480.6 c 0,19.9 -16.1,35.9 -35.9,35.9 H 862.4 c -19.9,0 -35.9,-16.1 -35.9,-35.9 V 347.3 c 0,-19.9 16.1,-35.9 35.9,-35.9 h 133.3 c 19.9,0 35.9,16.1 35.9,35.9 z"
       id="SVGID_21_" />
    <clipPath
       id="SVGID_16_">
      <use
         xlink:href="#SVGID_15_"
         style="overflow:visible"
         id="use9459"
         x="0"
         y="0"
         width="100%"
         height="100%" />
    </clipPath>
    <path
       id="SVGID_15_"
       d="m 290.2,497 c 0,20.3 -16.4,36.7 -36.7,36.7 H 117.3 C 97,533.7 80.6,517.3 80.6,497 V 360.8 c 0,-20.3 16.4,-36.7 36.7,-36.7 h 136.2 c 20.3,0 36.7,16.4 36.7,36.7 z"
       inkscape:connector-curvature="0" />
    <clipPath
       id="SVGID_26_">
      <use
         height="100%"
         width="100%"
         y="0"
         x="0"
         id="use9668"
         style="overflow:visible"
         xlink:href="#SVGID_25_" />
    </clipPath>
    <path
       inkscape:connector-curvature="0"
       d="m 535,497 c 0,20.3 -16.4,36.7 -36.7,36.7 H 362.2 c -20.3,0 -36.7,-16.4 -36.7,-36.7 V 360.8 c 0,-20.3 16.4,-36.7 36.7,-36.7 h 136.2 c 20.3,0 36.7,16.4 36.7,36.7 V 497 Z"
       id="SVGID_25_" />
    <clipPath
       id="SVGID_2_">
      <use
         height="100%"
         width="100%"
         y="0"
         x="0"
         id="use9226"
         style="overflow:visible"
         xlink:href="#SVGID_1_" />
    </clipPath>
    <clipPath
       id="SVGID_4_">
      <use
         height="100%"
         width="100%"
         y="0"
         x="0"
         id="use9232"
         style="overflow:visible"
         xlink:href="#SVGID_3_" />
    </clipPath>
    <clipPath
       id="clipPath14027">
      <use
         height="100%"
         width="100%"
         y="0"
         x="0"
         id="use14025"
         style="overflow:visible"
         xlink:href="#SVGID_3_" />
    </clipPath>
    <clipPath
       id="clipPath14031">
      <use
         height="100%"
         width="100%"
         y="0"
         x="0"
         id="use14029"
         style="overflow:visible"
         xlink:href="#SVGID_3_" />
    </clipPath>
    <clipPath
       id="clipPath14035">
      <use
         height="100%"
         width="100%"
         y="0"
         x="0"
         id="use14033"
         style="overflow:visible"
         xlink:href="#SVGID_3_" />
    </clipPath>
    <clipPath
       id="clipPath14039">
      <use
         height="100%"
         width="100%"
         y="0"
         x="0"
         id="use14037"
         style="overflow:visible"
         xlink:href="#SVGID_3_" />
    </clipPath>
    <clipPath
       id="clipPath14043">
      <use
         height="100%"
         width="100%"
         y="0"
         x="0"
         id="use14041"
         style="overflow:visible"
         xlink:href="#SVGID_3_" />
    </clipPath>
    <clipPath
       id="clipPath14047">
      <use
         height="100%"
         width="100%"
         y="0"
         x="0"
         id="use14045"
         style="overflow:visible"
         xlink:href="#SVGID_3_" />
    </clipPath>
    <path
       inkscape:connector-curvature="0"
       d="m 784.9,497 c 0,20.3 -16.4,36.7 -36.7,36.7 H 612.1 c -20.3,0 -36.7,-16.4 -36.7,-36.7 V 360.8 c 0,-20.3 16.4,-36.7 36.7,-36.7 h 136.2 c 20.3,0 36.7,16.4 36.7,36.7 V 497 Z"
       id="SVGID_1_" />
    <path
       inkscape:connector-curvature="0"
       d="m 662.6,470.7 c 10.9,-1 23.8,-1.6 37.1,0.4 40.5,3.2 43.1,43.5 47.5,65.1 -45.4,0.3 -89,0.6 -131.1,0.9 0,-26.5 13.1,-63.4 46.5,-66.4 z"
       id="SVGID_3_" />
    <clipPath
       id="SVGID_36_">
      <use
         xlink:href="#SVGID_35_"
         style="overflow:visible"
         id="use9875"
         x="0"
         y="0"
         width="100%"
         height="100%" />
    </clipPath>
    <path
       id="SVGID_35_"
       d="m 1036.4,497 c 0,20.3 -16.4,36.7 -36.7,36.7 H 863.6 c -20.3,0 -36.7,-16.4 -36.7,-36.7 V 360.8 c 0,-20.3 16.4,-36.7 36.7,-36.7 h 136.2 c 20.3,0 36.7,16.4 36.7,36.7 V 497 Z"
       inkscape:connector-curvature="0" />
    <clipPath
       id="SVGID_56_">
      <use
         height="100%"
         width="100%"
         y="0"
         x="0"
         id="use10272"
         style="overflow:visible"
         xlink:href="#SVGID_55_" />
    </clipPath>
    <path
       inkscape:connector-curvature="0"
       d="m 1282.1,497 c 0,20.3 -16.4,36.7 -36.7,36.7 h -136.2 c -20.3,0 -36.7,-16.4 -36.7,-36.7 V 360.8 c 0,-20.3 16.4,-36.7 36.7,-36.7 h 136.2 c 20.3,0 36.7,16.4 36.7,36.7 z"
       id="SVGID_55_" />
    <clipPath
       id="SVGID_46_">
      <use
         height="100%"
         width="100%"
         y="0"
         x="0"
         id="use10074"
         style="overflow:visible"
         xlink:href="#SVGID_45_" />
    </clipPath>
    <clipPath
       id="SVGID_48_">
      <use
         height="100%"
         width="100%"
         y="0"
         x="0"
         id="use10084"
         style="overflow:visible"
         xlink:href="#SVGID_47_" />
    </clipPath>
    <clipPath
       id="clipPath14969">
      <use
         height="100%"
         width="100%"
         y="0"
         x="0"
         id="use14967"
         style="overflow:visible"
         xlink:href="#SVGID_47_" />
    </clipPath>
    <clipPath
       id="clipPath14973">
      <use
         height="100%"
         width="100%"
         y="0"
         x="0"
         id="use14971"
         style="overflow:visible"
         xlink:href="#SVGID_47_" />
    </clipPath>
    <clipPath
       id="clipPath14977">
      <use
         height="100%"
         width="100%"
         y="0"
         x="0"
         id="use14975"
         style="overflow:visible"
         xlink:href="#SVGID_47_" />
    </clipPath>
    <clipPath
       id="clipPath14981">
      <use
         height="100%"
         width="100%"
         y="0"
         x="0"
         id="use14979"
         style="overflow:visible"
         xlink:href="#SVGID_47_" />
    </clipPath>
    <clipPath
       id="clipPath14985">
      <use
         height="100%"
         width="100%"
         y="0"
         x="0"
         id="use14983"
         style="overflow:visible"
         xlink:href="#SVGID_47_" />
    </clipPath>
    <clipPath
       id="clipPath14989">
      <use
         height="100%"
         width="100%"
         y="0"
         x="0"
         id="use14987"
         style="overflow:visible"
         xlink:href="#SVGID_47_" />
    </clipPath>
    <clipPath
       id="clipPath14993">
      <use
         height="100%"
         width="100%"
         y="0"
         x="0"
         id="use14991"
         style="overflow:visible"
         xlink:href="#SVGID_47_" />
    </clipPath>
    <clipPath
       id="clipPath14997">
      <use
         height="100%"
         width="100%"
         y="0"
         x="0"
         id="use14995"
         style="overflow:visible"
         xlink:href="#SVGID_47_" />
    </clipPath>
    <clipPath
       id="clipPath15001">
      <use
         height="100%"
         width="100%"
         y="0"
         x="0"
         id="use14999"
         style="overflow:visible"
         xlink:href="#SVGID_47_" />
    </clipPath>
    <clipPath
       id="clipPath15005">
      <use
         height="100%"
         width="100%"
         y="0"
         x="0"
         id="use15003"
         style="overflow:visible"
         xlink:href="#SVGID_47_" />
    </clipPath>
    <clipPath
       id="clipPath15009">
      <use
         height="100%"
         width="100%"
         y="0"
         x="0"
         id="use15007"
         style="overflow:visible"
         xlink:href="#SVGID_47_" />
    </clipPath>
    <clipPath
       id="clipPath15013">
      <use
         height="100%"
         width="100%"
         y="0"
         x="0"
         id="use15011"
         style="overflow:visible"
         xlink:href="#SVGID_47_" />
    </clipPath>
    <clipPath
       id="clipPath15017">
      <use
         height="100%"
         width="100%"
         y="0"
         x="0"
         id="use15015"
         style="overflow:visible"
         xlink:href="#SVGID_47_" />
    </clipPath>
    <clipPath
       id="clipPath15021">
      <use
         height="100%"
         width="100%"
         y="0"
         x="0"
         id="use15019"
         style="overflow:visible"
         xlink:href="#SVGID_47_" />
    </clipPath>
    <clipPath
       id="clipPath15025">
      <use
         height="100%"
         width="100%"
         y="0"
         x="0"
         id="use15023"
         style="overflow:visible"
         xlink:href="#SVGID_47_" />
    </clipPath>
    <clipPath
       id="clipPath15029">
      <use
         height="100%"
         width="100%"
         y="0"
         x="0"
         id="use15027"
         style="overflow:visible"
         xlink:href="#SVGID_47_" />
    </clipPath>
    <clipPath
       id="clipPath15033">
      <use
         height="100%"
         width="100%"
         y="0"
         x="0"
         id="use15031"
         style="overflow:visible"
         xlink:href="#SVGID_47_" />
    </clipPath>
    <clipPath
       id="clipPath15037">
      <use
         height="100%"
         width="100%"
         y="0"
         x="0"
         id="use15035"
         style="overflow:visible"
         xlink:href="#SVGID_47_" />
    </clipPath>
    <clipPath
       id="clipPath15041">
      <use
         height="100%"
         width="100%"
         y="0"
         x="0"
         id="use15039"
         style="overflow:visible"
         xlink:href="#SVGID_47_" />
    </clipPath>
    <clipPath
       id="clipPath15045">
      <use
         height="100%"
         width="100%"
         y="0"
         x="0"
         id="use15043"
         style="overflow:visible"
         xlink:href="#SVGID_47_" />
    </clipPath>
    <clipPath
       id="clipPath15049">
      <use
         height="100%"
         width="100%"
         y="0"
         x="0"
         id="use15047"
         style="overflow:visible"
         xlink:href="#SVGID_47_" />
    </clipPath>
    <path
       inkscape:connector-curvature="0"
       d="m 1525.5,497 c 0,20.3 -16.4,36.7 -36.7,36.7 h -136.2 c -20.3,0 -36.7,-16.4 -36.7,-36.7 V 360.8 c 0,-20.3 16.4,-36.7 36.7,-36.7 h 136.2 c 20.3,0 36.7,16.4 36.7,36.7 z"
       id="SVGID_45_" />
    <path
       inkscape:connector-curvature="0"
       d="m 1409.8,478.1 c 9.8,-0.9 21.2,-1.4 33.1,0.4 36.2,2.8 38.5,37.8 42.5,56.5 -39.1,0.3 -78.1,0.5 -117.2,0.8 0,-23.1 11.7,-55.1 41.6,-57.7 z"
       id="SVGID_47_" />
    <clipPath
       id="SVGID_18_">
      <use
         height="100%"
         width="100%"
         y="0"
         x="0"
         id="use9486"
         style="overflow:visible"
         xlink:href="#SVGID_17_" />
    </clipPath>
    <path
       inkscape:connector-curvature="0"
       d="m 290.2,734.8 c 0,20.3 -16.4,36.7 -36.7,36.7 H 117.3 C 97,771.5 80.6,755.1 80.6,734.8 V 598.6 c 0,-20.3 16.4,-36.7 36.7,-36.7 h 136.2 c 20.3,0 36.7,16.4 36.7,36.7 z"
       id="SVGID_17_" />
    <clipPath
       id="SVGID_28_">
      <use
         height="100%"
         width="100%"
         y="0"
         x="0"
         id="use9716"
         style="overflow:visible"
         xlink:href="#SVGID_27_" />
    </clipPath>
    <path
       inkscape:connector-curvature="0"
       d="m 535,734.8 c 0,20.3 -16.4,36.7 -36.7,36.7 H 362.2 c -20.3,0 -36.7,-16.4 -36.7,-36.7 V 598.6 c 0,-20.3 16.4,-36.7 36.7,-36.7 h 136.2 c 20.3,0 36.7,16.4 36.7,36.7 v 136.2 z"
       id="SVGID_27_" />
    <clipPath
       id="SVGID_6_">
      <use
         height="100%"
         width="100%"
         y="0"
         x="0"
         id="use9271"
         style="overflow:visible"
         xlink:href="#SVGID_5_" />
    </clipPath>
    <path
       inkscape:connector-curvature="0"
       d="m 784.9,734.8 c 0,20.3 -16.4,36.7 -36.7,36.7 H 612.1 c -20.3,0 -36.7,-16.4 -36.7,-36.7 V 598.6 c 0,-20.3 16.4,-36.7 36.7,-36.7 h 136.2 c 20.3,0 36.7,16.4 36.7,36.7 v 136.2 z"
       id="SVGID_5_" />
    <clipPath
       id="SVGID_38_">
      <use
         xlink:href="#SVGID_37_"
         style="overflow:visible"
         id="use9903"
         x="0"
         y="0"
         width="100%"
         height="100%" />
    </clipPath>
    <path
       id="SVGID_37_"
       d="m 1036.4,734.8 c 0,20.3 -16.4,36.7 -36.7,36.7 H 863.6 c -20.3,0 -36.7,-16.4 -36.7,-36.7 V 598.6 c 0,-20.3 16.4,-36.7 36.7,-36.7 h 136.2 c 20.3,0 36.7,16.4 36.7,36.7 v 136.2 z"
       inkscape:connector-curvature="0" />
    <clipPath
       id="SVGID_58_">
      <use
         height="100%"
         width="100%"
         y="0"
         x="0"
         id="use10309"
         style="overflow:visible"
         xlink:href="#SVGID_57_" />
    </clipPath>
    <path
       inkscape:connector-curvature="0"
       d="m 1282.1,734.8 c 0,20.3 -16.4,36.7 -36.7,36.7 h -136.2 c -20.3,0 -36.7,-16.4 -36.7,-36.7 V 598.6 c 0,-20.3 16.4,-36.7 36.7,-36.7 h 136.2 c 20.3,0 36.7,16.4 36.7,36.7 z"
       id="SVGID_57_" />
    <clipPath
       id="SVGID_44_">
      <use
         height="100%"
         width="100%"
         y="0"
         x="0"
         id="use10042"
         style="overflow:visible"
         xlink:href="#SVGID_43_" />
    </clipPath>
    <path
       inkscape:connector-curvature="0"
       d="m 1525.5,734.8 c 0,20.3 -16.4,36.7 -36.7,36.7 h -136.2 c -20.3,0 -36.7,-16.4 -36.7,-36.7 V 598.6 c 0,-20.3 16.4,-36.7 36.7,-36.7 h 136.2 c 20.3,0 36.7,16.4 36.7,36.7 z"
       id="SVGID_43_" />
    <clipPath
       id="SVGID_20_">
      <use
         height="100%"
         width="100%"
         y="0"
         x="0"
         id="use9530"
         style="overflow:visible"
         xlink:href="#SVGID_19_" />
    </clipPath>
    <clipPath
       id="SVGID_22_-3">
      <use
         height="100%"
         width="100%"
         y="0"
         x="0"
         id="use9608"
         style="overflow:visible"
         xlink:href="#SVGID_21_-6" />
    </clipPath>
    <path
       inkscape:connector-curvature="0"
       d="m 290.2,979.7 c 0,20.3 -16.4,36.7 -36.7,36.7 H 117.3 C 97,1016.4 80.6,1000 80.6,979.7 V 843.5 c 0,-20.3 16.4,-36.7 36.7,-36.7 h 136.2 c 20.3,0 36.7,16.4 36.7,36.7 z"
       id="SVGID_19_" />
    <path
       inkscape:connector-curvature="0"
       d="m 194.4,1018.9 c -1.9,2 -63.5,1.8 -63.4,-0.2 0.8,-21.4 16.3,-47 29.7,-51.9 4.2,-1.6 9.8,-2.6 11.4,-2.5 3.3,0.2 5.4,0.5 6.8,0.6 3.6,0.5 -1.8,9.3 11.9,8.6 8.3,-0.4 4.5,-8.7 8.5,-9 7.5,-0.6 15.5,-0.5 23.5,5 -0.1,0 -9,28.5 -28.4,49.4 z"
       id="SVGID_21_-6" />
    <clipPath
       id="SVGID_30_">
      <use
         height="100%"
         width="100%"
         y="0"
         x="0"
         id="use9751"
         style="overflow:visible"
         xlink:href="#SVGID_29_" />
    </clipPath>
    <path
       inkscape:connector-curvature="0"
       d="m 535,979.7 c 0,20.3 -16.4,36.7 -36.7,36.7 H 362.2 c -20.3,0 -36.7,-16.4 -36.7,-36.7 V 843.5 c 0,-20.3 16.4,-36.7 36.7,-36.7 h 136.2 c 20.3,0 36.7,16.4 36.7,36.7 v 136.2 z"
       id="SVGID_29_" />
    <clipPath
       id="SVGID_8_-7">
      <use
         height="100%"
         width="100%"
         y="0"
         x="0"
         id="use9309"
         style="overflow:visible"
         xlink:href="#SVGID_7_-3" />
    </clipPath>
    <clipPath
       id="SVGID_10_-5">
      <use
         height="100%"
         width="100%"
         y="0"
         x="0"
         id="use9317"
         style="overflow:visible"
         xlink:href="#SVGID_9_-5" />
    </clipPath>
    <clipPath
       id="clipPath16428">
      <use
         height="100%"
         width="100%"
         y="0"
         x="0"
         id="use16426"
         style="overflow:visible"
         xlink:href="#SVGID_9_-5" />
    </clipPath>
    <clipPath
       id="clipPath16432">
      <use
         height="100%"
         width="100%"
         y="0"
         x="0"
         id="use16430"
         style="overflow:visible"
         xlink:href="#SVGID_9_-5" />
    </clipPath>
    <clipPath
       id="clipPath16436">
      <use
         height="100%"
         width="100%"
         y="0"
         x="0"
         id="use16434"
         style="overflow:visible"
         xlink:href="#SVGID_9_-5" />
    </clipPath>
    <clipPath
       id="SVGID_12_">
      <use
         height="100%"
         width="100%"
         y="0"
         x="0"
         id="use9335"
         style="overflow:visible"
         xlink:href="#SVGID_11_" />
    </clipPath>
    <path
       inkscape:connector-curvature="0"
       d="m 784.9,979.7 c 0,20.3 -16.4,36.7 -36.7,36.7 H 612.1 c -20.3,0 -36.7,-16.4 -36.7,-36.7 V 843.5 c 0,-20.3 16.4,-36.7 36.7,-36.7 h 136.2 c 20.3,0 36.7,16.4 36.7,36.7 v 136.2 z"
       id="SVGID_7_-3" />
    <path
       inkscape:connector-curvature="0"
       d="m 665.9,963.5 c 9.7,-0.9 21.1,-1.4 32.9,0.4 36,2.8 38.2,37.5 42.2,56.1 -38.8,0.3 -77.6,0.5 -116.4,0.8 0,-23 11.6,-54.7 41.3,-57.3 z"
       id="SVGID_9_-5" />
    <path
       inkscape:connector-curvature="0"
       d="m 696.5,953.1 -29.2,-0.8 c -0.1,0.4 1.5,17.2 2.2,19.3 1.2,2.8 6.4,22.8 12.4,22.9 6.2,0.1 13.3,-19.7 14.4,-23.8 z"
       id="SVGID_11_" />
    <clipPath
       id="SVGID_40_">
      <use
         xlink:href="#SVGID_39_"
         style="overflow:visible"
         id="use9938"
         x="0"
         y="0"
         width="100%"
         height="100%" />
    </clipPath>
    <path
       id="SVGID_39_"
       d="m 1036.4,979.7 c 0,20.3 -16.4,36.7 -36.7,36.7 H 863.6 c -20.3,0 -36.7,-16.4 -36.7,-36.7 V 843.5 c 0,-20.3 16.4,-36.7 36.7,-36.7 h 136.2 c 20.3,0 36.7,16.4 36.7,36.7 v 136.2 z"
       inkscape:connector-curvature="0" />
    <clipPath
       id="SVGID_60_">
      <use
         height="100%"
         width="100%"
         y="0"
         x="0"
         id="use10349"
         style="overflow:visible"
         xlink:href="#SVGID_59_" />
    </clipPath>
    <path
       inkscape:connector-curvature="0"
       d="m 1282.1,979.7 c 0,20.3 -16.4,36.7 -36.7,36.7 h -136.2 c -20.3,0 -36.7,-16.4 -36.7,-36.7 V 843.5 c 0,-20.3 16.4,-36.7 36.7,-36.7 h 136.2 c 20.3,0 36.7,16.4 36.7,36.7 z"
       id="SVGID_59_" />
    <clipPath
       id="SVGID_54_">
      <use
         height="100%"
         width="100%"
         y="0"
         x="0"
         id="use10240"
         style="overflow:visible"
         xlink:href="#SVGID_53_" />
    </clipPath>
    <path
       inkscape:connector-curvature="0"
       d="m 1525.5,979.7 c 0,20.3 -16.4,36.7 -36.7,36.7 h -136.2 c -20.3,0 -36.7,-16.4 -36.7,-36.7 V 843.5 c 0,-20.3 16.4,-36.7 36.7,-36.7 h 136.2 c 20.3,0 36.7,16.4 36.7,36.7 z"
       id="SVGID_53_" />
    <clipPath
       id="SVGID_24_">
      <use
         height="100%"
         width="100%"
         y="0"
         x="0"
         id="use9634"
         style="overflow:visible"
         xlink:href="#SVGID_23_" />
    </clipPath>
    <path
       inkscape:connector-curvature="0"
       d="m 290.2,1222.6 c 0,20.3 -16.4,36.7 -36.7,36.7 H 117.3 c -20.3,0 -36.7,-16.4 -36.7,-36.7 v -136.2 c 0,-20.3 16.4,-36.7 36.7,-36.7 h 136.2 c 20.3,0 36.7,16.4 36.7,36.7 z"
       id="SVGID_23_" />
    <clipPath
       id="SVGID_32_">
      <use
         height="100%"
         width="100%"
         y="0"
         x="0"
         id="use9795"
         style="overflow:visible"
         xlink:href="#SVGID_31_" />
    </clipPath>
    <clipPath
       id="SVGID_34_">
      <use
         height="100%"
         width="100%"
         y="0"
         x="0"
         id="use9823"
         style="overflow:visible"
         xlink:href="#SVGID_33_" />
    </clipPath>
    <clipPath
       id="clipPath17079">
      <use
         height="100%"
         width="100%"
         y="0"
         x="0"
         id="use17077"
         style="overflow:visible"
         xlink:href="#SVGID_33_" />
    </clipPath>
    <path
       inkscape:connector-curvature="0"
       d="m 535,1222.6 c 0,20.3 -16.4,36.7 -36.7,36.7 H 362.2 c -20.3,0 -36.7,-16.4 -36.7,-36.7 v -136.2 c 0,-20.3 16.4,-36.7 36.7,-36.7 h 136.2 c 20.3,0 36.7,16.4 36.7,36.7 v 136.2 z"
       id="SVGID_31_" />
    <path
       inkscape:connector-curvature="0"
       d="m 429.4,1171.2 c -1.2,-2.2 -29.1,-8.4 -34,15 -4.5,21 -15.7,19.1 -16.7,14.1 -0.7,-3.5 -0.7,-11.7 1.6,-16.8 -2.5,0 -20.8,-1.7 -21.2,1.2 -1.4,10.7 -0.4,21.5 9.6,28.4 12.5,8.6 31.2,-0.6 35.7,-16.3 5.3,-18.6 2.9,-25.6 21.8,-22.6 4.5,0.8 4.1,-1.5 3.2,-3 z"
       id="SVGID_33_" />
    <clipPath
       id="SVGID_14_-6">
      <use
         height="100%"
         width="100%"
         y="0"
         x="0"
         id="use9405"
         style="overflow:visible"
         xlink:href="#SVGID_13_-2" />
    </clipPath>
    <path
       inkscape:connector-curvature="0"
       d="m 784.9,1222.6 c 0,20.3 -16.4,36.7 -36.7,36.7 H 612.1 c -20.3,0 -36.7,-16.4 -36.7,-36.7 v -136.2 c 0,-20.3 16.4,-36.7 36.7,-36.7 h 136.2 c 20.3,0 36.7,16.4 36.7,36.7 v 136.2 z"
       id="SVGID_13_-2" />
    <clipPath
       id="SVGID_42_">
      <use
         xlink:href="#SVGID_41_"
         style="overflow:visible"
         id="use9976"
         x="0"
         y="0"
         width="100%"
         height="100%" />
    </clipPath>
    <path
       id="SVGID_41_"
       d="m 1036.4,1222.6 c 0,20.3 -16.4,36.7 -36.7,36.7 H 863.6 c -20.3,0 -36.7,-16.4 -36.7,-36.7 v -136.2 c 0,-20.3 16.4,-36.7 36.7,-36.7 h 136.2 c 20.3,0 36.7,16.4 36.7,36.7 v 136.2 z"
       inkscape:connector-curvature="0" />
    <clipPath
       id="SVGID_62_">
      <use
         height="100%"
         width="100%"
         y="0"
         x="0"
         id="use10407"
         style="overflow:visible"
         xlink:href="#SVGID_61_" />
    </clipPath>
    <path
       inkscape:connector-curvature="0"
       d="m 1282.1,1222.6 c 0,20.3 -16.4,36.7 -36.7,36.7 h -136.2 c -20.3,0 -36.7,-16.4 -36.7,-36.7 v -136.2 c 0,-20.3 16.4,-36.7 36.7,-36.7 h 136.2 c 20.3,0 36.7,16.4 36.7,36.7 z"
       id="SVGID_61_" />
    <clipPath
       id="SVGID_50_">
      <use
         height="100%"
         width="100%"
         y="0"
         x="0"
         id="use10178"
         style="overflow:visible"
         xlink:href="#SVGID_49_" />
    </clipPath>
    <clipPath
       id="SVGID_52_">
      <use
         height="100%"
         width="100%"
         y="0"
         x="0"
         id="use10214"
         style="overflow:visible"
         xlink:href="#SVGID_51_" />
    </clipPath>
    <clipPath
       id="clipPath17832">
      <use
         height="100%"
         width="100%"
         y="0"
         x="0"
         id="use17830"
         style="overflow:visible"
         xlink:href="#SVGID_51_" />
    </clipPath>
    <clipPath
       id="clipPath17836">
      <use
         height="100%"
         width="100%"
         y="0"
         x="0"
         id="use17834"
         style="overflow:visible"
         xlink:href="#SVGID_51_" />
    </clipPath>
    <path
       inkscape:connector-curvature="0"
       d="m 1525.5,1222.6 c 0,20.3 -16.4,36.7 -36.7,36.7 h -136.2 c -20.3,0 -36.7,-16.4 -36.7,-36.7 v -136.2 c 0,-20.3 16.4,-36.7 36.7,-36.7 h 136.2 c 20.3,0 36.7,16.4 36.7,36.7 z"
       id="SVGID_49_" />
    <path
       inkscape:connector-curvature="0"
       d="m 1422.7,1221 -3.6,1.3 c -0.3,0.5 -6.9,23 -6.2,24.8 0.9,2.5 7.9,9.3 8.7,9.3 1.7,0 10.4,-9.6 9.9,-10.7 z"
       id="SVGID_51_" />
    <clipPath
       id="SVGID_18_-9">
      <use
         height="100%"
         width="100%"
         y="0"
         x="0"
         id="use1282"
         style="overflow:visible"
         xlink:href="#SVGID_17_-1" />
    </clipPath>
    <path
       inkscape:connector-curvature="0"
       d="m 1268.8,480.6 c 0,19.9 -16.1,35.9 -35.9,35.9 h -133.3 c -19.9,0 -35.9,-16.1 -35.9,-35.9 V 347.3 c 0,-19.9 16.1,-35.9 35.9,-35.9 h 133.3 c 19.8,0 35.9,16.1 35.9,35.9 z"
       id="SVGID_17_-1" />
    <clipPath
       id="SVGID_26_-2">
      <use
         height="100%"
         width="100%"
         y="0"
         x="0"
         id="use1422"
         style="overflow:visible"
         xlink:href="#SVGID_25_-7" />
    </clipPath>
    <path
       inkscape:connector-curvature="0"
       d="m 1507.2,480.6 c 0,19.9 -16.1,35.9 -35.9,35.9 H 1338 c -19.9,0 -35.9,-16.1 -35.9,-35.9 V 347.3 c 0,-19.8 16.1,-35.9 35.9,-35.9 h 133.3 c 19.9,0 35.9,16.1 35.9,35.9 z"
       id="SVGID_25_-7" />
    <clipPath
       id="SVGID_4_-0">
      <use
         height="100%"
         width="100%"
         y="0"
         x="0"
         id="use1046"
         style="overflow:visible"
         xlink:href="#SVGID_3_-3" />
    </clipPath>
    <clipPath
       id="SVGID_6_-9">
      <use
         height="100%"
         width="100%"
         y="0"
         x="0"
         id="use1056"
         style="overflow:visible"
         xlink:href="#SVGID_5_-6" />
    </clipPath>
    <path
       inkscape:connector-curvature="0"
       d="m 297.5,717 c 0,19.9 -16.1,35.9 -35.9,35.9 H 128.2 C 108.4,752.9 92.3,736.8 92.3,717 V 583.7 c 0,-19.8 16.1,-35.9 35.9,-35.9 h 133.3 c 19.9,0 35.9,16.1 35.9,35.9 V 717 Z"
       id="SVGID_3_-3" />
    <path
       inkscape:connector-curvature="0"
       d="m 238.8,758.9 c -27.9,0 -55.9,0 -83.8,0 0,-8.8 0.6,-15.1 0.6,-24 0.4,-14.2 18.8,-18 30.9,-20.5 7.8,0.4 12.1,-0.4 19.9,0 16.6,1 27.2,8.2 31.8,21.2 0.1,7.8 0.4,15.5 0.6,23.3 z"
       id="SVGID_5_-6" />
    <clipPath
       id="SVGID_12_-0">
      <use
         height="100%"
         width="100%"
         y="0"
         x="0"
         id="use1150"
         style="overflow:visible"
         xlink:href="#SVGID_11_-6" />
    </clipPath>
    <path
       inkscape:connector-curvature="0"
       d="m 537.3,717 c 0,19.9 -16.1,35.9 -35.9,35.9 H 368 c -19.9,0 -35.9,-16.1 -35.9,-35.9 V 583.7 c 0,-19.8 16.1,-35.9 35.9,-35.9 h 133.3 c 19.9,0 35.9,16.1 35.9,35.9 V 717 Z"
       id="SVGID_11_-6" />
    <clipPath
       id="SVGID_16_-2">
      <use
         height="100%"
         width="100%"
         y="0"
         x="0"
         id="use1250"
         style="overflow:visible"
         xlink:href="#SVGID_15_-6" />
    </clipPath>
    <path
       inkscape:connector-curvature="0"
       d="m 782,717 c 0,19.9 -16.1,35.9 -35.9,35.9 H 612.7 c -19.8,0 -35.9,-16.1 -35.9,-35.9 V 583.7 c 0,-19.9 16.1,-35.9 35.9,-35.9 H 746 c 19.9,0 35.9,16.1 35.9,35.9 V 717 Z"
       id="SVGID_15_-6" />
    <clipPath
       id="SVGID_20_-7">
      <use
         height="100%"
         width="100%"
         y="0"
         x="0"
         id="use1318"
         style="overflow:visible"
         xlink:href="#SVGID_19_-9" />
    </clipPath>
    <path
       inkscape:connector-curvature="0"
       d="m 1268.8,717 c 0,19.9 -16.1,35.9 -35.9,35.9 h -133.3 c -19.8,0 -35.9,-16.1 -35.9,-35.9 V 583.7 c 0,-19.9 16.1,-35.9 35.9,-35.9 h 133.3 c 19.8,0 35.9,16.1 35.9,35.9 z"
       id="SVGID_19_-9" />
    <clipPath
       id="SVGID_28_-2">
      <use
         xlink:href="#SVGID_27_-0"
         style="overflow:visible"
         id="use1462"
         x="0"
         y="0"
         width="100%"
         height="100%" />
    </clipPath>
    <path
       id="SVGID_27_-0"
       d="m 1507.2,717 c 0,19.9 -16.1,35.9 -35.9,35.9 H 1338 c -19.8,0 -35.9,-16.1 -35.9,-35.9 V 583.7 c 0,-19.9 16.1,-35.9 35.9,-35.9 h 133.3 c 19.8,0 35.9,16.1 35.9,35.9 z"
       inkscape:connector-curvature="0" />
    <clipPath
       id="SVGID_30_-2">
      <use
         height="100%"
         width="100%"
         y="0"
         x="0"
         id="use1504"
         style="overflow:visible"
         xlink:href="#SVGID_29_-3" />
    </clipPath>
    <path
       inkscape:connector-curvature="0"
       d="m 297.5,954.9 c 0,19.9 -16.1,35.9 -35.9,35.9 H 128.2 c -19.9,0 -35.9,-16.1 -35.9,-35.9 V 821.6 c 0,-19.8 16.1,-35.9 35.9,-35.9 h 133.3 c 19.9,0 35.9,16.1 35.9,35.9 v 133.3 z"
       id="SVGID_29_-3" />
    <clipPath
       id="SVGID_32_-7">
      <use
         height="100%"
         width="100%"
         y="0"
         x="0"
         id="use1530"
         style="overflow:visible"
         xlink:href="#SVGID_31_-5" />
    </clipPath>
    <path
       inkscape:connector-curvature="0"
       d="m 537.3,954.9 c 0,19.8 -16.1,35.9 -35.9,35.9 H 368 c -19.9,0 -35.9,-16.1 -35.9,-35.9 V 821.6 c 0,-19.9 16.1,-35.9 35.9,-35.9 h 133.3 c 19.9,0 35.9,16.1 35.9,35.9 v 133.3 z"
       id="SVGID_31_-5" />
    <clipPath
       id="SVGID_34_-9">
      <use
         height="100%"
         width="100%"
         y="0"
         x="0"
         id="use1566"
         style="overflow:visible"
         xlink:href="#SVGID_33_-2" />
    </clipPath>
    <path
       inkscape:connector-curvature="0"
       d="m 782,954.8 c 0,19.9 -16.1,35.9 -35.9,35.9 H 612.7 c -19.9,0 -35.9,-16.1 -35.9,-35.9 V 821.5 c 0,-19.9 16.1,-35.9 35.9,-35.9 H 746 c 19.9,0 35.9,16.1 35.9,35.9 v 133.3 z"
       id="SVGID_33_-2" />
    <clipPath
       id="SVGID_40_-9">
      <use
         height="100%"
         width="100%"
         y="0"
         x="0"
         id="use1656"
         style="overflow:visible"
         xlink:href="#SVGID_39_-7" />
    </clipPath>
    <path
       inkscape:connector-curvature="0"
       d="m 1268.8,954.9 c 0,19.9 -16.1,35.9 -35.9,35.9 h -133.3 c -19.9,0 -35.9,-16.1 -35.9,-35.9 V 821.6 c 0,-19.9 16.1,-35.9 35.9,-35.9 h 133.3 c 19.8,0 35.9,16.1 35.9,35.9 z"
       id="SVGID_39_-7" />
    <clipPath
       id="SVGID_38_-3">
      <use
         height="100%"
         width="100%"
         y="0"
         x="0"
         id="use1634"
         style="overflow:visible"
         xlink:href="#SVGID_37_-6" />
    </clipPath>
    <path
       inkscape:connector-curvature="0"
       d="m 1507.2,954.9 c 0,19.9 -16.1,35.9 -35.9,35.9 H 1338 c -19.9,0 -35.9,-16.1 -35.9,-35.9 V 821.6 c 0,-19.8 16.1,-35.9 35.9,-35.9 h 133.3 c 19.9,0 35.9,16.1 35.9,35.9 z"
       id="SVGID_37_-6" />
    <clipPath
       id="SVGID_6_-1">
      <use
         height="100%"
         width="100%"
         y="0"
         x="0"
         id="use22716"
         style="overflow:visible"
         xlink:href="#SVGID_5_-2" />
    </clipPath>
    <path
       inkscape:connector-curvature="0"
       d="m 301.4,479 c 0,19.7 -16,35.7 -35.7,35.7 H 133.1 c -19.7,0 -35.7,-16 -35.7,-35.7 V 346.4 c 0,-19.7 16,-35.7 35.7,-35.7 h 132.6 c 19.7,0 35.7,16 35.7,35.7 z"
       id="SVGID_5_-2" />
    <clipPath
       id="SVGID_2_-9">
      <use
         height="100%"
         width="100%"
         y="0"
         x="0"
         id="use22552"
         style="overflow:visible"
         xlink:href="#SVGID_1_-3" />
    </clipPath>
    <path
       inkscape:connector-curvature="0"
       d="m 539.9,479 c 0,19.7 -16,35.7 -35.7,35.7 H 371.6 c -19.7,0 -35.7,-16 -35.7,-35.7 V 346.4 c 0,-19.7 16,-35.7 35.7,-35.7 h 132.6 c 19.7,0 35.7,16 35.7,35.7 z"
       id="SVGID_1_-3" />
    <clipPath
       id="SVGID_4_-1">
      <use
         height="100%"
         width="100%"
         y="0"
         x="0"
         id="use22632"
         style="overflow:visible"
         xlink:href="#SVGID_3_-9" />
    </clipPath>
    <path
       inkscape:connector-curvature="0"
       d="m 783.3,479 c 0,19.7 -16,35.7 -35.7,35.7 H 614.9 c -19.7,0 -35.7,-16 -35.7,-35.7 V 346.4 c 0,-19.7 16,-35.7 35.7,-35.7 h 132.6 c 19.7,0 35.7,16 35.7,35.7 V 479 Z"
       id="SVGID_3_-9" />
  </defs>
  <sodipodi:namedview
     id="base"
     pagecolor="#ffffff"
     bordercolor="#666666"
     borderopacity="1.0"
     inkscape:pageopacity="0.0"
     inkscape:pageshadow="2"
     inkscape:zoom="0.35"
     inkscape:cx="1488.8481"
     inkscape:cy="-627.26683"
     inkscape:document-units="mm"
     inkscape:current-layer="layer1"
     showgrid="false"
     fit-margin-top="0"
     fit-margin-left="0"
     fit-margin-right="0"
     fit-margin-bottom="0"
     inkscape:window-width="1920"
     inkscape:window-height="1052"
     inkscape:window-x="0"
     inkscape:window-y="0"
     inkscape:window-maximized="1" />
  <metadata
     id="metadata5">
    <rdf:RDF>
      <cc:Work
         rdf:about="">
        <dc:format>image/svg+xml</dc:format>
        <dc:type
           rdf:resource="http://purl.org/dc/dcmitype/StillImage" />
        <dc:title></dc:title>
      </cc:Work>
    </rdf:RDF>
  </metadata>
  <g
     inkscape:label="Layer 1"
     inkscape:groupmode="layer"
     id="layer1"
     transform="translate(423.93381,188.87208)">
    <g
       transform="matrix(0.26458333,0,0,0.26458333,-577.18047,-271.07812)"
       id="g25598">
      <path
         style="fill:#519696"
         inkscape:connector-curvature="0"
         id="path22525"
         d="m 783.3,479 c 0,19.7 -16,35.7 -35.7,35.7 H 614.9 c -19.7,0 -35.7,-16 -35.7,-35.7 V 346.4 c 0,-19.7 16,-35.7 35.7,-35.7 h 132.6 c 19.7,0 35.7,16 35.7,35.7 V 479 Z"
         class="st2" />
      <g
         id="g22711">
        <defs
           id="defs22630">
          <path
             inkscape:connector-curvature="0"
             d="m 783.3,479 c 0,19.7 -16,35.7 -35.7,35.7 H 614.9 c -19.7,0 -35.7,-16 -35.7,-35.7 V 346.4 c 0,-19.7 16,-35.7 35.7,-35.7 h 132.6 c 19.7,0 35.7,16 35.7,35.7 V 479 Z"
             id="path26404" />
        </defs>
        <clipPath
           id="clipPath26307">
          <use
             height="100%"
             width="100%"
             y="0"
             x="0"
             id="use26305"
             style="overflow:visible"
             xlink:href="#SVGID_3_-9" />
        </clipPath>
        <g
           id="g22709"
           clip-path="url(#SVGID_4_-1)"
           class="st22">
          <path
             style="fill:#8d581e"
             inkscape:connector-curvature="0"
             id="path22635"
             d="m 683.9,589.8 c -39.2,0 -71,-31.8 -71,-71 v -25.9 c 0,-39.2 31.8,-71 71,-71 v 0 c 39.2,0 71,31.8 71,71 v 25.9 c 0,39.2 -31.8,71 -71,71 z"
             class="st23" />
          <polygon
             style="fill:#b8b3aa"
             id="polygon22637"
             points="729.6,458.3 638.1,458.3 683.9,579.9 "
             class="st24" />
          <ellipse
             style="fill:#9e9891"
             id="ellipse22639"
             ry="37.299999"
             rx="37.200001"
             cy="451.29999"
             cx="683.90002"
             class="st25" />
          <path
             style="fill:#ac6d26"
             inkscape:connector-curvature="0"
             id="path22641"
             d="m 732.6,389 c 1.9,-1.7 3.4,-3.7 4.2,-5.3 5.7,-11.7 8.1,-25.1 9.1,-37.1 0.4,-5.4 0.3,-11.3 -3.1,-13.6 -3.4,-2.3 -9.9,-1.8 -14.6,1 l -16.8,10.2 c -4.6,2.8 -8.9,9.6 -9.5,15 l -0.3,3.2 h -35.4 l -0.3,-3.2 c -0.6,-5.4 -4.8,-12.1 -9.5,-15 L 639.6,334 c -4.6,-2.8 -11.2,-3.3 -14.6,-1 -3.4,2.3 -3.6,8.1 -3.1,13.6 1,12.1 3.4,25.4 9.1,37.1 0.8,1.7 2.4,3.6 4.2,5.3 -31.3,37.5 -31.3,37.5 -31.3,37.5 0,21 17.1,38.1 38.1,38.1 h 83.9 c 21,0 38.1,-17.1 38.1,-38.1 -0.1,-0.1 -0.1,-0.1 -31.4,-37.5 z"
             class="st26" />
          <path
             style="fill:#e5e2d8"
             inkscape:connector-curvature="0"
             id="path22643"
             d="m 714.1,444.5 h -60.4 c -9.7,0 -18.4,-4.4 -24.2,-11.3 -4.3,6.3 -6.7,13.4 -6.7,20.9 0,1.9 0.2,3.7 0.5,5.5 5.5,3.1 11.8,4.8 18.6,4.8 h 83.9 c 6.8,0 13.1,-1.8 18.6,-4.8 0.3,-1.8 0.5,-3.7 0.5,-5.5 0,-7.5 -2.4,-14.6 -6.7,-20.9 -5.8,6.9 -14.4,11.3 -24.1,11.3 z"
             class="st27" />
          <path
             style="fill:#92561e"
             inkscape:connector-curvature="0"
             id="path22645"
             d="m 683.9,403.5 c -1.6,-4.8 -5.4,-8.7 -10.1,-10.5 4.7,-1.8 8.5,-5.7 10.1,-10.5 1.6,4.8 5.4,8.7 10.1,10.5 -4.8,1.9 -8.5,5.7 -10.1,10.5 z"
             class="st28" />
          <path
             style="fill:#d1cfc5"
             inkscape:connector-curvature="0"
             id="path22647"
             d="m 699.7,468.2 c 0,3.8 -3,6.8 -6.8,6.8 h -18.1 c -3.8,0 -6.8,-3 -6.8,-6.8 v 0 c 0,-3.8 3,-6.8 6.8,-6.8 h 18.1 c 3.8,0 6.8,3.1 6.8,6.8 z"
             class="st29" />
          <circle
             style="fill:#92561e"
             id="circle22649"
             r="16.200001"
             cy="413.70001"
             cx="657.20001"
             class="st28" />
          <circle
             style="fill:#92561e"
             id="circle22651"
             r="16.200001"
             cy="413.70001"
             cx="710.59998"
             class="st28" />
          <path
             style="fill:#92561e"
             inkscape:connector-curvature="0"
             id="path22653"
             d="m 694.4,414.7 c -2.8,5.5 -6.5,8.8 -10.5,8.8 -4,0 -7.7,-3.4 -10.5,-8.8 h -9.8 v 43 c 0,6.3 5,11.4 11.3,11.4 H 693 c 6.2,0 11.3,-5.1 11.3,-11.4 v -43 z"
             class="st28" />
          <g
             id="g22659">
            <path
               style="fill:#333036"
               inkscape:connector-curvature="0"
               id="path22655"
               d="m 635.4,389.2 c 0.4,-0.6 0.8,-1.2 1.2,-1.8 -1.6,-1.5 -3,-3.2 -3.8,-4.7 -4.7,-9.7 -7.7,-22 -8.9,-36.4 -0.5,-6.4 0.2,-10.3 2.2,-11.6 1,-0.7 2.6,-1.1 4.5,-1.1 2.7,0 5.5,0.8 7.7,2.1 l 16.8,10.2 c 4.1,2.5 8,8.6 8.5,13.4 l 0.8,7.1 c 0.7,-0.2 1.4,-0.5 2.1,-0.7 l -0.7,-6.6 c -0.6,-5.4 -4.8,-12.1 -9.5,-15 l -16.8,-10.2 c -4.6,-2.8 -11.2,-3.3 -14.6,-1 -3.4,2.3 -3.6,8.1 -3.1,13.6 1,12.1 3.4,25.4 9.1,37.1 0.9,1.8 2.5,3.8 4.5,5.6 z"
               class="st17" />
            <path
               style="fill:#333036"
               inkscape:connector-curvature="0"
               id="path22657"
               d="m 742.8,332.9 c -3.4,-2.3 -9.9,-1.8 -14.6,1 l -16.8,10.2 c -4.6,2.8 -8.9,9.6 -9.5,15 l -0.8,7.4 c 0.7,0.2 1.4,0.5 2.1,0.8 l 0.8,-7.9 c 0.5,-4.8 4.4,-10.9 8.5,-13.4 l 16.8,-10.2 c 2.2,-1.4 5,-2.1 7.7,-2.1 1.9,0 3.5,0.4 4.5,1.1 2,1.3 2.7,5.2 2.2,11.6 -1.2,14.4 -4.2,26.6 -8.9,36.4 -1,2 -3,4.3 -5.3,6 0.4,0.6 0.8,1.2 1.1,1.8 2.7,-2 5,-4.7 6.1,-6.9 5.7,-11.7 8.1,-25.1 9.1,-37.1 0.5,-5.5 0.4,-11.4 -3,-13.7 z"
               class="st17" />
          </g>
          <path
             style="fill:#ac6d26"
             inkscape:connector-curvature="0"
             id="path22661"
             d="m 699.4,463 c 0.3,-2.6 0.4,-5.2 0.4,-8 0,-19.3 -7.2,-34.9 -16,-34.9 -8.8,0 -16,15.6 -16,34.9 0,2.7 0.1,5.4 0.4,8 z"
             class="st26" />
          <path
             style="fill:#e5e2d8"
             inkscape:connector-curvature="0"
             id="path22663"
             d="m 695.1,445.5 -3.2,3.2 c -4.4,4.4 -11.6,4.4 -16.1,0 l -3.2,-3.2 -9.2,9.2 v 3.4 c 0,6.3 5.1,11.4 11.4,11.4 H 693 c 6.3,0 11.4,-5.1 11.4,-11.4 v -3.4 z"
             class="st27" />
          <path
             style="fill:#333036"
             inkscape:connector-curvature="0"
             id="path22665"
             d="m 691.9,448.1 -3.1,-2.7 c -2.7,-2.4 -7.1,-2.4 -9.9,0 l -3.1,2.7 c -2.7,2.4 -2.7,6.4 0,8.8 l 3.1,2.7 c 2.7,2.4 7.1,2.4 9.9,0 l 3.1,-2.7 c 2.7,-2.5 2.7,-6.4 0,-8.8 z"
             class="st17" />
          <g
             id="g22671">
            <path
               style="fill:#b6ab82"
               inkscape:connector-curvature="0"
               id="path22667"
               d="m 664.1,419.3 c -2.4,0 -4.9,-0.6 -7.2,-1.8 -3.8,-1.9 -6.6,-5 -7.4,-8.2 l -0.4,-1.3 1.3,-0.5 c 1.1,-0.4 2.4,-0.6 3.7,-0.6 2.4,0 4.9,0.6 7.2,1.8 3.8,1.9 6.6,5 7.4,8.2 l 0.4,1.3 -1.3,0.5 c -1.1,0.4 -2.4,0.6 -3.7,0.6 0,0 0,0 0,0 z"
               class="st30" />
            <path
               style="fill:#333036"
               inkscape:connector-curvature="0"
               id="path22669"
               d="m 654.1,408.4 c 2,0 4.3,0.5 6.5,1.7 3.5,1.8 5.9,4.6 6.6,7.2 -0.9,0.4 -2,0.5 -3.2,0.5 -2,0 -4.3,-0.5 -6.5,-1.7 -3.5,-1.8 -5.9,-4.6 -6.6,-7.2 0.9,-0.3 2,-0.5 3.2,-0.5 m 0,-3 c -1.6,0 -3,0.2 -4.3,0.7 l -2.5,1 0.7,2.6 c 1,3.6 4,7 8.2,9.1 2.6,1.3 5.3,2 7.9,2 1.6,0 3,-0.2 4.3,-0.7 l 2.5,-1 -0.7,-2.6 c -1,-3.6 -4,-7 -8.2,-9.1 -2.6,-1.3 -5.3,-2 -7.9,-2 z"
               class="st17" />
          </g>
          <g
             id="g22677">
            <path
               style="fill:#b6ab82"
               inkscape:connector-curvature="0"
               id="path22673"
               d="m 703.7,419.3 c -1.4,0 -2.6,-0.2 -3.7,-0.6 l -1.3,-0.5 0.4,-1.3 c 0.9,-3.2 3.6,-6.2 7.4,-8.2 2.4,-1.2 4.9,-1.8 7.2,-1.8 1.4,0 2.6,0.2 3.7,0.6 l 1.3,0.5 -0.4,1.3 c -0.9,3.2 -3.6,6.2 -7.4,8.2 -2.4,1.2 -4.9,1.8 -7.2,1.8 z"
               class="st30" />
            <path
               style="fill:#333036"
               inkscape:connector-curvature="0"
               id="path22675"
               d="m 713.7,408.4 c 1.2,0 2.3,0.2 3.2,0.5 -0.7,2.6 -3.1,5.4 -6.6,7.2 -2.2,1.1 -4.5,1.7 -6.5,1.7 -1.2,0 -2.3,-0.2 -3.2,-0.5 0.7,-2.6 3.1,-5.4 6.6,-7.2 2.1,-1.2 4.4,-1.7 6.5,-1.7 m 0,-3 v 0 c -2.6,0 -5.3,0.7 -7.9,2 -4.2,2.1 -7.2,5.5 -8.2,9.1 l -0.7,2.6 2.5,1 c 1.3,0.5 2.7,0.7 4.3,0.7 2.6,0 5.3,-0.7 7.9,-2 4.2,-2.1 7.2,-5.5 8.2,-9.1 l 0.7,-2.6 -2.5,-1 c -1.4,-0.5 -2.8,-0.7 -4.3,-0.7 z"
               class="st17" />
          </g>
          <g
             id="g22683">
            <circle
               style="fill:#333036"
               id="circle22679"
               r="4.3000002"
               cy="411.70001"
               cx="659.29999"
               class="st17" />
            <circle
               style="fill:#333036"
               id="circle22681"
               r="4.3000002"
               cy="411.70001"
               cx="708.40002"
               class="st17" />
          </g>
          <g
             id="g22689">
            <rect
               style="fill:#333036"
               id="rect22685"
               height="3"
               width="7.4000001"
               class="st17"
               transform="matrix(0.91,0.4146,-0.4146,0.91,226.8652,-231.4949)"
               y="405.29999"
               x="643" />
            <rect
               style="fill:#333036"
               id="rect22687"
               height="3"
               width="7.4000001"
               class="st17"
               transform="matrix(-0.91,0.4146,-0.4146,-0.91,1545.866,478.185)"
               y="405.29999"
               x="717.29999" />
          </g>
          <g
             id="g22695">
            <path
               style="fill:#b6ab82"
               inkscape:connector-curvature="0"
               id="path22691"
               d="m 712,410.2 c 0,0.8 -0.6,1.4 -1.4,1.4 -0.8,0 -1.4,-0.6 -1.4,-1.4 0,-0.8 0.6,-1.4 1.4,-1.4 0.7,0 1.4,0.6 1.4,1.4 z"
               class="st30" />
            <path
               style="fill:#b6ab82"
               inkscape:connector-curvature="0"
               id="path22693"
               d="m 658.6,410.2 c 0,0.8 -0.6,1.4 -1.4,1.4 -0.8,0 -1.4,-0.6 -1.4,-1.4 0,-0.8 0.6,-1.4 1.4,-1.4 0.7,0 1.4,0.6 1.4,1.4 z"
               class="st30" />
          </g>
          <path
             style="fill:#b8b3aa"
             inkscape:connector-curvature="0"
             id="path22697"
             d="m 638.3,386.1 24.1,-18.2 -0.9,-8.3 c -0.4,-4.1 -3.9,-9.6 -7.5,-11.8 l -16.8,-10.2 c -1.9,-1.2 -4.3,-1.8 -6.6,-1.8 -1.4,0 -2.7,0.3 -3.3,0.7 -0.3,0.2 -1.9,1.7 -1.3,9.7 1.2,14.1 4.1,26.1 8.7,35.6 0.7,1.4 2.1,2.9 3.6,4.3 z"
             class="st24" />
          <path
             style="fill:#b8b3aa"
             inkscape:connector-curvature="0"
             id="path22699"
             d="m 729.4,386.1 -24.1,-18.2 0.9,-8.3 c 0.4,-4.1 3.9,-9.6 7.5,-11.8 l 16.8,-10.2 c 1.9,-1.2 4.3,-1.8 6.6,-1.8 1.4,0 2.7,0.3 3.3,0.7 0.3,0.2 1.9,1.7 1.3,9.7 -1.2,14.1 -4.1,26.1 -8.7,35.6 -0.7,1.4 -2.1,2.9 -3.6,4.3 z"
             class="st24" />
          <polygon
             style="fill:#333036"
             id="polygon22701"
             points="644.2,355.3 629.3,343.1 629.3,348.1 636.4,356.1 636.4,368.5 651.6,376 651.6,371.6 643.2,366.7 "
             class="st17" />
          <polygon
             style="fill:#333036"
             id="polygon22703"
             points="723.5,355.3 738.5,343.1 738.5,348.1 731.4,356.1 731.4,368.5 716.2,376 716.2,371.6 724.5,366.7 "
             class="st17" />
          <path
             style="fill:#333036"
             inkscape:connector-curvature="0"
             id="path22705"
             d="m 671.5,468.9 c 0,0 0.4,0 1.1,0.1 0.3,0.1 0.8,0.1 1.2,0.2 0.5,0.1 1,0.2 1.6,0.2 0.6,0.1 1.2,0.1 1.9,0.2 0.7,0.1 1.4,0.1 2.1,0.2 0.7,0.1 1.5,0.1 2.2,0.1 0.8,0 1.5,0 2.3,0.1 0.8,0 1.5,0 2.3,-0.1 0.4,0 0.8,0 1.1,0 0.4,0 0.7,-0.1 1.1,-0.1 0.7,-0.1 1.4,-0.1 2.1,-0.2 0.7,-0.1 1.3,-0.2 1.9,-0.2 0.6,-0.1 1.1,-0.1 1.6,-0.2 0.5,-0.1 0.9,-0.2 1.2,-0.2 0.7,-0.1 1.1,-0.1 1.1,-0.1 0,0 -0.4,0.2 -1,0.5 -0.3,0.2 -0.7,0.4 -1.2,0.6 -0.2,0.1 -0.5,0.2 -0.7,0.3 -0.3,0.1 -0.5,0.2 -0.8,0.3 -0.6,0.2 -1.2,0.4 -1.9,0.6 -0.7,0.2 -1.4,0.3 -2.1,0.5 -0.8,0.1 -1.5,0.3 -2.3,0.3 -0.8,0 -1.6,0.1 -2.4,0.1 -0.8,0 -1.6,-0.1 -2.4,-0.1 -0.8,0 -1.6,-0.2 -2.3,-0.3 -0.7,-0.1 -1.5,-0.3 -2.1,-0.5 -0.7,-0.2 -1.3,-0.4 -1.9,-0.6 -0.3,-0.1 -0.6,-0.2 -0.8,-0.3 -0.3,-0.1 -0.5,-0.2 -0.7,-0.3 -0.4,-0.2 -0.8,-0.4 -1.2,-0.6 -0.7,-0.3 -1,-0.5 -1,-0.5 z"
             class="st17" />
          <path
             style="fill:#514f59"
             inkscape:connector-curvature="0"
             id="path22707"
             d="m 689.5,450.1 c 0,1.3 -1.1,2.4 -2.4,2.4 h -6.6 c -1.3,0 -2.4,-1.1 -2.4,-2.4 v 0 c 0,-1.3 1.1,-2.4 2.4,-2.4 h 6.6 c 1.4,0.1 2.4,1.1 2.4,2.4 z"
             class="st21" />
        </g>
      </g>
    </g>
  </g>
</svg>
