<?xml version="1.0" encoding="UTF-8" standalone="no"?>
<svg
   xmlns:dc="http://purl.org/dc/elements/1.1/"
   xmlns:cc="http://creativecommons.org/ns#"
   xmlns:rdf="http://www.w3.org/1999/02/22-rdf-syntax-ns#"
   xmlns:svg="http://www.w3.org/2000/svg"
   xmlns="http://www.w3.org/2000/svg"
   xmlns:xlink="http://www.w3.org/1999/xlink"
   id="svg8"
   version="1.1"
   viewBox="0 0 55.456665 55.456665"
   height="55.456665mm"
   width="55.456665mm">
  <defs
     id="defs2">
    <clipPath
       id="clipPath2444"
       clipPathUnits="userSpaceOnUse">
      <path
         id="path2442"
         d="m 87.298,2047.988 c -12.367,0 -22.391,-10.024 -22.391,-22.389 v 0 -83.06 c 0,-12.367 10.024,-22.39 22.391,-22.39 v 0 h 83.058 c 12.367,0 22.391,10.023 22.391,22.39 v 0 83.06 c 0,12.365 -10.024,22.389 -22.391,22.389 v 0 z" />
    </clipPath>
    <clipPath
       id="SVGID_14_">
      <use
         xlink:href="#SVGID_13_"
         style="overflow:visible"
         id="use1204"
         x="0"
         y="0"
         width="100%"
         height="100%" />
    </clipPath>
    <path
       id="SVGID_13_"
       d="m 694.5,450.6 -28.3,-1.2 c -0.1,0.5 2.2,16.4 2.9,19.5 1.2,4.2 6.1,37.5 11.8,37.8 6.1,0.3 9.8,-33.2 10.9,-39.5 z" />
    <clipPath
       id="SVGID_8_">
      <use
         xlink:href="#SVGID_7_"
         style="overflow:visible"
         id="use1110"
         x="0"
         y="0"
         width="100%"
         height="100%" />
    </clipPath>
    <clipPath
       id="SVGID_10_">
      <use
         xlink:href="#SVGID_9_"
         style="overflow:visible"
         id="use1120"
         x="0"
         y="0"
         width="100%"
         height="100%" />
    </clipPath>
    <path
       id="SVGID_7_"
       d="m 537.3,480.6 c 0,19.8 -16.1,35.9 -35.9,35.9 H 368 c -19.9,0 -35.9,-16.1 -35.9,-35.9 V 347.3 c 0,-19.9 16.1,-35.9 35.9,-35.9 h 133.3 c 19.9,0 35.9,16.1 35.9,35.9 v 133.3 z" />
    <path
       id="SVGID_9_"
       d="M 448.4,448.5 429.6,447 c -0.1,0.6 1,32.1 1.4,35.9 1.6,10.6 15.8,13.4 17.2,-1.7 z" />
    <clipPath
       id="SVGID_22_">
      <use
         xlink:href="#SVGID_21_"
         style="overflow:visible"
         id="use1352"
         x="0"
         y="0"
         width="100%"
         height="100%" />
    </clipPath>
    <path
       id="SVGID_21_"
       d="m 1031.6,480.6 c 0,19.9 -16.1,35.9 -35.9,35.9 H 862.4 c -19.9,0 -35.9,-16.1 -35.9,-35.9 V 347.3 c 0,-19.9 16.1,-35.9 35.9,-35.9 h 133.3 c 19.9,0 35.9,16.1 35.9,35.9 z" />
    <clipPath
       id="SVGID_16_">
      <use
         height="100%"
         width="100%"
         y="0"
         x="0"
         id="use9459"
         style="overflow:visible"
         xlink:href="#SVGID_15_" />
    </clipPath>
    <path
       d="m 290.2,497 c 0,20.3 -16.4,36.7 -36.7,36.7 H 117.3 C 97,533.7 80.6,517.3 80.6,497 V 360.8 c 0,-20.3 16.4,-36.7 36.7,-36.7 h 136.2 c 20.3,0 36.7,16.4 36.7,36.7 z"
       id="SVGID_15_" />
    <clipPath
       id="SVGID_26_">
      <use
         xlink:href="#SVGID_25_"
         style="overflow:visible"
         id="use9668"
         x="0"
         y="0"
         width="100%"
         height="100%" />
    </clipPath>
    <path
       id="SVGID_25_"
       d="m 535,497 c 0,20.3 -16.4,36.7 -36.7,36.7 H 362.2 c -20.3,0 -36.7,-16.4 -36.7,-36.7 V 360.8 c 0,-20.3 16.4,-36.7 36.7,-36.7 h 136.2 c 20.3,0 36.7,16.4 36.7,36.7 V 497 Z" />
  </defs>
  <metadata
     id="metadata5">
    <rdf:RDF>
      <cc:Work
         rdf:about="">
        <dc:format>image/svg+xml</dc:format>
        <dc:type
           rdf:resource="http://purl.org/dc/dcmitype/StillImage" />
        <dc:title></dc:title>
      </cc:Work>
    </rdf:RDF>
  </metadata>
  <g
     transform="translate(-253.31826,-186.28445)"
     id="layer1">
    <g
       id="g9709"
       transform="matrix(0.26458333,0,0,0.26458333,167.19639,100.53299)">
      <path
         class="st61"
         d="m 535,497 c 0,20.3 -16.4,36.7 -36.7,36.7 H 362.2 c -20.3,0 -36.7,-16.4 -36.7,-36.7 V 360.8 c 0,-20.3 16.4,-36.7 36.7,-36.7 h 136.2 c 20.3,0 36.7,16.4 36.7,36.7 V 497 Z"
         id="path9663"
         style="fill:#cdd1d0" />
      <g
         id="g9707">
        <defs
           id="defs9666">
          <path
             id="path13846"
             d="m 535,497 c 0,20.3 -16.4,36.7 -36.7,36.7 H 362.2 c -20.3,0 -36.7,-16.4 -36.7,-36.7 V 360.8 c 0,-20.3 16.4,-36.7 36.7,-36.7 h 136.2 c 20.3,0 36.7,16.4 36.7,36.7 V 497 Z" />
        </defs>
        <clipPath
           id="clipPath13789">
          <use
             xlink:href="#SVGID_25_"
             style="overflow:visible"
             id="use13787"
             x="0"
             y="0"
             width="100%"
             height="100%" />
        </clipPath>
        <g
           class="st62"
           clip-path="url(#SVGID_26_)"
           id="g9705">
          <path
             class="st43"
             d="m 415,477.8 c 9.5,-0.8 21.2,-3.1 32.3,0.3 33.8,10.6 42.8,41.7 46.7,58.2 -38.1,0.2 -84.2,-0.2 -122.3,0 C 371.6,516 393.8,485 415,477.8 Z"
             id="path9671"
             style="clip-rule:evenodd;fill:#3d3c3a;fill-rule:evenodd" />
          <g
             id="g9689">
            <path
               class="st44"
               d="m 431.4,533.1 13.7,-45.2 c 1,3 15.8,10 13.7,12.2 -1.9,2 -4.8,3.6 -4.3,4.4 0.9,1.5 6.6,3.1 10,5.8 1.6,1.3 -19.7,23.5 -32.1,25.4 l -1.3,0.7 z"
               id="path9673"
               style="clip-rule:evenodd;fill:#191919;fill-rule:evenodd" />
            <path
               class="st44"
               d="M 430.8,533.1 417,487.9 c -1,3 -15.9,10 -13.7,12.2 2,2 4.8,3.6 4.3,4.4 -0.9,1.5 -6.7,3.1 -10.1,5.8 -1.6,1.3 19.9,23.5 32.3,25.4 l 1.3,0.7 z"
               id="path9675"
               style="clip-rule:evenodd;fill:#191919;fill-rule:evenodd" />
            <path
               class="st27"
               d="M 436.6,493.5 415,491.1 c 1.2,14.1 0.5,27.9 14.1,40.6 1.7,1.5 1.1,2 2.6,1.4 4.4,-1.8 6.8,-5.6 9.9,-9.6 1.2,-1.5 4.9,-14.8 6.2,-29.6 z"
               id="path9677"
               style="clip-rule:evenodd;fill:#ffffff;fill-rule:evenodd" />
            <path
               class="st24"
               d="m 437.4,492.7 -12.5,0.2 c 0.4,3.8 5.1,20.3 10.6,5.2 0.5,-1.7 1.9,-3.8 1.9,-5.4 z"
               id="path9679"
               style="clip-rule:evenodd;fill:#010002;fill-rule:evenodd" />
            <path
               class="st63"
               d="m 444,488 -11.8,5.5 c 1.6,1.8 11.1,10.2 11.1,10.1 1.8,-2.8 11,-16.2 0.7,-15.6 z"
               id="path9681"
               style="clip-rule:evenodd;fill:#cbcbcb;fill-rule:evenodd" />
            <path
               class="st63"
               d="m 418.9,487 11.8,5.5 c -1.6,1.8 -11.1,10.2 -11.1,10.2 -1.7,-3 -10.9,-16.3 -0.7,-15.7 z"
               id="path9683"
               style="clip-rule:evenodd;fill:#cbcbcb;fill-rule:evenodd" />
            <path
               class="st47"
               d="m 445.8,471.1 -28.6,-0.8 c -0.1,0.3 1.5,16.9 2.2,18.9 2.4,5.6 24.1,7.1 26.3,-0.9 z"
               id="path9685"
               style="clip-rule:evenodd;fill:#cca263;fill-rule:evenodd" />
            <path
               class="st24"
               d="m 432.4,501.6 -3.6,1.2 c -0.3,0.5 -6.9,21.4 -6.2,23.1 0.9,2.3 7.8,8.6 8.7,8.6 1.7,0 10.3,-8.9 9.9,-9.9 z"
               id="path9687"
               style="clip-rule:evenodd;fill:#010002;fill-rule:evenodd" />
          </g>
          <g
             id="g9703">
            <path
               class="st7"
               d="m 392.3,398.9 c 0,0 -4,15.4 -1.1,19.7 3,4.3 7.5,34.3 8.7,36.5 1.1,2.2 29.7,16.4 30.8,15.8 1.1,-0.6 20.9,-4.7 20.9,-4.7 l 6.1,-7.9 8.7,-31 -1.2,-11 c 0,0 4.6,-17.4 4.6,-22.1 0,-4.7 -4.2,-17.7 -6.9,-18 -2.7,-0.3 -21.7,1.3 -23.2,1.6 -1.4,0.2 -47.4,21.1 -47.4,21.1 z"
               id="path9691"
               style="fill:#f0d6ac" />
            <path
               class="st7"
               d="m 390.6,428.3 c 0,0 -5,2.6 -6,-4.6 -1,-7.2 -3.3,-18.4 4.5,-17.5 7.8,1 7.4,12.1 7.4,12.1 z"
               id="path9693"
               style="fill:#f0d6ac" />
            <path
               class="st7"
               d="m 467.7,427.6 c 0,0 5.1,2.6 5.9,-4.5 0.8,-7.2 2.9,-18.4 -4.9,-17.5 -7.8,0.9 -7.1,12 -7.1,12 z"
               id="path9695"
               style="fill:#f0d6ac" />
            <path
               class="st48"
               d="m 472.1,439.5 c 1.5,-5.9 -0.9,-7.5 -0.1,-9.8 0.8,-2.2 -2.7,-8.6 -3.5,-11.1 -0.8,-2.5 -3.2,-2.4 -3.2,-2.4 0,0 -2.5,12.1 -2.9,14.7 -1.5,9.4 -12.4,17.9 -13.2,15 -1.8,-6.6 -16.7,-7.2 -18.7,-4.9 -6,-2.1 -17.8,-1.7 -19.6,4.9 -0.8,2.9 -11.7,-5.6 -13.2,-15 -0.4,-2.7 -2.9,-14.7 -2.9,-14.7 0,0 -2.4,-0.1 -3.2,2.4 -0.8,2.5 -4.3,8.9 -3.5,11.1 0.8,2.2 -1.6,3.8 -0.1,9.8 1.5,5.9 -1.1,8 -0.5,10.4 0.6,2.4 2.1,13.1 6.6,19.9 4.4,6.7 5,14.9 11.2,17.9 6.2,3 16.7,6.3 17.9,7.9 1.2,1.6 5.6,3 6.5,4.7 0.1,0.2 0.2,-0.3 0.3,-1.4 0.1,1.1 0.2,1.6 0.3,1.4 0.9,-1.7 5.3,-3.1 6.5,-4.7 1.2,-1.6 11.7,-5 17.9,-7.9 6.2,-3 6.8,-11.2 11.2,-17.9 4.4,-6.7 5.9,-17.5 6.5,-19.9 0.8,-2.3 -1.8,-4.5 -0.3,-10.4 z m -29.3,14.8 c -1.1,2 -9.4,1.8 -12.7,0.7 -3.3,1.1 -11.7,1.3 -12.7,-0.7 -1.1,-2 -2,-3.6 1.9,-5.8 2,-1.1 7.2,-3.3 10.8,-3.7 3.6,0.4 8.9,2.6 10.9,3.7 3.9,2.2 2.9,3.9 1.8,5.8 z"
               id="path9697"
               style="fill:#211915" />
            <path
               class="st64"
               d="m 469.7,406.6 c 0,0 -2.8,0.2 -6.7,-1 -3.9,-1.2 -6.5,-1.7 -12.6,-1.8 -6.1,-0.1 -13.9,4 -14.3,4.3 -0.7,-1.2 -2.9,-1.8 -5.2,-1.8 -2.2,0 -4.4,0.5 -5.1,1.8 -0.4,-0.3 -8.2,-4.4 -14.3,-4.3 -6.1,0.1 -8.7,0.6 -12.6,1.8 -3.9,1.2 -6.7,1 -6.7,1 -0.2,2.3 0.5,3.8 1.7,4.6 1.2,0.8 1.6,3 2,5.6 0.9,9.3 11.7,10 11.7,10 0,0 9.7,1.5 14.7,-3.1 6.7,-5.6 4.5,-11.9 4.2,-12.2 -0.2,-0.4 -0.2,-1.2 0.3,-2 1.2,-1.4 2.8,-1.8 4.1,-1.8 1.4,0 3,0.4 4.1,1.8 0.4,0.8 0.5,1.7 0.3,2 -0.3,0.3 -2.5,6.6 4.2,12.2 5,4.6 14.7,3.1 14.7,3.1 0,0 10.8,-0.7 11.7,-10 0.3,-2.6 0.8,-4.8 2,-5.6 1.3,-0.8 2,-2.4 1.8,-4.6 z m -74.8,2.9 c -0.8,0 -0.6,-1.2 -0.8,-1.3 l 1.3,-0.2 c 0,0 0.3,1.5 -0.5,1.5 z m 26.9,12.4 c -3.9,4.2 -14.1,5.1 -20.7,1.1 -3.6,-2.2 -4.2,-9.1 -4,-10.4 0.2,-1.9 2,-7.3 13.7,-7.4 0,0 6.9,-0.5 11.7,3.3 3.1,2.6 3.1,9.3 -0.7,13.4 z m 39.1,1.1 c -6.7,4 -16.8,3.1 -20.7,-1.1 -3.8,-4.1 -3.8,-10.8 -0.6,-13.4 4.7,-3.8 11.7,-3.3 11.7,-3.3 11.7,0.1 13.5,5.5 13.7,7.4 0.1,1.3 -0.2,8.1 -4.1,10.4 z m 6.1,-13.5 c -0.8,0 -0.5,-1.5 -0.5,-1.5 l 1.3,0.2 c -0.2,0 0,1.3 -0.8,1.3 z"
               id="path9699"
               style="fill:#911718" />
            <path
               class="st48"
               d="m 435,398.2 c -12.1,3.8 -24.2,3.9 -24.2,3.9 l 1.8,-2.8 -13.2,5.3 -2.6,-3.5 c -4,1.9 -5.5,17.5 -5.5,17.5 L 389,406 c 0,0 -4.7,1.9 -3.6,0.7 1,-1.2 0.3,-10.6 0.3,-10.6 H 379 c 0,0 5.4,-3.6 3.6,-14.5 -1.8,-10.9 16.1,-26.5 23.6,-31.6 7.5,-5.1 30.5,-7 36.8,-4.2 l 1.1,0.5 c 0,0 -1.1,-4.7 -4.2,-5 -3.1,-0.3 6.7,-0.4 7.2,5 0.5,5.4 4.4,-0.9 9.3,-1.7 4.9,-0.9 4.2,0.3 4.2,0.3 0,0 -8,2.3 -6,3.6 0,0 8.1,0.9 12.1,5.7 3.9,4.8 9.3,14.5 10.8,14.7 1.5,0.2 -3.9,0 -3.9,0 0,0 2.8,1.9 3.4,7.7 0.6,5.8 -5.2,21.7 -6.4,23.5 -1.2,1.8 -2.9,4.7 -2.9,4.7 0,0 -2.1,-2 -1.9,-6.9 0.3,-4.9 -2.7,-9.2 -2.7,-9.2 0,0 -5.9,5 -17,8.8 -9.3,3.2 -12.6,3.7 -16.2,3.5"
               id="path9701"
               style="fill:#211915" />
          </g>
        </g>
      </g>
    </g>
  </g>
</svg>
