<?xml version="1.0" encoding="UTF-8" standalone="no"?>
<svg
   xmlns:dc="http://purl.org/dc/elements/1.1/"
   xmlns:cc="http://creativecommons.org/ns#"
   xmlns:rdf="http://www.w3.org/1999/02/22-rdf-syntax-ns#"
   xmlns:svg="http://www.w3.org/2000/svg"
   xmlns="http://www.w3.org/2000/svg"
   xmlns:xlink="http://www.w3.org/1999/xlink"
   id="svg8"
   version="1.1"
   viewBox="0 0 55.456665 55.456665"
   height="55.456665mm"
   width="55.456665mm">
  <defs
     id="defs2">
    <clipPath
       id="clipPath2444"
       clipPathUnits="userSpaceOnUse">
      <path
         id="path2442"
         d="m 87.298,2047.988 c -12.367,0 -22.391,-10.024 -22.391,-22.389 v 0 -83.06 c 0,-12.367 10.024,-22.39 22.391,-22.39 v 0 h 83.058 c 12.367,0 22.391,10.023 22.391,22.39 v 0 83.06 c 0,12.365 -10.024,22.389 -22.391,22.389 v 0 z" />
    </clipPath>
    <clipPath
       id="SVGID_14_">
      <use
         xlink:href="#SVGID_13_"
         style="overflow:visible"
         id="use1204"
         x="0"
         y="0"
         width="100%"
         height="100%" />
    </clipPath>
    <path
       id="SVGID_13_"
       d="m 694.5,450.6 -28.3,-1.2 c -0.1,0.5 2.2,16.4 2.9,19.5 1.2,4.2 6.1,37.5 11.8,37.8 6.1,0.3 9.8,-33.2 10.9,-39.5 z" />
    <clipPath
       id="SVGID_8_">
      <use
         xlink:href="#SVGID_7_"
         style="overflow:visible"
         id="use1110"
         x="0"
         y="0"
         width="100%"
         height="100%" />
    </clipPath>
    <clipPath
       id="SVGID_10_">
      <use
         xlink:href="#SVGID_9_"
         style="overflow:visible"
         id="use1120"
         x="0"
         y="0"
         width="100%"
         height="100%" />
    </clipPath>
    <path
       id="SVGID_7_"
       d="m 537.3,480.6 c 0,19.8 -16.1,35.9 -35.9,35.9 H 368 c -19.9,0 -35.9,-16.1 -35.9,-35.9 V 347.3 c 0,-19.9 16.1,-35.9 35.9,-35.9 h 133.3 c 19.9,0 35.9,16.1 35.9,35.9 v 133.3 z" />
    <path
       id="SVGID_9_"
       d="M 448.4,448.5 429.6,447 c -0.1,0.6 1,32.1 1.4,35.9 1.6,10.6 15.8,13.4 17.2,-1.7 z" />
    <clipPath
       id="SVGID_22_">
      <use
         xlink:href="#SVGID_21_"
         style="overflow:visible"
         id="use1352"
         x="0"
         y="0"
         width="100%"
         height="100%" />
    </clipPath>
    <path
       id="SVGID_21_"
       d="m 1031.6,480.6 c 0,19.9 -16.1,35.9 -35.9,35.9 H 862.4 c -19.9,0 -35.9,-16.1 -35.9,-35.9 V 347.3 c 0,-19.9 16.1,-35.9 35.9,-35.9 h 133.3 c 19.9,0 35.9,16.1 35.9,35.9 z" />
    <clipPath
       id="SVGID_16_">
      <use
         height="100%"
         width="100%"
         y="0"
         x="0"
         id="use9459"
         style="overflow:visible"
         xlink:href="#SVGID_15_" />
    </clipPath>
    <path
       d="m 290.2,497 c 0,20.3 -16.4,36.7 -36.7,36.7 H 117.3 C 97,533.7 80.6,517.3 80.6,497 V 360.8 c 0,-20.3 16.4,-36.7 36.7,-36.7 h 136.2 c 20.3,0 36.7,16.4 36.7,36.7 z"
       id="SVGID_15_" />
    <clipPath
       id="SVGID_26_">
      <use
         xlink:href="#SVGID_25_"
         style="overflow:visible"
         id="use9668"
         x="0"
         y="0"
         width="100%"
         height="100%" />
    </clipPath>
    <path
       id="SVGID_25_"
       d="m 535,497 c 0,20.3 -16.4,36.7 -36.7,36.7 H 362.2 c -20.3,0 -36.7,-16.4 -36.7,-36.7 V 360.8 c 0,-20.3 16.4,-36.7 36.7,-36.7 h 136.2 c 20.3,0 36.7,16.4 36.7,36.7 V 497 Z" />
    <clipPath
       id="SVGID_2_">
      <use
         xlink:href="#SVGID_1_"
         style="overflow:visible"
         id="use9226"
         x="0"
         y="0"
         width="100%"
         height="100%" />
    </clipPath>
    <clipPath
       id="SVGID_4_">
      <use
         xlink:href="#SVGID_3_"
         style="overflow:visible"
         id="use9232"
         x="0"
         y="0"
         width="100%"
         height="100%" />
    </clipPath>
    <clipPath
       id="clipPath14027">
      <use
         xlink:href="#SVGID_3_"
         style="overflow:visible"
         id="use14025"
         x="0"
         y="0"
         width="100%"
         height="100%" />
    </clipPath>
    <clipPath
       id="clipPath14031">
      <use
         xlink:href="#SVGID_3_"
         style="overflow:visible"
         id="use14029"
         x="0"
         y="0"
         width="100%"
         height="100%" />
    </clipPath>
    <clipPath
       id="clipPath14035">
      <use
         xlink:href="#SVGID_3_"
         style="overflow:visible"
         id="use14033"
         x="0"
         y="0"
         width="100%"
         height="100%" />
    </clipPath>
    <clipPath
       id="clipPath14039">
      <use
         xlink:href="#SVGID_3_"
         style="overflow:visible"
         id="use14037"
         x="0"
         y="0"
         width="100%"
         height="100%" />
    </clipPath>
    <clipPath
       id="clipPath14043">
      <use
         xlink:href="#SVGID_3_"
         style="overflow:visible"
         id="use14041"
         x="0"
         y="0"
         width="100%"
         height="100%" />
    </clipPath>
    <clipPath
       id="clipPath14047">
      <use
         xlink:href="#SVGID_3_"
         style="overflow:visible"
         id="use14045"
         x="0"
         y="0"
         width="100%"
         height="100%" />
    </clipPath>
    <path
       id="SVGID_1_"
       d="m 784.9,497 c 0,20.3 -16.4,36.7 -36.7,36.7 H 612.1 c -20.3,0 -36.7,-16.4 -36.7,-36.7 V 360.8 c 0,-20.3 16.4,-36.7 36.7,-36.7 h 136.2 c 20.3,0 36.7,16.4 36.7,36.7 V 497 Z" />
    <path
       id="SVGID_3_"
       d="m 662.6,470.7 c 10.9,-1 23.8,-1.6 37.1,0.4 40.5,3.2 43.1,43.5 47.5,65.1 -45.4,0.3 -89,0.6 -131.1,0.9 0,-26.5 13.1,-63.4 46.5,-66.4 z" />
  </defs>
  <metadata
     id="metadata5">
    <rdf:RDF>
      <cc:Work
         rdf:about="">
        <dc:format>image/svg+xml</dc:format>
        <dc:type
           rdf:resource="http://purl.org/dc/dcmitype/StillImage" />
        <dc:title></dc:title>
      </cc:Work>
    </rdf:RDF>
  </metadata>
  <g
     transform="translate(-244.48874,-186.7985)"
     id="layer1">
    <g
       id="g9264"
       transform="matrix(0.26458333,0,0,0.26458333,92.247488,101.04704)">
      <path
         class="st2"
         d="m 784.9,497 c 0,20.3 -16.4,36.7 -36.7,36.7 H 612.1 c -20.3,0 -36.7,-16.4 -36.7,-36.7 V 360.8 c 0,-20.3 16.4,-36.7 36.7,-36.7 h 136.2 c 20.3,0 36.7,16.4 36.7,36.7 V 497 Z"
         id="path9221"
         style="fill:#549fa0" />
      <g
         id="g9262">
        <defs
           id="defs9224">
          <path
             id="path14142"
             d="m 784.9,497 c 0,20.3 -16.4,36.7 -36.7,36.7 H 612.1 c -20.3,0 -36.7,-16.4 -36.7,-36.7 V 360.8 c 0,-20.3 16.4,-36.7 36.7,-36.7 h 136.2 c 20.3,0 36.7,16.4 36.7,36.7 V 497 Z" />
        </defs>
        <clipPath
           id="clipPath14054">
          <use
             xlink:href="#SVGID_1_"
             style="overflow:visible"
             id="use14052"
             x="0"
             y="0"
             width="100%"
             height="100%" />
        </clipPath>
        <g
           class="st3"
           clip-path="url(#SVGID_2_)"
           id="g9260">
          <g
             id="g9251">
            <defs
               id="defs9230">
              <path
                 id="path14147"
                 d="m 662.6,470.7 c 10.9,-1 23.8,-1.6 37.1,0.4 40.5,3.2 43.1,43.5 47.5,65.1 -45.4,0.3 -89,0.6 -131.1,0.9 0,-26.5 13.1,-63.4 46.5,-66.4 z" />
            </defs>
            <clipPath
               id="clipPath14060">
              <use
                 xlink:href="#SVGID_3_"
                 style="overflow:visible"
                 id="use14058"
                 x="0"
                 y="0"
                 width="100%"
                 height="100%" />
            </clipPath>
            <g
               class="st4"
               clip-path="url(#SVGID_4_)"
               id="g9237">
              <path
                 class="st5"
                 d="m 662.6,470.7 c 10.9,-1 23.8,-1.6 37.1,0.4 40.5,3.2 43.1,43.5 47.5,65.1 -43.7,0.3 -87.4,0.6 -131.1,0.9 0,-26.5 13.1,-63.4 46.5,-66.4 z"
                 id="path9235"
                 style="clip-rule:evenodd;fill:#d48454;fill-rule:evenodd" />
            </g>
            <rect
               x="614.90002"
               y="478.39999"
               class="st6"
               width="132.5"
               height="6.6999998"
               clip-path="url(#SVGID_4_)"
               id="rect9239"
               style="fill:#965626" />
            <rect
               x="614.90002"
               y="490.20001"
               class="st6"
               width="132.5"
               height="6.6999998"
               clip-path="url(#SVGID_4_)"
               id="rect9241"
               style="fill:#965626" />
            <rect
               x="614.90002"
               y="501.89999"
               class="st6"
               width="132.5"
               height="6.6999998"
               clip-path="url(#SVGID_4_)"
               id="rect9243"
               style="fill:#965626" />
            <rect
               x="614.90002"
               y="513.59998"
               class="st6"
               width="132.5"
               height="6.6999998"
               clip-path="url(#SVGID_4_)"
               id="rect9245"
               style="fill:#965626" />
            <rect
               x="614.90002"
               y="526.5"
               class="st6"
               width="132.5"
               height="6.6999998"
               clip-path="url(#SVGID_4_)"
               id="rect9247"
               style="fill:#965626" />
            <rect
               x="614.90002"
               y="461.10001"
               class="st6"
               width="132.5"
               height="14"
               clip-path="url(#SVGID_4_)"
               id="rect9249"
               style="fill:#965626" />
          </g>
          <g
             id="g9258">
            <path
               class="st7"
               d="m 640.9,379.9 -5.6,47.7 13.1,28.6 c 0,0 10.7,22.7 13.9,25 3.2,2.4 21.1,6 22.7,5.6 1.6,-0.4 11.5,-5.2 12.7,-7.2 1.2,-2 9.1,-17.9 9.1,-17.9 0,0 6,-10.3 7.2,-11.5 1.2,-1.2 8.3,-15.1 9.1,-19.9 0.8,-4.8 -3.2,-37.8 -3.2,-38.9 0,-1.2 -6.4,-19.1 -6.4,-19.1 l -62,-3.6 z"
               id="path9253"
               style="fill:#f0d6ac" />
            <g
               id="Capa_1_7_">
              <path
                 class="st8"
                 d="m 740.1,415.9 c -0.3,-0.2 -0.7,-0.4 -1.1,-0.7 -1.7,-1.1 -1.5,-1.4 -0.2,-3.2 0.8,-1.2 2,-3 3.2,-5.9 0.9,-2.3 1.1,-3.7 0.7,-4.7 -0.4,-0.9 -1.4,-1.2 -2.6,-1.6 -1.3,-0.4 -2.9,-1 -4.5,-2.5 -2.4,-2.3 -1.6,-3.7 -0.6,-5.8 0.8,-1.6 1.7,-3.5 1.5,-6.3 -0.6,-5.9 -1.9,-6.4 -4.8,-7.5 -0.3,-0.1 -0.5,-0.2 -0.8,-0.3 -1.4,-0.6 -2.1,-1 -2.3,-1.5 -0.2,-0.5 0.1,-1.2 0.5,-2.2 l 0.2,-0.4 c 0.9,-2 -1.3,-6.6 -2.7,-8.5 -0.7,-1 -1.1,-1.3 -1.4,-1.3 0,-0.2 0,-0.3 0,-0.4 0.3,-2.8 0.2,-4.4 -0.4,-5.3 -0.6,-0.9 -1.5,-1 -2.5,-1.1 -1.3,-0.1 -3,-0.3 -4.8,-2.3 -1.8,-2 -3.2,-2.4 -4.8,-2.7 -1.4,-0.3 -2.8,-0.7 -4.8,-2.2 -2.5,-2 -4,-1.8 -5.1,-1.7 -0.8,0.1 -1.3,0.1 -2,-0.9 -0.6,-0.8 -1,-1.7 -1.3,-2.6 -0.8,-2 -1.8,-4.2 -5,-6.1 -3.5,-2 -9.8,-1.8 -11.4,-0.8 -0.4,0.2 -0.5,0.5 -0.5,0.7 0,0.5 0.6,0.8 0.8,0.8 1.5,0.7 2.5,3.2 3,5.3 -1.1,-1.4 -3,-3.4 -6.4,-5.9 -5.3,-3.9 -16.2,-1.9 -18.6,-0.4 -0.5,0.3 -0.6,0.6 -0.6,0.9 0.1,0.5 0.7,0.6 1.2,0.7 4.5,0.5 9.3,6.7 10.3,10.7 0.3,1 0.2,1.7 -0.1,2 -0.2,0.1 -0.8,0.4 -2.9,-0.9 -8.6,-5.4 -18.2,-4.3 -26.4,3 -4.5,4 -2.6,6.6 -1.6,8 0.2,0.3 0.5,0.7 0.5,0.9 0,0.1 -0.3,0.4 -2.8,0.5 -6.4,0.4 -8.5,6.2 -10.1,10.5 -0.6,1.6 -1.1,3 -1.7,3.7 -1.3,1.6 -0.2,2.7 0.6,3.6 0.4,0.4 0.8,0.9 0.7,1.2 0,0.2 -0.3,0.7 -1.6,1.3 -3.4,1.7 -3.3,6.8 -3.2,10.8 0,2.1 0.1,4 -0.3,5.1 -1,2.6 1.3,5.1 3.8,7.8 0.9,0.9 1.8,1.9 2.5,2.9 1.3,1.6 -0.5,4 -2.6,6.7 -2.2,2.9 -4.7,6.2 -4.6,10 0.2,4 2.2,6.2 4.4,8.5 1.7,1.8 3.5,3.7 4.4,6.7 1.7,5.7 9.4,7.6 12.4,8.4 0.3,0.1 0.7,0.2 0.9,0.3 0.2,4.3 0.5,8.7 1.3,10.3 0.3,0.7 0.6,2 1.1,3.7 1.8,6.9 5.2,19.7 14.7,25.8 11.1,7.1 17.6,10 18.3,10.3 0.2,0.1 0.7,0.5 1.5,0.5 0.3,0 0.7,-0.1 1.1,-0.3 0.1,0 6.9,-3.4 18.2,-11.4 9.2,-6.5 11.9,-19.5 13.3,-26.5 0.4,-1.7 0.6,-3 0.9,-3.7 0.2,-0.5 0.4,-1.3 0.6,-2.4 0,0.3 0.1,0.6 0.1,0.8 0.1,0.5 0.4,0.9 0.8,1.1 0.3,0.1 0.6,0.2 1,0.2 1.5,0 3.6,-1 6.3,-2.2 1.7,-0.8 3.5,-1.6 5.2,-2.2 6.1,-2.2 4.2,-9.2 4.2,-9.3 l -0.2,-0.9 -0.5,0.8 c -0.1,0.1 -1.7,2.7 -3.7,1.7 -0.2,-0.1 -0.3,-0.2 -0.3,-0.4 -0.6,-2.3 4.6,-10.3 10.1,-18.7 v -0.1 c 3.3,-5.1 4.5,-7.7 4.1,-9.3 -0.5,-1.8 -1.4,-2.4 -2.6,-3.1 z M 716.5,437 v 0 c 0,0.2 -3.4,10.1 -4.5,13.2 -0.5,1.4 -2.1,3.2 -4.6,5.1 -1.1,0.8 -2.4,1.1 -3.7,0.8 -2.1,-0.5 -4.8,-1.4 -6.3,-2.7 -1,-0.8 -2.1,-2 -3.2,-3.2 -1.9,-2.1 -4,-4.2 -5.5,-4.7 -2.9,-0.9 -5.5,0.1 -7,1.2 -0.7,0.5 -1.1,1.1 -1.4,1.6 -0.3,-0.6 -0.8,-1.1 -1.5,-1.6 -1.5,-1 -4.2,-1.8 -7,-0.8 -1.6,0.6 -3.5,2.8 -5.3,5 -1.1,1.3 -2.1,2.5 -3,3.4 -1.5,1.4 -4.2,2.4 -6.1,3 -1.3,0.4 -2.7,0.2 -3.9,-0.6 -2.6,-1.7 -4.3,-3.5 -4.9,-4.8 -0.8,-1.9 -1.8,-5.7 -2.5,-8.3 -0.4,-1.5 -0.6,-2.6 -0.7,-2.6 l -0.4,-1.5 c -0.2,-1.6 -0.3,-3.7 0.1,-6.3 0.6,-4.5 0.2,-6 -0.5,-8.7 -0.3,-1.1 -0.6,-2.3 -1,-3.9 -0.7,-3.2 -0.2,-6.6 0.2,-9.8 0.3,-2.5 0.7,-5.2 0.5,-7.8 -0.3,-4.2 2.3,-8.4 4.3,-11.4 0.6,-0.9 1.1,-1.7 1.5,-2.4 1,-1.8 3.9,-3.3 6.3,-4.5 0.9,-0.4 1.7,-0.8 2.3,-1.2 0.7,1.2 1.5,2.3 2.4,3.1 0.3,0.3 0.6,0.5 0.8,0.7 2.5,2.2 2.6,2.1 7.5,2 2.1,-0.1 4.9,-0.2 9.2,-0.2 13.5,0 26.9,-1.1 32.4,-2.6 0.2,1.1 0.8,4.1 2.9,8.1 2.6,5 3.2,27.3 2.2,30 -0.8,2 -0.5,3.4 -0.2,5 0.2,1 0.4,2 0.3,3.2 0,1.5 0,2.6 0.1,3.7 0.2,0.1 0.2,0.3 0.2,0.5 z m -29.3,39.9 c -0.4,0.1 -1,0.2 -1.3,-0.1 -0.2,-0.2 -0.2,-0.6 0,-1.1 0.3,-1 1.4,-1.9 2.5,-2.7 1.4,-1.1 2.8,-2.2 2.5,-3.6 -0.4,-1.9 -8,-1.8 -10.3,-1.8 -2.3,0.1 -9.8,0.4 -10.2,2.3 -0.3,1.5 1.3,2.5 2.7,3.5 1.1,0.8 2.3,1.6 2.7,2.6 0.2,0.5 0.2,0.9 0,1.1 -0.3,0.3 -0.9,0.2 -1.3,0.2 -0.9,-0.7 -8.6,-6.8 -12,-8.3 -5.5,-2.5 -7,-5.5 -7.2,-6.5 1.3,0.1 4,-0.1 6,-1.3 2.3,-1.4 5,-2.1 10.6,-2.7 6.2,-0.6 7.8,-3.3 8.1,-4.2 0.2,-0.1 0.3,-0.2 0.4,-0.1 0,0 0,0 0,0 0.7,1.3 2.7,3.6 8.3,3.9 5.6,0.2 8.4,0.8 10.8,2.1 1.9,1.1 4.4,1.2 5.7,1.1 -0.9,1.7 -3.8,6.4 -6.4,6.8 -3.7,0.4 -10.7,7.9 -11.6,8.8 z"
                 id="path9255"
                 style="fill:#6d402b" />
            </g>
          </g>
        </g>
      </g>
    </g>
  </g>
</svg>
