<?xml version="1.0" encoding="UTF-8" standalone="no"?>
<svg
   xmlns:dc="http://purl.org/dc/elements/1.1/"
   xmlns:cc="http://creativecommons.org/ns#"
   xmlns:rdf="http://www.w3.org/1999/02/22-rdf-syntax-ns#"
   xmlns:svg="http://www.w3.org/2000/svg"
   xmlns="http://www.w3.org/2000/svg"
   xmlns:xlink="http://www.w3.org/1999/xlink"
   id="svg8"
   version="1.1"
   viewBox="0 0 55.456665 55.456665"
   height="55.456665mm"
   width="55.456665mm">
  <defs
     id="defs2">
    <clipPath
       id="clipPath2444"
       clipPathUnits="userSpaceOnUse">
      <path
         id="path2442"
         d="m 87.298,2047.988 c -12.367,0 -22.391,-10.024 -22.391,-22.389 v 0 -83.06 c 0,-12.367 10.024,-22.39 22.391,-22.39 v 0 h 83.058 c 12.367,0 22.391,10.023 22.391,22.39 v 0 83.06 c 0,12.365 -10.024,22.389 -22.391,22.389 v 0 z" />
    </clipPath>
    <clipPath
       id="SVGID_14_">
      <use
         xlink:href="#SVGID_13_"
         style="overflow:visible"
         id="use1204"
         x="0"
         y="0"
         width="100%"
         height="100%" />
    </clipPath>
    <path
       id="SVGID_13_"
       d="m 694.5,450.6 -28.3,-1.2 c -0.1,0.5 2.2,16.4 2.9,19.5 1.2,4.2 6.1,37.5 11.8,37.8 6.1,0.3 9.8,-33.2 10.9,-39.5 z" />
    <clipPath
       id="SVGID_8_">
      <use
         xlink:href="#SVGID_7_"
         style="overflow:visible"
         id="use1110"
         x="0"
         y="0"
         width="100%"
         height="100%" />
    </clipPath>
    <clipPath
       id="SVGID_10_">
      <use
         xlink:href="#SVGID_9_"
         style="overflow:visible"
         id="use1120"
         x="0"
         y="0"
         width="100%"
         height="100%" />
    </clipPath>
    <path
       id="SVGID_7_"
       d="m 537.3,480.6 c 0,19.8 -16.1,35.9 -35.9,35.9 H 368 c -19.9,0 -35.9,-16.1 -35.9,-35.9 V 347.3 c 0,-19.9 16.1,-35.9 35.9,-35.9 h 133.3 c 19.9,0 35.9,16.1 35.9,35.9 v 133.3 z" />
    <path
       id="SVGID_9_"
       d="M 448.4,448.5 429.6,447 c -0.1,0.6 1,32.1 1.4,35.9 1.6,10.6 15.8,13.4 17.2,-1.7 z" />
    <clipPath
       id="SVGID_22_">
      <use
         xlink:href="#SVGID_21_"
         style="overflow:visible"
         id="use1352"
         x="0"
         y="0"
         width="100%"
         height="100%" />
    </clipPath>
    <path
       id="SVGID_21_"
       d="m 1031.6,480.6 c 0,19.9 -16.1,35.9 -35.9,35.9 H 862.4 c -19.9,0 -35.9,-16.1 -35.9,-35.9 V 347.3 c 0,-19.9 16.1,-35.9 35.9,-35.9 h 133.3 c 19.9,0 35.9,16.1 35.9,35.9 z" />
    <clipPath
       id="SVGID_16_">
      <use
         height="100%"
         width="100%"
         y="0"
         x="0"
         id="use9459"
         style="overflow:visible"
         xlink:href="#SVGID_15_" />
    </clipPath>
    <path
       d="m 290.2,497 c 0,20.3 -16.4,36.7 -36.7,36.7 H 117.3 C 97,533.7 80.6,517.3 80.6,497 V 360.8 c 0,-20.3 16.4,-36.7 36.7,-36.7 h 136.2 c 20.3,0 36.7,16.4 36.7,36.7 z"
       id="SVGID_15_" />
    <clipPath
       id="SVGID_26_">
      <use
         xlink:href="#SVGID_25_"
         style="overflow:visible"
         id="use9668"
         x="0"
         y="0"
         width="100%"
         height="100%" />
    </clipPath>
    <path
       id="SVGID_25_"
       d="m 535,497 c 0,20.3 -16.4,36.7 -36.7,36.7 H 362.2 c -20.3,0 -36.7,-16.4 -36.7,-36.7 V 360.8 c 0,-20.3 16.4,-36.7 36.7,-36.7 h 136.2 c 20.3,0 36.7,16.4 36.7,36.7 V 497 Z" />
    <clipPath
       id="SVGID_2_">
      <use
         xlink:href="#SVGID_1_"
         style="overflow:visible"
         id="use9226"
         x="0"
         y="0"
         width="100%"
         height="100%" />
    </clipPath>
    <clipPath
       id="SVGID_4_">
      <use
         xlink:href="#SVGID_3_"
         style="overflow:visible"
         id="use9232"
         x="0"
         y="0"
         width="100%"
         height="100%" />
    </clipPath>
    <clipPath
       id="clipPath14027">
      <use
         xlink:href="#SVGID_3_"
         style="overflow:visible"
         id="use14025"
         x="0"
         y="0"
         width="100%"
         height="100%" />
    </clipPath>
    <clipPath
       id="clipPath14031">
      <use
         xlink:href="#SVGID_3_"
         style="overflow:visible"
         id="use14029"
         x="0"
         y="0"
         width="100%"
         height="100%" />
    </clipPath>
    <clipPath
       id="clipPath14035">
      <use
         xlink:href="#SVGID_3_"
         style="overflow:visible"
         id="use14033"
         x="0"
         y="0"
         width="100%"
         height="100%" />
    </clipPath>
    <clipPath
       id="clipPath14039">
      <use
         xlink:href="#SVGID_3_"
         style="overflow:visible"
         id="use14037"
         x="0"
         y="0"
         width="100%"
         height="100%" />
    </clipPath>
    <clipPath
       id="clipPath14043">
      <use
         xlink:href="#SVGID_3_"
         style="overflow:visible"
         id="use14041"
         x="0"
         y="0"
         width="100%"
         height="100%" />
    </clipPath>
    <clipPath
       id="clipPath14047">
      <use
         xlink:href="#SVGID_3_"
         style="overflow:visible"
         id="use14045"
         x="0"
         y="0"
         width="100%"
         height="100%" />
    </clipPath>
    <path
       id="SVGID_1_"
       d="m 784.9,497 c 0,20.3 -16.4,36.7 -36.7,36.7 H 612.1 c -20.3,0 -36.7,-16.4 -36.7,-36.7 V 360.8 c 0,-20.3 16.4,-36.7 36.7,-36.7 h 136.2 c 20.3,0 36.7,16.4 36.7,36.7 V 497 Z" />
    <path
       id="SVGID_3_"
       d="m 662.6,470.7 c 10.9,-1 23.8,-1.6 37.1,0.4 40.5,3.2 43.1,43.5 47.5,65.1 -45.4,0.3 -89,0.6 -131.1,0.9 0,-26.5 13.1,-63.4 46.5,-66.4 z" />
    <clipPath
       id="SVGID_36_">
      <use
         height="100%"
         width="100%"
         y="0"
         x="0"
         id="use9875"
         style="overflow:visible"
         xlink:href="#SVGID_35_" />
    </clipPath>
    <path
       d="m 1036.4,497 c 0,20.3 -16.4,36.7 -36.7,36.7 H 863.6 c -20.3,0 -36.7,-16.4 -36.7,-36.7 V 360.8 c 0,-20.3 16.4,-36.7 36.7,-36.7 h 136.2 c 20.3,0 36.7,16.4 36.7,36.7 V 497 Z"
       id="SVGID_35_" />
  </defs>
  <metadata
     id="metadata5">
    <rdf:RDF>
      <cc:Work
         rdf:about="">
        <dc:format>image/svg+xml</dc:format>
        <dc:type
           rdf:resource="http://purl.org/dc/dcmitype/StillImage" />
        <dc:title></dc:title>
      </cc:Work>
    </rdf:RDF>
  </metadata>
  <g
     transform="translate(-241.70684,-166.14588)"
     id="layer1">
    <g
       id="g9896"
       transform="matrix(0.26458333,0,0,0.26458333,22.92288,80.394422)">
      <path
         style="fill:#7ab0c9"
         id="path9870"
         d="m 1036.4,497 c 0,20.3 -16.4,36.7 -36.7,36.7 H 863.6 c -20.3,0 -36.7,-16.4 -36.7,-36.7 V 360.8 c 0,-20.3 16.4,-36.7 36.7,-36.7 h 136.2 c 20.3,0 36.7,16.4 36.7,36.7 V 497 Z"
         class="st83" />
      <g
         id="g9894">
        <defs
           id="defs9873">
          <path
             d="m 1036.4,497 c 0,20.3 -16.4,36.7 -36.7,36.7 H 863.6 c -20.3,0 -36.7,-16.4 -36.7,-36.7 V 360.8 c 0,-20.3 16.4,-36.7 36.7,-36.7 h 136.2 c 20.3,0 36.7,16.4 36.7,36.7 V 497 Z"
             id="path14290" />
        </defs>
        <clipPath
           id="clipPath14253">
          <use
             height="100%"
             width="100%"
             y="0"
             x="0"
             id="use14251"
             style="overflow:visible"
             xlink:href="#SVGID_35_" />
        </clipPath>
        <g
           id="g9892"
           clip-path="url(#SVGID_36_)"
           class="st84">
          <path
             style="fill:#304f47"
             id="path9878"
             d="m 1010.9,535.4 c 0,0 -155.2,0.1 -155.9,-2.2 -13.6,-44.9 56,-64.1 56,-64.1 l 42.6,-0.7 c 0.8,0.4 67.2,22.9 57.3,67 z"
             class="st85" />
          <g
             id="g9890">
            <path
               style="clip-rule:evenodd;fill:#f0d6ac;fill-rule:evenodd"
               id="path9880"
               d="m 958.9,438.3 c 2.2,-7.1 4.7,-23.3 6.9,-30.5 2.7,-1.5 14.1,-1.4 15,8.3 0.7,13.3 -9.4,21 -13.1,23.1 -3.6,0.9 -7.7,-0.2 -8.8,-0.9 z"
               class="st36" />
            <path
               style="clip-rule:evenodd;fill:#f0d6ac;fill-rule:evenodd"
               id="path9882"
               d="m 900.4,440.4 c -2.2,-7.1 -4.7,-23.3 -6.9,-30.5 -2.7,-1.5 -14.1,-1.4 -15,8.3 -0.7,13.3 9.4,21 13.1,23.1 3.6,0.8 7.7,-0.3 8.8,-0.9 z"
               class="st36" />
            <path
               style="clip-rule:evenodd;fill:#f0d6ac;fill-rule:evenodd"
               id="path9884"
               d="m 890.3,372.6 1.5,10.8 c -5.3,10.5 3.3,81.9 18.6,91.6 5.1,3.2 15.2,12.3 27.7,6.8 16.8,-7.4 22,-18.3 25.6,-35.9 3.2,-15.9 10.7,-55.2 2.9,-70.6 -0.4,-0.7 -0.2,-2.7 -0.6,-3.2 z"
               class="st36" />
            <path
               style="clip-rule:evenodd;fill:#914d1c;fill-rule:evenodd"
               id="path9886"
               d="m 915.4,378.7 c -2.9,9.1 -24,-1.4 -24,7.5 0,3 1,36.7 -1.5,29.9 -7.8,-21.3 -17.3,-29.5 0.6,-54.4 10.4,-14.4 12.5,-23 37.9,-20.7 11.6,1.1 0.3,0.6 9,-1.2 7.7,-1.5 5,5.4 14.9,4.4 8.6,-0.9 7.2,3.9 12.9,7.1 24.3,13.7 4.1,66.6 -1.8,54.9 -9.6,-18.7 2.2,-20.1 -4.1,-29.4 -4.2,0 0.4,7.9 -25.7,7.9 -5.1,0 -1.9,-4.7 -5.2,-0.1 -4.1,5.7 -13.1,-5.5 -13,-5.9 z"
               class="st86" />
            <path
               style="clip-rule:evenodd;fill:#304f47;fill-rule:evenodd"
               id="path9888"
               d="m 968,409.6 c -1.2,-0.2 -5.8,-1.2 -8.2,-1.5 -2.9,-0.4 -5.9,-0.7 -8.8,-0.7 -2.9,0 -5.8,0.2 -8.7,0.8 -2.8,0.5 -5.5,1.4 -8.3,2 -1.6,0.3 -3.1,0.5 -4.7,0.6 -1.6,0 -3.1,-0.2 -4.7,-0.6 -2.8,-0.6 -5.5,-1.4 -8.3,-2 -2.9,-0.6 -5.8,-0.8 -8.7,-0.8 -3,0 -5.9,0.3 -8.8,0.7 -2.5,0.4 -7,1.3 -8.2,1.5 -0.2,0 -0.3,0.2 -0.3,0.4 0,1.1 0.1,4.9 0.2,5.4 l 0.1,0.1 c 0.1,0.1 0.5,0.2 0.7,0.3 1.1,0.7 1.4,2 1.5,3.2 0.1,1.3 0.3,2.6 0.6,3.8 1,4.5 3.9,8.6 7.9,10.9 2.6,1.5 5.7,2.2 8.8,2.1 2.4,-0.1 4.7,-0.7 6.8,-1.7 1.2,-0.6 2.4,-1.4 3.4,-2.4 1.7,-1.5 3.1,-3.4 4,-5.5 0.8,-1.8 1.2,-3.8 1.5,-5.7 0.2,-1.5 0.7,-3.4 2,-4.3 0.5,-0.3 1,-0.5 1.5,-0.5 0.6,0 1.1,0.2 1.5,0.5 1.3,1 1.8,2.8 2,4.3 0.3,2 0.7,3.9 1.5,5.7 1,2.1 2.3,4 4,5.5 1,0.9 2.2,1.8 3.4,2.4 2.1,1.1 4.4,1.7 6.8,1.7 3,0.1 6.1,-0.6 8.8,-2.1 4,-2.3 6.9,-6.3 7.9,-10.9 0.3,-1.3 0.5,-2.6 0.6,-3.8 0.1,-1.2 0.4,-2.5 1.5,-3.2 0.2,-0.1 0.6,-0.3 0.7,-0.3 v -0.1 c 0,-0.5 0.1,-4.3 0.2,-5.4 0.1,-0.2 0,-0.3 -0.2,-0.4 z m -44.5,6.7 v 0 c -0.6,12.1 -8,16.9 -14.5,16.6 -11.7,-0.6 -13.8,-11.9 -13.5,-18.1 0.3,-6.2 28.3,-4.7 28,1.5 z m 26.2,16.6 v 0 c -6.5,0.3 -13.9,-4.5 -14.5,-16.6 -0.3,-6.2 27.7,-7.7 28,-1.5 0.3,6.2 -1.8,17.5 -13.5,18.1 z"
               class="st87" />
          </g>
        </g>
      </g>
    </g>
  </g>
</svg>
