<?xml version="1.0" encoding="UTF-8" standalone="no"?>
<svg
   xmlns:dc="http://purl.org/dc/elements/1.1/"
   xmlns:cc="http://creativecommons.org/ns#"
   xmlns:rdf="http://www.w3.org/1999/02/22-rdf-syntax-ns#"
   xmlns:svg="http://www.w3.org/2000/svg"
   xmlns="http://www.w3.org/2000/svg"
   xmlns:xlink="http://www.w3.org/1999/xlink"
   id="svg8"
   version="1.1"
   viewBox="0 0 55.456665 55.456665"
   height="55.456665mm"
   width="55.456665mm">
  <defs
     id="defs2">
    <clipPath
       id="clipPath2444"
       clipPathUnits="userSpaceOnUse">
      <path
         id="path2442"
         d="m 87.298,2047.988 c -12.367,0 -22.391,-10.024 -22.391,-22.389 v 0 -83.06 c 0,-12.367 10.024,-22.39 22.391,-22.39 v 0 h 83.058 c 12.367,0 22.391,10.023 22.391,22.39 v 0 83.06 c 0,12.365 -10.024,22.389 -22.391,22.389 v 0 z" />
    </clipPath>
    <clipPath
       id="SVGID_14_">
      <use
         xlink:href="#SVGID_13_"
         style="overflow:visible"
         id="use1204"
         x="0"
         y="0"
         width="100%"
         height="100%" />
    </clipPath>
    <path
       id="SVGID_13_"
       d="m 694.5,450.6 -28.3,-1.2 c -0.1,0.5 2.2,16.4 2.9,19.5 1.2,4.2 6.1,37.5 11.8,37.8 6.1,0.3 9.8,-33.2 10.9,-39.5 z" />
    <clipPath
       id="SVGID_8_">
      <use
         xlink:href="#SVGID_7_"
         style="overflow:visible"
         id="use1110"
         x="0"
         y="0"
         width="100%"
         height="100%" />
    </clipPath>
    <clipPath
       id="SVGID_10_">
      <use
         xlink:href="#SVGID_9_"
         style="overflow:visible"
         id="use1120"
         x="0"
         y="0"
         width="100%"
         height="100%" />
    </clipPath>
    <path
       id="SVGID_7_"
       d="m 537.3,480.6 c 0,19.8 -16.1,35.9 -35.9,35.9 H 368 c -19.9,0 -35.9,-16.1 -35.9,-35.9 V 347.3 c 0,-19.9 16.1,-35.9 35.9,-35.9 h 133.3 c 19.9,0 35.9,16.1 35.9,35.9 v 133.3 z" />
    <path
       id="SVGID_9_"
       d="M 448.4,448.5 429.6,447 c -0.1,0.6 1,32.1 1.4,35.9 1.6,10.6 15.8,13.4 17.2,-1.7 z" />
    <clipPath
       id="SVGID_22_">
      <use
         xlink:href="#SVGID_21_"
         style="overflow:visible"
         id="use1352"
         x="0"
         y="0"
         width="100%"
         height="100%" />
    </clipPath>
    <path
       id="SVGID_21_"
       d="m 1031.6,480.6 c 0,19.9 -16.1,35.9 -35.9,35.9 H 862.4 c -19.9,0 -35.9,-16.1 -35.9,-35.9 V 347.3 c 0,-19.9 16.1,-35.9 35.9,-35.9 h 133.3 c 19.9,0 35.9,16.1 35.9,35.9 z" />
    <clipPath
       id="SVGID_16_">
      <use
         height="100%"
         width="100%"
         y="0"
         x="0"
         id="use9459"
         style="overflow:visible"
         xlink:href="#SVGID_15_" />
    </clipPath>
    <path
       d="m 290.2,497 c 0,20.3 -16.4,36.7 -36.7,36.7 H 117.3 C 97,533.7 80.6,517.3 80.6,497 V 360.8 c 0,-20.3 16.4,-36.7 36.7,-36.7 h 136.2 c 20.3,0 36.7,16.4 36.7,36.7 z"
       id="SVGID_15_" />
    <clipPath
       id="SVGID_26_">
      <use
         xlink:href="#SVGID_25_"
         style="overflow:visible"
         id="use9668"
         x="0"
         y="0"
         width="100%"
         height="100%" />
    </clipPath>
    <path
       id="SVGID_25_"
       d="m 535,497 c 0,20.3 -16.4,36.7 -36.7,36.7 H 362.2 c -20.3,0 -36.7,-16.4 -36.7,-36.7 V 360.8 c 0,-20.3 16.4,-36.7 36.7,-36.7 h 136.2 c 20.3,0 36.7,16.4 36.7,36.7 V 497 Z" />
    <clipPath
       id="SVGID_2_">
      <use
         xlink:href="#SVGID_1_"
         style="overflow:visible"
         id="use9226"
         x="0"
         y="0"
         width="100%"
         height="100%" />
    </clipPath>
    <clipPath
       id="SVGID_4_">
      <use
         xlink:href="#SVGID_3_"
         style="overflow:visible"
         id="use9232"
         x="0"
         y="0"
         width="100%"
         height="100%" />
    </clipPath>
    <clipPath
       id="clipPath14027">
      <use
         xlink:href="#SVGID_3_"
         style="overflow:visible"
         id="use14025"
         x="0"
         y="0"
         width="100%"
         height="100%" />
    </clipPath>
    <clipPath
       id="clipPath14031">
      <use
         xlink:href="#SVGID_3_"
         style="overflow:visible"
         id="use14029"
         x="0"
         y="0"
         width="100%"
         height="100%" />
    </clipPath>
    <clipPath
       id="clipPath14035">
      <use
         xlink:href="#SVGID_3_"
         style="overflow:visible"
         id="use14033"
         x="0"
         y="0"
         width="100%"
         height="100%" />
    </clipPath>
    <clipPath
       id="clipPath14039">
      <use
         xlink:href="#SVGID_3_"
         style="overflow:visible"
         id="use14037"
         x="0"
         y="0"
         width="100%"
         height="100%" />
    </clipPath>
    <clipPath
       id="clipPath14043">
      <use
         xlink:href="#SVGID_3_"
         style="overflow:visible"
         id="use14041"
         x="0"
         y="0"
         width="100%"
         height="100%" />
    </clipPath>
    <clipPath
       id="clipPath14047">
      <use
         xlink:href="#SVGID_3_"
         style="overflow:visible"
         id="use14045"
         x="0"
         y="0"
         width="100%"
         height="100%" />
    </clipPath>
    <path
       id="SVGID_1_"
       d="m 784.9,497 c 0,20.3 -16.4,36.7 -36.7,36.7 H 612.1 c -20.3,0 -36.7,-16.4 -36.7,-36.7 V 360.8 c 0,-20.3 16.4,-36.7 36.7,-36.7 h 136.2 c 20.3,0 36.7,16.4 36.7,36.7 V 497 Z" />
    <path
       id="SVGID_3_"
       d="m 662.6,470.7 c 10.9,-1 23.8,-1.6 37.1,0.4 40.5,3.2 43.1,43.5 47.5,65.1 -45.4,0.3 -89,0.6 -131.1,0.9 0,-26.5 13.1,-63.4 46.5,-66.4 z" />
    <clipPath
       id="SVGID_36_">
      <use
         height="100%"
         width="100%"
         y="0"
         x="0"
         id="use9875"
         style="overflow:visible"
         xlink:href="#SVGID_35_" />
    </clipPath>
    <path
       d="m 1036.4,497 c 0,20.3 -16.4,36.7 -36.7,36.7 H 863.6 c -20.3,0 -36.7,-16.4 -36.7,-36.7 V 360.8 c 0,-20.3 16.4,-36.7 36.7,-36.7 h 136.2 c 20.3,0 36.7,16.4 36.7,36.7 V 497 Z"
       id="SVGID_35_" />
    <clipPath
       id="SVGID_56_">
      <use
         xlink:href="#SVGID_55_"
         style="overflow:visible"
         id="use10272"
         x="0"
         y="0"
         width="100%"
         height="100%" />
    </clipPath>
    <path
       id="SVGID_55_"
       d="m 1282.1,497 c 0,20.3 -16.4,36.7 -36.7,36.7 h -136.2 c -20.3,0 -36.7,-16.4 -36.7,-36.7 V 360.8 c 0,-20.3 16.4,-36.7 36.7,-36.7 h 136.2 c 20.3,0 36.7,16.4 36.7,36.7 z" />
  </defs>
  <metadata
     id="metadata5">
    <rdf:RDF>
      <cc:Work
         rdf:about="">
        <dc:format>image/svg+xml</dc:format>
        <dc:type
           rdf:resource="http://purl.org/dc/dcmitype/StillImage" />
        <dc:title></dc:title>
      </cc:Work>
    </rdf:RDF>
  </metadata>
  <g
     transform="translate(-222.29398,-166.65993)"
     id="layer1">
    <g
       id="g10302"
       transform="matrix(0.26458333,0,0,0.26458333,-61.471638,80.908469)">
      <path
         class="st123"
         d="m 1282.1,497 c 0,20.3 -16.4,36.7 -36.7,36.7 h -136.2 c -20.3,0 -36.7,-16.4 -36.7,-36.7 V 360.8 c 0,-20.3 16.4,-36.7 36.7,-36.7 h 136.2 c 20.3,0 36.7,16.4 36.7,36.7 z"
         id="path10267"
         style="fill:#dbc563" />
      <g
         id="g10300">
        <defs
           id="defs10270">
          <path
             id="path14552"
             d="m 1282.1,497 c 0,20.3 -16.4,36.7 -36.7,36.7 h -136.2 c -20.3,0 -36.7,-16.4 -36.7,-36.7 V 360.8 c 0,-20.3 16.4,-36.7 36.7,-36.7 h 136.2 c 20.3,0 36.7,16.4 36.7,36.7 z" />
        </defs>
        <clipPath
           id="clipPath14505">
          <use
             xlink:href="#SVGID_55_"
             style="overflow:visible"
             id="use14503"
             x="0"
             y="0"
             width="100%"
             height="100%" />
        </clipPath>
        <g
           class="st124"
           clip-path="url(#SVGID_56_)"
           id="g10298">
          <g
             id="g10289">
            <path
               class="st69"
               d="m 1162.3,484.3 c 9.7,-0.8 21,-1.3 32.8,0.3 17.8,1.2 30.6,2.9 36.4,9.9 4.8,5.8 8.4,33.2 10.4,41.7 -38.7,0.2 -85.5,0.2 -124.2,0.4 0,-12.3 4.3,-24.3 5.8,-35.9 1.3,-9.7 26.7,-15.4 38.8,-16.4 z"
               id="path10275"
               style="clip-rule:evenodd;fill:#a3373a;fill-rule:evenodd" />
            <path
               class="st70"
               d="m 1191.4,536.6 c 3.6,-12 7.2,-46 1.1,-51 -1.8,-1.5 -2.6,-9.9 -2.6,-10.1 14.1,0 25.1,15.7 29.8,28.3 1,2.8 5.4,10.4 1.8,10.4 -3.6,0 -13.5,-1 -15.7,-0.3 -1.6,0.5 1.1,3.4 0.1,4.3 -3,2.5 -6.5,12.6 -11.3,18.5 h -3.2 z"
               id="path10277"
               style="clip-rule:evenodd;fill:#773233;fill-rule:evenodd" />
            <path
               class="st17"
               d="m 1186.2,490.4 -23,-1.6 2.3,47.6 25.7,0.1 c 2.5,0 6.9,-28.9 8.5,-45.8 z"
               id="path10279"
               style="clip-rule:evenodd;fill:#e4e4e3;fill-rule:evenodd" />
            <path
               class="st13"
               d="m 1191.8,457.2 -26.2,-1.3 c -0.1,0.6 1.4,27.2 2,30.4 1.1,4.4 10.1,41.7 13.3,41.7 2.8,0 9.8,-36.6 10.8,-43.1 z"
               id="path10281"
               style="clip-rule:evenodd;fill:#c9a970;fill-rule:evenodd" />
            <path
               class="st27"
               d="m 1191.3,477.9 c -0.7,12.2 -7.1,38.1 -10.9,50.3 0.2,0.1 0.3,1.2 1.7,-1.5 2.9,-5.6 9.4,-25.8 11.4,-24.9 7.3,3.2 22.3,7.5 22.2,7.5 -6.6,-15.3 -11.3,-29.8 -24.4,-31.4 z"
               id="path10283"
               style="clip-rule:evenodd;fill:#ffffff;fill-rule:evenodd" />
            <path
               class="st70"
               d="m 1169.2,536.6 c -3.6,-12.2 -7.1,-45.8 -1.1,-50.8 1.8,-1.5 -0.5,-1.5 -0.6,-1.8 -6.9,0 -3,-11.3 -8.2,-8 -5.5,3.4 -20,21.6 -22.4,28 -1,2.8 -3.4,10.8 0.2,10.8 3.6,0 15.5,-1.4 17.7,-0.7 1.6,0.5 -1.1,3.4 -0.1,4.3 3,2.5 6.5,12.3 11.2,18.3 h 3.3 z"
               id="path10285"
               style="clip-rule:evenodd;fill:#773233;fill-rule:evenodd" />
            <path
               class="st27"
               d="m 1167.7,476.5 c 0.7,12.2 9.1,39.1 12.9,51.3 -0.2,0.1 -0.3,1.2 -1.7,-1.4 -2.9,-5.6 -9.8,-25.2 -11.8,-24.4 -7.3,3.2 -22.3,7.5 -22.2,7.5 6.6,-15.3 8.5,-32.2 22.8,-33 z"
               id="path10287"
               style="clip-rule:evenodd;fill:#ffffff;fill-rule:evenodd" />
          </g>
          <g
             id="g10296">
            <path
               class="st7"
               d="m 1144.3,364.7 -0.9,38.3 c 0,0 -10.3,-5.5 -9,8.5 1.2,14 9.6,12.2 9.7,10.8 0.1,-1.3 4.3,23.1 23.5,38 9,9 14.5,9.3 19.8,4.2 5.3,-5.1 24.2,-22.4 26.4,-25.9 2.2,-3.5 4.4,-17.2 4.4,-17.2 0,0 2.8,5.3 5.3,-4 2.5,-9.3 0.6,-20 -4.8,-14.9 -2.2,2.1 -4.6,-8.4 -4.5,-10.1 0.1,-1.8 -8.5,-27.9 -8.5,-27.9 0,0 -5.6,-7 -7,-7 -1.5,-0.3 -55.9,6.2 -54.4,7.2 z"
               id="path10291"
               style="fill:#f0d6ac" />
            <g
               id="Capa_1_4_">
              <path
                 class="st125"
                 d="m 1222.1,431.2 c 1.5,-7.4 -0.9,-9.4 -0.1,-12.2 0.8,-2.8 -2.8,-10.7 -3.5,-13.8 -0.2,-0.9 -0.6,-1.5 -1,-1.9 0,-0.3 3.8,-30.4 3.2,-36.5 -0.6,-6.1 -8.2,-5.9 -8.2,-5.9 l -2,2.1 c 0.4,-1.4 0.6,-2.7 0.7,-3.8 1.4,-9.3 -5,-13 -5,-13 l -0.7,1.1 c 0.3,-2.1 0.1,-4.3 -0.7,-6.6 -1.7,-5.4 -5.3,-5 -5.3,-5 0,0 2.8,2.8 -0.8,7.2 -3.5,4.5 -25.4,-0.3 -40,-1.1 -14.6,-0.9 -16.3,19.1 -16.1,19.8 0,0 0,0 0,0 -0.9,-0.2 -2,0.2 -3.5,1.6 -3,2.8 -3.3,13.6 -2.8,20.2 0.5,6.6 6.8,18.8 6.8,18.8 0,0 0,0 0.1,0.1 -0.8,0.2 -2.1,0.8 -2.6,2.8 -0.8,3.1 -4.3,11 -3.5,13.8 0.8,2.8 -1.6,4.8 -0.1,12.2 1.5,7.4 -1.1,10 -0.5,12.9 0.6,2.9 2.2,16.4 6.6,24.7 4.5,8.3 5.1,18.6 11.4,22.3 6.3,3.7 16.9,7.9 18.2,9.9 1.3,2 5.7,3.7 6.6,5.8 0.1,0.3 0.2,-0.4 0.3,-1.7 0.1,1.4 0.2,2 0.3,1.7 0.9,-2.2 5.4,-3.8 6.6,-5.8 1.2,-2 11.8,-6.1 18.2,-9.9 6.3,-3.7 6.9,-14 11.4,-22.3 4.5,-8.3 6,-21.8 6.6,-24.7 0.6,-2.8 -2.1,-5.4 -0.6,-12.8 z m -29.6,18.4 c -1.1,2.5 -9.6,2.2 -12.9,0.8 -3.4,1.4 -11.8,1.6 -12.9,-0.8 -1.1,-2.5 -2,-4.5 1.9,-7.2 2,-1.4 7.3,-4.1 11,-4.5 3.7,0.5 9,3.2 11,4.5 3.9,2.7 3,4.8 1.9,7.2 z m 19.8,-29 c -1.5,11.7 -12.6,22.3 -13.4,18.7 -1.8,-8.3 -16.9,-9 -18.9,-6.1 -6.1,-2.7 -18,-2.2 -19.8,6.1 -0.8,3.6 -11.9,-6.9 -13.4,-18.7 -0.4,-2.9 -2.3,-14.4 -2.8,-17.6 0.5,0.3 1,0.4 1.1,-0.8 0.2,-2.3 0.1,-10.1 1.9,-17 1.7,-6.9 5.4,-10.1 6.9,-12 0,0 8.5,1.9 21.5,2.2 8.4,0.2 19.7,-0.4 26.3,-3.1 v 0 c 0,0 4,0.1 6.2,5.4 2.2,5.3 7.3,24.5 7.3,24.5 0,0 -2.4,15.1 -2.9,18.4 z"
                 id="path10293"
                 style="fill:#35271c" />
            </g>
          </g>
        </g>
      </g>
    </g>
  </g>
</svg>
