<?xml version="1.0" encoding="UTF-8" standalone="no"?>
<svg
   xmlns:dc="http://purl.org/dc/elements/1.1/"
   xmlns:cc="http://creativecommons.org/ns#"
   xmlns:rdf="http://www.w3.org/1999/02/22-rdf-syntax-ns#"
   xmlns:svg="http://www.w3.org/2000/svg"
   xmlns="http://www.w3.org/2000/svg"
   xmlns:xlink="http://www.w3.org/1999/xlink"
   id="svg8"
   version="1.1"
   viewBox="0 0 55.456665 55.456665"
   height="55.456665mm"
   width="55.456665mm">
  <defs
     id="defs2">
    <clipPath
       id="clipPath2444"
       clipPathUnits="userSpaceOnUse">
      <path
         id="path2442"
         d="m 87.298,2047.988 c -12.367,0 -22.391,-10.024 -22.391,-22.389 v 0 -83.06 c 0,-12.367 10.024,-22.39 22.391,-22.39 v 0 h 83.058 c 12.367,0 22.391,10.023 22.391,22.39 v 0 83.06 c 0,12.365 -10.024,22.389 -22.391,22.389 v 0 z" />
    </clipPath>
    <clipPath
       id="SVGID_14_">
      <use
         xlink:href="#SVGID_13_"
         style="overflow:visible"
         id="use1204"
         x="0"
         y="0"
         width="100%"
         height="100%" />
    </clipPath>
    <path
       id="SVGID_13_"
       d="m 694.5,450.6 -28.3,-1.2 c -0.1,0.5 2.2,16.4 2.9,19.5 1.2,4.2 6.1,37.5 11.8,37.8 6.1,0.3 9.8,-33.2 10.9,-39.5 z" />
    <clipPath
       id="SVGID_8_">
      <use
         xlink:href="#SVGID_7_"
         style="overflow:visible"
         id="use1110"
         x="0"
         y="0"
         width="100%"
         height="100%" />
    </clipPath>
    <clipPath
       id="SVGID_10_">
      <use
         xlink:href="#SVGID_9_"
         style="overflow:visible"
         id="use1120"
         x="0"
         y="0"
         width="100%"
         height="100%" />
    </clipPath>
    <path
       id="SVGID_7_"
       d="m 537.3,480.6 c 0,19.8 -16.1,35.9 -35.9,35.9 H 368 c -19.9,0 -35.9,-16.1 -35.9,-35.9 V 347.3 c 0,-19.9 16.1,-35.9 35.9,-35.9 h 133.3 c 19.9,0 35.9,16.1 35.9,35.9 v 133.3 z" />
    <path
       id="SVGID_9_"
       d="M 448.4,448.5 429.6,447 c -0.1,0.6 1,32.1 1.4,35.9 1.6,10.6 15.8,13.4 17.2,-1.7 z" />
    <clipPath
       id="SVGID_22_">
      <use
         xlink:href="#SVGID_21_"
         style="overflow:visible"
         id="use1352"
         x="0"
         y="0"
         width="100%"
         height="100%" />
    </clipPath>
    <path
       id="SVGID_21_"
       d="m 1031.6,480.6 c 0,19.9 -16.1,35.9 -35.9,35.9 H 862.4 c -19.9,0 -35.9,-16.1 -35.9,-35.9 V 347.3 c 0,-19.9 16.1,-35.9 35.9,-35.9 h 133.3 c 19.9,0 35.9,16.1 35.9,35.9 z" />
    <clipPath
       id="SVGID_16_">
      <use
         height="100%"
         width="100%"
         y="0"
         x="0"
         id="use9459"
         style="overflow:visible"
         xlink:href="#SVGID_15_" />
    </clipPath>
    <path
       d="m 290.2,497 c 0,20.3 -16.4,36.7 -36.7,36.7 H 117.3 C 97,533.7 80.6,517.3 80.6,497 V 360.8 c 0,-20.3 16.4,-36.7 36.7,-36.7 h 136.2 c 20.3,0 36.7,16.4 36.7,36.7 z"
       id="SVGID_15_" />
    <clipPath
       id="SVGID_26_">
      <use
         xlink:href="#SVGID_25_"
         style="overflow:visible"
         id="use9668"
         x="0"
         y="0"
         width="100%"
         height="100%" />
    </clipPath>
    <path
       id="SVGID_25_"
       d="m 535,497 c 0,20.3 -16.4,36.7 -36.7,36.7 H 362.2 c -20.3,0 -36.7,-16.4 -36.7,-36.7 V 360.8 c 0,-20.3 16.4,-36.7 36.7,-36.7 h 136.2 c 20.3,0 36.7,16.4 36.7,36.7 V 497 Z" />
    <clipPath
       id="SVGID_2_">
      <use
         xlink:href="#SVGID_1_"
         style="overflow:visible"
         id="use9226"
         x="0"
         y="0"
         width="100%"
         height="100%" />
    </clipPath>
    <clipPath
       id="SVGID_4_">
      <use
         xlink:href="#SVGID_3_"
         style="overflow:visible"
         id="use9232"
         x="0"
         y="0"
         width="100%"
         height="100%" />
    </clipPath>
    <clipPath
       id="clipPath14027">
      <use
         xlink:href="#SVGID_3_"
         style="overflow:visible"
         id="use14025"
         x="0"
         y="0"
         width="100%"
         height="100%" />
    </clipPath>
    <clipPath
       id="clipPath14031">
      <use
         xlink:href="#SVGID_3_"
         style="overflow:visible"
         id="use14029"
         x="0"
         y="0"
         width="100%"
         height="100%" />
    </clipPath>
    <clipPath
       id="clipPath14035">
      <use
         xlink:href="#SVGID_3_"
         style="overflow:visible"
         id="use14033"
         x="0"
         y="0"
         width="100%"
         height="100%" />
    </clipPath>
    <clipPath
       id="clipPath14039">
      <use
         xlink:href="#SVGID_3_"
         style="overflow:visible"
         id="use14037"
         x="0"
         y="0"
         width="100%"
         height="100%" />
    </clipPath>
    <clipPath
       id="clipPath14043">
      <use
         xlink:href="#SVGID_3_"
         style="overflow:visible"
         id="use14041"
         x="0"
         y="0"
         width="100%"
         height="100%" />
    </clipPath>
    <clipPath
       id="clipPath14047">
      <use
         xlink:href="#SVGID_3_"
         style="overflow:visible"
         id="use14045"
         x="0"
         y="0"
         width="100%"
         height="100%" />
    </clipPath>
    <path
       id="SVGID_1_"
       d="m 784.9,497 c 0,20.3 -16.4,36.7 -36.7,36.7 H 612.1 c -20.3,0 -36.7,-16.4 -36.7,-36.7 V 360.8 c 0,-20.3 16.4,-36.7 36.7,-36.7 h 136.2 c 20.3,0 36.7,16.4 36.7,36.7 V 497 Z" />
    <path
       id="SVGID_3_"
       d="m 662.6,470.7 c 10.9,-1 23.8,-1.6 37.1,0.4 40.5,3.2 43.1,43.5 47.5,65.1 -45.4,0.3 -89,0.6 -131.1,0.9 0,-26.5 13.1,-63.4 46.5,-66.4 z" />
    <clipPath
       id="SVGID_36_">
      <use
         height="100%"
         width="100%"
         y="0"
         x="0"
         id="use9875"
         style="overflow:visible"
         xlink:href="#SVGID_35_" />
    </clipPath>
    <path
       d="m 1036.4,497 c 0,20.3 -16.4,36.7 -36.7,36.7 H 863.6 c -20.3,0 -36.7,-16.4 -36.7,-36.7 V 360.8 c 0,-20.3 16.4,-36.7 36.7,-36.7 h 136.2 c 20.3,0 36.7,16.4 36.7,36.7 V 497 Z"
       id="SVGID_35_" />
    <clipPath
       id="SVGID_56_">
      <use
         xlink:href="#SVGID_55_"
         style="overflow:visible"
         id="use10272"
         x="0"
         y="0"
         width="100%"
         height="100%" />
    </clipPath>
    <path
       id="SVGID_55_"
       d="m 1282.1,497 c 0,20.3 -16.4,36.7 -36.7,36.7 h -136.2 c -20.3,0 -36.7,-16.4 -36.7,-36.7 V 360.8 c 0,-20.3 16.4,-36.7 36.7,-36.7 h 136.2 c 20.3,0 36.7,16.4 36.7,36.7 z" />
    <clipPath
       id="SVGID_46_">
      <use
         xlink:href="#SVGID_45_"
         style="overflow:visible"
         id="use10074"
         x="0"
         y="0"
         width="100%"
         height="100%" />
    </clipPath>
    <clipPath
       id="SVGID_48_">
      <use
         xlink:href="#SVGID_47_"
         style="overflow:visible"
         id="use10084"
         x="0"
         y="0"
         width="100%"
         height="100%" />
    </clipPath>
    <clipPath
       id="clipPath14969">
      <use
         xlink:href="#SVGID_47_"
         style="overflow:visible"
         id="use14967"
         x="0"
         y="0"
         width="100%"
         height="100%" />
    </clipPath>
    <clipPath
       id="clipPath14973">
      <use
         xlink:href="#SVGID_47_"
         style="overflow:visible"
         id="use14971"
         x="0"
         y="0"
         width="100%"
         height="100%" />
    </clipPath>
    <clipPath
       id="clipPath14977">
      <use
         xlink:href="#SVGID_47_"
         style="overflow:visible"
         id="use14975"
         x="0"
         y="0"
         width="100%"
         height="100%" />
    </clipPath>
    <clipPath
       id="clipPath14981">
      <use
         xlink:href="#SVGID_47_"
         style="overflow:visible"
         id="use14979"
         x="0"
         y="0"
         width="100%"
         height="100%" />
    </clipPath>
    <clipPath
       id="clipPath14985">
      <use
         xlink:href="#SVGID_47_"
         style="overflow:visible"
         id="use14983"
         x="0"
         y="0"
         width="100%"
         height="100%" />
    </clipPath>
    <clipPath
       id="clipPath14989">
      <use
         xlink:href="#SVGID_47_"
         style="overflow:visible"
         id="use14987"
         x="0"
         y="0"
         width="100%"
         height="100%" />
    </clipPath>
    <clipPath
       id="clipPath14993">
      <use
         xlink:href="#SVGID_47_"
         style="overflow:visible"
         id="use14991"
         x="0"
         y="0"
         width="100%"
         height="100%" />
    </clipPath>
    <clipPath
       id="clipPath14997">
      <use
         xlink:href="#SVGID_47_"
         style="overflow:visible"
         id="use14995"
         x="0"
         y="0"
         width="100%"
         height="100%" />
    </clipPath>
    <clipPath
       id="clipPath15001">
      <use
         xlink:href="#SVGID_47_"
         style="overflow:visible"
         id="use14999"
         x="0"
         y="0"
         width="100%"
         height="100%" />
    </clipPath>
    <clipPath
       id="clipPath15005">
      <use
         xlink:href="#SVGID_47_"
         style="overflow:visible"
         id="use15003"
         x="0"
         y="0"
         width="100%"
         height="100%" />
    </clipPath>
    <clipPath
       id="clipPath15009">
      <use
         xlink:href="#SVGID_47_"
         style="overflow:visible"
         id="use15007"
         x="0"
         y="0"
         width="100%"
         height="100%" />
    </clipPath>
    <clipPath
       id="clipPath15013">
      <use
         xlink:href="#SVGID_47_"
         style="overflow:visible"
         id="use15011"
         x="0"
         y="0"
         width="100%"
         height="100%" />
    </clipPath>
    <clipPath
       id="clipPath15017">
      <use
         xlink:href="#SVGID_47_"
         style="overflow:visible"
         id="use15015"
         x="0"
         y="0"
         width="100%"
         height="100%" />
    </clipPath>
    <clipPath
       id="clipPath15021">
      <use
         xlink:href="#SVGID_47_"
         style="overflow:visible"
         id="use15019"
         x="0"
         y="0"
         width="100%"
         height="100%" />
    </clipPath>
    <clipPath
       id="clipPath15025">
      <use
         xlink:href="#SVGID_47_"
         style="overflow:visible"
         id="use15023"
         x="0"
         y="0"
         width="100%"
         height="100%" />
    </clipPath>
    <clipPath
       id="clipPath15029">
      <use
         xlink:href="#SVGID_47_"
         style="overflow:visible"
         id="use15027"
         x="0"
         y="0"
         width="100%"
         height="100%" />
    </clipPath>
    <clipPath
       id="clipPath15033">
      <use
         xlink:href="#SVGID_47_"
         style="overflow:visible"
         id="use15031"
         x="0"
         y="0"
         width="100%"
         height="100%" />
    </clipPath>
    <clipPath
       id="clipPath15037">
      <use
         xlink:href="#SVGID_47_"
         style="overflow:visible"
         id="use15035"
         x="0"
         y="0"
         width="100%"
         height="100%" />
    </clipPath>
    <clipPath
       id="clipPath15041">
      <use
         xlink:href="#SVGID_47_"
         style="overflow:visible"
         id="use15039"
         x="0"
         y="0"
         width="100%"
         height="100%" />
    </clipPath>
    <clipPath
       id="clipPath15045">
      <use
         xlink:href="#SVGID_47_"
         style="overflow:visible"
         id="use15043"
         x="0"
         y="0"
         width="100%"
         height="100%" />
    </clipPath>
    <clipPath
       id="clipPath15049">
      <use
         xlink:href="#SVGID_47_"
         style="overflow:visible"
         id="use15047"
         x="0"
         y="0"
         width="100%"
         height="100%" />
    </clipPath>
    <path
       id="SVGID_45_"
       d="m 1525.5,497 c 0,20.3 -16.4,36.7 -36.7,36.7 h -136.2 c -20.3,0 -36.7,-16.4 -36.7,-36.7 V 360.8 c 0,-20.3 16.4,-36.7 36.7,-36.7 h 136.2 c 20.3,0 36.7,16.4 36.7,36.7 z" />
    <path
       id="SVGID_47_"
       d="m 1409.8,478.1 c 9.8,-0.9 21.2,-1.4 33.1,0.4 36.2,2.8 38.5,37.8 42.5,56.5 -39.1,0.3 -78.1,0.5 -117.2,0.8 0,-23.1 11.7,-55.1 41.6,-57.7 z" />
  </defs>
  <metadata
     id="metadata5">
    <rdf:RDF>
      <cc:Work
         rdf:about="">
        <dc:format>image/svg+xml</dc:format>
        <dc:type
           rdf:resource="http://purl.org/dc/dcmitype/StillImage" />
        <dc:title></dc:title>
      </cc:Work>
    </rdf:RDF>
  </metadata>
  <g
     transform="translate(-227.82755,-175.48945)"
     id="layer1">
    <g
       id="g10171"
       transform="matrix(0.26458333,0,0,0.26458333,-120.33765,89.737995)">
      <path
         class="st106"
         d="m 1525.5,497 c 0,20.3 -16.4,36.7 -36.7,36.7 h -136.2 c -20.3,0 -36.7,-16.4 -36.7,-36.7 V 360.8 c 0,-20.3 16.4,-36.7 36.7,-36.7 h 136.2 c 20.3,0 36.7,16.4 36.7,36.7 z"
         id="path10069"
         style="fill:#9fb5bb" />
      <g
         id="g10169">
        <defs
           id="defs10072">
          <path
             id="path15262"
             d="m 1525.5,497 c 0,20.3 -16.4,36.7 -36.7,36.7 h -136.2 c -20.3,0 -36.7,-16.4 -36.7,-36.7 V 360.8 c 0,-20.3 16.4,-36.7 36.7,-36.7 h 136.2 c 20.3,0 36.7,16.4 36.7,36.7 z" />
        </defs>
        <clipPath
           id="clipPath15056">
          <use
             xlink:href="#SVGID_45_"
             style="overflow:visible"
             id="use15054"
             x="0"
             y="0"
             width="100%"
             height="100%" />
        </clipPath>
        <g
           class="st107"
           clip-path="url(#SVGID_46_)"
           id="g10167">
          <path
             class="st77"
             d="m 1380.4,364 87.3,30 c 15.4,21.1 18.1,41.2 10.2,77.2 -2.3,10.7 11.8,22.9 4.2,37 l -6.6,3.1 -5.5,7.4 -95.5,1.6 c -0.4,-0.1 -2.3,-2.2 -2.6,-2.7 -16.2,-25.8 14.7,-18.2 -8.4,-70.1 -10.2,-23.1 -0.5,-69.8 16.9,-83.5 z"
             id="path10077"
             style="clip-rule:evenodd;fill:#7a551f;fill-rule:evenodd" />
          <path
             class="st108"
             d="m 1409.8,478.1 c 9.8,-0.9 21.2,-1.4 33.1,0.4 36.2,2.8 38.5,37.8 42.5,56.5 -39.1,0.3 -78.1,0.5 -117.2,0.8 0,-23.1 11.7,-55.1 41.6,-57.7 z"
             id="path10079"
             style="clip-rule:evenodd;fill:#4b4b4d;fill-rule:evenodd" />
          <g
             id="g10131">
            <defs
               id="defs10082">
              <path
                 id="path15269"
                 d="m 1409.8,478.1 c 9.8,-0.9 21.2,-1.4 33.1,0.4 36.2,2.8 38.5,37.8 42.5,56.5 -39.1,0.3 -78.1,0.5 -117.2,0.8 0,-23.1 11.7,-55.1 41.6,-57.7 z" />
            </defs>
            <clipPath
               id="clipPath15064">
              <use
                 xlink:href="#SVGID_47_"
                 style="overflow:visible"
                 id="use15062"
                 x="0"
                 y="0"
                 width="100%"
                 height="100%" />
            </clipPath>
            <path
               class="st109"
               d="m 1370.3,521.1 15.6,5.3 c 2,-11.8 9,-24.1 9,-45.2 l -14.6,6.2 -10.5,23 z"
               clip-path="url(#SVGID_48_)"
               id="path10087"
               style="clip-rule:evenodd;fill:#e9c284;fill-rule:evenodd" />
            <path
               class="st109"
               d="m 1481.1,517.2 -15.6,5.3 c -2,-11.8 -9,-24.1 -9,-45.2 l 14.6,6.2 10.5,23 z"
               clip-path="url(#SVGID_48_)"
               id="path10089"
               style="clip-rule:evenodd;fill:#e9c284;fill-rule:evenodd" />
            <path
               class="st109"
               d="m 1370.9,515 c -0.6,2.8 -3.9,19.1 -2.5,20.9 h 17.3 c -1.7,-2 1.5,-12.8 1.5,-15.9 -10.1,0 -11.2,-1.7 -16.3,-5 z"
               clip-path="url(#SVGID_48_)"
               id="path10091"
               style="clip-rule:evenodd;fill:#e9c284;fill-rule:evenodd" />
            <path
               class="st109"
               d="m 1481,514.1 c 0.8,2.7 5.8,19.4 4.5,21.3 l -17.3,0.2 c 1.5,-2.2 -2.8,-11.9 -3.1,-15 10.1,-1 11,-2.8 15.9,-6.5 z"
               clip-path="url(#SVGID_48_)"
               id="path10093"
               style="clip-rule:evenodd;fill:#e9c284;fill-rule:evenodd" />
            <path
               class="st110"
               d="m 1379.5,522.4 c 0.2,-1.7 2.5,-2.5 3.5,-3.6 1.1,-1.2 1,-3.3 0.6,-4.8 -0.9,-3.6 -4.5,-5.9 -8.1,-6.1 -3.5,-0.2 -7.1,1.8 -8.2,5.3 -0.5,1.6 -0.5,3.3 0.1,4.8 0.3,0.7 0.9,1.3 1.5,1.8 0.4,0.3 0.8,0.6 1.2,0.9 0.9,0.6 0.9,1.4 0.6,2.4 0,0.2 0.3,0.3 0.3,0.1 0.3,-1.4 0.1,-2.1 -1,-2.9 -0.7,-0.5 -1.4,-1 -1.9,-1.7 -0.7,-0.9 -0.9,-2.1 -0.9,-3.2 0,-1.9 0.8,-3.9 2.3,-5.1 1.5,-1.3 3.7,-1.9 5.7,-2 3.9,-0.1 7.6,2.8 8.3,6.7 0.2,1 0,2 -0.4,3 -0.3,0.8 -1.2,1.4 -1.9,1.8 -0.9,0.6 -2,1.3 -2.1,2.5 0.1,0.3 0.4,0.3 0.4,0.1 z"
               clip-path="url(#SVGID_48_)"
               id="path10095"
               style="clip-rule:evenodd;fill:#3a4057;fill-rule:evenodd" />
            <path
               class="st111"
               d="m 1379.5,522.4 h 0.1 c 0.1,-0.8 0.7,-1.4 1.4,-1.9 0.7,-0.5 1.6,-1 2.1,-1.6 0.7,-0.8 0.9,-1.8 0.9,-2.9 0,-0.7 -0.1,-1.4 -0.3,-2 -0.9,-3.6 -4.6,-6 -8.2,-6.2 -0.1,0 -0.3,0 -0.4,0 -3.4,0 -6.8,2 -7.9,5.3 -0.2,0.7 -0.4,1.5 -0.4,2.3 0,0.9 0.2,1.8 0.5,2.6 0.3,0.8 0.9,1.4 1.5,1.9 0.4,0.3 0.8,0.6 1.2,0.9 0.5,0.4 0.7,0.8 0.7,1.3 0,0.3 -0.1,0.6 -0.1,0.9 v 0.1 c 0,0.2 0.2,0.3 0.3,0.3 0.1,0 0.2,-0.1 0.2,-0.2 0.1,-0.4 0.1,-0.7 0.1,-1 0,-0.8 -0.4,-1.4 -1.2,-2 -0.7,-0.5 -1.4,-1 -1.9,-1.7 -0.7,-0.8 -0.9,-2 -0.9,-3.1 v -0.1 c 0,-1.9 0.8,-3.8 2.2,-5 1.5,-1.2 3.6,-1.9 5.6,-1.9 h 0.2 c 3.8,0 7.4,2.9 8,6.6 0,0.3 0.1,0.5 0.1,0.8 0,0.7 -0.2,1.5 -0.4,2.2 -0.3,0.8 -1.1,1.3 -1.8,1.8 -0.9,0.6 -2,1.4 -2.2,2.6 v 0 l 0.1,0.2 0.2,0.1 c 0.1,0 0.3,-0.1 0.3,-0.2 v -0.1 h -0.1 -0.1 v 0 0 c 0.1,-1.1 1.2,-1.8 2.1,-2.4 0.7,-0.5 1.5,-1 1.9,-1.9 0.3,-0.7 0.4,-1.5 0.4,-2.2 0,-0.3 0,-0.5 -0.1,-0.8 -0.6,-3.9 -4.3,-6.8 -8.2,-6.8 h -0.2 c -2,0 -4.1,0.7 -5.7,2 -1.5,1.2 -2.3,3.3 -2.3,5.2 v 0.1 c 0,1.1 0.2,2.3 0.9,3.2 0.5,0.7 1.2,1.2 1.9,1.7 0.8,0.6 1.1,1.1 1.1,1.8 0,0.3 0,0.6 -0.1,1 v 0 0 0 0 c 0.1,-0.3 0.1,-0.7 0.1,-1 0,-0.6 -0.2,-1.1 -0.8,-1.5 -0.4,-0.3 -0.8,-0.6 -1.2,-0.9 -0.6,-0.5 -1.2,-1.1 -1.5,-1.8 -0.3,-0.8 -0.5,-1.6 -0.5,-2.5 0,-0.7 0.1,-1.5 0.4,-2.2 1,-3.2 4.3,-5.2 7.7,-5.2 0.1,0 0.3,0 0.4,0 3.5,0.2 7.1,2.5 8,6 0.1,0.6 0.3,1.3 0.3,2 0,1 -0.2,2 -0.9,2.7 -0.5,0.5 -1.3,1 -2.1,1.6 -0.7,0.6 -1.4,1.2 -1.5,2.1 z"
               clip-path="url(#SVGID_48_)"
               id="path10097"
               style="fill:#010002" />
            <path
               class="st110"
               d="m 1380,520.9 c -0.6,0.6 -0.8,1.3 -0.9,2.2 -0.1,0.8 -0.3,1.3 -1.1,1.5 -0.4,0.1 -0.8,0.1 -1.2,0.1 -0.8,0 -5.7,0 -5.7,-1.2 0,-0.2 -0.3,-0.2 -0.3,0 -0.1,1.6 4.3,1.5 5.2,1.6 0.8,0 2.1,0.2 2.7,-0.3 1.1,-0.8 0.6,-2.5 1.5,-3.5 0.1,-0.3 -0.1,-0.6 -0.2,-0.4 z"
               clip-path="url(#SVGID_48_)"
               id="path10099"
               style="clip-rule:evenodd;fill:#3a4057;fill-rule:evenodd" />
            <path
               class="st111"
               d="m 1380,520.9 v 0 c -0.7,0.6 -0.9,1.3 -1,2.2 -0.1,0.4 -0.1,0.7 -0.3,0.9 -0.1,0.2 -0.4,0.4 -0.8,0.5 -0.2,0 -0.4,0.1 -0.6,0.1 -0.2,0 -0.4,0 -0.5,0 -0.4,0 -1.8,0 -3.1,-0.2 -0.7,-0.1 -1.3,-0.2 -1.7,-0.4 -0.2,-0.1 -0.4,-0.2 -0.5,-0.3 -0.1,-0.1 -0.2,-0.2 -0.2,-0.3 v 0 0 0 l -0.1,-0.2 -0.2,-0.1 c -0.1,0 -0.3,0.1 -0.3,0.3 v 0.1 c 0,0.4 0.3,0.8 0.7,1 1.3,0.6 3.9,0.6 4.5,0.7 0.3,0 0.8,0.1 1.2,0.1 0.6,0 1.2,-0.1 1.6,-0.4 0.6,-0.4 0.7,-1.1 0.8,-1.8 0.1,-0.7 0.2,-1.3 0.7,-1.8 l 0.1,-0.2 c 0,-0.2 -0.1,-0.3 -0.3,-0.3 v 0.1 0 0 l 0.1,0.1 v 0 0 0 c -0.5,0.5 -0.6,1.2 -0.7,1.9 -0.1,0.7 -0.3,1.2 -0.7,1.6 -0.3,0.3 -0.9,0.3 -1.4,0.3 -0.4,0 -0.9,0 -1.2,-0.1 -0.4,0 -1.7,0 -2.9,-0.2 -0.6,-0.1 -1.1,-0.2 -1.5,-0.4 -0.4,-0.2 -0.6,-0.4 -0.6,-0.8 v -0.1 0 0 0 h 0.1 -0.1 v 0 c 0,0.2 0.1,0.4 0.3,0.5 0.5,0.4 1.7,0.6 2.9,0.7 1.2,0.1 2.3,0.1 2.6,0.1 0.2,0 0.4,0 0.5,0 0.2,0 0.4,0 0.7,-0.1 0.4,-0.1 0.7,-0.3 0.9,-0.6 0.2,-0.3 0.2,-0.6 0.3,-1 0,-0.6 0.2,-1.3 0.7,-1.9 z"
               clip-path="url(#SVGID_48_)"
               id="path10101"
               style="fill:#010002" />
            <path
               class="st110"
               d="m 1378.5,524.7 c 0.2,0.3 0.1,0.6 0,0.8 -0.5,0.9 -1,-0.7 -1,-0.9 0,-0.2 -0.3,-0.2 -0.3,0 0,0.3 -0.1,0.5 -0.2,0.8 -0.4,1.2 -1.1,-0.7 -1.1,-0.7 0,-0.1 -0.3,-0.2 -0.3,0 -0.1,0.4 -0.2,0.7 -0.5,1 -0.7,0.8 -0.9,-0.8 -0.9,-1 0,-0.2 -0.3,-0.1 -0.3,0 -0.1,0.7 -0.4,0.9 -1,0.7 -0.4,-0.2 -0.4,-0.8 -0.4,-1.2 0,-0.2 -0.3,-0.2 -0.3,0 -0.1,0.3 -0.5,1.4 -0.8,0.6 -0.2,-0.3 -0.2,-0.7 -0.2,-1.1 0,-0.2 -0.3,-0.1 -0.3,0.1 0,0.4 0.2,1.7 0.8,1.8 0.7,0.1 0.8,-0.9 0.9,-1.3 -0.1,0 -0.2,0 -0.3,0 -0.2,1.6 1.7,2.4 2,0.6 -0.1,0 -0.2,0 -0.3,0 0.1,0.6 0.2,1.4 0.9,1.4 0.7,0.1 1,-0.9 1.1,-1.4 -0.1,0 -0.2,0 -0.3,0 0.1,0.4 0.4,1.5 1,1.4 0.7,-0.1 0.8,-1 0.9,-1.5 -0.1,0 -0.2,0 -0.3,0 0.1,0.4 0.5,1.8 1.2,1.4 0.5,-0.3 0.7,-1 0.4,-1.5 -0.3,-0.3 -0.5,-0.2 -0.4,0 z"
               clip-path="url(#SVGID_48_)"
               id="path10103"
               style="clip-rule:evenodd;fill:#3a4057;fill-rule:evenodd" />
            <path
               class="st111"
               d="m 1378.5,524.7 v 0 c 0,0.2 0,0.3 0,0.4 0,0.1 0,0.3 -0.1,0.4 -0.1,0.2 -0.2,0.2 -0.2,0.2 l -0.2,-0.1 c -0.2,-0.3 -0.4,-0.9 -0.4,-1 0,-0.1 -0.2,-0.2 -0.3,-0.2 -0.1,0 -0.3,0.1 -0.3,0.2 v 0 c 0,0.3 -0.1,0.5 -0.2,0.8 v 0 c 0,0.1 -0.1,0.2 -0.1,0.3 l -0.1,0.1 c 0,0 -0.1,0 -0.2,-0.1 -0.2,-0.3 -0.4,-0.9 -0.4,-0.9 h -0.1 0.1 c 0,-0.1 -0.2,-0.2 -0.3,-0.2 -0.1,0 -0.2,0.1 -0.2,0.2 -0.1,0.4 -0.2,0.7 -0.5,1 -0.1,0.1 -0.2,0.2 -0.2,0.2 0,0 -0.1,0 -0.2,-0.1 -0.2,-0.3 -0.3,-0.9 -0.3,-1 0,-0.1 -0.1,-0.2 -0.2,-0.2 -0.1,0 -0.3,0.1 -0.3,0.2 v 0 c 0,0.2 -0.1,0.4 -0.2,0.5 -0.1,0.1 -0.2,0.1 -0.3,0.1 -0.1,0 -0.2,0 -0.4,-0.1 v 0.1 l 0.1,-0.1 c -0.3,-0.1 -0.3,-0.4 -0.3,-0.7 0,-0.1 0,-0.2 0,-0.4 v 0 l -0.1,-0.2 -0.2,-0.1 c -0.1,0 -0.3,0.1 -0.3,0.2 0,0.1 -0.1,0.3 -0.2,0.5 -0.1,0.2 -0.2,0.3 -0.3,0.3 0,0 -0.1,0 -0.2,-0.2 -0.1,-0.3 -0.2,-0.7 -0.2,-1 0,-0.1 -0.1,-0.2 -0.3,-0.2 -0.1,0 -0.3,0.1 -0.3,0.3 v 0 h 0.1 -0.1 c 0,0.2 0.1,0.7 0.2,1.1 0.1,0.4 0.3,0.8 0.7,0.8 h 0.1 c 0.4,0 0.6,-0.3 0.7,-0.6 0.1,-0.3 0.2,-0.6 0.2,-0.9 v -0.1 h -0.1 c -0.1,0 -0.2,0 -0.3,0 l -0.1,0.1 c 0,0.1 0,0.2 0,0.3 0,0.9 0.6,1.5 1.2,1.5 0.5,0 0.9,-0.4 1,-1.1 v -0.1 h -0.1 c -0.1,0 -0.2,0 -0.3,0 h -0.1 v 0.1 c 0,0.3 0.1,0.6 0.2,1 0.1,0.3 0.4,0.5 0.8,0.6 h 0.1 c 0.4,0 0.6,-0.3 0.8,-0.6 0.2,-0.3 0.3,-0.7 0.3,-0.9 V 525 h -0.1 c -0.1,0 -0.2,0 -0.3,0 h -0.1 v 0.1 c 0.1,0.2 0.2,0.6 0.3,0.9 0.2,0.3 0.4,0.6 0.8,0.6 h 0.1 c 0.4,0 0.6,-0.3 0.8,-0.7 0.1,-0.3 0.2,-0.7 0.2,-1 v -0.1 h -0.1 c -0.1,0 -0.2,0 -0.3,0 h -0.1 v 0.1 c 0.1,0.2 0.1,0.6 0.3,0.9 0.2,0.3 0.4,0.6 0.8,0.7 0.1,0 0.2,0 0.3,-0.1 0.4,-0.2 0.6,-0.6 0.6,-1.1 0,-0.2 0,-0.4 -0.1,-0.6 0,-0.1 -0.2,-0.2 -0.2,-0.1 -0.1,0 -0.3,0.1 -0.3,0.3 v -0.2 0 l 0.1,-0.1 -0.1,0.1 0.1,-0.1 v 0 0 c 0.1,0.2 0.1,0.3 0.1,0.5 0,0.4 -0.2,0.7 -0.5,0.9 l -0.2,0.1 c -0.2,0 -0.4,-0.2 -0.6,-0.5 -0.2,-0.3 -0.2,-0.7 -0.3,-0.9 h -0.1 v 0.1 c 0.1,0 0.2,0 0.3,0 v -0.1 h -0.1 c 0,0.3 -0.1,0.6 -0.2,0.9 -0.1,0.3 -0.3,0.5 -0.6,0.5 v 0 c -0.2,0 -0.4,-0.2 -0.5,-0.5 -0.1,-0.3 -0.2,-0.6 -0.3,-0.8 h -0.1 v 0.1 c 0.1,0 0.2,0 0.3,0 v -0.1 h -0.1 c -0.1,0.2 -0.2,0.6 -0.3,0.8 -0.2,0.3 -0.4,0.5 -0.6,0.5 v 0 c -0.3,0 -0.5,-0.2 -0.6,-0.5 -0.1,-0.3 -0.2,-0.6 -0.2,-0.9 h -0.1 v 0.1 c 0.1,0 0.2,0 0.3,0 v -0.1 h -0.1 c -0.1,0.7 -0.5,0.9 -0.8,0.9 -0.5,0 -1,-0.5 -1,-1.2 v -0.2 h -0.1 v 0.1 c 0.1,0 0.2,0 0.3,0 v -0.1 h -0.1 c 0,0.2 -0.1,0.6 -0.2,0.8 -0.1,0.3 -0.3,0.4 -0.5,0.4 h -0.1 c -0.2,0 -0.4,-0.3 -0.5,-0.7 -0.1,-0.4 -0.2,-0.8 -0.2,-1 v 0 0 l 0.1,-0.1 v 0 c 0,0.3 0.1,0.8 0.2,1.1 0.1,0.2 0.2,0.3 0.4,0.3 0.2,0 0.4,-0.2 0.5,-0.4 0.1,-0.2 0.2,-0.4 0.2,-0.5 l 0.1,-0.1 v 0 0 c 0,0.1 0,0.3 0,0.4 0,0.3 0.1,0.7 0.5,0.9 v 0 c 0.2,0.1 0.3,0.1 0.5,0.1 0.2,0 0.4,-0.1 0.5,-0.2 0.1,-0.2 0.2,-0.4 0.2,-0.6 h -0.1 0.1 l 0.1,-0.1 v 0 0 c 0,0.1 0.1,0.4 0.1,0.7 0,0.1 0.1,0.3 0.2,0.4 0.1,0.1 0.2,0.2 0.4,0.2 0.1,0 0.3,-0.1 0.4,-0.2 0.3,-0.3 0.4,-0.7 0.5,-1.1 v 0 h 0.1 v 0 c 0,0 0.1,0.3 0.2,0.6 0.1,0.1 0.2,0.3 0.2,0.4 0.1,0.1 0.2,0.2 0.4,0.2 0.1,0 0.2,-0.1 0.3,-0.1 0.1,-0.1 0.1,-0.2 0.2,-0.4 h -0.1 0.1 c 0.1,-0.3 0.2,-0.5 0.2,-0.8 h -0.1 0.1 l 0.1,-0.1 v 0 c 0,0.1 0.1,0.4 0.3,0.7 0.1,0.1 0.1,0.3 0.2,0.4 0.1,0.1 0.2,0.2 0.3,0.2 0.2,0 0.3,-0.1 0.4,-0.3 0.1,-0.2 0.1,-0.3 0.1,-0.5 0,-0.1 0,-0.3 -0.1,-0.4 z"
               clip-path="url(#SVGID_48_)"
               id="path10105"
               style="fill:#010002" />
            <path
               class="st110"
               d="m 1377.6,519 c 1.3,1.1 2.8,0.3 3.3,-1.1 0.5,-1.5 -1.5,-3.1 -2.7,-3.5 -0.9,-0.3 -1.5,0.5 -1.6,1.3 -0.1,1.1 0.2,2.5 1,3.3 0.1,0.2 0.3,0 0.2,-0.2 -0.5,-0.6 -0.8,-1.5 -0.9,-2.3 -0.1,-0.6 -0.1,-1.7 0.7,-1.9 0.4,-0.1 0.9,0.2 1.2,0.5 0.6,0.4 1.2,1 1.6,1.6 0.4,0.8 0,1.6 -0.6,2.1 -0.6,0.6 -1.5,0.3 -2.1,-0.1 -0.1,-0.1 -0.2,0.2 -0.1,0.3 z"
               clip-path="url(#SVGID_48_)"
               id="path10107"
               style="clip-rule:evenodd;fill:#3a4057;fill-rule:evenodd" />
            <path
               class="st111"
               d="m 1377.6,519 v 0 c 0.4,0.5 0.8,0.6 1.3,0.6 0.9,0 1.8,-0.7 2.1,-1.7 0,-0.2 0.1,-0.3 0.1,-0.5 0,-0.7 -0.5,-1.4 -1,-2 -0.6,-0.6 -1.3,-1 -1.8,-1.2 -0.2,-0.1 -0.3,-0.1 -0.5,-0.1 -0.4,0 -0.7,0.2 -0.9,0.5 -0.2,0.3 -0.3,0.6 -0.4,1 0,0.2 0,0.3 0,0.5 0,1 0.4,2.2 1,2.9 l 0.2,0.1 c 0.2,0 0.3,-0.1 0.3,-0.3 l -0.1,-0.2 c -0.5,-0.6 -0.7,-1.4 -0.8,-2.2 0,-0.1 0,-0.3 0,-0.5 0,-0.3 0,-0.6 0.1,-0.8 0.1,-0.2 0.3,-0.4 0.5,-0.5 h 0.1 c 0.3,0 0.7,0.3 1,0.5 0.6,0.4 1.2,1 1.5,1.6 0.1,0.2 0.2,0.4 0.2,0.6 0,0.5 -0.3,1 -0.7,1.4 -0.2,0.2 -0.5,0.3 -0.8,0.3 -0.4,0 -0.8,-0.2 -1.1,-0.4 l -0.2,-0.1 c -0.2,0 -0.3,0.2 -0.3,0.3 l 0.2,0.2 v 0 0 l 0.1,-0.1 v -0.1 0 0 c 0.4,0.3 0.8,0.5 1.3,0.5 0.3,0 0.7,-0.1 0.9,-0.4 0.4,-0.4 0.8,-1 0.8,-1.6 0,-0.2 -0.1,-0.5 -0.2,-0.7 -0.4,-0.7 -1,-1.3 -1.6,-1.7 -0.3,-0.2 -0.7,-0.5 -1.1,-0.5 h -0.2 c -0.3,0.1 -0.5,0.3 -0.7,0.6 -0.1,0.3 -0.2,0.6 -0.2,0.9 0,0.2 0,0.4 0,0.5 0.2,1 0.5,1.8 0.9,2.6 l 0.1,-0.1 -0.1,0.1 v 0 0 c -0.6,-0.8 -0.9,-1.8 -0.9,-2.8 0,-0.2 0,-0.3 0,-0.5 0,-0.3 0.2,-0.7 0.3,-0.9 0.2,-0.2 0.4,-0.4 0.7,-0.4 0.1,0 0.2,0 0.4,0.1 0.5,0.2 1.2,0.6 1.7,1.1 0.6,0.5 1,1.2 1,1.8 0,0.1 0,0.3 -0.1,0.4 -0.3,1 -1.1,1.6 -1.9,1.6 -0.3,0 -0.7,-0.2 -1.2,-0.4 z"
               clip-path="url(#SVGID_48_)"
               id="path10109"
               style="fill:#010002" />
            <path
               class="st110"
               d="m 1372.2,518.5 c 1.8,1.2 3.8,-4.1 1.3,-4.4 -2.2,-0.2 -3.8,4.8 -1.1,4.5 0.2,0 0.1,-0.3 -0.1,-0.3 -2.2,0.3 -0.5,-3.6 0.9,-3.9 2.1,-0.4 0.6,4.8 -0.9,3.8 -0.1,-0.1 -0.3,0.2 -0.1,0.3 z"
               clip-path="url(#SVGID_48_)"
               id="path10111"
               style="clip-rule:evenodd;fill:#3a4057;fill-rule:evenodd" />
            <path
               class="st111"
               d="m 1372.2,518.5 v 0 c 0.1,0.2 0.3,0.3 0.6,0.3 0.6,0 1.1,-0.5 1.4,-1.1 0.4,-0.6 0.6,-1.4 0.6,-2.1 0,-0.4 -0.1,-0.8 -0.3,-1.1 -0.2,-0.3 -0.6,-0.5 -1,-0.6 h -0.1 c -0.7,0 -1.3,0.5 -1.8,1.1 -0.4,0.6 -0.7,1.5 -0.7,2.2 0,0.4 0.1,0.8 0.3,1 0.2,0.3 0.6,0.4 1,0.4 0.1,0 0.2,0 0.3,0 0.1,0 0.2,-0.1 0.2,-0.3 0,-0.1 -0.1,-0.3 -0.3,-0.3 v 0 h -0.2 c -0.3,0 -0.5,-0.1 -0.6,-0.2 -0.1,-0.1 -0.2,-0.3 -0.2,-0.6 0,-0.5 0.3,-1.2 0.6,-1.8 0.4,-0.6 0.9,-1 1.3,-1.1 h 0.2 c 0.3,0 0.4,0.1 0.6,0.3 0.1,0.2 0.2,0.5 0.2,0.8 0,0.6 -0.2,1.2 -0.4,1.7 -0.3,0.5 -0.6,0.9 -1,0.9 -0.1,0 -0.2,0 -0.3,-0.1 l -0.2,-0.1 c -0.2,0 -0.3,0.1 -0.3,0.3 l 0.1,0.4 v 0 0 -0.1 0 0 0 c 0.2,0.1 0.3,0.2 0.5,0.2 0.5,0 0.9,-0.4 1.2,-1 0.3,-0.6 0.5,-1.2 0.5,-1.8 0,-0.3 -0.1,-0.7 -0.2,-0.9 -0.2,-0.2 -0.4,-0.4 -0.7,-0.4 h -0.2 c -0.5,0.1 -1.1,0.6 -1.4,1.2 -0.4,0.6 -0.7,1.3 -0.7,1.9 0,0.3 0.1,0.5 0.2,0.7 0.1,0 0.4,0.1 0.8,0.2 l 0.1,-0.1 v 0 l 0.1,0.1 v 0 h -0.2 c -0.5,0 -0.7,-0.1 -0.9,-0.3 -0.2,-0.2 -0.3,-0.5 -0.3,-0.9 0,-0.6 0.3,-1.4 0.7,-2 0.4,-0.6 1,-1 1.6,-1 h 0.1 c 0.4,0 0.7,0.2 0.8,0.5 0.2,0.3 0.3,0.6 0.3,1 0,0.6 -0.2,1.4 -0.6,1.9 -0.3,0.6 -0.8,1 -1.2,0.9 -0.1,-0.1 -0.3,-0.1 -0.5,-0.1 z"
               clip-path="url(#SVGID_48_)"
               id="path10113"
               style="fill:#010002" />
            <path
               class="st110"
               d="m 1376.1,519.4 c 0.4,0.3 0.9,0.9 0.7,1.4 0,0.1 -0.2,0.4 -0.3,0.4 l -0.2,-0.3 c -0.2,-0.5 -0.1,-1.1 -0.4,-1.6 -0.1,-0.2 -0.4,0 -0.3,0.1 0.2,0.4 0.2,0.8 0.2,1.2 0.1,0.3 0.2,0.8 0.5,0.9 0.4,0.1 0.7,-0.5 0.8,-0.8 0.1,-0.6 -0.4,-1.2 -0.9,-1.6 -0.1,-0.1 -0.2,0.2 -0.1,0.3 z"
               clip-path="url(#SVGID_48_)"
               id="path10115"
               style="clip-rule:evenodd;fill:#3a4057;fill-rule:evenodd" />
            <path
               class="st111"
               d="m 1376.1,519.4 v 0 c 0.3,0.3 0.6,0.8 0.6,1.2 v 0.2 l -0.1,0.2 -0.1,0.1 v 0 0.1 l 0.1,-0.1 -0.2,-0.3 -0.1,0.1 h 0.1 c -0.2,-0.5 -0.1,-1.1 -0.4,-1.7 0,-0.1 -0.1,-0.2 -0.2,-0.2 -0.1,0 -0.3,0.1 -0.3,0.3 v 0.1 c 0.1,0.3 0.1,0.8 0.2,1.2 0.1,0.3 0.2,0.8 0.6,1 h 0.2 c 0.2,0 0.4,-0.2 0.5,-0.4 0.1,-0.2 0.2,-0.4 0.2,-0.6 v -0.1 c 0,-0.6 -0.5,-1.2 -0.9,-1.5 l -0.2,-0.1 c -0.2,0 -0.3,0.1 -0.3,0.3 l 0.3,0.2 v 0 0 -0.1 0 0 0 c 0.4,0.3 0.9,0.8 0.9,1.3 v 0.1 c 0,0.1 -0.1,0.3 -0.2,0.5 -0.1,0.2 -0.2,0.2 -0.3,0.2 h -0.1 c -0.3,-0.1 -0.4,-0.5 -0.4,-0.8 -0.1,-0.4 -0.1,-0.8 -0.2,-1.2 v 0 0 0 0 c 0.2,0.5 0.1,1.1 0.4,1.6 v 0 l 0.2,0.3 0.1,0.1 c 0.1,0 0.2,-0.1 0.3,-0.2 0.1,-0.1 0.1,-0.2 0.1,-0.3 v -0.2 c 0.1,-0.6 -0.3,-1.1 -0.8,-1.3 z"
               clip-path="url(#SVGID_48_)"
               id="path10117"
               style="fill:#010002" />
            <path
               class="st110"
               d="m 1375,519.3 c 0.1,0.6 0.2,1.3 -0.2,1.8 l 0.1,-0.1 c -1,-0.1 -0.1,-1.5 0.3,-1.8 0.2,-0.1 -0.1,-0.4 -0.2,-0.2 -0.6,0.5 -1.4,2.3 -0.1,2.4 l 0.1,-0.1 c 0.4,-0.6 0.3,-1.4 0.2,-2 0.1,-0.3 -0.2,-0.2 -0.2,0 z"
               clip-path="url(#SVGID_48_)"
               id="path10119"
               style="clip-rule:evenodd;fill:#3a4057;fill-rule:evenodd" />
            <path
               class="st111"
               d="m 1375,519.3 h -0.1 c 0,0.3 0.1,0.6 0.1,0.9 0,0.3 0,0.6 -0.2,0.9 v 0.1 h 0.1 l 0.1,-0.1 0.1,-0.1 -0.1,-0.1 c -0.1,0 -0.2,0 -0.3,-0.1 0,0 -0.1,-0.1 -0.1,-0.2 0,-0.4 0.4,-1.1 0.7,-1.3 l 0.1,-0.2 c 0,-0.2 -0.1,-0.3 -0.3,-0.3 l -0.2,0.1 c -0.4,0.4 -0.8,1.1 -0.8,1.8 0,0.2 0.1,0.4 0.2,0.6 0.1,0.2 0.4,0.2 0.6,0.3 h 0.1 l 0.1,-0.1 h 0.1 c 0.2,-0.4 0.3,-0.8 0.3,-1.2 0,-0.3 0,-0.6 -0.1,-0.9 0,-0.1 -0.1,-0.2 -0.3,-0.2 -0.1,0 -0.3,0.1 -0.3,0.3 v 0 l 0.2,-0.2 h -0.1 0.1 0.1 v 0 l 0.1,-0.1 v 0 c 0,0.3 0.1,0.6 0.1,0.9 0,0.4 -0.1,0.7 -0.3,1.1 l 0.1,0.1 v -0.1 l -0.1,0.1 0.1,0.1 v -0.1 c -0.3,0 -0.4,-0.1 -0.5,-0.2 -0.1,-0.1 -0.1,-0.2 -0.1,-0.4 0,-0.5 0.4,-1.3 0.8,-1.6 v 0 0 0 0 c -0.3,0.3 -0.7,0.9 -0.7,1.5 0,0.1 0,0.3 0.1,0.4 0.1,0.1 0.2,0.2 0.4,0.2 v -0.1 l -0.1,-0.1 -0.1,0.1 0.1,0.1 0.1,0.1 c 0.2,-0.3 0.2,-0.7 0.2,-1 0,-0.3 0,-0.6 -0.1,-0.9 v 0 z"
               clip-path="url(#SVGID_48_)"
               id="path10121"
               style="fill:#010002" />
            <path
               class="st110"
               d="m 1476.5,505.6 c 0,-0.7 -0.3,-1.7 -1,-2 1,-1 -0.5,-2.3 -1.4,-2.9 -1,-0.6 -3,-1.1 -3.2,0.6 0,0.1 0.2,0.1 0.2,0 0.2,-1.5 2,-0.9 2.9,-0.4 0.7,0.4 2.4,1.8 1.2,2.7 -0.1,0 -0.1,0.2 0,0.2 0.8,0.1 0.9,1.2 1,1.9 0,0.5 0,1.6 -0.6,1.9 l -0.2,-0.1 h -0.1 c -0.2,-0.4 -0.3,-0.8 -0.4,-1.1 -0.3,-0.8 -0.6,-1.6 -1.2,-2.1 -0.3,-0.3 -1,-0.5 -1.7,-0.5 0,-0.2 -0.1,-0.5 -0.1,-0.5 -0.2,-0.7 -0.6,-1.4 -1.2,-1.8 -0.7,-0.5 -1.6,-0.4 -2.4,-0.2 -0.9,0.2 -2.1,0.7 -2.8,-0.1 h -0.2 c -0.3,0.7 -0.6,1.4 -0.5,2.2 v 0.1 c -0.6,0.1 -1.2,0.3 -1.7,0.8 -0.4,0.3 -0.6,0.8 -0.6,1.3 0,0.4 0.2,0.7 0.4,1.1 0.2,0.3 0.4,0.7 0.3,1 -0.1,0.4 -0.3,0.7 -0.4,1.1 -0.1,0.4 0.1,0.8 0.2,1.2 0.1,0.3 0.3,0.6 0.5,0.8 0.1,0.8 0.7,1.6 0.4,2.4 l 0.1,0.1 c 1.3,-0.5 1.9,1.2 2.8,1.7 h 0.1 c 0.1,0.7 0.4,1.3 1.1,1.5 0.5,0.2 0.9,0 1.1,-0.4 0.2,0.5 0.5,1 1,1.2 0.6,0.2 0.9,-0.6 1,-1.1 0.7,0.3 1.3,0.1 1.8,-0.4 0.7,0.1 1.5,0.1 2.2,-0.3 0.7,-0.4 0.7,-1.2 0.4,-1.9 1.2,-0.3 2,-1.8 2.2,-2.9 0,-0.3 0,-0.6 0,-0.8 0.4,0.3 0.7,0.9 0.9,1.3 0.3,0.6 0.6,1.2 0.9,1.8 0.1,0.1 0.1,0.3 0.2,0.4 -0.4,0.4 -0.9,0.5 -1.4,0.4 l -0.1,0.1 c 0.2,0.3 0.4,0.6 0.8,0.7 0.3,0 0.7,-0.1 1,-0.2 v 0 c 0.2,0.6 0.3,1.1 0.4,1.7 0.1,0.3 0.2,0.6 0.2,1 v 0 c -0.1,-0.1 -0.2,0 -0.1,0.1 0.5,0.5 0.1,1.5 -0.2,2 -0.3,0.6 -0.7,1.3 -1.1,1.8 -0.5,0.7 -0.9,1.5 -1.5,2.1 -0.8,0.7 -2.4,0.5 -3.4,0.2 0.5,-1.8 0.9,-4.3 2.8,-5.2 0.5,-0.3 1.2,-0.4 1.8,-0.5 0.3,-0.1 0.6,-0.1 0.9,-0.2 0.1,0 0.3,0 0.4,-0.1 h 0.1 c 0.1,0 0,0 0,-0.1 0,0.1 0.1,0.2 0.2,0 0.1,-0.3 -0.8,-0.1 -0.9,-0.1 -0.8,0.1 -1.6,0.3 -2.4,0.6 -0.9,0.3 -1.6,1.2 -2.1,2 -0.6,1.1 -0.8,2.3 -1.1,3.5 l 0.1,0.1 c 1,0.3 2.4,0.5 3.4,0 0.8,-0.5 1.3,-1.6 1.8,-2.3 0.5,-0.7 1,-1.4 1.3,-2.2 0.1,-0.3 0.3,-0.7 0.3,-1.1 0.1,0.2 0.1,0.4 0.2,0.6 0.2,0.6 0.5,1.2 0.8,1.8 -0.3,0.2 -0.5,0.2 -0.8,0.2 l -0.1,0.1 c 0.3,0.4 0.7,0.7 1.1,0.8 h 0.1 c 0.2,-0.2 0.1,-0.3 0.1,-0.5 0.3,0.5 0.6,0.9 1,1.4 0.8,1 2,1.9 3.3,1.7 l 0.1,-0.1 0.2,0.1 c 0.1,0 0.2,-0.1 0.1,-0.2 -1.8,-0.6 -2.6,-2.6 -3.5,-4.2 -0.2,-0.4 -0.5,-0.9 -0.7,-1.4 v 0 c 0.3,-0.3 0.5,-0.7 0.4,-1.1 0,-0.5 -0.4,-0.8 -0.7,-1.2 -0.1,-0.1 -0.2,0 -0.2,0.1 0.1,0.4 0,0.7 -0.2,1.1 -0.4,-0.8 -0.7,-1.6 -1,-2.5 1.9,0.5 4.2,-2.1 3.9,-3.9 l -0.1,-0.1 c -0.3,-0.8 -2.1,-0.4 -2.6,-0.2 -1.5,0.4 -1.5,2 -1.5,3.3 -0.2,-0.6 -0.4,-1.3 -0.7,-1.9 0.2,-0.7 0.3,-1.4 -0.4,-1.8 l -0.1,0.1 c 0,0.2 0,0.4 0,0.6 -0.2,-0.4 -0.5,-0.8 -0.8,-1.2 1.1,-0.1 1.4,-1.4 1.5,-2.4 0.1,-1.6 -1,-2.8 -1.6,-4.1 h -0.2 c -0.3,1.3 -0.8,2.4 -0.7,3.7 0.1,0.5 0.2,1.1 0.3,1.6 0.1,0.2 0.1,0.5 0.3,0.7 -0.7,-0.7 -1.5,-1.1 -2.5,-1.2 0.6,-0.5 0.7,-1.4 0.6,-2 z m -2.1,-0.4 v 0 c 0.6,1.1 0.7,2.8 1.9,3.5 -0.5,0.2 -0.7,0.6 -0.9,1.2 -0.2,0.7 -0.1,1.7 -1,1.9 v 0 c -0.1,-0.2 -0.2,-0.3 -0.4,-0.5 0,-0.4 0,-0.8 -0.1,-1.1 -0.1,-0.6 -0.2,-1.6 -0.7,-2 -0.3,-1.4 -1.4,-2.7 -2.8,-3.3 v -0.1 c -0.1,-0.8 0.7,-1 1.3,-1 v 0.1 c 0.2,0.1 0.2,0 0.2,-0.1 h 0.2 c 1.1,0.1 1.8,0.6 2.3,1.4 z m -1.5,3.5 v 0 0 h 0.2 c 0.1,0 0.2,-0.1 0.1,-0.2 -0.1,0 -0.2,-0.1 -0.3,0 -0.3,-0.6 -1.5,0.1 -2.3,0.6 0,-0.9 -0.4,-3.5 -1.5,-2.3 -0.2,-0.3 -0.6,-0.6 -0.9,-0.6 -0.4,0 -0.7,0.4 -0.8,0.7 -0.3,-0.1 -0.6,-0.3 -1,-0.4 0.4,-1 1.7,-1.5 2.8,-1.5 v 0.2 c 0,0.1 0.2,0.1 0.2,0 v -0.1 c 0.2,0 0.4,0 0.6,0.1 1.5,0.3 2.8,1.7 3.1,3.2 -0.1,0 -0.2,0 -0.4,0 -0.1,0 -0.1,0.2 0,0.2 0.2,0 0.3,0 0.4,0 h 0.1 c 0.6,0.4 0.7,1.8 0.7,2.8 l -0.1,-0.1 c -0.1,-0.1 -0.2,0.1 -0.1,0.2 l 0.2,0.1 c 0,0.3 0,0.5 0,0.6 -0.1,0.8 -0.3,1.5 -1,1.9 -0.8,0.5 -1.7,0.4 -2.6,0.4 0.1,-0.4 -0.2,-0.7 -0.5,-0.9 0.3,-0.3 0.4,-1 0.2,-1.4 0.6,0.2 0.8,-0.6 1,-1.1 0.1,-0.4 0.1,-0.8 0.3,-1.1 0.2,-0.3 0.5,-0.5 0.8,-0.7 0.2,-0.1 0.4,-0.3 0.7,-0.4 v 0.1 c -0.1,-0.2 0.1,-0.2 0.1,-0.3 z m -6.7,-2.1 v 0 c 0.3,0.1 0.7,0.3 1.1,0.5 l 0.1,-0.1 c 0.1,-0.3 0.4,-0.8 0.8,-0.7 0.3,0.1 0.6,0.4 0.8,0.6 h 0.1 c 0.6,-0.7 0.9,0.1 1,0.6 0.1,0.4 0.2,0.9 0.2,1.3 h -0.2 c -0.8,-1.3 -2.4,-1.6 -3.8,-1.2 -0.4,0.1 -0.7,0.3 -1,0.4 -0.8,0.2 -0.4,-0.7 -0.2,-1 0.3,-0.4 0.6,-0.6 0.9,-0.5 z m -1.1,-3.4 v 0 c 0,-0.7 0.2,-1.4 0.5,-2 0.9,0.9 2.3,0.1 3.4,-0.1 0.9,-0.2 1.7,0.1 2.3,0.8 0.3,0.3 0.4,0.6 0.5,1 0,0.1 0.1,0.5 0.2,0.7 -0.9,0 -1.7,0.3 -1.6,1.2 v 0 c -0.2,-0.1 -0.3,-0.1 -0.5,-0.2 -0.2,0 -0.4,-0.1 -0.6,-0.1 -0.4,-0.9 -1.5,-1.3 -2.3,-1.4 -0.7,0.1 -1.3,0.1 -1.9,0.1 z m -1.3,7.1 v 0 -0.2 c 0,-0.1 -0.2,-0.2 -0.2,-0.1 v 0.1 c -0.2,-0.2 -0.4,-0.5 -0.5,-0.8 -0.2,-0.4 -0.1,-0.8 0.1,-1.2 0.1,-0.3 0.2,-0.6 0.3,-0.8 0,-0.1 -0.1,-0.4 -0.1,-0.5 -0.1,-0.4 -0.4,-0.7 -0.5,-1 -0.2,-0.6 0,-1.2 0.4,-1.6 0.8,-0.8 2.2,-0.9 3.3,-0.8 0.9,0.1 2,0.4 2.4,1.2 -1.1,0 -2.4,0.7 -2.9,1.7 -0.2,0 -0.4,0 -0.7,0.2 -0.3,0.2 -1,1 -0.8,1.5 l -0.1,0.1 c 0,0.7 0.1,1.6 0.7,2 v 0.2 c -0.2,0.3 -0.2,0.5 -0.2,0.8 -0.4,-0.2 -0.9,-0.4 -1.2,-0.8 z m 2.5,-0.4 v 0 c 0,0.3 0.1,1.2 0.7,1 0.5,-0.2 0.3,-0.9 0.1,-1.2 -0.3,-0.4 -0.8,-1 -1.4,-0.7 -0.3,0.2 -0.4,0.5 -0.4,0.9 -0.4,-0.4 -0.5,-1.1 -0.5,-1.6 h 0.1 c 0.1,0.1 0.2,0.1 0.3,0.1 h 0.1 c 0.4,-0.1 0.9,0.3 1.2,0.5 0.4,0.2 0.7,0.5 0.9,0.9 0.4,0.7 -0.1,2.2 -1.1,1.6 -0.3,-0.2 -0.6,-0.6 -0.7,-1 l 0.1,-0.1 v -0.1 l -0.2,-0.1 V 510 c 0,-0.4 0.1,-0.9 0.6,-0.9 0.5,0 1,0.8 1,1.2 0,0.2 0,0.4 -0.2,0.5 -0.3,0 -0.4,-0.7 -0.4,-0.9 -0.1,-0.1 -0.2,-0.2 -0.2,0 z m -2,2.9 v 0 c 0.1,-0.8 -0.4,-1.4 -0.5,-2.2 0.4,0.3 0.9,0.5 1.4,0.7 0.2,0.8 1,1.5 1.7,2 0.1,0.1 0.2,-0.1 0.1,-0.2 -0.6,-0.5 -1.5,-1.1 -1.6,-1.9 v -0.1 c 0,-0.2 0,-0.4 0.1,-0.6 0.2,0.5 0.7,1.1 1.3,1.1 0.5,0 0.8,-0.6 0.9,-1.1 0.1,-0.7 -0.2,-1.2 -0.8,-1.7 -0.3,-0.2 -0.7,-0.6 -1.1,-0.7 0.5,-0.2 0.9,-0.4 1.5,-0.5 1.2,-0.2 2.4,0.4 3,1.5 -0.1,0.1 -0.2,0.1 -0.2,0.2 -0.9,0.6 -1.8,1.4 -2.4,2.3 -0.5,0.8 -0.6,1.8 -0.6,2.7 v 0.1 c -1,-0.4 -1.6,-2 -2.8,-1.6 z m 3.8,3.2 v 0 c -1.1,-0.6 -1,-2.5 -0.7,-3.5 0.4,-1.3 1.7,-2.3 2.9,-3.1 0.3,-0.2 1.8,-1.3 2.3,-0.9 -0.3,0.1 -0.5,0.2 -0.7,0.4 -0.3,0.2 -0.9,0.6 -1,1 -0.2,0.5 -0.2,2.6 -1.1,1.8 -0.1,-0.1 -0.2,0 -0.1,0.1 0.3,0.4 0.3,1.4 -0.1,1.6 -0.2,-0.1 -0.4,-0.1 -0.6,-0.1 -0.1,0 -0.1,0.1 0,0.2 0.3,0.2 0.5,0.2 0.6,0.1 0.3,0.1 0.5,0.4 0.5,0.8 h -0.1 c -0.2,0.3 -0.3,0.7 -0.5,1.1 -0.1,0 -0.2,0 -0.1,0.1 v 0.1 c -0.4,0.3 -0.8,0.6 -1.3,0.3 z m 5,-0.5 v 0 c -0.5,0.4 -1.1,0.6 -1.7,0.3 l -0.1,0.1 c -0.1,0.5 -0.3,1.3 -0.9,1 -0.4,-0.2 -0.7,-0.7 -0.9,-1.2 l 0.1,-0.1 c 0.2,-0.3 0.3,-0.6 0.4,-0.9 0.1,-0.2 1.1,-0.1 1.3,-0.1 0.8,-0.1 1.7,-0.3 2.2,-1 0.4,-0.5 0.5,-1.3 0.5,-2 0.7,0.7 0.4,2 0,2.8 -0.2,0.3 -0.5,0.7 -0.9,1.1 z m 4.7,-4.9 v 0 c -0.2,1.1 -1,2.5 -2.1,2.7 l -0.1,0.1 c 0.3,0.7 0.3,1.4 -0.5,1.8 -0.5,0.3 -1.2,0.3 -1.7,0.2 0.3,-0.3 0.6,-0.7 0.8,-1 0.4,-0.7 0.6,-1.7 0.3,-2.5 v 0 c 1.5,-0.5 0.5,-2.8 2.1,-3.2 0.1,0 0.1,-0.1 0,-0.2 -0.4,-0.2 -0.7,-0.5 -1,-0.9 h 0.1 0.1 c 0.8,0.3 1.5,0.9 1.9,1.7 v 0 c -0.1,0 -0.2,0.2 -0.1,0.2 h 0.1 c 0.1,0.4 0.1,0.8 0.1,1.1 z m 0.7,3.2 v 0 c 0.5,0.1 1,-0.1 1.4,-0.4 0.1,0.2 0.1,0.4 0.2,0.6 h -0.1 c -0.6,0.2 -1.1,0.3 -1.5,-0.2 z m 3.8,6.8 v 0 0.3 c -0.1,0 -0.2,-0.1 -0.3,-0.1 -0.2,-0.1 -0.4,-0.3 -0.5,-0.4 0.3,0 0.5,-0.1 0.8,-0.3 0.1,0.1 0.2,0.3 0.2,0.4 z m 0.5,-4.5 v 0 c 0.2,0.2 0.4,0.4 0.4,0.7 0.1,0.3 -0.1,0.8 -0.4,1 v 0 c -0.1,-0.3 -0.3,-0.5 -0.4,-0.8 0.3,-0.2 0.5,-0.5 0.4,-0.9 z m -0.3,-5.7 v 0 c 0.4,-0.2 2.5,-0.7 2.5,0.2 l 0.1,0.1 c 0.2,1.8 -2,4 -3.8,3.5 v 0 h 0.2 c 0.6,-1.1 1.4,-2.1 2.2,-3 0.1,-0.1 -0.1,-0.2 -0.1,-0.1 -0.8,0.9 -1.6,2 -2.2,3 v 0 -0.1 c -0.1,-1.2 -0.4,-3 1.1,-3.6 z m -2.5,-0.3 v 0 c 0.4,0.3 0.3,0.8 0.2,1.3 -0.1,-0.2 -0.2,-0.4 -0.3,-0.6 0.1,-0.3 0.1,-0.5 0.1,-0.7 z m -1,-4.8 v 0 c 0.2,0.2 0.1,0.5 0.1,0.7 0,0.4 -0.1,0.8 -0.1,1.1 -0.1,0.5 -0.2,1.1 -0.1,1.6 -0.3,-0.3 -0.4,-0.8 -0.4,-1.1 -0.1,-0.5 -0.2,-1.1 -0.3,-1.6 0,-1 0.4,-2 0.6,-3 0.5,1 1.2,1.8 1.4,2.9 0.2,0.9 0.1,2.2 -0.6,2.9 -0.1,0.1 -0.6,0.4 -0.6,0.2 0,-0.2 0,-0.3 0,-0.5 0,-0.5 0.1,-0.9 0.1,-1.4 0.1,-0.5 0.3,-1.5 -0.1,-1.9 0,-0.1 -0.1,0 0,0.1 z m 0.7,5.4 v 0 l -0.1,0.2 c 0,0.1 0.1,0.2 0.2,0.1 0.1,0.2 0.2,0.4 0.3,0.6 l -0.1,0.2 c 0,0.1 0.1,0.2 0.2,0.1 0.3,0.7 0.6,1.5 0.8,2.2 v 0.1 0 0.1 h 0.1 c 0.1,0.2 0.2,0.5 0.3,0.7 0.7,1.8 1.6,3.6 2.5,5.3 0.7,1.3 1.4,2.6 2.7,3.3 -1.5,0.1 -2.7,-1.2 -3.5,-2.4 -0.3,-0.4 -0.5,-0.8 -0.8,-1.2 l 0.1,-0.1 c 0.1,-0.1 0,-0.2 -0.1,-0.1 l -0.1,0.1 c -0.5,-0.8 -0.8,-1.7 -1.2,-2.6 -0.3,-0.9 -0.5,-1.9 -0.7,-2.8 -0.1,-0.4 -0.2,-0.8 -0.4,-1.2 l 0.1,-0.1 c 0.1,-0.1 -0.1,-0.2 -0.1,-0.1 v 0 c -0.1,-0.3 -0.2,-0.5 -0.3,-0.8 -0.3,-0.6 -0.6,-1.3 -0.9,-1.9 -0.2,-0.3 -0.5,-0.8 -0.8,-1 -0.3,-0.7 -0.8,-1.3 -1.5,-1.7 1.6,0.3 2.6,1.6 3.3,3 z"
               clip-path="url(#SVGID_48_)"
               id="path10123"
               style="clip-rule:evenodd;fill:#3a4057;fill-rule:evenodd" />
            <path
               class="st111"
               d="m 1476.5,505.6 h 0.1 c 0,-0.3 -0.1,-0.8 -0.2,-1.2 -0.2,-0.4 -0.4,-0.8 -0.8,-0.9 v 0.1 l 0.1,0.1 c 0.3,-0.2 0.4,-0.5 0.4,-0.8 0,-0.5 -0.3,-0.9 -0.7,-1.3 -0.4,-0.4 -0.8,-0.7 -1.1,-0.9 -0.5,-0.3 -1.3,-0.6 -1.9,-0.6 -0.3,0 -0.7,0.1 -0.9,0.3 -0.3,0.2 -0.4,0.5 -0.5,1 v 0 l 0.1,0.1 h 0.1 c 0.1,0 0.2,-0.1 0.2,-0.2 0,-0.3 0.2,-0.6 0.3,-0.7 0.2,-0.1 0.4,-0.2 0.7,-0.2 0.6,0 1.3,0.3 1.7,0.6 0.3,0.2 0.7,0.4 1,0.8 0.3,0.3 0.6,0.7 0.6,1.1 0,0.2 -0.1,0.4 -0.4,0.6 l -0.1,0.2 c 0,0.1 0.1,0.2 0.2,0.2 0.3,0.1 0.5,0.3 0.7,0.7 0.1,0.4 0.2,0.8 0.2,1.1 0,0.1 0,0.2 0,0.4 0,0.3 0,0.6 -0.1,0.8 -0.1,0.3 -0.2,0.5 -0.4,0.5 v 0.1 -0.1 l -0.2,-0.1 v 0 h -0.1 v 0.1 l 0.1,-0.1 c -0.2,-0.3 -0.3,-0.7 -0.4,-1.1 -0.3,-0.8 -0.6,-1.6 -1.3,-2.2 -0.4,-0.3 -1.1,-0.5 -1.8,-0.6 v 0.1 h 0.1 c 0,-0.2 -0.1,-0.5 -0.1,-0.5 -0.2,-0.7 -0.6,-1.4 -1.3,-1.9 -0.4,-0.3 -0.9,-0.4 -1.3,-0.4 -0.4,0 -0.8,0.1 -1.1,0.2 -0.5,0.1 -1.2,0.4 -1.7,0.4 -0.4,0 -0.7,-0.1 -1,-0.4 v 0 h -0.2 -0.1 v 0.1 c -0.3,0.6 -0.6,1.3 -0.6,2 v 0.2 0 0.1 l 0.1,-0.1 v -0.1 c -0.6,0.1 -1.3,0.4 -1.8,0.8 -0.4,0.3 -0.6,0.8 -0.7,1.4 v 0 c 0,0.4 0.2,0.8 0.4,1.1 0.1,0.2 0.3,0.5 0.3,0.8 v 0.1 c -0.1,0.4 -0.3,0.7 -0.4,1.1 0,0.1 0,0.2 0,0.3 0,0.3 0.1,0.7 0.3,0.9 0.1,0.3 0.3,0.6 0.6,0.8 l 0.1,-0.1 h -0.1 c 0.1,0.7 0.5,1.4 0.5,2 0,0.1 0,0.3 -0.1,0.4 v 0.1 l 0.2,0.2 0.1,0.1 h 0.1 c 0.1,-0.1 0.3,-0.1 0.4,-0.1 0.4,0 0.8,0.3 1.2,0.7 0.4,0.4 0.7,0.8 1.2,1.1 v 0 h 0.1 v -0.1 h -0.1 c 0.1,0.7 0.5,1.3 1.2,1.6 0.1,0.1 0.3,0.1 0.4,0.1 0.4,0 0.7,-0.2 0.9,-0.5 l -0.1,-0.1 h -0.1 c 0.2,0.5 0.5,1.1 1.1,1.3 0.1,0 0.2,0 0.3,0 0.3,0 0.5,-0.2 0.7,-0.5 0.1,-0.2 0.2,-0.5 0.3,-0.8 h -0.1 l -0.1,0.1 c 0.2,0.1 0.4,0.2 0.7,0.2 0.5,0 0.9,-0.2 1.3,-0.5 l -0.1,-0.1 v 0.1 c 0.3,0 0.5,0.1 0.8,0.1 0.5,0 1,-0.1 1.5,-0.3 0.5,-0.3 0.6,-0.7 0.6,-1.1 0,-0.3 -0.1,-0.6 -0.2,-0.9 h -0.1 v 0.1 c 1.3,-0.3 2.1,-1.8 2.3,-3 0,-0.1 0,-0.2 0,-0.3 0,-0.2 0,-0.4 -0.1,-0.6 h -0.1 l -0.1,0.1 c 0.4,0.3 0.6,0.9 0.8,1.2 0.3,0.6 0.6,1.2 0.8,1.8 0.1,0.1 0.1,0.3 0.2,0.4 h 0.1 L 1480,513 c -0.3,0.3 -0.6,0.4 -1,0.4 -0.1,0 -0.2,0 -0.4,0 h -0.1 l -0.2,0.2 v 0.1 0.1 c 0.2,0.3 0.5,0.7 0.9,0.7 h 0.1 c 0.3,0 0.6,-0.1 0.9,-0.2 v 0 h 0.1 l -0.1,-0.1 h -0.1 c 0.2,0.5 0.3,1.1 0.4,1.7 0.1,0.3 0.2,0.6 0.2,1 h 0.1 l 0.1,-0.1 v 0 0 0 l -0.1,-0.1 c -0.1,0 -0.2,0.1 -0.2,0.2 l 0.1,0.1 c 0.2,0.1 0.2,0.3 0.2,0.6 0,0.4 -0.2,1 -0.4,1.3 -0.3,0.6 -0.7,1.2 -1.1,1.8 -0.5,0.7 -0.9,1.5 -1.5,2.1 -0.4,0.3 -0.9,0.5 -1.6,0.5 -0.6,0 -1.3,-0.1 -1.7,-0.3 v 0.1 h 0.1 c 0.4,-1.8 0.9,-4.2 2.8,-5.1 0.5,-0.2 1.1,-0.4 1.7,-0.5 0.3,-0.1 0.6,-0.1 0.9,-0.2 0.1,0 0.3,0 0.4,-0.1 h 0.1 v 0 0 0 0 0 -0.1 -0.1 0 0.1 h 0.1 v 0 0.1 h 0.1 v 0 h 0.1 v 0 0 h 0.1 v 0 l -0.2,-0.1 v 0.1 c 0,0.1 0.1,0.2 0.2,0.2 0.1,0 0.2,-0.1 0.2,-0.1 v -0.1 c 0,-0.1 -0.1,-0.2 -0.1,-0.2 h -0.2 c -0.3,0 -0.6,0.1 -0.7,0.1 -0.8,0.1 -1.6,0.3 -2.4,0.6 -1,0.3 -1.7,1.2 -2.1,2 -0.6,1.1 -0.9,2.3 -1.1,3.5 v 0 l 0.1,0.2 v 0 0 c 0.6,0.2 1.2,0.3 1.9,0.3 0.5,0 1.1,-0.1 1.5,-0.3 0.9,-0.5 1.3,-1.6 1.9,-2.3 0.5,-0.7 1,-1.4 1.3,-2.2 0.1,-0.3 0.3,-0.7 0.3,-1.1 h -0.1 -0.1 c 0.1,0.2 0.1,0.4 0.2,0.6 0.2,0.6 0.5,1.2 0.8,1.8 l 0.1,-0.1 -0.1,-0.1 c -0.2,0.1 -0.5,0.2 -0.8,0.2 h -0.1 l -0.1,0.2 v 0.1 0.1 c 0.3,0.4 0.7,0.7 1.2,0.9 v 0 h 0.1 v 0 0 c 0.1,-0.1 0.2,-0.2 0.2,-0.3 V 521 h -0.1 l -0.1,0.1 c 0.3,0.5 0.6,1 1,1.4 0.8,0.9 1.8,1.8 3.1,1.8 0.1,0 0.2,0 0.4,0 v 0 0 l 0.1,0.1 h 0.1 c 0.1,0 0.2,-0.1 0.2,-0.2 0,-0.1 0,-0.2 -0.1,-0.2 -1.8,-0.6 -2.6,-2.6 -3.4,-4.1 -0.2,-0.5 -0.5,-0.9 -0.7,-1.4 l -0.1,0.1 0.1,0.1 v 0 0 0 c 0.3,-0.3 0.5,-0.7 0.5,-1.2 v -0.1 c 0,-0.5 -0.5,-0.9 -0.7,-1.2 l -0.2,-0.1 c -0.1,0 -0.2,0.1 -0.2,0.2 v 0.1 c 0,0.1 0,0.2 0,0.3 0,0.2 -0.1,0.4 -0.2,0.7 l 0.1,0.1 h 0.1 c -0.4,-0.8 -0.7,-1.6 -1,-2.5 h -0.1 v 0.1 c 0.2,0 0.3,0.1 0.5,0.1 0.9,0 1.8,-0.5 2.4,-1.2 0.7,-0.7 1.1,-1.6 1.1,-2.5 0,-0.1 0,-0.3 0,-0.4 V 511 l -0.2,-0.1 v 0.1 h 0.1 c -0.1,-0.2 -0.2,-0.4 -0.4,-0.4 -0.2,-0.1 -0.4,-0.1 -0.7,-0.1 -0.6,0 -1.3,0.2 -1.6,0.2 -0.8,0.2 -1.2,0.8 -1.4,1.4 -0.2,0.6 -0.2,1.4 -0.2,2 h 0.1 0.1 c -0.2,-0.6 -0.4,-1.3 -0.7,-1.9 h -0.1 0.1 c 0.1,-0.3 0.1,-0.6 0.1,-0.9 0,-0.4 -0.1,-0.8 -0.6,-1.1 h -0.1 l -0.2,0.2 h -0.1 v 0.1 c 0,0.1 0,0.2 0,0.3 v 0.3 h 0.1 l 0.1,-0.1 c -0.2,-0.4 -0.5,-0.9 -0.8,-1.2 l -0.1,0.1 v 0.1 c 0.6,-0.1 1,-0.5 1.2,-1 0.2,-0.5 0.3,-1.1 0.3,-1.5 v -0.1 c 0,-1.6 -1,-2.7 -1.7,-4 v -0.1 h -0.3 -0.1 v 0.1 c -0.3,1.1 -0.7,2.2 -0.7,3.3 0,0.1 0,0.3 0,0.5 0.1,0.5 0.2,1.1 0.3,1.6 0.1,0.2 0.1,0.5 0.3,0.7 l 0.1,-0.1 0.1,-0.1 c -0.7,-0.7 -1.5,-1.2 -2.6,-1.2 v 0.1 l 0.1,0.1 c 0.5,-0.4 0.5,-1.1 0.5,-1.7 0,-0.1 0,-0.2 0,-0.3 l -0.2,-0.7 h -0.1 c 0,0.1 0,0.2 0,0.3 0,0.5 -0.1,1.2 -0.4,1.5 l -0.2,0.2 h 0.3 c 1,0.1 1.8,0.5 2.4,1.2 l 0.7,0.6 -0.5,-0.8 c -0.1,-0.2 -0.2,-0.4 -0.2,-0.6 -0.1,-0.5 -0.3,-1 -0.3,-1.6 0,-0.1 0,-0.3 0,-0.4 0,-1.1 0.4,-2.1 0.7,-3.3 h -0.1 v 0.1 h 0.2 v -0.1 l -0.1,0.1 c 0.7,1.4 1.6,2.4 1.6,3.9 v 0.1 c 0,0.5 -0.1,1 -0.3,1.5 -0.2,0.4 -0.5,0.8 -1,0.8 h -0.2 l 0.1,0.2 c 0.3,0.4 0.5,0.8 0.8,1.2 l 0.2,0.3 0.1,-0.3 c 0,-0.1 0,-0.2 0,-0.3 0,-0.1 0,-0.2 0,-0.4 h -0.1 l 0.1,0.1 0.1,-0.1 -0.1,-0.1 -0.1,0.1 c 0.4,0.3 0.5,0.6 0.5,0.9 0,0.2 -0.1,0.5 -0.1,0.8 v 0 0 c 0.3,0.7 0.5,1.3 0.7,1.9 l 0.2,0.6 v -0.7 c 0,-0.7 0,-1.4 0.2,-2 0.2,-0.6 0.5,-1 1.3,-1.3 0.3,-0.1 0.9,-0.2 1.5,-0.2 0.2,0 0.5,0 0.6,0.1 0.2,0.1 0.3,0.2 0.3,0.3 v 0 l 0.2,0.1 0.1,-0.1 h -0.1 c 0,0.1 0,0.2 0,0.4 0,0.8 -0.4,1.7 -1.1,2.4 -0.6,0.7 -1.5,1.2 -2.3,1.2 -0.2,0 -0.3,0 -0.4,-0.1 l -0.2,-0.1 0.1,0.2 c 0.3,0.8 0.7,1.7 1,2.5 l 0.1,0.2 0.1,-0.2 c 0.2,-0.2 0.3,-0.5 0.3,-0.8 0,-0.1 0,-0.2 0,-0.4 v 0 0 0 0 0 0 0 0 0 0 0 0 0 0 0 c 0.3,0.3 0.7,0.7 0.7,1.1 v 0.1 c 0,0.4 -0.1,0.8 -0.4,1 l 0.1,0.1 -0.1,-0.1 v 0 l -0.1,0.1 0.1,0.1 c 0.2,0.5 0.5,0.9 0.7,1.4 0.8,1.6 1.7,3.6 3.5,4.3 v 0 0 0 0 0 0 0 0 0 0 0 0 0 0 0 0 0 0 0 0 l -0.2,-0.1 h -0.1 l -0.1,0.1 0.1,0.1 v -0.1 c -0.1,0 -0.2,0 -0.3,0 -1.2,0 -2.2,-0.8 -2.9,-1.7 -0.4,-0.4 -0.7,-0.9 -1,-1.4 l -0.3,-0.4 0.1,0.5 v 0.2 l -0.1,0.2 0.1,0.1 V 521 h -0.1 v 0.1 -0.1 c -0.5,-0.1 -0.8,-0.4 -1.1,-0.8 l -0.1,0.1 0.1,0.1 0.1,-0.1 -0.1,-0.1 v 0.1 c 0.3,0 0.6,-0.1 0.9,-0.3 l 0.1,-0.1 -0.1,-0.1 c -0.3,-0.6 -0.6,-1.2 -0.8,-1.8 -0.1,-0.2 -0.2,-0.4 -0.2,-0.6 l -0.2,-0.5 v 0.6 c 0,0.4 -0.2,0.7 -0.3,1 -0.3,0.8 -0.8,1.5 -1.3,2.2 -0.6,0.7 -1,1.8 -1.8,2.3 -0.4,0.2 -0.9,0.3 -1.4,0.3 -0.6,0 -1.3,-0.1 -1.8,-0.3 v 0.1 l 0.1,-0.1 -0.1,-0.1 -0.1,0.1 h 0.1 c 0.3,-1.2 0.5,-2.4 1.1,-3.5 0.4,-0.8 1.1,-1.6 2,-1.9 0.8,-0.3 1.6,-0.4 2.4,-0.6 0.1,0 0.4,-0.1 0.6,-0.1 h 0.1 v 0 0 0 0 0 0 0 0 0 0 0 0 0 0 0 0 0 0 0 0 0 0 0 0 0 0 0 0 0 0 0 0 l -0.2,-0.1 v 0.1 0.1 0 0 l 0.1,-0.1 -0.1,0.1 v 0 l 0.1,-0.1 -0.1,0.1 0.1,-0.1 h -0.1 v 0.1 l 0.1,-0.1 h -0.1 0.1 l -0.1,-0.1 v 0.1 h 0.1 l -0.1,-0.1 0.1,0.1 v -0.1 h -0.1 l 0.1,0.1 v -0.1 0.1 0.1 0 0.1 -0.1 0 0 0 0 0 0 h -0.1 -0.1 c -0.1,0 -0.3,0 -0.4,0.1 -0.3,0.1 -0.6,0.1 -0.9,0.2 -0.6,0.1 -1.2,0.2 -1.8,0.5 -2,0.9 -2.4,3.4 -2.9,5.3 v 0.1 h 0.1 c 0.5,0.2 1.2,0.3 1.8,0.3 0.6,0 1.3,-0.1 1.7,-0.5 0.6,-0.6 1.1,-1.4 1.6,-2.1 0.4,-0.6 0.8,-1.2 1.1,-1.9 0.2,-0.4 0.4,-0.9 0.4,-1.4 0,-0.3 -0.1,-0.5 -0.3,-0.7 v 0 0 0 0 0 0 0 0 0 0 0 0 0 0 0 l 0.1,-0.1 -0.1,0.1 v 0 l 0.3,0.3 -0.1,-0.4 c -0.1,-0.3 -0.2,-0.6 -0.2,-1 -0.1,-0.6 -0.2,-1.1 -0.4,-1.7 v -0.2 l -0.2,0.1 0.1,0.1 V 514 c -0.3,0.1 -0.6,0.2 -0.9,0.2 h -0.1 c -0.3,0 -0.6,-0.3 -0.7,-0.6 l -0.1,0.1 0.1,0.1 0.1,-0.1 -0.1,-0.1 v 0.1 c 0.1,0 0.3,0 0.4,0 0.4,0 0.8,-0.1 1.1,-0.5 l 0.1,-0.1 V 513 c -0.1,-0.1 -0.1,-0.3 -0.2,-0.4 -0.3,-0.6 -0.5,-1.2 -0.9,-1.8 -0.2,-0.4 -0.5,-1 -0.9,-1.3 l -0.3,-0.2 0.1,0.3 c 0,0.2 0.1,0.3 0.1,0.5 0,0.1 0,0.2 0,0.3 -0.1,1.1 -0.9,2.6 -2.1,2.8 h -0.1 v 0.1 c 0.1,0.3 0.2,0.5 0.2,0.8 0,0.4 -0.1,0.7 -0.5,0.9 -0.4,0.2 -0.9,0.3 -1.4,0.3 -0.3,0 -0.5,0 -0.7,-0.1 h -0.1 v 0 c -0.3,0.3 -0.7,0.5 -1.1,0.5 -0.2,0 -0.4,0 -0.6,-0.1 l -0.1,-0.1 v 0.1 c 0,0.2 -0.1,0.5 -0.2,0.7 -0.1,0.2 -0.3,0.3 -0.5,0.3 h -0.2 c -0.5,-0.2 -0.8,-0.7 -1,-1.1 l -0.1,-0.2 -0.1,0.2 c -0.2,0.3 -0.4,0.4 -0.7,0.4 -0.1,0 -0.2,0 -0.3,-0.1 -0.6,-0.3 -0.9,-0.8 -1,-1.5 v -0.1 h -0.2 v 0.1 l 0.1,-0.1 c -0.4,-0.2 -0.7,-0.6 -1.1,-1 -0.4,-0.4 -0.8,-0.8 -1.3,-0.8 -0.1,0 -0.3,0 -0.5,0.1 v 0.1 l 0.1,-0.1 -0.1,-0.1 -0.1,0.1 h 0.1 c 0,-0.1 0.1,-0.3 0.1,-0.4 0,-0.7 -0.5,-1.4 -0.5,-2 v 0 0 c -0.2,-0.2 -0.4,-0.4 -0.5,-0.7 -0.1,-0.3 -0.2,-0.6 -0.2,-0.9 v -0.3 c 0.1,-0.4 0.3,-0.7 0.4,-1.1 v -0.2 c 0,-0.3 -0.2,-0.7 -0.3,-0.9 -0.2,-0.3 -0.3,-0.6 -0.3,-1 v 0 c 0,-0.5 0.2,-0.9 0.6,-1.2 0.5,-0.4 1.1,-0.6 1.7,-0.7 h 0.1 l -0.1,-0.2 h -0.1 0.1 v -0.2 c 0,-0.7 0.3,-1.3 0.5,-1.9 h -0.1 v 0.1 h 0.1 v -0.1 l -0.1,0.1 c 0.3,0.4 0.7,0.5 1.2,0.5 0.6,0 1.2,-0.2 1.8,-0.4 0.3,-0.1 0.7,-0.2 1.1,-0.2 0.4,0 0.9,0.1 1.2,0.3 0.6,0.4 1,1.1 1.2,1.8 0,0.1 0.1,0.3 0.1,0.5 v 0.1 h 0.1 c 0.7,0 1.4,0.3 1.7,0.5 0.6,0.5 0.9,1.3 1.2,2.1 0.1,0.4 0.3,0.8 0.4,1.1 v 0.1 l 0.2,-0.1 h 0.1 v 0 0 c 0.3,-0.1 0.5,-0.4 0.5,-0.7 0.1,-0.3 0.1,-0.6 0.1,-0.9 -0.6,0.3 -0.6,0.1 -0.6,0 -0.1,-0.3 -0.2,-0.8 -0.3,-1.2 -0.2,-0.4 -0.4,-0.7 -0.9,-0.8 v 0 0 0 0 0 0 0 0 0 0 0 c 0.3,-0.2 0.4,-0.5 0.4,-0.8 0,-0.4 -0.3,-0.9 -0.6,-1.2 -0.4,-0.4 -0.8,-0.7 -1.1,-0.8 -0.5,-0.3 -1.2,-0.6 -1.9,-0.6 -0.3,0 -0.6,0.1 -0.8,0.2 -0.2,0.2 -0.4,0.5 -0.4,0.8 v 0 0 0 0 0 0 0 0 0 0 0 0 0 0 0 0 0 0 0 0 0 0 0 0 0 c 0.1,-0.4 0.2,-0.7 0.4,-0.8 0.2,-0.2 0.5,-0.2 0.8,-0.2 0.6,0 1.3,0.3 1.8,0.6 0.3,0.2 0.7,0.5 1.1,0.9 0.3,0.4 0.6,0.8 0.6,1.1 0,0.2 -0.1,0.4 -0.3,0.6 l -0.1,0.1 0.2,0.1 c 0.3,0.1 0.5,0.4 0.7,0.8 0.1,0.4 0.2,0.8 0.2,1.1 z m -2.1,-0.4 v 0 c 0.2,0.6 0.4,1.3 0.6,1.9 0.3,0.7 0.6,1.3 1.2,1.6 l 0.1,-0.1 v -0.1 c -0.5,0.2 -0.8,0.7 -0.9,1.3 -0.1,0.4 -0.1,0.8 -0.2,1.1 -0.1,0.3 -0.3,0.6 -0.7,0.7 v 0 h -0.1 l 0.1,0.1 0.1,-0.1 c -0.1,-0.2 -0.2,-0.4 -0.4,-0.5 l -0.1,0.1 h 0.1 c 0,-0.4 0,-0.8 -0.1,-1.1 -0.1,-0.6 -0.2,-1.6 -0.8,-2.1 l -0.1,0.1 h 0.1 c -0.3,-1.5 -1.5,-2.8 -2.8,-3.3 v 0.1 h 0.1 v -0.1 0 0 -0.1 c 0,-0.3 0.1,-0.5 0.4,-0.6 0.2,-0.1 0.6,-0.2 0.9,-0.2 v -0.1 h -0.1 v 0.1 0 0 l 0.2,0.1 0.2,-0.1 0.1,-0.2 h -0.1 v 0.1 h 0.2 c 0.8,0.2 1.4,0.6 2,1.4 v 0 0 c -0.4,-0.9 -1.1,-1.4 -2.1,-1.4 h -0.2 -0.1 v 0.1 0 0 0 0 0 0 0 0 0 0 0 h -0.1 l -0.1,0.1 h 0.1 v -0.1 -0.1 h -0.1 c -0.3,0 -0.7,0.1 -1,0.2 -0.3,0.1 -0.5,0.4 -0.5,0.8 v 0.1 h 0.1 -0.1 v 0.1 0.1 h 0.1 c 1.3,0.6 2.4,1.8 2.7,3.2 v 0 0 c 0.5,0.3 0.6,1.3 0.7,1.9 0,0.3 0.1,0.7 0.1,1.1 v 0.1 0 c 0.2,0.1 0.3,0.3 0.3,0.5 l 0.1,0.1 0.2,-0.1 -0.1,-0.1 v 0.1 c 0.5,-0.2 0.7,-0.5 0.8,-0.9 0.1,-0.4 0.2,-0.8 0.2,-1.1 0.1,-0.5 0.4,-0.9 0.8,-1.1 l 0.2,-0.1 -0.2,-0.1 c -0.6,-0.3 -0.9,-0.9 -1.1,-1.5 -0.1,-0.7 -0.3,-1.4 -0.7,-1.9 z m -1.5,3.5 h 0.1 -0.1 v 0 0 l 0.1,0.1 v -0.1 0.1 h 0.1 c 0.1,0 0.2,-0.1 0.2,-0.2 l -0.1,-0.2 c -0.1,0 -0.2,-0.1 -0.3,-0.1 h -0.1 v 0.1 l 0.1,-0.1 c -0.1,-0.2 -0.3,-0.3 -0.5,-0.3 -0.6,0 -1.3,0.5 -1.9,0.8 l 0.1,0.1 h 0.1 v -0.1 c 0,-0.4 -0.1,-1 -0.3,-1.6 -0.1,-0.3 -0.2,-0.5 -0.3,-0.7 -0.1,-0.2 -0.3,-0.3 -0.5,-0.3 -0.2,0 -0.4,0.1 -0.6,0.3 l 0.1,0.1 0.1,-0.1 c -0.3,-0.3 -0.6,-0.6 -1,-0.6 v 0 c -0.2,0 -0.4,0.1 -0.6,0.3 -0.1,0.2 -0.2,0.3 -0.3,0.5 h 0.1 v -0.1 c -0.3,-0.1 -0.6,-0.3 -1,-0.4 v 0.1 h 0.1 c 0.4,-0.9 1.6,-1.4 2.7,-1.5 v -0.1 h -0.1 v 0.2 h 0.1 -0.1 c 0,0.1 0.1,0.2 0.2,0.2 0.1,0 0.2,-0.1 0.2,-0.2 v 0 0 -0.1 h -0.1 v 0.1 c 0.2,0 0.4,0 0.6,0.1 1.4,0.3 2.7,1.7 3.1,3.1 h 0.1 V 508 h -0.2 -0.2 c -0.1,0 -0.2,0.1 -0.2,0.2 0,0.1 0.1,0.2 0.2,0.2 v 0 h 0.1 0.2 v -0.1 l -0.1,0.1 h 0.1 l 0.1,-0.1 -0.1,0.1 c 0.2,0.1 0.4,0.5 0.5,1 0.1,0.5 0.1,1 0.1,1.5 v 0.2 h 0.1 l 0.1,-0.1 -0.1,-0.1 h -0.1 c -0.1,0 -0.2,0.1 -0.2,0.2 l 0.1,0.2 0.1,-0.1 -0.1,0.1 0.2,0.1 0.1,-0.1 h -0.1 c 0,0.3 0,0.5 0,0.6 -0.1,0.8 -0.3,1.4 -1,1.8 -0.5,0.3 -1.2,0.4 -1.8,0.4 -0.2,0 -0.5,0 -0.7,0 v 0.1 h 0.1 V 514 c 0,-0.4 -0.2,-0.7 -0.5,-0.9 l -0.1,0.1 0.1,0.1 c 0.2,-0.2 0.3,-0.6 0.3,-1 0,-0.2 0,-0.4 -0.1,-0.6 h -0.1 v 0.1 h 0.2 c 0.3,0 0.5,-0.2 0.6,-0.5 0.1,-0.2 0.2,-0.5 0.3,-0.8 0.1,-0.4 0.1,-0.8 0.3,-1.1 0.2,-0.3 0.5,-0.5 0.8,-0.7 0.2,-0.1 0.4,-0.3 0.7,-0.4 v -0.1 h -0.1 v 0.1 h 0.1 -0.1 c 0,0.1 0.1,0.2 0.2,0.2 0.1,0 0.2,-0.1 0.2,-0.2 v 0 0 0 l -0.3,0.4 h -0.1 v 0 0 0 0 0 0 0 0 0 0 0 h 0.1 -0.1 v 0 h 0.1 v 0 0 0 0 0 0 0 l -0.1,-0.2 h -0.1 c -0.3,0.1 -0.6,0.3 -0.7,0.4 -0.3,0.2 -0.6,0.4 -0.8,0.7 -0.3,0.4 -0.3,0.8 -0.3,1.2 -0.1,0.2 -0.1,0.5 -0.3,0.7 -0.1,0.2 -0.3,0.3 -0.4,0.3 h -0.1 l -0.2,-0.1 0.1,0.2 c 0.1,0.2 0.1,0.3 0.1,0.5 0,0.3 -0.1,0.7 -0.3,0.8 l -0.1,0.1 0.1,0.1 c 0.3,0.1 0.4,0.4 0.4,0.7 v 0.1 0.1 h 0.1 c 0.2,0 0.5,0 0.7,0 0.7,0 1.4,-0.1 2,-0.4 0.8,-0.5 1,-1.2 1.1,-2 0,-0.1 0,-0.4 0,-0.6 v -0.1 l -0.2,-0.2 v 0 0 0 0 0 0 0 0 0 0 0 0 0 0 0 0 0 h 0.1 l 0.2,0.1 v -0.2 0.1 c 0,-0.5 0,-1.1 -0.1,-1.6 -0.1,-0.5 -0.3,-0.9 -0.6,-1.1 v 0 h -0.1 v 0 0 c -0.1,0 -0.2,-0.1 -0.3,-0.1 h -0.2 v 0 0 0 0 0 0 0 0 0 0 0 0 0 0 0 0 0 0 0 0 h 0.2 0.2 l 0.2,0.1 v -0.2 c -0.4,-1.5 -1.7,-2.9 -3.2,-3.3 -0.2,0 -0.4,-0.1 -0.7,-0.1 h -0.2 l 0.1,0.3 h 0.1 -0.1 v 0 0 0 0 0 0 0 0 0 0 0 0 0 0 0 0 0 -0.2 -0.1 h -0.1 c -1.1,0 -2.4,0.5 -2.9,1.6 l -0.1,0.1 h 0.1 c 0.3,0.1 0.6,0.3 1,0.4 h 0.1 v -0.1 c 0.1,-0.2 0.2,-0.3 0.3,-0.5 0.1,-0.1 0.2,-0.2 0.4,-0.2 v 0 c 0.3,0 0.6,0.3 0.9,0.6 l 0.1,0.1 0.1,-0.1 c 0.2,-0.2 0.3,-0.3 0.4,-0.3 0.1,0 0.2,0.1 0.3,0.2 0.3,0.5 0.5,1.5 0.5,2.1 v 0.1 0.2 l 0.2,-0.1 c 0.5,-0.3 1.3,-0.8 1.7,-0.8 0.2,0 0.3,0 0.3,0.2 v 0.1 h 0.1 0.1 0.2 v 0 0 0 0 0 0 0 0 0 0 0 0 0 0 0 0 0 0 0 0 0 h -0.2 -0.2 l 0.1,0.2 v 0.2 h -0.1 z m -6.7,-2.1 v 0.1 c 0.3,0.1 0.7,0.3 1.1,0.4 h 0.1 l 0.2,-0.1 v 0 0 c 0.1,-0.1 0.1,-0.3 0.2,-0.4 0.1,-0.1 0.2,-0.2 0.3,-0.2 h 0.1 c 0.3,0.1 0.5,0.3 0.7,0.6 v 0 h 0.2 v 0 0 c 0.2,-0.2 0.3,-0.2 0.3,-0.2 0.1,0 0.2,0.1 0.3,0.3 0.1,0.2 0.2,0.4 0.2,0.6 0.1,0.4 0.2,0.8 0.2,1.2 v 0.1 h 0.1 v -0.1 h -0.2 v 0.1 l 0.1,-0.1 c -0.6,-1 -1.6,-1.4 -2.7,-1.4 -0.4,0 -0.9,0.1 -1.3,0.2 -0.4,0.1 -0.7,0.3 -1,0.4 h -0.1 c -0.1,0 -0.1,0 -0.1,0 V 508 c 0,-0.2 0.2,-0.5 0.3,-0.7 0.2,-0.4 0.4,-0.5 0.7,-0.5 h 0.1 v -0.1 0.1 h 0.2 v -0.2 0.1 -0.1 -0.1 h -0.2 v 0 0 h -0.1 c -0.3,0 -0.6,0.2 -0.9,0.6 -0.1,0.2 -0.3,0.5 -0.3,0.8 0,0.1 0,0.2 0.1,0.3 0.1,0.1 0.2,0.1 0.3,0.1 h 0.2 c 0.4,-0.1 0.7,-0.3 1.1,-0.4 0.4,-0.1 0.8,-0.2 1.2,-0.2 1,0 2,0.4 2.5,1.3 v 0.1 l 0.2,-0.1 h 0.1 v -0.1 -0.1 c 0,-0.4 -0.1,-0.9 -0.2,-1.2 -0.1,-0.2 -0.1,-0.4 -0.2,-0.6 -0.1,-0.2 -0.3,-0.4 -0.5,-0.4 -0.2,0 -0.3,0.1 -0.5,0.3 l 0.1,0.1 v -0.1 h -0.2 v 0.1 l 0.1,-0.1 c -0.2,-0.2 -0.5,-0.5 -0.8,-0.6 h -0.2 c -0.2,0 -0.4,0.1 -0.5,0.3 -0.1,0.1 -0.2,0.3 -0.3,0.5 h 0.1 l -0.1,-0.1 -0.1,0.1 0.1,0.1 v -0.1 c -0.4,-0.1 -0.7,-0.4 -1.1,-0.5 v 0 0 z m -1.1,-3.4 h 0.1 V 503 c 0,-0.6 0.2,-1.2 0.5,-1.7 l -0.1,-0.1 -0.1,0.1 c 0.3,0.3 0.8,0.4 1.2,0.4 0.8,0 1.6,-0.4 2.3,-0.5 0.2,0 0.3,0 0.5,0 0.7,0 1.3,0.3 1.7,0.8 0.2,0.3 0.4,0.6 0.5,1 0,0.1 0.1,0.4 0.2,0.7 h 0.1 v -0.1 0 c -0.4,0 -0.8,0.1 -1.2,0.3 -0.3,0.2 -0.5,0.5 -0.5,0.9 v 0.2 0 0 h 0.1 v -0.1 c -0.2,-0.1 -0.3,-0.1 -0.5,-0.2 -0.2,0 -0.4,-0.1 -0.6,-0.1 v 0.1 h 0.1 c -0.4,-1 -1.5,-1.3 -2.4,-1.5 -0.3,0 -0.6,-0.1 -0.9,-0.1 -0.5,0 -0.8,0 -1,0.1 v 0 h 0.1 v 0 0 0 h -0.1 -0.1 v 0 0.2 h 0.1 c 0.3,0 0.5,-0.1 0.8,-0.1 0.3,0 0.6,0 0.9,0.1 0.9,0.1 1.9,0.5 2.3,1.3 v 0.1 h 0.1 c 0.2,0 0.4,0 0.6,0.1 0.2,0 0.3,0.1 0.5,0.1 l 0.2,0.1 v -0.2 h -0.1 0.1 v -0.2 c 0,-0.3 0.2,-0.6 0.4,-0.7 0.3,-0.2 0.7,-0.2 1,-0.2 v 0 h 0.2 v -0.2 c -0.1,-0.2 -0.1,-0.6 -0.2,-0.7 -0.1,-0.4 -0.3,-0.7 -0.6,-1.1 -0.5,-0.6 -1.1,-0.9 -1.9,-0.9 -0.2,0 -0.3,0 -0.5,0.1 -0.7,0.1 -1.5,0.5 -2.2,0.5 -0.4,0 -0.7,-0.1 -1,-0.4 l -0.1,-0.1 -0.1,0.1 c -0.3,0.6 -0.5,1.2 -0.5,1.8 v 0.2 l 0.1,0.1 h -0.1 z m -1.3,7.1 h 0.1 v -0.2 h -0.1 0.1 v 0 c 0,-0.1 -0.1,-0.2 -0.2,-0.2 -0.1,0 -0.2,0.1 -0.2,0.2 v 0 0.1 h 0.1 l 0.1,-0.1 c -0.2,-0.2 -0.3,-0.5 -0.5,-0.8 -0.1,-0.2 -0.1,-0.3 -0.1,-0.4 0,-0.2 0.1,-0.4 0.2,-0.6 0.1,-0.3 0.2,-0.6 0.3,-0.9 v -0.1 c 0,-0.2 -0.1,-0.4 -0.2,-0.4 -0.2,-0.4 -0.4,-0.7 -0.5,-1 -0.1,-0.1 -0.1,-0.3 -0.1,-0.4 0,-0.4 0.2,-0.8 0.5,-1.1 0.6,-0.6 1.6,-0.8 2.5,-0.8 0.2,0 0.4,0 0.7,0 0.8,0.1 2,0.4 2.3,1.2 l 0.1,-0.1 v -0.1 c -1.2,0.1 -2.5,0.7 -3,1.8 h 0.1 v -0.1 h -0.2 c -0.2,0 -0.4,0.1 -0.6,0.2 -0.3,0.2 -0.9,0.9 -0.9,1.4 v 0.2 h 0.1 l -0.1,-0.1 v 0.1 0 0 0.2 c 0,0.7 0.1,1.4 0.7,1.9 l 0.1,-0.1 h -0.1 v 0.2 h 0.1 l -0.1,-0.1 c -0.2,0.3 -0.2,0.5 -0.2,0.8 v 0.1 h 0.1 V 511 c -0.2,-0.2 -0.7,-0.4 -1.1,-0.7 v 0 h 0.1 -0.1 v 0 c 0.3,0.5 0.8,0.7 1.3,0.9 l 0.2,0.1 v -0.2 -0.1 c 0,-0.2 0.1,-0.4 0.2,-0.7 v 0 l -0.1,-0.3 v 0 0 c -0.5,-0.4 -0.6,-1.1 -0.6,-1.7 v -0.2 h -0.1 l 0.1,0.1 0.1,-0.1 v 0 -0.1 -0.2 c 0,-0.4 0.5,-1.1 0.8,-1.2 0.1,-0.1 0.3,-0.1 0.4,-0.1 h 0.1 0.1 v -0.1 c 0.4,-1 1.6,-1.6 2.8,-1.6 h 0.2 l -0.1,-0.2 c -0.4,-0.9 -1.6,-1.2 -2.5,-1.3 -0.2,0 -0.4,0 -0.7,0 -0.9,0 -2,0.2 -2.7,0.9 -0.3,0.3 -0.6,0.8 -0.6,1.2 0,0.2 0,0.3 0.1,0.5 0.1,0.4 0.4,0.7 0.5,1 0,0.1 0.1,0.3 0.1,0.4 v 0 c -0.1,0.3 -0.2,0.6 -0.3,0.8 -0.1,0.2 -0.2,0.5 -0.2,0.7 0,0.2 0,0.3 0.1,0.5 0.1,0.3 0.3,0.6 0.5,0.9 l 0.3,0.1 V 510 h -0.1 0.1 v 0 0 0 0 0 0 0 0 0 0 0 0 0 0 0 0 0 0 0 0 0 0.3 0.1 z m 2.5,-0.4 h -0.1 c 0,0.2 0,0.4 0.1,0.7 0,0.1 0.1,0.2 0.2,0.3 0.1,0.1 0.2,0.2 0.3,0.2 h 0.2 c 0.3,-0.1 0.4,-0.4 0.4,-0.6 0,-0.3 -0.1,-0.6 -0.2,-0.8 -0.2,-0.4 -0.6,-0.8 -1.2,-0.9 -0.1,0 -0.2,0 -0.4,0.1 -0.4,0.2 -0.5,0.6 -0.5,0.9 v 0 h 0.1 l 0.1,-0.1 c -0.3,-0.3 -0.4,-0.9 -0.4,-1.4 v -0.1 h -0.1 l -0.1,0.1 0.1,0.1 v 0 0 c 0.1,0.1 0.2,0.1 0.3,0.1 v 0 -0.1 0.1 h 0.1 v 0 0 h 0.1 c 0.3,0 0.7,0.3 1,0.5 0.4,0.2 0.7,0.5 0.9,0.9 0.1,0.1 0.1,0.3 0.1,0.5 0,0.3 -0.1,0.5 -0.2,0.7 -0.1,0.2 -0.3,0.3 -0.5,0.3 -0.1,0 -0.2,0 -0.4,-0.1 -0.3,-0.2 -0.6,-0.5 -0.7,-0.9 h -0.1 l 0.1,0.1 0.1,-0.1 v 0 -0.2 -0.1 l -0.1,-0.1 v 0 -0.1 c 0,-0.2 0,-0.3 0.1,-0.5 0.1,-0.1 0.2,-0.2 0.3,-0.2 v 0 c 0.2,0 0.4,0.2 0.6,0.4 0.2,0.2 0.3,0.5 0.3,0.7 v 0.1 0.2 l -0.1,0.1 v 0 l -0.1,-0.1 c -0.1,-0.2 -0.2,-0.6 -0.2,-0.7 0,-0.1 -0.1,-0.2 -0.2,-0.2 h -0.1 l -0.1,0.2 v 0 h 0.3 -0.1 0.1 0.1 -0.1 0.1 v 0 h -0.1 0.1 -0.1 v 0 h 0.1 -0.1 v 0 0 0 0 0 0 0 0 0 0 0 0 0 0 0 0 c 0.1,0.1 0.1,0.3 0.2,0.5 0,0.1 0.1,0.2 0.1,0.3 0.1,0.1 0.2,0.2 0.3,0.2 v 0 c 0.1,0 0.2,-0.1 0.3,-0.2 0,-0.1 0.1,-0.2 0.1,-0.3 v -0.1 c 0,-0.3 -0.2,-0.6 -0.4,-0.8 -0.2,-0.3 -0.5,-0.5 -0.8,-0.5 v 0 c -0.2,0 -0.4,0.1 -0.5,0.3 -0.1,0.2 -0.1,0.4 -0.2,0.6 v 0.1 0.1 0.1 l 0.2,0.1 v 0 l -0.1,0.1 v 0 0.1 c 0.1,0.4 0.4,0.8 0.8,1 0.2,0.1 0.3,0.2 0.5,0.2 0.3,0 0.5,-0.2 0.7,-0.4 0.1,-0.2 0.2,-0.6 0.2,-0.9 0,-0.2 0,-0.4 -0.1,-0.6 -0.2,-0.4 -0.6,-0.7 -1,-0.9 -0.3,-0.2 -0.7,-0.5 -1.1,-0.5 h -0.1 v 0.1 -0.1 h -0.1 v 0 0 0 c -0.1,0 -0.2,0 -0.2,-0.1 l -0.1,0.1 0.1,-0.1 -0.1,-0.1 -0.2,-0.1 v 0.2 0.1 c 0,0.6 0.1,1.2 0.5,1.6 l 0.2,0.2 v -0.3 0 c 0,-0.3 0.1,-0.6 0.3,-0.7 0.1,0 0.2,-0.1 0.3,-0.1 0.4,0 0.8,0.4 1,0.7 0.1,0.1 0.2,0.4 0.2,0.7 0,0.2 -0.1,0.3 -0.2,0.4 h -0.1 l -0.2,-0.1 c -0.2,-0.2 -0.2,-0.6 -0.3,-0.9 v 0 0 z m -2,2.9 h 0.1 c 0,-0.1 0,-0.2 0,-0.3 0,-0.7 -0.4,-1.3 -0.5,-1.9 h -0.1 l -0.1,0.1 c 0.4,0.3 0.9,0.6 1.4,0.7 v -0.1 h -0.1 c 0.2,0.9 1.1,1.5 1.8,2.1 h 0.1 c 0.1,0 0.2,-0.1 0.2,-0.2 L 1467,513 c -0.6,-0.4 -1.4,-1.1 -1.6,-1.8 h -0.1 0.1 v -0.1 h -0.1 0.1 V 511 c 0,-0.1 0,-0.3 0.1,-0.4 l -0.1,-0.1 h -0.1 c 0.2,0.5 0.7,1.1 1.4,1.2 h 0.1 c 0.3,0 0.5,-0.2 0.7,-0.4 0.2,-0.2 0.3,-0.5 0.3,-0.7 v -0.2 c 0,-0.6 -0.3,-1.1 -0.8,-1.5 -0.3,-0.2 -0.7,-0.6 -1.2,-0.7 v 0.1 0.1 c 0.5,-0.2 0.9,-0.4 1.5,-0.5 0.1,0 0.3,0 0.4,0 1,0 2,0.5 2.5,1.5 l 0.1,-0.1 -0.1,-0.1 c -0.1,0.1 -0.2,0.1 -0.2,0.1 -0.9,0.6 -1.8,1.4 -2.4,2.3 -0.4,0.7 -0.6,1.5 -0.6,2.3 0,0.2 0,0.4 0,0.5 v 0.1 h 0.1 l 0.1,-0.1 c -0.4,-0.2 -0.8,-0.7 -1.1,-1.1 -0.4,-0.4 -0.8,-0.8 -1.4,-0.8 -0.1,0 -0.2,0 -0.4,0 v 0.3 h 0.1 -0.1 v 0.1 c 0.1,0 0.2,0 0.3,0 0.5,0 0.8,0.3 1.2,0.7 0.4,0.4 0.7,0.8 1.2,1.1 l 0.2,0.1 v -0.3 c 0,-0.2 0,-0.3 0,-0.5 0,-0.8 0.2,-1.5 0.6,-2.1 0.6,-0.9 1.4,-1.7 2.3,-2.3 0.1,0 0.1,-0.1 0.2,-0.2 l 0.1,-0.1 v -0.1 c -0.5,-1 -1.6,-1.6 -2.7,-1.6 -0.1,0 -0.3,0 -0.4,0 -0.6,0.1 -1,0.3 -1.5,0.5 l -0.3,0.1 0.3,0.1 c 0.4,0.1 0.8,0.5 1.1,0.7 0.5,0.4 0.7,0.8 0.7,1.3 v 0.2 c 0,0.2 -0.1,0.5 -0.2,0.6 -0.1,0.2 -0.3,0.3 -0.5,0.3 h -0.1 c -0.5,0 -1,-0.5 -1.2,-1 l -0.1,-0.2 -0.1,0.2 c -0.1,0.2 -0.1,0.4 -0.1,0.5 v 0.2 0 0.1 0 0 c 0.2,0.8 1.1,1.5 1.7,1.9 v 0 0 0 0 0 0 0 0 0 0 0 0 0 0 0 0 0 0 0 0 c -0.7,-0.5 -1.5,-1.2 -1.7,-1.9 v -0.1 h -0.1 c -0.5,-0.2 -1,-0.4 -1.3,-0.7 l -0.2,-0.2 v 0.3 c 0.1,0.7 0.5,1.3 0.5,1.9 v 0.2 0.2 h 0.2 z m 3.8,3.2 0.1,-0.1 c -0.6,-0.3 -0.8,-1.1 -0.8,-1.9 0,-0.6 0.1,-1.1 0.2,-1.5 0.4,-1.3 1.7,-2.3 2.8,-3 0.1,-0.1 0.5,-0.3 0.9,-0.5 0.4,-0.2 0.8,-0.4 1.1,-0.4 h 0.2 l 0.1,-0.1 v -0.1 c -0.3,0.1 -0.5,0.3 -0.7,0.4 -0.4,0.2 -0.9,0.6 -1.1,1.1 -0.1,0.2 -0.1,0.7 -0.2,1.1 0,0.2 -0.1,0.4 -0.2,0.5 -0.1,0.1 -0.2,0.2 -0.2,0.2 -0.1,0 -0.2,0 -0.3,-0.2 l -0.1,-0.1 c -0.1,0 -0.2,0.1 -0.2,0.2 l 0.1,0.1 c 0.1,0.1 0.2,0.4 0.2,0.7 0,0.3 -0.1,0.6 -0.3,0.7 l 0.1,0.1 v -0.1 c -0.2,-0.1 -0.4,-0.1 -0.6,-0.1 v 0 c -0.1,0 -0.2,0.1 -0.2,0.2 l 0.1,0.2 c 0.2,0.1 0.4,0.2 0.5,0.2 h 0.2 v -0.1 0.1 c 0.3,0.1 0.4,0.3 0.4,0.5 v 0.1 h 0.1 l -0.1,-0.1 h -0.1 v 0 0 c -0.2,0.3 -0.3,0.7 -0.5,1.1 l 0.1,0.1 0.1,-0.1 h -0.1 c -0.1,0 -0.2,0.1 -0.2,0.2 v 0.1 0.1 h 0.1 l -0.1,-0.1 c -0.2,0.3 -0.4,0.4 -0.6,0.4 -0.1,0 -0.2,0 -0.4,-0.1 l -0.4,0.2 v 0.1 c 0.2,0.1 0.3,0.1 0.5,0.1 0.4,0 0.6,-0.2 0.8,-0.5 v 0 -0.1 0 0 0 0 0 0 0 0 0 0 0 0 0 0 0 0 0 0 0 0 l 0.1,0.1 0.1,-0.1 c 0.2,-0.4 0.4,-0.8 0.5,-1.1 l -0.1,-0.1 0.1,0.1 h 0.1 v 0 -0.1 -0.2 c 0,-0.4 -0.3,-0.6 -0.6,-0.8 v 0 0 h -0.1 c -0.1,0 -0.2,0 -0.4,-0.1 v 0 0 0 0 0 0 0 0 0 0 0 c 0.2,0 0.4,0 0.5,0.1 v 0 0 c 0.3,-0.2 0.4,-0.5 0.4,-0.9 0,-0.3 -0.1,-0.7 -0.3,-0.9 v 0 0 0 0 0 0 0 0 0 0 0 0 0 0 0 c 0.2,0.1 0.3,0.2 0.4,0.2 0.2,0 0.3,-0.1 0.4,-0.3 0.1,-0.3 0.2,-0.6 0.3,-0.9 0.1,-0.3 0.1,-0.6 0.2,-0.8 0.1,-0.4 0.6,-0.7 1,-1 0.2,-0.1 0.4,-0.3 0.7,-0.4 l 0.2,-0.1 -0.2,-0.1 c -0.1,-0.1 -0.2,-0.1 -0.3,-0.1 -0.3,0 -0.8,0.2 -1.2,0.4 -0.4,0.2 -0.7,0.5 -0.9,0.6 -1.1,0.7 -2.5,1.8 -2.9,3.1 -0.1,0.4 -0.3,1 -0.3,1.6 0,0.8 0.2,1.7 1,2.1 z m 5,-0.5 v 0 c -0.4,0.2 -0.7,0.3 -1.1,0.3 -0.2,0 -0.4,0 -0.6,-0.2 v 0 l -0.2,0.1 h -0.1 v 0.1 c 0,0.2 -0.1,0.5 -0.2,0.7 -0.1,0.2 -0.2,0.3 -0.4,0.3 h -0.2 c -0.4,-0.2 -0.6,-0.7 -0.8,-1.1 h -0.1 l 0.1,0.1 0.1,-0.1 v 0 0 c 0.2,-0.3 0.3,-0.6 0.4,-1 v 0 0 0 0 0 h 0.1 c 0.1,0 0.2,0 0.3,0 0.3,0 0.6,0 0.8,0 h 0.1 c 0.8,-0.1 1.7,-0.3 2.3,-1 0.4,-0.6 0.5,-1.3 0.6,-2 h -0.1 l -0.1,0.1 c 0.3,0.3 0.4,0.7 0.4,1.1 0,0.5 -0.2,1.1 -0.4,1.6 -0.2,0.3 -0.5,0.7 -0.8,1 h -0.1 v 0 0 h 0.1 c 0.4,-0.3 0.7,-0.7 0.9,-1.1 0.3,-0.5 0.5,-1.1 0.5,-1.7 0,-0.4 -0.1,-0.9 -0.4,-1.2 l -0.2,-0.2 v 0.3 c 0,0.7 -0.1,1.4 -0.5,1.9 -0.5,0.6 -1.3,0.9 -2.1,0.9 v 0 c -0.2,0 -0.5,0 -0.8,0 -0.1,0 -0.3,0 -0.4,0 -0.1,0 -0.2,0 -0.3,0.2 -0.1,0.3 -0.3,0.6 -0.4,0.9 l 0.1,0.1 -0.1,-0.1 -0.1,0.1 v 0 0.1 c 0.2,0.5 0.4,1 0.9,1.3 0.1,0 0.2,0.1 0.3,0.1 0.3,0 0.5,-0.2 0.6,-0.5 0.1,-0.2 0.2,-0.5 0.2,-0.7 h -0.1 v 0.1 l 0.1,-0.1 v -0.1 l -0.1,0.1 c 0.2,0.1 0.5,0.2 0.7,0.2 0.5,0 0.8,-0.2 1.1,-0.6 z m 4.7,-4.9 h -0.1 c -0.2,1.1 -0.9,2.4 -2,2.6 h -0.1 l -0.1,0.2 v 0 0 c 0.1,0.3 0.2,0.5 0.2,0.8 0,0.4 -0.2,0.7 -0.6,0.9 -0.3,0.2 -0.7,0.2 -1.1,0.2 -0.2,0 -0.4,0 -0.6,0 v 0.1 l 0.1,0.1 c 0.3,-0.3 0.6,-0.7 0.8,-1 0.3,-0.5 0.5,-1.2 0.5,-1.8 0,-0.3 0,-0.6 -0.1,-0.8 h -0.1 v 0.1 0 0 0 c 0.4,-0.1 0.7,-0.4 0.8,-0.7 0.2,-0.5 0.3,-1 0.4,-1.5 0.1,-0.5 0.3,-0.8 0.9,-1 0.1,0 0.2,-0.1 0.2,-0.2 0,-0.1 0,-0.2 -0.1,-0.2 -0.4,-0.2 -0.7,-0.5 -0.9,-0.8 l -0.1,0.1 v 0.1 h 0.1 v 0 h 0.1 v -0.1 0.1 c 0.8,0.3 1.5,0.9 1.8,1.6 h 0.1 v -0.1 0 0 c -0.1,0 -0.2,0.1 -0.2,0.2 0,0.1 0.1,0.2 0.2,0.2 v -0.1 0.1 h 0.1 v -0.1 h -0.1 c 0.1,0.2 0.1,0.4 0.1,0.7 0,0.1 0,0.2 0,0.3 h -0.2 0.1 c 0,-0.1 0,-0.2 0,-0.4 0,-0.3 0,-0.5 -0.1,-0.7 v -0.1 l -0.2,-0.1 v 0 0 0 0 0 0 0 0 0 0 0 0 0 0 0 0 0 0 0 0 0 0 0 h 0.2 l -0.1,-0.2 c -0.4,-0.8 -1.1,-1.4 -1.9,-1.7 v 0 h -0.1 -0.1 l -0.3,-0.1 0.1,0.2 c 0.2,0.4 0.6,0.7 1,0.9 v 0 0 0 0 0 0 0 0 0 0 c -0.4,0.1 -0.7,0.4 -0.8,0.7 -0.2,0.5 -0.3,1 -0.4,1.5 -0.1,0.5 -0.3,0.9 -0.8,1 v 0.1 -0.1 0 h -0.1 v 0.1 c 0.1,0.2 0.1,0.5 0.1,0.8 0,0.6 -0.2,1.2 -0.5,1.7 -0.2,0.3 -0.4,0.7 -0.7,1 l -0.2,0.2 h 0.2 c 0.2,0 0.4,0 0.6,0 0.4,0 0.8,-0.1 1.2,-0.2 0.5,-0.2 0.7,-0.7 0.7,-1.1 0,-0.3 -0.1,-0.6 -0.2,-0.9 h -0.1 0.1 l 0.1,-0.1 h -0.1 v 0.1 c 1.2,-0.2 2,-1.7 2.2,-2.8 z m 0.7,3.2 v 0.1 h 0.2 c 0.4,0 0.9,-0.1 1.2,-0.5 l -0.1,-0.1 h -0.1 c 0.1,0.2 0.1,0.4 0.2,0.6 h 0.1 v -0.1 h -0.1 v 0 0 c -0.3,0.1 -0.5,0.2 -0.8,0.2 -0.1,0 -0.3,0 -0.6,-0.2 v 0 0.1 -0.1 0 c 0.1,0.4 0.4,0.5 0.7,0.5 0.3,0 0.6,-0.1 0.8,-0.2 v -0.1 0.1 h 0.1 0.1 V 514 c -0.1,-0.2 -0.1,-0.4 -0.2,-0.6 l -0.1,-0.2 -0.1,0.1 c -0.3,0.3 -0.6,0.4 -1,0.4 h -0.2 -0.2 z m 3.8,6.8 h -0.1 v 0.3 h 0.1 v -0.1 c -0.1,0 -0.2,-0.1 -0.3,-0.1 -0.2,-0.1 -0.3,-0.2 -0.5,-0.4 l -0.1,0.1 v 0.1 c 0.3,0 0.5,-0.1 0.8,-0.3 l -0.1,-0.1 -0.1,0.1 c 0.2,0.1 0.2,0.2 0.3,0.4 l 0.1,-0.1 -0.1,-0.1 v 0.2 l -0.1,-0.1 v 0.1 h 0.1 v 0 h 0.2 l 0.1,-0.1 -0.1,-0.1 c -0.1,-0.1 -0.2,-0.3 -0.2,-0.4 l -0.1,-0.1 -0.1,0.1 c -0.2,0.1 -0.4,0.2 -0.7,0.2 h -0.2 l 0.1,0.2 c 0.2,0.2 0.3,0.3 0.6,0.5 0.1,0.1 0.2,0.1 0.4,0.2 h 0.1 v -0.5 z m 0.5,-4.5 v 0 c 0.1,0.3 0.3,0.5 0.3,0.8 v 0.1 c 0,0.3 -0.2,0.6 -0.3,0.8 l 0.1,0.1 -0.1,-0.1 v 0 l 0.1,0.1 0.1,-0.1 c -0.1,-0.3 -0.3,-0.5 -0.4,-0.8 l -0.1,0.1 0.1,0.1 c 0.2,-0.3 0.4,-0.6 0.4,-1 v 0 l -0.2,-0.1 v 0 0 h -0.1 v 0 c 0,0.3 -0.1,0.6 -0.3,0.9 v 0.1 0.1 c 0.1,0.3 0.3,0.5 0.4,0.8 l 0.1,0.1 0.1,-0.1 v 0 0 c 0.2,-0.2 0.4,-0.6 0.4,-1 v -0.2 c -0.1,-0.3 -0.3,-0.6 -0.6,-0.7 l -0.1,-0.3 v 0.3 z m -0.3,-5.7 v 0.1 c 0.2,-0.1 1,-0.3 1.6,-0.3 0.2,0 0.4,0 0.5,0.1 0.1,0.1 0.2,0.1 0.2,0.3 v 0.1 l 0.2,0.1 0.1,-0.1 h -0.1 v 0.2 c 0,0.7 -0.4,1.6 -1,2.2 -0.6,0.6 -1.4,1.1 -2.2,1.1 -0.2,0 -0.3,0 -0.5,-0.1 v 0.1 h 0.1 v 0 h -0.1 v 0.1 h 0.2 0.1 v -0.1 c 0.6,-1.1 1.4,-2.1 2.2,-3 l 0.1,-0.1 c 0,-0.1 -0.1,-0.2 -0.2,-0.2 l -0.1,0.1 c -0.8,0.9 -1.6,2 -2.3,3.1 v 0 0.1 h 0.1 0.1 v -0.1 h -0.1 0.1 c 0,-0.1 0,-0.3 0,-0.4 0,-0.2 0,-0.3 0,-0.5 0,-0.6 0,-1.1 0.2,-1.6 0.2,-0.5 0.4,-0.8 1,-1 l -0.2,-0.2 v -0.1 c -0.6,0.2 -0.9,0.7 -1.1,1.2 -0.2,0.5 -0.2,1.1 -0.2,1.7 0,0.2 0,0.3 0,0.5 0,0.1 0,0.3 0,0.4 v 0 0.1 l 0.1,0.3 0.1,-0.4 h -0.1 l 0.1,0.1 c 0.6,-1.1 1.4,-2.1 2.2,-3 v 0 0 0 0 0 0 0 0 0 0 0 0 0 0 0 0 0 0 0 0 c -0.8,0.9 -1.6,1.9 -2.2,3 l 0.1,0.1 v -0.1 h -0.2 -0.2 l 0.1,0.2 v 0.1 h 0.1 c 0.2,0.1 0.4,0.1 0.6,0.1 0.8,0 1.7,-0.5 2.3,-1.2 0.6,-0.7 1.1,-1.5 1.1,-2.4 v -0.2 -0.1 l -0.2,-0.1 -0.1,0.1 h 0.1 c 0,-0.2 -0.1,-0.4 -0.3,-0.5 -0.2,-0.1 -0.4,-0.1 -0.6,-0.1 -0.7,0 -1.5,0.2 -1.7,0.3 z m -2.5,-0.3 v 0 c 0.1,0.3 0.2,0.5 0.2,0.7 0,0.2 0,0.3 -0.1,0.5 h 0.1 0.1 c -0.1,-0.2 -0.2,-0.4 -0.3,-0.6 l -0.1,0.1 h 0.1 c 0.1,-0.2 0.1,-0.4 0.1,-0.6 V 510 l -0.1,0.1 v 0 0 h -0.1 v 0.2 c 0,0.2 0,0.3 -0.1,0.5 v 0 0 c 0.1,0.2 0.2,0.4 0.3,0.6 l 0.1,0.3 0.1,-0.3 c 0,-0.2 0.1,-0.4 0.1,-0.6 0,-0.3 -0.1,-0.6 -0.4,-0.7 l -0.1,-0.3 v 0.3 z m -1,-4.8 v 0 c 0,0.1 0,0.3 0,0.4 0,0.1 0,0.2 0,0.3 0,0.4 -0.1,0.8 -0.1,1.1 -0.1,0.5 -0.1,1 -0.1,1.5 v 0.2 h 0.1 l 0.1,-0.1 c -0.2,-0.2 -0.3,-0.7 -0.4,-1.1 -0.1,-0.5 -0.2,-1.1 -0.3,-1.6 v -0.1 c 0,-1 0.4,-1.9 0.6,-2.8 h -0.1 l -0.1,0.1 c 0.5,1 1.2,1.8 1.4,2.9 0.1,0.3 0.1,0.6 0.1,0.9 0,0.7 -0.2,1.5 -0.7,1.9 l -0.2,0.1 -0.2,0.1 v 0 0 0 0 0 0 0 0 0 0 0 0 -0.2 c 0,-0.1 0,-0.2 0,-0.3 0,-0.5 0.1,-0.9 0.1,-1.4 0,-0.3 0.1,-0.8 0.1,-1.2 0,-0.3 0,-0.6 -0.2,-0.8 l -0.2,-0.1 c -0.1,0 -0.2,0.1 -0.2,0.2 h 0.3 v 0 0 0 0 0 0 0 0 0 0 0 0 0 0 0 0 0 c 0.2,0.1 0.2,0.3 0.2,0.6 0,0.4 -0.1,0.9 -0.1,1.2 -0.1,0.5 -0.1,0.9 -0.1,1.4 0,0.1 0,0.2 0,0.3 v 0.2 l 0.1,0.1 0.1,0.1 c 0.1,0 0.2,-0.1 0.3,-0.1 0.1,-0.1 0.2,-0.1 0.2,-0.2 0.5,-0.5 0.7,-1.3 0.7,-2.1 0,-0.3 0,-0.6 -0.1,-0.9 -0.2,-1.1 -0.9,-2 -1.4,-2.9 l -0.1,-0.3 -0.1,0.3 c -0.3,0.9 -0.7,1.9 -0.7,2.9 v 0.1 c 0,0.6 0.1,1.1 0.3,1.7 0.1,0.3 0.2,0.9 0.5,1.2 l 0.2,0.2 v -0.3 -0.2 c 0,-0.5 0.1,-1 0.1,-1.5 0,-0.4 0.1,-0.8 0.1,-1.1 0,-0.1 0,-0.2 0,-0.3 0,-0.1 0,-0.3 -0.2,-0.4 z m 0.7,5.4 h -0.1 l -0.1,0.2 h 0.1 -0.1 v 0.1 l 0.1,0.1 h 0.1 l 0.2,-0.1 -0.1,-0.1 -0.1,0.1 c 0.1,0.2 0.2,0.4 0.3,0.6 h 0.1 -0.1 l -0.1,0.2 v 0.1 c 0,0.1 0.1,0.2 0.2,0.2 l 0.2,-0.1 -0.1,-0.1 h -0.1 c 0.3,0.7 0.6,1.5 0.8,2.2 h 0.1 -0.1 v 0.1 0 0 0 l 0.1,0.2 v 0.1 h 0.1 v -0.1 h -0.1 c 0.1,0.2 0.2,0.5 0.3,0.7 0.7,1.8 1.6,3.6 2.5,5.3 0.7,1.3 1.4,2.6 2.7,3.3 l 0.1,-0.1 v -0.1 h -0.2 c -1.4,0 -2.5,-1.2 -3.3,-2.3 -0.3,-0.4 -0.5,-0.8 -0.8,-1.2 l -0.1,0.1 0.1,0.1 0.1,-0.1 v 0 0 l 0.1,-0.2 c 0,-0.1 -0.1,-0.2 -0.2,-0.2 h -0.1 l 0.1,0.1 -0.1,-0.1 -0.1,0.1 0.1,0.1 0.1,-0.1 c -0.5,-0.8 -0.8,-1.7 -1.1,-2.6 -0.3,-0.9 -0.4,-1.8 -0.7,-2.8 -0.1,-0.4 -0.2,-0.8 -0.4,-1.2 h -0.1 l 0.1,0.1 0.1,-0.1 0.1,-0.1 c 0,-0.1 -0.1,-0.2 -0.2,-0.2 l -0.1,0.1 v 0 l 0.1,0.1 h 0.1 c -0.1,-0.3 -0.2,-0.5 -0.3,-0.8 -0.3,-0.6 -0.6,-1.3 -0.9,-1.9 -0.2,-0.3 -0.5,-0.8 -0.9,-1 l -0.1,0.1 h 0.1 c -0.3,-0.7 -0.9,-1.4 -1.6,-1.8 l -0.1,0.1 v 0.1 c 1.5,0.2 2.5,1.4 3.3,2.8 v 0 h -0.1 0.1 l 0.1,-0.1 c -0.8,-1.5 -1.8,-2.8 -3.5,-3 l -0.6,-0.1 0.5,0.3 c 0.7,0.4 1.2,1 1.5,1.6 v 0 0 c 0.3,0.2 0.6,0.6 0.8,0.9 0.4,0.6 0.6,1.2 0.9,1.9 0.1,0.2 0.2,0.5 0.3,0.7 l 0.1,0.2 0.1,-0.2 v 0 0 0 0 0 0 0 0 0 0 0 0 0 0 0 0 0 0 0 0 l -0.1,0.1 v 0.1 0.1 c 0.2,0.4 0.3,0.8 0.4,1.2 0.2,0.9 0.4,1.9 0.7,2.8 0.3,0.9 0.7,1.8 1.2,2.7 l 0.1,0.1 0.2,-0.2 v 0 0 0 0 0 0 0 0 0 0 0 0 0 0 0 0 0 0 0 0 0 l 0.1,0.1 -0.1,-0.1 -0.1,0.1 -0.1,0.1 0.1,0.1 c 0.2,0.4 0.5,0.8 0.8,1.2 0.8,1.1 1.9,2.4 3.4,2.4 h 0.2 0.4 l -0.4,-0.2 c -1.2,-0.6 -2,-2 -2.6,-3.2 -0.9,-1.7 -1.8,-3.5 -2.5,-5.3 -0.1,-0.2 -0.2,-0.5 -0.3,-0.7 v -0.1 h -0.1 v -0.1 h -0.1 0.1 v 0 h -0.1 0.1 v -0.1 0 0 c -0.2,-0.7 -0.5,-1.5 -0.8,-2.2 l -0.1,-0.2 -0.1,0.2 v 0 0 0 0 0 0 0 0 0 0 0 0 0 0 0 l 0.1,-0.2 v 0 0 c -0.1,-0.2 -0.2,-0.4 -0.3,-0.6 l -0.1,-0.2 -0.1,0.1 v 0 0 0 0 0 0 0 0 0 0 0 0 0 0 0 0 0 0 0 0 0 l 0.1,-0.2 v 0 0 z"
               clip-path="url(#SVGID_48_)"
               id="path10125"
               style="fill:#010002" />
            <path
               class="st110"
               d="m 1480.5,517.2 c -1,0 -1.8,0.9 -2.4,1.6 -0.5,0.5 -1,0.9 -1.4,1.5 -0.4,0.6 -0.7,1.3 -1.2,1.9 l 0.1,0.1 c 0.4,-0.4 0.6,-0.9 0.9,-1.4 0.4,-0.7 0.9,-1.2 1.4,-1.7 0.7,-0.7 1.5,-1.8 2.6,-1.8 0.1,0 0.1,-0.2 0,-0.2 z"
               clip-path="url(#SVGID_48_)"
               id="path10127"
               style="clip-rule:evenodd;fill:#3a4057;fill-rule:evenodd" />
            <path
               class="st111"
               d="m 1480.5,517.2 v -0.1 h -0.1 c -1.1,0 -1.8,1 -2.4,1.6 -0.5,0.5 -1,0.9 -1.4,1.5 -0.5,0.6 -0.7,1.3 -1.2,1.8 l -0.1,0.1 0.2,0.2 0.1,0.1 0.1,-0.1 c 0.4,-0.4 0.7,-0.9 0.9,-1.4 0.4,-0.6 0.9,-1.1 1.4,-1.6 0.7,-0.7 1.4,-1.8 2.4,-1.8 h 0.1 v 0 l 0.2,-0.1 v -0.1 c 0,-0.1 -0.1,-0.2 -0.2,-0.2 v 0.1 0.1 -0.1 0.1 0 -0.1 0.1 -0.1 0 0.1 -0.1 0 0 0 0 0 0 0.1 -0.1 0 0.1 -0.1 0 0 c -1.2,0.1 -2,1.3 -2.6,1.9 -0.5,0.5 -1.1,1 -1.5,1.7 -0.3,0.5 -0.5,1 -0.9,1.3 l 0.1,0.1 0.1,-0.1 -0.1,-0.1 -0.1,0.1 0.1,0.1 c 0.6,-0.6 0.8,-1.3 1.2,-1.9 0.4,-0.5 0.9,-1 1.4,-1.4 0.7,-0.7 1.3,-1.6 2.3,-1.5 h 0.1 z"
               clip-path="url(#SVGID_48_)"
               id="path10129"
               style="fill:#010002" />
          </g>
          <path
             class="st36"
             d="m 1440.7,467.8 -29.4,-0.9 c -0.1,0.4 1.6,19.2 2.2,21.5 1.2,3.1 6.4,25.4 12.4,25.5 6.3,0.2 13.4,-21.9 14.5,-26.6 z"
             id="path10133"
             style="clip-rule:evenodd;fill:#f0d6ac;fill-rule:evenodd" />
          <path
             class="st36"
             d="m 1468.6,443.8 c 0.6,-6.1 -0.6,-19.4 0,-25.4 2.3,-1.6 13.3,-3.3 16.2,4.3 3.5,10.5 -4.5,18.3 -7.5,20.5 -3.3,1.2 -7.5,1 -8.7,0.6 z"
             id="path10135"
             style="clip-rule:evenodd;fill:#f0d6ac;fill-rule:evenodd" />
          <path
             class="st36"
             d="m 1467,366.2 c -10.6,-23.7 -80,-23.9 -90.7,5.1 -5.6,27.1 -6,56.4 0.7,77.7 6.3,15.6 18.9,24.4 30.4,30.7 26.8,14.6 56.4,-6.5 63.2,-35.1 3.5,-26.8 5.5,-52.6 -3.6,-78.4 z"
             id="path10137"
             style="clip-rule:evenodd;fill:#f0d6ac;fill-rule:evenodd" />
          <path
             class="st36"
             d="m 1377.3,445.1 c -0.6,-6 0.6,-19.1 0,-25 -2.3,-1.6 -13.3,-3.3 -16.2,4.2 -3.5,10.3 4.5,18 7.5,20.2 3.3,1.1 7.5,0.9 8.7,0.6 z"
             id="path10139"
             style="clip-rule:evenodd;fill:#f0d6ac;fill-rule:evenodd" />
          <path
             class="st77"
             d="m 1415.9,405 c -10.2,15.4 -22.9,32.3 -42.6,32.3 0.9,0 18.2,-19.8 12.7,-20.3 -2.1,-0.2 -5.7,6.1 -12.4,9.2 -13.7,6.3 0.9,3.4 -2.3,-10.3 -7.9,-34.3 0.6,-76.2 43.4,-76.2 22.4,-0.1 8.8,53.8 1.2,65.3 z"
             id="path10141"
             style="clip-rule:evenodd;fill:#7a551f;fill-rule:evenodd" />
          <path
             class="st77"
             d="m 1433.9,402.4 c 9.9,15 22.2,31.3 41.3,31.3 -0.9,0 -17.6,-19.2 -12.3,-19.7 2,-0.2 5.5,5.9 12,8.9 13.3,6.1 -0.9,3.3 2.2,-10 7.7,-33.3 -0.6,-73.9 -42,-73.9 -21.7,0 -8.6,52.3 -1.2,63.4 z"
             id="path10143"
             style="clip-rule:evenodd;fill:#7a551f;fill-rule:evenodd" />
          <path
             class="st77"
             d="m 1420.7,451.2 c 5.6,1.6 4.1,8.8 -0.1,9.7 -2.2,0.5 -26.3,5.5 -27.3,5.4 -3.1,-0.2 -1.7,-2.7 -1.2,-3.2 0.9,-0.8 3.4,-1.3 6.2,-2.6 5.4,-2.6 16.7,-10.2 22.4,-9.3 z"
             id="path10145"
             style="clip-rule:evenodd;fill:#7a551f;fill-rule:evenodd" />
          <path
             class="st77"
             d="m 1429.2,451 c -5.6,1.6 -4.1,8.8 0.1,9.7 2.2,0.5 26.3,5.5 27.3,5.4 3.1,-0.2 1.7,-2.7 1.1,-3.2 -0.9,-0.8 -3.4,-1.3 -6.2,-2.6 -5.3,-2.6 -16.6,-10.2 -22.3,-9.3 z"
             id="path10147"
             style="clip-rule:evenodd;fill:#7a551f;fill-rule:evenodd" />
          <path
             class="st77"
             d="m 1398.7,474.6 c -1.8,-0.7 10.9,8.4 12.7,9.5 4.7,2.8 10.9,3.1 15.1,3.2 16.4,0.3 27.8,-14.7 26.1,-13.7 -6.7,3.7 -15.4,4.9 -20.7,4.1 -4,-0.6 -3.2,-4.5 -3,-5.8 0.4,-2.4 4,-2.5 3.8,-4.7 -0.1,-1 -14.3,-1.6 -14.5,0.4 0.1,1.3 3.5,2.7 4,3.9 1.3,3 -0.3,5.4 -2.1,6.2 -5.8,2.8 -16.2,-1.1 -21.4,-3.1 z"
             id="path10149"
             style="clip-rule:evenodd;fill:#7a551f;fill-rule:evenodd" />
          <path
             class="st24"
             d="m 1429.9,427.1 c 7.5,-9.6 26.9,-6.7 33.1,2.7 4.7,7.3 1.1,24.6 -13.2,23.4 -14.4,-1.3 -26,-18.3 -19.9,-26.1 z"
             id="path10151"
             style="clip-rule:evenodd;fill:#010002;fill-rule:evenodd" />
          <path
             class="st112"
             d="m 1461.4,435.8 c 0,1.1 0.7,2 1.6,2 h 3.6 c 0.9,0 1.6,-0.9 1.6,-2 0,-1.1 -0.7,-2 -1.6,-2 h -3.6 c -0.9,0 -1.6,0.9 -1.6,2 z"
             id="path10153"
             style="clip-rule:evenodd;fill:#838587;fill-rule:evenodd" />
          <path
             class="st24"
             d="m 1418.3,427.1 c -7.5,-9.6 -26.9,-6.7 -33.1,2.7 -4.7,7.3 -1.1,24.6 13.2,23.4 14.4,-1.3 26,-18.3 19.9,-26.1 z"
             id="path10155"
             style="clip-rule:evenodd;fill:#010002;fill-rule:evenodd" />
          <path
             class="st112"
             d="m 1386.9,435.8 c 0,1.1 -0.7,2 -1.6,2 h -3.6 c -0.9,0 -1.6,-0.9 -1.6,-2 0,-1.1 0.7,-2 1.6,-2 h 3.6 c 0.8,0 1.6,0.9 1.6,2 z"
             id="path10157"
             style="clip-rule:evenodd;fill:#838587;fill-rule:evenodd" />
          <path
             class="st112"
             d="m 1436.7,422.4 c -0.2,0 -3.8,-1 -12.6,-1 -8.8,0 -12.5,1 -12.6,1 l 0.5,1.9 c 0,0 3.6,-0.9 12.1,-1 8.5,0 12.1,0.9 12.2,1 z"
             id="path10159"
             style="clip-rule:evenodd;fill:#838587;fill-rule:evenodd" />
          <path
             class="st112"
             d="m 1429.5,427.5 c -0.9,-1.1 -2.6,-2.4 -5.4,-2.5 -2.8,0 -4.5,1.4 -5.4,2.5 -1,1.2 -1.3,2.4 -1.3,2.5 l 2,0.5 c 0,-0.1 0.8,-3.3 4.7,-3.4 3.8,0.1 4.6,3.3 4.7,3.4 l 2,-0.5 c 0,-0.2 -0.3,-1.3 -1.3,-2.5 z"
             id="path10161"
             style="clip-rule:evenodd;fill:#838587;fill-rule:evenodd" />
          <path
             class="st24"
             d="m 1404.1,422.7 c 2.7,0 5.3,0.5 7.4,1.3 2.3,0.9 4.2,2.3 5.5,4 0.9,1.1 1.3,2.5 1.3,4.1 0,1.6 -0.4,3.5 -1.2,5.4 -1.5,3.4 -4.1,6.7 -7.3,9.2 -3.5,2.8 -7.5,4.4 -11.4,4.7 -0.4,0 -0.8,0.1 -1.3,0.1 -2.4,0 -4.5,-0.6 -6.3,-1.7 -1.6,-1 -3,-2.5 -4,-4.4 -1.3,-2.3 -2,-5.1 -2,-7.9 0,-2.7 0.6,-5.1 1.7,-6.8 1.5,-2.3 4,-4.3 7.2,-5.8 3.3,-1.4 6.9,-2.2 10.4,-2.2 z m 0,-1.6 v 0 c -7.5,0 -15.3,3.3 -18.8,8.6 -4.6,7.1 -1.3,23.4 11.9,23.4 0.5,0 0.9,0 1.4,-0.1 14.3,-1.2 25.9,-18.3 19.8,-26.1 -3.3,-4 -8.7,-5.8 -14.3,-5.8 z"
             id="path10163"
             style="clip-rule:evenodd;fill:#010002;fill-rule:evenodd" />
          <path
             class="st24"
             d="m 1444.1,422.7 c 3.5,0 7.1,0.8 10.3,2.2 3.2,1.4 5.7,3.4 7.2,5.8 1.1,1.7 1.7,4.1 1.7,6.8 0,2.8 -0.7,5.6 -2,7.9 -1,1.9 -2.4,3.4 -4,4.4 -1.8,1.2 -3.9,1.7 -6.3,1.7 -0.4,0 -0.8,0 -1.2,-0.1 -3.9,-0.3 -7.9,-2 -11.4,-4.7 -3.2,-2.5 -5.8,-5.8 -7.3,-9.2 -0.8,-1.9 -1.3,-3.8 -1.3,-5.4 0,-1.6 0.5,-3 1.3,-4.1 1.4,-1.7 3.2,-3.1 5.5,-4 2.3,-0.8 4.9,-1.3 7.5,-1.3 z m 0,-1.6 v 0 c -5.6,0 -11,1.8 -14.2,6 -6.1,7.8 5.5,24.9 19.8,26.1 0.5,0 0.9,0.1 1.4,0.1 13.2,0 16.4,-16.4 11.9,-23.4 -3.5,-5.5 -11.4,-8.8 -18.9,-8.8 z"
             id="path10165"
             style="clip-rule:evenodd;fill:#010002;fill-rule:evenodd" />
        </g>
      </g>
    </g>
  </g>
</svg>
